<svg xmlns="http://www.w3.org/2000/svg" xmlns:xlink="http://www.w3.org/1999/xlink" width="48" height="48" viewBox="0 0 48 48"><defs><linearGradient id="b" x1="906.952" x2="931.379" y1="515.915" y2="546.094" gradientTransform="translate(-660.712 -90.283) scale(1.53785)" gradientUnits="userSpaceOnUse" xlink:href="#a"/><linearGradient id="a"><stop offset="0" stop-color="#ffd800"/><stop offset="1" stop-color="#ff6100"/></linearGradient></defs><g fill="#fff" transform="rotate(-45 -1212.281 527.414)"><rect width="48" height="48" x="728.007" y="702.736" fill="url(#b)" rx="10.144" ry="10.144" transform="rotate(45)"/><path fill-rule="evenodd" d="m 22.79434,1032.1711 c -0.716176,-0.7162 -1.70668,-1.1589 -2.804632,-1.1585 -2.195821,7e-4 -3.963607,1.7685 -3.964395,3.9645 l -0.0014,0.7929 -0.0014,7.3613 -0.08218,0.014 -0.753014,0.1181 -0.753078,0.1183 -0.753008,0.1181 1.185899,1.1859 c -0.07401,0.4897 -0.404967,2.1749 -1.686094,3.456 -0.675425,0.6755 -1.614062,0.7405 -2.694693,0.7737 -1.0806167,0.033 -2.3121076,0.012 -3.2004325,0.9 -0.8017857,0.8018 -1.0112239,1.6559 -1.1281568,2.4172 -0.1168838,0.7612 0.1107294,1.1601 -0.3643617,1.983 -0.3711287,0.5848 0.542094,1.1107 0.861547,0.4961 0.5806686,-1.0056 0.3757313,-1.6156 0.485333,-2.3294 0.1096793,-0.7139 0.2204283,-1.2346 0.8492067,-1.8633 0.5423102,-0.5423 1.4316136,-0.5765 2.5284683,-0.6101 1.096856,-0.034 2.391372,-0.089 3.366657,-1.0636 1.121065,-1.121 1.590915,-2.4458 1.81114,-3.331 l 0.595007,0.595 0.118149,-0.753 0.166289,-1.5761 0.01351,-0.083 2.626026,0 0.0055,-1.2999 0.0028,-0.6542 c 0.0087,-2.3446 1.927719,-4.2636 4.272274,-4.2722 1.172391,0 2.237663,0.4733 3.0094,1.245 0.704081,0.704 1.114107,1.6682 1.185856,2.7195 0.195466,0.013 0.382594,0.054 0.570313,0.091 0.275658,-0.5406 0.446378,-1.1454 0.446568,-1.796 7.88e-4,-2.1959 -1.767179,-3.9638 -3.963064,-3.963 l -0.792851,0 -4.2e-5,-0.7942 c 4.36e-4,-1.098 -0.44087,-2.0871 -1.157053,-2.8033 z m -1.052573,0.7859 c 0.480883,0.469 -0.234537,1.1845 -0.703567,0.7036 -0.371955,-0.3719 -0.919289,-0.5139 -1.449744,-0.3641 -0.530455,0.1498 -0.953651,0.5729 -1.103406,1.1034 -0.180519,0.6384 -1.138175,0.3678 -0.957802,-0.2707 0.244399,-0.8657 0.924819,-1.5461 1.79051,-1.7906 0.865621,-0.2442 1.793936,-0.012 2.424009,0.6184 z m 7.974232,10.3598 c -0.588344,-0.5883 -1.403258,-0.9488 -2.308617,-0.9454 l -0.6541,0 0.0028,-0.6541 c 0.0034,-0.9054 -0.3596,-1.7201 -0.948163,-2.3086 -0.588562,-0.5886 -1.403231,-0.9515 -2.308582,-0.9481 -1.810632,0.01 -3.274756,1.4708 -3.281441,3.2814 l -0.0014,0.6528 -0.02197,5.8978 -0.567539,-0.015 -0.596344,-0.014 -0.596409,-0.014 0.882212,0.8822 c -0.07862,0.4614 -0.374488,1.7679 -1.370037,2.7635 -0.533937,0.5339 -1.275963,0.5908 -2.165695,0.6211 -0.889725,0.03 -1.936557,0.013 -2.70021,0.7764 -0.677747,0.6777 -0.862693,1.4098 -0.961869,2.0419 -0.0991,0.6321 -0.1425,1.1769 -0.527675,1.8414 -0.382357,0.5863 0.542813,1.1213 0.86021,0.4974 0.490372,-0.846 0.559554,-1.5999 0.651335,-2.1848 0.09171,-0.5849 0.175702,-0.9865 0.681568,-1.4924 0.419959,-0.4199 1.123689,-0.4542 2.029617,-0.485 0.905936,-0.031 2.004458,-0.081 2.836287,-0.9125 0.880163,-0.8801 1.282702,-1.906 1.486836,-2.6466 l 0.737922,0.7379 -0.01371,-0.5964 -0.01379,-0.5964 -0.01509,-0.5675 5.896483,-0.023 0.652763,0 c 1.81064,-0.01 3.274765,-1.4708 3.281441,-3.2814 0.0034,-0.9053 -0.358411,-1.7216 -0.946763,-2.31 z m -5.05686,-3.2183 c 0.480883,0.469 -0.234537,1.1845 -0.703567,0.7036 -0.170904,-0.171 -0.432715,-0.2384 -0.713234,-0.1526 -0.28052,0.086 -0.517341,0.3228 -0.60324,0.6033 -0.178769,0.6623 -1.173685,0.3576 -0.950949,-0.2912 0.185024,-0.6043 0.660003,-1.0793 1.264241,-1.2643 0.604238,-0.185 1.26377,-0.042 1.706749,0.4012 z" color="#000" font-family="sans-serif" font-weight="400" overflow="visible" white-space="normal" style="line-height:normal;text-indent:0;text-align:start;text-decoration-line:none;text-decoration-style:solid;text-decoration-color:#000;text-transform:none;block-progression:tb;isolation:auto;mix-blend-mode:normal"/></g></svg>