<svg xmlns="http://www.w3.org/2000/svg" xmlns:xlink="http://www.w3.org/1999/xlink" width="48" height="48" viewBox="0 0 48 48"><defs><linearGradient id="b" x1="949.87" x2="974.39" y1="518.014" y2="544.657" gradientTransform="translate(-726.346 -90.283) scale(1.53785)" gradientUnits="userSpaceOnUse" xlink:href="#a"/><linearGradient id="a"><stop offset="0" stop-color="#24f7bc"/><stop offset="1" stop-color="#24c4fc"/></linearGradient></defs><g fill="#fff" transform="rotate(-45 -1212.281 527.414)"><rect width="48" height="48" x="728.007" y="702.736" fill="url(#b)" rx="10.144" ry="10.144" transform="rotate(45)"/><path d="m 27.233847,1033.7867 0.597972,2.5923 2.592296,0.598 -3.190268,-3.1903 z m -1.241622,-0.9377 -1.224936,0.4073 0.276196,3.0412 0.19886,0 c 0.03684,0 0.07375,0 0.110379,1e-4 l 1.433567,-1e-4 -0.794151,-3.4485 z m 5.372356,5.3723 -3.448524,-0.7968 7e-6,1.3838 c 0.01775,0.076 0.01669,0.1553 -0.0013,0.2306 l -1.42e-4,0.13 3.041125,0.2761 0.408729,-1.2235 z m -7.938362,-4.958 -1.689045,0.1671 c -0.03281,0 -0.06527,0 -0.09786,0 -0.01202,0.015 -0.02546,0.028 -0.03889,0.042 l -1.549554,1.5054 0.749965,1.2001 c 0.15883,0.255 0.05947,0.5912 -0.212684,0.7182 l -1.752642,0.8162 -1.596484,8.4715 c -0.005,0.01 -0.0021,0.012 -0.0042,0.018 l 1.711156,-3.5756 c 0.01534,-0.092 0.05664,-0.1784 0.118723,-0.2486 l 4.361413,-9.115 z m 7.514388,7.5144 -9.101292,4.3559 c -0.05798,0.045 -0.124592,0.077 -0.19608,0.094 l -3.636403,1.7415 0.01273,0 8.472822,-1.5951 0.816207,-1.7526 c 0.126939,-0.2721 0.463437,-0.3718 0.718158,-0.2127 l 1.207039,0.7541 1.45169,-1.4375 c 0.01126,-0.011 0.02226,-0.022 0.03465,-0.032 -0.04808,0.04 0.0057,-0.011 0.02588,-0.062 0.02093,-0.051 0.02213,-0.1256 0.02729,-0.06 -0.004,-0.032 -0.0058,-0.064 -0.003,-0.096 l 0.169868,-1.6918 z m -4.020319,-3.4817 -1.009565,0 0.169883,0.8466 0.839682,0.1685 0,-1.0138 z m -3.030066,-2.682 -2.890539,6.0394 3.77583,-3.3588 -0.185092,10e-5 c -0.258674,2e-4 -0.475226,-0.1965 -0.49839,-0.4546 l -0.201667,-2.2262 z m 5.691185,5.7082 -2.206973,-0.2016 c -0.257592,-0.024 -0.454266,-0.2403 -0.454549,-0.4984 l -0.0014,-0.1864 -3.343541,3.7606 6.006271,-2.874 z m -9.105372,-7.1498 c -3.159714,-0.8281 -5.07014,-1.5225 -6.322539,-1.696 -0.681453,-0.094 -1.163919,-0.053 -1.668355,0.1603 -0.504047,0.2135 -1.049813,0.6274 -1.751171,1.3285 -4.2265897,4.2589 -6.8244997,6.8273 -10.5402753,10.546 l 2.8298056,2.8298 7.9384057,-7.9384 c 0.192404,-0.1981 0.508799,-0.2033 0.7071,-0.011 0.199588,0.1996 0.202741,0.5217 7e-6,0.7182 l -8.2104297,8.2104 -1.8478818,1.8479 0,0 a 1,1 0 0 0 -0.2913491,0.7056 1,1 0 0 0 0.2913841,0.7058 1,1 0 0 0 0.0014,0 l 0,0 0.5137558,0.5138 3.92085,3.9208 c 0.682769,0.6828 1.760286,0.6842 2.443139,0 l 2.3146447,-2.3147 c 0.0082,-0.01 0.01668,-0.017 0.02475,-0.025 l 4.688754,-4.6888 c 0.01987,-0.054 0.159969,-0.4368 0.331456,-0.906 0.173963,-0.476 0.338174,-0.9282 0.418431,-1.1283 l 1.60755,-8.5211 c 0.0061,-0.032 0.01549,-0.064 0.02765,-0.094 0.09454,-0.2339 0.275567,-0.4246 0.504097,-0.5317 l 1.249853,-0.5814 -0.667056,-1.062 c -0.125017,-0.2 -0.09248,-0.4605 0.07734,-0.6243 l 1.411456,-1.37 z m 10.566827,10.6022 -1.388121,1.3739 c -0.165004,0.1643 -0.421577,0.1929 -0.618768,0.069 l -1.062004,-0.6643 -0.581419,1.2499 c -0.107126,0.2284 -0.296419,0.4082 -0.53033,0.5027 -0.03069,0.012 -0.06279,0.021 -0.09532,0.026 l -8.519837,1.6062 c -0.199546,0.08 -0.651606,0.247 -1.128331,0.4213 -0.45351,0.1657 -0.800749,0.2914 -0.876975,0.319 l -4.732948,4.7329 -2.3146447,2.3147 c -0.682853,0.6828 -0.682789,1.759 -2.8e-5,2.4417 l 1.0924237,1.0924 0.338365,0.3384 3.005204,3.0052 0.0014,0 a 1,1 0 0 0 0.705749,0.2914 1,1 0 0 0 0.696055,-0.2817 l 0.01131,-0.011 0.429497,-0.4295 1.314794,-1.3148 0.05233,-0.052 8.261553,-8.2616 c 0.192403,-0.1981 0.508798,-0.2033 0.707099,-0.011 0.199588,0.1995 0.202742,0.5216 7e-6,0.7181 l -7.938405,7.9384 2.824284,2.8243 c 3.716553,-3.7137 6.286321,-6.3105 10.543174,-10.5347 0.702228,-0.7022 1.114825,-1.2495 1.328597,-1.754 0.213702,-0.5044 0.254644,-0.9869 0.160224,-1.6683 -0.172775,-1.247 -0.862918,-3.1476 -1.68628,-6.2825 z m -5.941337,-5.4304 -5.216292,4.6362 -1.229192,2.5688 2.59231,-1.2416 4.614119,-5.1886 -0.305236,-0.062 c -0.197884,-0.04 -0.352585,-0.1943 -0.392218,-0.3922 l -0.06349,-0.3204 z m -1.926605,11.8868 -0.528986,1.5897 0.534473,0.5345 c 0.485189,0.471 -0.235777,1.192 -0.707106,0.7071 l -2.828428,-2.8285 c -0.495448,-0.4473 0.175851,-1.1904 0.671186,-0.743 0.01259,0.011 0.02461,0.023 0.03592,0.036 l 0.704342,0.7044 2.118598,-10e-5 z m -11.339949,-0.7333 a 0.5,0.5 0 0 1 0.0014,0 0.5,0.5 0 0 1 0.02489,0.025 0.5,0.5 0 0 1 0,0.7071 0.5,0.5 0 0 1 -0.707107,0 0.5,0.5 0 0 1 0,-0.7071 0.5,0.5 0 0 1 0.680866,-0.026 z m -1.414214,1.4142 a 0.5,0.5 0 0 1 0.0014,0 0.5,0.5 0 0 1 0.02489,0.025 0.5,0.5 0 0 1 0,0.7071 0.5,0.5 0 0 1 -0.7071067,0 0.5,0.5 0 0 1 0,-0.7071 0.5,0.5 0 0 1 0.6808667,-0.026 z m -1.4142137,1.4142 a 0.5,0.5 0 0 1 0.0014,0 0.5,0.5 0 0 1 0.02489,0.025 0.5,0.5 0 0 1 0,0.7071 0.5,0.5 0 0 1 -0.707107,0 0.5,0.5 0 0 1 0,-0.7071 0.5,0.5 0 0 1 0.680866,-0.026 z m -9.5169426,-8.1082 -0.3535539,0.3535 a 0.50005341,0.50005341 0 0 0 -0.146385,0.3536 0.50005341,0.50005341 0 0 0 0.146385,0.3535 l 2.1213209,2.1214 a 0.50005341,0.50005341 0 0 0 0.3535668,0.1463 0.50005341,0.50005341 0 0 0 0.3535388,-0.1463 l 0.353554,-0.3536 -2.8284266,-2.8284 z m 17.6776693,17.6776 -0.353553,0.3536 a 0.50005341,0.50005341 0 0 0 -0.146385,0.3535 0.50005341,0.50005341 0 0 0 0.146385,0.3536 l 2.12132,2.1213 a 0.50005341,0.50005341 0 0 0 0.353567,0.1464 0.50005341,0.50005341 0 0 0 0.35354,-0.1464 l 0.353553,-0.3535 -2.828427,-2.8285 z"/></g></svg>