<svg xmlns="http://www.w3.org/2000/svg" xmlns:xlink="http://www.w3.org/1999/xlink" width="48" height="48" viewBox="0 0 48 48"><defs><linearGradient id="b" x1="1073.403" x2="1097.116" y1="516.451" y2="544.308" gradientTransform="matrix(1.53785 0 0 1.53785 -915.865 -90.283)" gradientUnits="userSpaceOnUse" xlink:href="#a"/><linearGradient id="a"><stop offset="0" stop-color="#16ff6a"/><stop offset="1" stop-color="#0090a5"/></linearGradient></defs><g fill="#fff" transform="rotate(-45 -1212.281 527.414)"><rect width="48" height="48" x="728.007" y="702.736" fill="url(#b)" rx="10.144" ry="10.144" transform="rotate(45)"/><path d="m 28.373332,1035.567 c -0.384157,-0.3304 -0.918051,-0.4732 -1.443212,-0.3356 -0.233169,-0.837 -1.09738,-1.3346 -1.937614,-1.1146 -0.840234,0.22 -1.329743,1.0716 -1.096574,1.9087 l 0.419837,1.5109 0.422631,1.5108 1.516397,-0.3977 1.517784,-0.3963 c 0.840234,-0.22 1.328321,-1.0702 1.095153,-1.9073 -0.08745,-0.3138 -0.264048,-0.5805 -0.494402,-0.7789 z m 0.45713,6.1554 c -0.391016,-0.391 -1.013234,-0.392 -1.400411,0 l -0.698621,0.7127 -0.69749,0.7141 0.69865,0.7128 0.698656,0.7128 c 0.391009,0.391 1.013235,0.3919 1.400411,0 l 0.0057,-0.01 c 0.387495,-0.3945 0.386059,-1.0293 -0.0028,-1.4225 0.387424,-0.3945 0.384709,-1.0279 -0.0042,-1.4211 z m -8.044704,-7.8928 c -0.507257,-0.5073 -1.332889,-0.5078 -1.845117,-0.01 -0.507265,-0.5073 -1.332854,-0.5051 -1.845082,0 l -0.0071,0.01 c -0.512228,0.5023 -0.511401,1.3088 -0.0041,1.8161 l 0.922717,0.9085 0.922718,0.9086 0.925391,-0.906 0.923906,-0.9074 c 0.512228,-0.5023 0.5114,-1.3088 0.0041,-1.8161 l 0,0 z m -7.532348,0.859 -1.748463,1.7485 a 0.50005,0.50005 0 0 1 0.0057,0.01 l 6.358438,6.3585 1.748463,-1.7485 -6.363961,-6.3639 z m 9.192387,9.1924 -2.455569,2.4556 0.0057,0.01 6.358438,6.3585 2.45557,-2.4556 -6.363961,-6.364 z m -11.647957,-6.7368 -0.9391094,0.9391 -0.8645087,0.8673 c -1.297166,1.6519 -1.233257,3.965 0.0677,5.5864 a 0.50005,0.50005 0 0 0 -0.02616,0.026 l -6.015993,6.016 -2.10336668,-2.1034 a 0.50005,0.50005 0 1 0 -0.70710705,0.7071 l 4.94008073,4.9401 a 0.50005,0.50005 0 1 0 0.707107,-0.7071 l -2.129607,-2.1296 6.015993,-6.016 a 0.50005,0.50005 0 0 0 0.02616,-0.029 c 1.6377511,1.3126 3.9723421,1.3633 5.6223121,0.037 l 0.831416,-0.8314 0.939109,-0.9391 -6.358439,-6.3585 a 0.50005,0.50005 0 0 1 -0.0057,-0.01 z m 0.719537,2.1337 a 0.5,0.5 0 0 1 0,0.7071 0.5,0.5 0 0 1 -0.707106,0 0.5,0.5 0 0 1 0,-0.7071 0.5,0.5 0 0 1 0.707106,0 z m 7.765744,7.7658 -0.232002,0.232 -0.864508,0.8673 c -1.297534,1.6524 -1.233067,3.9663 0.06908,5.5878 a 0.50005,0.50005 0 0 0 -0.02616,0.026 l -6.015994,6.016 -2.104753,-2.1048 a 0.50005,0.50005 0 1 0 -0.7071071,0.7071 l 4.9400821,4.9401 a 0.50005,0.50005 0 1 0 0.707106,-0.7071 l -2.128221,-2.1282 6.015993,-6.016 a 0.50005,0.50005 0 0 0 0.02616,-0.029 c 1.637688,1.3114 3.971508,1.3614 5.620933,0.036 l 0.831416,-0.8314 0.232002,-0.232 -6.363961,-6.364 z m -6.35153,-4.9373 a 0.5,0.5 0 0 1 0,0.7071 0.5,0.5 0 0 1 -0.707107,0 0.5,0.5 0 0 1 0,-0.7071 0.5,0.5 0 0 1 0.707107,0 z m 9.192388,9.1924 c 0.19526,0.1952 0.195232,0.5118 0,0.7071 -0.195232,0.1952 -0.511846,0.1952 -0.707107,0 -0.19526,-0.1953 -0.195232,-0.5119 0,-0.7071 0.195232,-0.1953 0.511846,-0.1953 0.707107,0 z m -8.485281,-7.0711 a 0.5,0.5 0 0 1 0,0.7071 0.5,0.5 0 0 1 -0.707107,0 0.5,0.5 0 0 1 0,-0.7071 0.5,0.5 0 0 1 0.707107,0 z m 5.656854,5.6568 c 0.19526,0.1953 0.195232,0.5119 0,0.7072 -0.195232,0.1952 -0.511846,0.1952 -0.707107,0 -0.19526,-0.1953 -0.195232,-0.5119 0,-0.7072 0.195232,-0.1952 0.511846,-0.1952 0.707107,0 z m 3.535534,3.5356 c 0.19526,0.1952 0.195232,0.5119 0,0.7071 -0.195233,0.1952 -0.511847,0.1952 -0.707107,0 -0.195261,-0.1953 -0.195232,-0.5119 0,-0.7071 0.195232,-0.1953 0.511846,-0.1953 0.707107,0 z m -12.020815,-10.6066 a 0.5,0.5 0 0 1 0,0.7071 0.5,0.5 0 0 1 -0.707107,0 0.5,0.5 0 0 1 0,-0.7071 0.5,0.5 0 0 1 0.707107,0 z m 9.192388,9.1924 c 0.19526,0.1952 0.195232,0.5118 0,0.7071 -0.195232,0.1952 -0.511847,0.1952 -0.707107,0 -0.195261,-0.1953 -0.195232,-0.5119 0,-0.7071 0.195232,-0.1953 0.511846,-0.1953 0.707107,0 z"/></g></svg>