<svg xmlns="http://www.w3.org/2000/svg" xmlns:xlink="http://www.w3.org/1999/xlink" width="48" height="48" viewBox="0 0 48 48"><defs><linearGradient id="b" x1="992.183" x2="1019.298" y1="516.081" y2="545.959" gradientTransform="matrix(1.53785 0 0 1.53785 -794.812 -103.993)" gradientUnits="userSpaceOnUse" xlink:href="#a"/><linearGradient id="a"><stop offset="0" stop-color="#ff1679"/><stop offset="1" stop-color="#ff770b"/></linearGradient></defs><g transform="rotate(-45 -1195.675 534.131)"><rect width="48" height="48" x="727.893" y="689.027" fill="url(#b)" rx="10.144" ry="10.144" transform="rotate(45)"/><path fill="#fff" fill-rule="evenodd" d="m 42.292324,1037.9677 -3.864233,-1.0358 -1.414242,1.1104 -2.706903,-0.7733 c 0.08514,-0.3505 0.140537,-0.7113 0.140912,-1.0884 0.0024,-2.5497 -2.049245,-4.6013 -4.598959,-4.5989 l -0.921212,0 0.0028,-0.9198 c 0.0012,-1.2749 -0.511301,-2.4255 -1.342406,-3.2566 -0.831105,-0.8311 -1.981688,-1.3436 -3.256545,-1.3424 -2.54965,0 -4.604998,2.0577 -4.607225,4.6072 l -7e-6,0.9198 -1.4e-5,0.4724 4.922106,1.4059 c 0.373791,-0.7979 1.351479,-1.1033 2.113012,-0.6601 0.254268,0.1468 0.481405,0.3287 0.675584,0.537 0.581121,0.6264 0.870406,1.4925 0.755423,2.3658 -0.153223,1.1642 -1.000718,2.1322 -2.135116,2.4362 -1.058821,0.2954 -2.065303,-0.6107 -1.882389,-1.6946 l -4.451215,-1.2719 -0.0055,5.6126 9.204841,-0.01 0.919797,-10e-5 c 1.81655,0 3.367377,-1.0547 4.118289,-2.577 l 2.706904,0.7734 0.727839,1.8106 3.864232,1.0358 -0.697454,-1.7332 1.642099,0.4681 a 0.50005,0.50005 0 0 0 0.479228,-0.8521 l 0,0 a 0.50005,0.50005 0 0 0 -0.202699,-0.1122 l -1.66284,-0.475 1.47779,-1.1602 z m -15.821521,-9.5045 a 0.50005,0.50005 0 1 1 -0.707107,0.7071 c -0.51418,-0.5141 -1.275805,-0.709 -2.013621,-0.4971 -0.737739,0.2117 -1.328031,0.802 -1.539867,1.5398 a 0.50006724,0.50006724 0 0 1 -0.96124,-0.2762 c 0.307945,-1.0724 1.152513,-1.917 2.224911,-2.2249 1.072405,-0.3078 2.220598,-0.025 2.996924,0.7513 z m 0.230629,5.5644 c -0.125172,-0.1393 -0.275694,-0.2559 -0.443002,-0.3525 a 0.50005,0.50005 0 1 0 -0.498539,0.8659 c 0.160712,0.093 0.284349,0.2277 0.361544,0.387 l -12.30532,-3.5135 1.445991,-0.841 a 0.45004499,0.45004499 0 0 0 0.07871,-0.7279 0.45004499,0.45004499 0 0 0 -0.530295,-0.05 l -2.255296,1.3106 a 0.50053518,0.50053518 0 0 0 -0.319046,0.2003 0.45004499,0.45004499 0 0 0 -0.08284,0.5524 l 1.432138,2.5012 a 0.45039801,0.45039801 0 0 0 0.781721,-0.4476 l -0.89082,-1.5536 12.51526,3.5742 c -0.116884,0.1344 -0.273791,0.2347 -0.454379,0.2831 a 0.50050437,0.50050437 0 1 0 0.259642,0.9667 c 0.746415,-0.1999 1.300872,-0.8344 1.401747,-1.6006 0.07592,-0.5749 -0.114848,-1.144 -0.497145,-1.5551 z"/></g></svg>