<svg xmlns="http://www.w3.org/2000/svg" xmlns:xlink="http://www.w3.org/1999/xlink" width="48" height="48" viewBox="0 0 48 48"><defs><linearGradient id="b" x1="868.253" x2="937.656" y1="521.354" y2="588.736" gradientTransform="translate(-598.962 -90.283) scale(1.53785)" gradientUnits="userSpaceOnUse" xlink:href="#a"/><linearGradient id="a"><stop offset="0" stop-color="#24f3d2"/><stop offset=".394" stop-color="#0674f0"/><stop offset=".507" stop-color="#6961b5"/><stop offset=".813" stop-color="#f34660"/><stop offset="1" stop-color="#ee078d"/></linearGradient></defs><g fill="#fff" transform="rotate(-45 -1212.281 527.414)"><rect width="48" height="48" x="728.007" y="702.736" fill="url(#b)" rx="10.144" ry="10.144" transform="rotate(45)"/><path fill-rule="evenodd" d="m 23.426386,1032.8281 -6.992389,-1.8741 -2.07982,7.7671 0.943245,0.3384 0.421189,-1.5675 a 0.50005,0.50005 0 0 1 0.610473,-0.3536 l 2.898862,0.7775 a 0.50005,0.50005 0 0 1 0.353511,0.6105 l -0.50684,1.8907 0.944695,0.3397 0.528894,-1.9707 a 0.50005,0.50005 0 0 1 0.610474,-0.3536 l 2.898862,0.7775 a 0.50005,0.50005 0 0 1 0.353511,0.6105 l -0.613132,2.2925 0.943209,0.3412 1.183591,-4.4153 c -0.139314,-0.1902 -0.239462,-0.3976 -0.320369,-0.6188 -0.183558,0 -0.368438,0.034 -0.546933,-0.014 l -0.129824,0.4834 a 0.50005,0.50005 0 0 1 -0.610403,0.3535 l -2.898862,-0.7775 a 0.50005,0.50005 0 0 1 -0.353582,-0.6104 l 0.777535,-2.8989 a 0.50005,0.50005 0 0 1 0.610473,-0.3535 l 1.307844,0.3494 c -0.18394,-0.3472 -0.298732,-0.724 -0.334214,-1.1242 z m 0.218184,2.1296 -0.966749,-0.2596 -0.517885,1.9321 1.932113,0.5179 0.07317,-0.2721 c -0.486567,-0.4865 -0.71038,-1.2101 -0.52065,-1.9183 z m -2.918151,-1.7609 a 0.50005,0.50005 0 0 1 0.149114,0.5 l -0.777534,2.8989 a 0.50005,0.50005 0 0 1 -0.610403,0.3535 l -2.898862,-0.7776 a 0.50005,0.50005 0 0 1 -0.353582,-0.6104 l 0.777535,-2.8988 a 0.50005,0.50005 0 0 1 0.610473,-0.3536 l 2.898862,0.7775 a 0.50005,0.50005 0 0 1 0.204114,0.1108 z m -0.946074,0.7251 -1.93212,-0.5179 -0.517885,1.9321 1.93212,0.5179 0.517885,-1.9321 z m 3.535583,6.1236 -1.932112,-0.5179 -0.41988,1.5689 1.890669,0.6782 0.461323,-1.7292 z m 1.346487,3.4431 -10.748822,-3.8629 -2.716591,3.3022 2.995552,-0.6119 a 0.50005,0.50005 0 0 1 0.476463,0.1589 l 2.160013,2.4582 3.100508,-1.0482 a 0.50005,0.50005 0 0 1 0.593842,0.2238 l 1.258183,2.1806 2.849096,-0.1698 a 0.50005,0.50005 0 0 1 0.360483,0.1229 l 0.463961,0.4116 -0.792758,-3.1654 z m -6.176075,-4.7371 -1.93212,-0.5179 -0.312174,1.1656 1.88794,0.6781 0.356354,-1.3258 z m 4.985583,8.4384 -1.937621,0.1173 a 0.50005,0.50005 0 0 1 -0.46266,-0.2499 l -1.209782,-2.0965 -3.02735,1.0248 a 0.50005,0.50005 0 0 1 -0.534438,-0.1423 l -2.188991,-2.4901 -1.056524,0.2168 -2.574328,9.6012 5.312967,1.4239 5.312974,1.4239 2.365753,-8.8291 z m -2.490034,9.829 -10.892506,-2.9182 -0.8382821,1.2692 0.6960335,-0.174 a 0.50004997,0.50004997 0 0 1 0.4681896,0.1257 l 1.240025,1.1961 1.672428,-0.4156 a 0.50004997,0.50004997 0 0 1 0.468189,0.1257 l 1.240025,1.1961 1.672428,-0.4156 a 0.50004997,0.50004997 0 0 1 0.46681,0.1243 l 1.241404,1.1975 1.672428,-0.4156 a 0.50004997,0.50004997 0 0 1 0.466811,0.1243 l 0.515339,0.4983 -0.08975,-1.5178 z"/></g></svg>