<svg xmlns="http://www.w3.org/2000/svg" xmlns:xlink="http://www.w3.org/1999/xlink" width="48" height="48" viewBox="0 0 48 48"><defs><linearGradient id="b" x1="949.87" x2="974.39" y1="518.014" y2="544.657" gradientTransform="translate(-726.346 -90.283) scale(1.53785)" gradientUnits="userSpaceOnUse" xlink:href="#a"/><linearGradient id="a"><stop offset="0" stop-color="#24f7bc"/><stop offset="1" stop-color="#24c4fc"/></linearGradient></defs><g fill="#fff" transform="rotate(-45 -1212.281 527.414)"><rect width="48" height="48" x="728.007" y="702.736" fill="url(#b)" rx="10.144" ry="10.144" transform="rotate(45)"/><path style="line-height:normal;text-indent:0;text-align:start;text-decoration-line:none;text-decoration-style:solid;text-decoration-color:#000;text-transform:none;block-progression:tb;isolation:auto;mix-blend-mode:normal" d="m 31.431969,1042.2216 c -0.05784,-0.058 -0.127152,-0.1046 -0.200175,-0.1479 -0.585315,-0.3455 -1.327713,-0.147 -1.664162,0.4433 l -0.607673,1.0662 -0.607716,1.0635 1.056531,0.6256 1.056488,0.6229 c 0.585251,0.3455 1.327642,0.147 1.664232,-0.4434 0.33659,-0.5904 0.136359,-1.3435 -0.448885,-1.689 0.294475,-0.5166 0.177314,-1.1576 -0.248569,-1.5413 z m -9.784866,-5.5478 c -0.658246,-0.6441 -1.712471,-0.642 -2.367124,0.01 -0.658247,-0.6441 -1.713915,-0.6433 -2.368582,0 -0.65464,0.6476 -0.653339,1.6878 0.0041,2.3326 l 1.186602,1.164 1.187989,1.1654 1.180939,-1.1697 1.182353,-1.1682 c 0.654711,-0.6476 0.65196,-1.6891 -0.0055,-2.334 z m 2.820133,5.9027 c -0.699279,-0.6597 -1.56656,-1.1597 -2.557754,-1.4252 a 0.50004994,0.50004994 0 1 0 -0.258235,0.9653 c 2.653185,0.711 4.231256,3.4121 3.547929,6.0726 a 0.50004994,0.50004994 0 1 0 0.968192,0.2499 c 0.408496,-1.5902 0.137589,-3.2005 -0.632564,-4.5188 -0.288839,-0.4944 -0.648148,-0.9478 -1.067568,-1.3438 z m -10.121852,-7.5586 c -0.391016,-0.391 -1.027929,-0.3902 -1.422494,0 -0.391016,-0.3911 -1.027928,-0.3903 -1.422494,0 l -0.0085,0.01 c -0.394495,0.3875 -0.392409,1.0108 -0.0014,1.4018 l 0.712799,0.6987 0.712792,0.6986 0.712764,-0.6986 0.712834,-0.6987 c 0.394495,-0.3874 0.395131,-1.0107 0.0041,-1.4017 z m 9.01424,9.2905 c -0.503885,-0.5761 -1.175212,-1.0143 -1.966613,-1.2265 a 0.50052968,0.50052968 0 0 0 -0.259649,0.9668 c 1.592609,0.4267 2.539036,2.0415 2.130993,3.6391 a 0.50004997,0.50004997 0 1 0 0.968079,0.2473 c 0.270249,-1.0586 0.08851,-2.13 -0.425346,-3.008 -0.128729,-0.2193 -0.279498,-0.4267 -0.447464,-0.6187 z m -1.49708,1.3258 c -0.252218,-0.2918 -0.589677,-0.5133 -0.987488,-0.6201 a 0.50004997,0.50004997 0 1 0 -0.258236,0.9654 c 0.539183,0.1444 0.850161,0.6858 0.705714,1.225 a 0.50050437,0.50050437 0 0 0 0.966749,0.2596 c 0.14215,-0.5306 0.05207,-1.0722 -0.204354,-1.5165 -0.06424,-0.1109 -0.138359,-0.2161 -0.222668,-0.3131 z m 4.040995,6.1513 c -0.173524,-0.1734 -0.413778,-0.2795 -0.680824,-0.2777 l -0.965405,0.01 -0.968121,0.01 -0.0055,0.9667 -0.0055,0.9668 c -0.0029,0.5357 0.426095,0.9631 0.95984,0.9598 0.535726,-0.01 0.970858,-0.4405 0.973616,-0.9764 0.535732,-0.01 0.968128,-0.4407 0.970857,-0.9765 0.0015,-0.2679 -0.105422,-0.5089 -0.279017,-0.6822 z m -12.975155,-11.0997 c -0.397861,-0.3978 -1.016396,-0.3978 -1.414214,0 l -1.414214,1.4143 3.535534,3.5355 2.119977,-2.12 -1.766381,-1.7664 -0.04971,-0.05 -1.012322,-1.0123 0,0 z m 3.535534,3.5356 -2.119907,2.1199 5.709337,5.7093 -0.530366,-4.7702 -3.059064,-3.059 z m -8.8747426,-6.0463 a 0.50064475,0.50064475 0 0 0 -0.671186,0.743 l 0.505476,0.5055 -0.374244,1.0785 c -0.787349,-0.5926 -1.884927,-0.5374 -2.604691,0.1823 l 1.055137,1.0552 c 0.485189,0.471 -0.235777,1.192 -0.707106,0.7071 l -1.055138,-1.0551 -1.414214,1.4142 2.121321,2.1213 c 1.167362,-1.1674 3.075257,-1.1674 4.24264,0 1.167391,1.1674 1.167363,3.0753 0,4.2426 l 5.6568546,5.6569 c 1.167363,-1.1674 3.075258,-1.1674 4.242641,0 1.167392,1.1674 1.167363,3.0753 0,4.2426 l 2.121321,2.1213 1.4128,-1.4128 -1.060661,-1.0606 c -0.485188,-0.4711 0.235778,-1.192 0.707107,-0.7071 l 1.06066,1.0606 c 0.789556,-0.7895 0.789591,-2.0388 0,-2.8284 l -2.386485,-2.3865 c -0.06272,-0.04 -0.116001,-0.093 -0.156059,-0.156 l -12.4406606,-12.4407 0.622834,-1.8023 a 0.50005,0.50005 0 0 0 -0.117394,-0.5179 l -0.726446,-0.7264 a 0.50005,0.50005 0 0 0 -0.03592,-0.036 z m 0.396369,7.4674 c -0.781049,-0.781 -2.047357,-0.7811 -2.828427,0 -0.258731,0.2587 -0.423656,0.5732 -0.510998,0.9032 l -1.263678,-1.2637 a 0.50005,0.50005 0 1 0 -0.707107,0.7071 l 2.474874,2.4749 a 0.50005,0.50005 0 0 0 0.0071,0.01 l 0.0042,0 a 0.50005,0.50005 0 0 0 0.06647,0.052 c 0.784776,0.7169 1.99875,0.7026 2.757971,-0.057 0.78107,-0.7811 0.781049,-2.0474 0,-2.8285 z m 9.8925866,9.8926 c -0.781049,-0.7811 -2.047357,-0.7811 -2.828427,0 -0.258731,0.2587 -0.423649,0.5732 -0.510991,0.9032 l -0.328699,-0.3287 a 0.50005,0.50005 0 1 0 -0.707106,0.7071 l 1.546796,1.5468 a 0.50005,0.50005 0 0 0 0.07889,0.065 c 0.785101,0.7087 1.993285,0.6915 2.749677,-0.065 0.78107,-0.7811 0.781049,-2.0474 0,-2.8285 z m -10.9532466,-8.8319 c 0.19526,0.1952 0.195232,0.5118 0,0.7071 -0.195233,0.1952 -0.511847,0.1952 -0.707107,0 -0.195261,-0.1953 -0.195232,-0.5119 0,-0.7071 0.195232,-0.1953 0.511846,-0.1953 0.707107,0 z m 9.8925866,9.8925 c 0.195261,0.1953 0.195232,0.5119 0,0.7072 -0.195232,0.1952 -0.511846,0.1952 -0.707107,0 -0.19526,-0.1953 -0.195232,-0.5119 0,-0.7072 0.195232,-0.1952 0.511847,-0.1952 0.707107,0 z m -16.29936413,-14.178 a 0.50064475,0.50064475 0 1 0 -0.671186,0.743 l 1.149049,1.1491 a 0.50005,0.50005 0 1 0 0.70710703,-0.7071 l -1.14904903,-1.1491 a 0.50005,0.50005 0 0 0 -0.03592,-0.036 z m 11.31370913,11.3137 a 0.50064475,0.50064475 0 0 0 -0.671185,0.743 l 1.016466,1.0165 a 0.50005,0.50005 0 1 0 0.707106,-0.7071 l -1.016466,-1.0165 a 0.50005,0.50005 0 0 0 -0.03592,-0.036 z m 6.540738,6.5408 a 0.50064475,0.50064475 0 0 0 -0.671185,0.743 l 2.651651,2.6516 a 0.50005,0.50005 0 1 0 0.707106,-0.7071 l -2.651651,-2.6516 a 0.50005,0.50005 0 0 0 -0.03592,-0.036 z" color="#000" font-family="sans-serif" font-weight="400" overflow="visible" white-space="normal"/></g></svg>