<svg xmlns="http://www.w3.org/2000/svg" xmlns:xlink="http://www.w3.org/1999/xlink" width="48" height="48" viewBox="0 0 48 48"><defs><linearGradient id="b" x1="949.87" x2="974.39" y1="518.014" y2="544.657" gradientTransform="translate(-1454.353 211.343) scale(1.53785)" gradientUnits="userSpaceOnUse" xlink:href="#a"/><linearGradient id="a"><stop offset="0" stop-color="#24f7bc"/><stop offset="1" stop-color="#24c4fc"/></linearGradient></defs><g transform="translate(0 -1004.362)"><rect width="48" height="48" y="1004.362" fill="url(#b)" rx="10.144" ry="10.144"/><path fill="#fff" d="m 20.492045,1014.3544 a 0.50005,0.50005 0 0 0 -0.49219,0.5058 l 0,5.291 a 0.50005,0.50005 0 0 0 0.006,0.076 c -0.025,0.3823 0.0561,0.7758 0.26172,1.1328 l 0.11914,0.1895 -0.0332,-0.047 c 0.41336,0.5228 0.64548,1.1747 0.64648,1.8555 -4.6e-4,0.6833 -0.23327,1.3258 -0.63085,1.8379 -1.063,1.4058 -2.81871,4.4211 -3.38672,6.541 -0.72104,2.6909 -0.98243,5.6406 -0.98243,10.1211 l 0,0.248 c 0,0.046 0.0168,0.115 0.12891,0.2325 0.11207,0.1176 0.3151,0.2609 0.5957,0.3925 0.56121,0.2632 1.41951,0.4832 2.43946,0.5762 1.98435,0.1817 4.09074,-0.2057 4.96093,-0.7461 0.0306,-0.076 0.0705,-0.1451 0.11915,-0.207 0.0527,-0.067 0.11291,-0.1251 0.17773,-0.1778 0.0651,-0.053 0.13342,-0.1002 0.20117,-0.1406 0.26954,-0.1606 0.59428,-0.275 0.98242,-0.373 0.38814,-0.098 0.83831,-0.1745 1.33203,-0.2266 0.49373,-0.052 1.031,-0.08 1.59571,-0.08 0.56471,0 1.10198,0.028 1.5957,0.08 0.49372,0.052 0.9439,0.1288 1.33203,0.2266 0.0101,0 0.0156,0.01 0.0254,0.01 0.18512,0.047 0.35685,0.097 0.51367,0.1563 -0.001,-4.465 -0.26286,-7.4103 -0.98242,-10.0957 -0.56801,-2.1199 -2.32374,-5.1333 -3.38672,-6.5391 -0.39759,-0.5121 -0.63039,-1.1565 -0.63086,-1.8398 10e-4,-0.6606 0.22261,-1.2921 0.61329,-1.8067 l 0.11914,-0.1914 c 0.20387,-0.3539 0.28694,-0.7439 0.26367,-1.123 a 0.50005,0.50005 0 0 0 0.004,-0.068 l 0,-5.3047 a 0.50005,0.50005 0 0 0 -0.50781,-0.5058 0.50005,0.50005 0 0 0 -0.49219,0.5058 l 0,3.7793 c -0.30665,-0.1788 -0.63921,-0.2809 -0.97265,-0.2851 l 0,0 c -0.61438,-0.01 -1.22015,0.2714 -1.61914,0.7988 a 0.50005,0.50005 0 0 1 -0.40625,0.207 l -0.004,0 a 0.50005,0.50005 0 0 1 -0.40625,-0.207 c -0.31796,-0.4203 -0.76479,-0.6836 -1.24609,-0.7676 -0.44952,-0.079 -0.92465,0.01 -1.34571,0.2481 l 0,-3.7774 a 0.50005,0.50005 0 0 0 -0.50781,-0.5058 z m 8.04102,28.0078 c -1.0613,0 -2.02228,0.1111 -2.68164,0.2773 -0.27951,0.071 -0.46484,0.1507 -0.60742,0.2227 0.14259,0.072 0.3282,0.1507 0.60742,0.2207 0.65936,0.1662 1.62034,0.2793 2.68164,0.2793 1.06129,0 2.02227,-0.1131 2.68164,-0.2793 0.27921,-0.07 0.46481,-0.1487 0.60742,-0.2207 -0.14259,-0.072 -0.32792,-0.1527 -0.60742,-0.2227 -0.65937,-0.1662 -1.62035,-0.2773 -2.68164,-0.2773 z"/></g></svg>