<svg xmlns="http://www.w3.org/2000/svg" xmlns:xlink="http://www.w3.org/1999/xlink" width="48" height="48" viewBox="0 0 48 48"><defs><linearGradient id="b" x1="1073.403" x2="1097.116" y1="516.451" y2="544.308" gradientTransform="translate(-915.865 -90.283) scale(1.53785)" gradientUnits="userSpaceOnUse" xlink:href="#a"/><linearGradient id="a"><stop offset="0" stop-color="#16ff6a"/><stop offset="1" stop-color="#0090a5"/></linearGradient></defs><g fill="#fff" transform="rotate(-45 -1212.281 527.414)"><rect width="48" height="48" x="728.007" y="702.736" fill="url(#b)" rx="10.144" ry="10.144" transform="rotate(45)"/><path fill-rule="evenodd" d="m 28.636506,1035.1794 a 0.50005,0.50005 0 0 0 -0.705756,0.01 l -1.050973,1.051 -0.01244,-0.012 c -0.162812,-0.1628 -0.402676,-0.162 -0.566244,0 l -1.131088,1.1311 1.306485,1.3065 0.353554,-0.3536 0.02758,-0.028 0.749887,-0.7499 c 0.162776,-0.1627 0.164197,-0.402 0.0014,-0.5648 l -0.02206,-0.022 1.050973,-1.051 a 0.50005,0.50005 0 0 0 -0.0014,-0.7168 z m -4.203976,2.856 c -2.199173,2.0654 -4.621637,3.9919 -6.311481,5.0022 l 2.67927,2.6793 c 1.032872,-1.6394 2.938235,-4.0958 5.00223,-6.3115 l -1.370019,-1.37 z m -7.81129,4.9138 -0.846626,0 -0.494429,1.486 c 0.0076,0.01 0.01506,0.015 0.02206,0.022 l 4.085195,4.0852 c 0.0051,0 0.01025,0.01 0.0152,0.015 l 1.487449,-0.4959 -0.0028,-0.8452 -4.266117,-4.2661 z m -1.781611,2.4639 -2.65165,1.591 4.644531,4.6445 1.59099,-2.6517 -3.583871,-3.5838 z m -4.694213,0.9653 -1.4211432,1.4211 0.787208,0.7873 0.357725,-0.3578 c 0.1926162,-0.1968 0.5109842,-0.2043 0.7056852,-0.01 0.199023,0.199 0.202594,0.5198 0.0014,0.7167 l -0.357725,0.3578 0.849356,0.8493 0.357725,-0.3577 c 0.192616,-0.1969 0.510983,-0.2043 0.705685,-0.01 0.199023,0.199 0.2026,0.5198 0.0014,0.7167 l -0.357725,0.3577 0.847976,0.848 0.357726,-0.3577 c 0.192616,-0.1969 0.510984,-0.2044 0.705685,-0.01 0.199023,0.1991 0.202594,0.5199 0.0014,0.7168 l -0.357726,0.3577 0.847977,0.848 0.357725,-0.3577 c 0.193111,-0.1974 0.511825,-0.2035 0.707065,-0.01 0.198485,0.1985 0.200648,0.519 4.2e-5,0.7154 l -0.357725,0.3577 0.799638,0.7996 1.421143,-1.4211 -0.49028,-0.4903 -0.08286,-0.083 -5.467652,-5.4676 -0.0801,-0.08 -0.83969,-0.8397 z m -1.6973892,2.5619 c -1.834963,0.9912 -3.718886,1.4385 -5.498031,1.5731 l -2.76075628,-2.7608 a 0.50005,0.50005 0 1 0 -0.707106,0.7071 l 15.55634848,15.5564 a 0.50005,0.50005 0 1 0 0.707105,-0.7071 l -2.770422,-2.7705 c 0.13457,-1.7791 0.581836,-3.663 1.573037,-5.498 l -6.1001752,-6.1002 z m 1.8133612,4.6225 c 1.314731,1.3147 1.492349,3.3155 0.585556,4.8475 l -5.4331262,-5.4331 c 1.532018,-0.9068 3.532847,-0.7292 4.8475702,0.5856 z"/></g></svg>