<svg xmlns="http://www.w3.org/2000/svg" xmlns:xlink="http://www.w3.org/1999/xlink" width="48" height="48" viewBox="0 0 48 48"><defs><linearGradient id="b" x1="1073.403" x2="1097.116" y1="516.451" y2="544.308" gradientTransform="matrix(1.53785 0 0 1.53785 -915.979 -103.993)" gradientUnits="userSpaceOnUse" xlink:href="#a"/><linearGradient id="a"><stop offset="0" stop-color="#16ff6a"/><stop offset="1" stop-color="#0090a5"/></linearGradient></defs><g transform="rotate(-45 -1195.675 534.131)"><rect width="48" height="48" x="727.893" y="689.027" fill="url(#b)" rx="10.144" ry="10.144" transform="rotate(45)"/><path fill="#fff" d="m 32.14109,1025.6499 a 7.4999995,7.4999995 0 0 0 -2.019073,-1.4695 7.4999995,7.4999995 0 0 0 -0.439212,-0.2127 7.4999995,7.4999995 0 0 0 -0.0014,0 7.4999995,7.4999995 0 0 0 -0.70162,-0.2568 7.4999995,7.4999995 0 0 0 -0.0014,0 7.4999995,7.4999995 0 0 0 -0.72371,-0.1851 7.4999995,7.4999995 0 0 0 -0.0014,0 7.4999995,7.4999995 0 0 0 -0.738828,-0.1119 7.4999995,7.4999995 0 0 0 -0.748571,-0.039 7.4999995,7.4999995 0 0 0 -1.488792,0.1491 7.4999995,7.4999995 0 0 0 -0.725075,0.1837 7.4999995,7.4999995 0 0 0 -0.702942,0.2555 7.4999995,7.4999995 0 0 0 -1.313359,0.7167 7.4999995,7.4999995 0 0 0 -2.450032,2.7898 7.4999995,7.4999995 0 0 0 -0.305236,0.6809 7.4999995,7.4999995 0 0 0 0.0014,0 7.4999995,7.4999995 0 0 0 -0.400555,1.4419 7.4999995,7.4999995 0 0 0 0.0014,0 7.4999995,7.4999995 0 0 0 -0.09116,0.7403 7.4999995,7.4999995 0 0 0 0.0014,0 7.4999995,7.4999995 0 0 0 -0.01794,0.5289 7.4999995,7.4999995 0 0 0 1.309292,4.2343 7.4999995,7.4999995 0 0 0 0.454344,0.5981 7.4999995,7.4999995 0 0 0 1.073452,1.0423 7.4999995,7.4999995 0 0 0 0.610403,0.4364 7.4999995,7.4999995 0 0 0 1.334112,0.6795 7.4999995,7.4999995 0 0 0 1.444612,0.4005 7.4999995,7.4999995 0 0 0 0.294142,0.037 l -1.41e-4,0.072 -2.1e-5,2.9831 -2.12e-4,0.017 -1.008186,0 -4.3e-5,7.9412 c -1.4e-5,1.1015 0.8872,1.9889 1.988738,1.9887 1.10151,0 1.987451,-0.8859 1.987395,-1.9874 l -2.9e-5,-7.9411 -1.008185,0 2.12e-4,-0.02 0.0014,-2.9817 1.41e-4,-0.072 a 7.4999995,7.4999995 0 0 0 0.508184,-0.077 7.4999995,7.4999995 0 0 0 0.72501,-0.1836 7.4999995,7.4999995 0 0 0 0.702935,-0.2555 7.4999995,7.4999995 0 0 0 0.673944,-0.3259 7.4999995,7.4999995 0 0 0 0.640837,-0.3922 7.4999995,7.4999995 0 0 0 1.143497,-0.964 7.4999995,7.4999995 0 0 0 0.03041,-0.036 7.4999995,7.4999995 0 0 0 1.191927,-1.6476 7.4999995,7.4999995 0 0 0 0.08146,-0.1395 7.4999995,7.4999995 0 0 0 0.08287,-0.1878 7.4999995,7.4999995 0 0 0 0.622905,-1.9377 7.4999995,7.4999995 0 0 0 -0.0014,0 7.4999995,7.4999995 0 0 0 0.09116,-0.7402 7.4999995,7.4999995 0 0 0 -0.0014,0 7.4999995,7.4999995 0 0 0 0.01794,-0.529 7.4999995,7.4999995 0 0 0 -0.03864,-0.7485 7.4999995,7.4999995 0 0 0 -0.110499,-0.7403 7.4999995,7.4999995 0 0 0 -0.0014,0 7.4999995,7.4999995 0 0 0 -0.06766,-0.2693 7.4999995,7.4999995 0 0 0 -0.700227,-1.8354 7.4999995,7.4999995 0 0 0 -0.392239,-0.6381 7.4999995,7.4999995 0 0 0 -0.0014,0 7.4999995,7.4999995 0 0 0 -0.45158,-0.5953 7.4999995,7.4999995 0 0 0 -0.0014,0 7.4999995,7.4999995 0 0 0 -0.177922,-0.1977 7.4999995,7.4999995 0 0 0 -0.177922,-0.1977 z m -1.512219,1.5371 a 5.3923426,5.3923426 0 0 1 1.52472,3.7565 5.3923426,5.3923426 0 0 1 -5.393103,5.3931 5.3923426,5.3923426 0 0 1 -5.391689,-5.3917 5.3923426,5.3923426 0 0 1 5.393103,-5.3931 5.3923426,5.3923426 0 0 1 3.866969,1.6352 z m -1.399032,2.2967 c -0.687958,-0.6738 -1.788923,-0.6731 -2.472073,0.01 -0.687959,-0.6738 -1.787602,-0.6716 -2.470766,0.01 -0.682994,0.6787 -0.681898,1.7673 0.0042,2.4431 l 1.239049,1.2192 1.239049,1.2193 1.232063,-1.2236 1.234821,-1.2235 c 0.682994,-0.6788 0.680441,-1.7687 -0.0055,-2.4445 l -0.0014,0 z"/></g></svg>