<svg xmlns="http://www.w3.org/2000/svg" xmlns:xlink="http://www.w3.org/1999/xlink" width="48" height="48" viewBox="0 0 48 48"><defs><linearGradient id="b" x1="949.87" x2="974.39" y1="518.014" y2="544.657" gradientTransform="translate(-726.346 -90.283) scale(1.53785)" gradientUnits="userSpaceOnUse" xlink:href="#a"/><linearGradient id="a"><stop offset="0" stop-color="#24f7bc"/><stop offset="1" stop-color="#24c4fc"/></linearGradient></defs><g fill="#fff" transform="rotate(-45 -1212.281 527.414)"><rect width="48" height="48" x="728.007" y="702.736" fill="url(#b)" rx="10.144" ry="10.144" transform="rotate(45)"/><path style="line-height:normal;text-indent:0;text-align:start;text-decoration-line:none;text-decoration-style:solid;text-decoration-color:#000;text-transform:none;block-progression:tb;isolation:auto;mix-blend-mode:normal" d="m 33.361131,1042.9134 -0.0055,0.011 c 0.443642,0.4436 0.443608,1.1552 0.0041,1.6034 -0.192627,0.1949 -0.191189,0.5082 0.0014,0.703 0.221541,0.2216 0.330715,0.5091 0.331456,0.7982 l 0.0041,0 c 7.4e-4,0.2891 -0.108272,0.5782 -0.327313,0.8024 -0.439329,0.4481 -1.119988,0.4517 -1.556464,0.01 l -1.137996,-1.1518 -0.788587,-0.8024 0.787208,-0.8038 1.132474,-1.1545 c 0.439326,-0.4481 1.118703,-0.4532 1.555082,-0.011 z m -14.338245,-12.9157 c 0.448095,0.4393 0.451759,1.1213 0.0055,1.5578 l -0.0014,0 -1.150432,1.1366 -0.802404,0.7886 -0.80516,-0.7886 -1.154573,-1.1324 c -0.448094,-0.4393 -0.451801,-1.1187 -0.0055,-1.5551 l 0.0083,0.011 0.0014,0 c 0.443642,-0.4436 1.155184,-0.4419 1.60342,0 0.194879,0.1927 0.50813,0.1912 0.702964,0 0.22154,-0.2215 0.509158,-0.3306 0.798257,-0.3314 l -0.0028,-0.011 c 0.289097,-7e-4 0.578227,0.1056 0.802402,0.3246 z m 4.110056,6.7534 c 0.789606,0.7896 0.788232,2.0375 -0.0014,2.8271 l -0.353553,0.3535 -1.06066,1.0607 -1.414214,-1.4142 c -0.789585,-0.7895 -0.790956,-2.0376 -0.0014,-2.8271 0.394798,-0.3948 0.90727,-0.5938 1.416976,-0.5938 0.509706,0 1.019424,0.199 1.414213,0.5938 z m 3.534153,3.5342 c 0.789566,0.7896 0.789572,2.0388 0,2.8284 -0.789592,0.7896 -2.038819,0.7896 -2.828427,0 l -1.414214,-1.4142 1.060661,-1.0607 0.353553,-0.3535 c 0.394793,-0.3947 0.904501,-0.5911 1.414213,-0.5911 0.509713,0 1.019426,0.1964 1.414214,0.5911 z m -11.667262,-4.5962 4.949748,4.9497 -4.242641,4.2427 -3.11569,-3.1157 c -0.03544,-0.052 -0.08043,-0.097 -0.132582,-0.1326 l -1.281631,-1.2816 c -0.03544,-0.052 -0.08043,-0.097 -0.132583,-0.1326 l -0.287262,-0.2873 c -0.397858,-0.3978 -0.39785,-1.0164 0,-1.4142 l 2.828427,-2.8284 c 0.397851,-0.3978 1.016356,-0.3978 1.414214,0 z m 5.656855,5.6568 1.414213,1.4142 -4.529903,4.5299 c -0.05593,0.037 -0.103835,0.085 -0.140869,0.1409 l -8.0571512,8.0572 -1.4127993,-1.4157 8.0571515,-8.0571 c 0.05848,-0.038 0.108341,-0.088 0.146394,-0.1464 z m 2.12132,2.1213 4.949747,4.9498 c 0.397858,0.3978 0.39785,1.0163 0,1.4142 l -2.827013,2.8298 c -0.397849,0.3979 -1.016339,0.398 -1.414213,0 l -0.328694,-0.3286 c -0.01658,-0.019 -0.03459,-0.037 -0.05386,-0.054 l -4.569988,-4.5672 z m -7.805796,-6.386 c -0.158473,-0.1589 -0.350958,-0.2676 -0.571762,-0.3038 -0.220807,-0.036 -0.497866,0.014 -0.694678,0.2113 l -1.045468,1.0454 c -0.484876,0.4714 0.23575,1.192 0.707106,0.7071 l 0.925316,-0.9253 1.028896,1.0289 c 0.471328,0.4849 1.191983,-0.2357 0.707107,-0.7071 z m -4.21502,4.2647 0.707107,0.7071 -4.592052,4.5921 c -0.4848779,0.4713 0.2357509,1.192 0.7071068,0.7071 l 4.5920522,-4.5921 2.828427,2.8285 -7.7753803,7.7782 -3.5369149,-3.5369 c -0.3978579,-0.3979 -0.3978507,-1.0165 0,-1.4143 z m 7.069654,7.0725 4.242641,4.2426 -7.069654,7.0697 c -0.397851,0.3978 -1.016356,0.3978 -1.414214,0 l -3.535534,-3.5355 z m -11.6589766,-0.3701 c -0.097476,-0.095 -0.2296997,-0.1467 -0.3659829,-0.1423 -0.1301902,0 -0.2535741,0.059 -0.343853,0.1533 l -0.7071068,0.7071 c -0.484878,0.4714 0.2357508,1.192 0.7071068,0.7071 l 0.7071068,-0.7071 c 0.2034699,-0.1957 0.2047243,-0.5209 0.00276,-0.7182 z" color="#000" font-family="sans-serif" font-weight="400" overflow="visible" white-space="normal"/></g></svg>