<svg xmlns="http://www.w3.org/2000/svg" xmlns:xlink="http://www.w3.org/1999/xlink" width="48" height="48" viewBox="0 0 48 48"><defs><linearGradient id="b" x1="868.253" x2="937.656" y1="521.354" y2="588.736" gradientTransform="translate(-598.962 -90.283) scale(1.53785)" gradientUnits="userSpaceOnUse" xlink:href="#a"/><linearGradient id="a"><stop offset="0" stop-color="#24f3d2"/><stop offset=".394" stop-color="#0674f0"/><stop offset=".507" stop-color="#6961b5"/><stop offset=".813" stop-color="#f34660"/><stop offset="1" stop-color="#ee078d"/></linearGradient></defs><g fill="#fff" transform="rotate(-45 -1212.281 527.414)"><rect width="48" height="48" x="728.007" y="702.736" fill="url(#b)" rx="10.144" ry="10.144" transform="rotate(45)"/><path d="m 24.586488,1035.3762 c -1.169088,-1.1691 -3.073509,-1.1691 -4.24264,0 -0.545108,0.5451 -0.825045,1.2509 -0.861786,1.9667 l -3.027301,-3.0273 c -0.397861,-0.3979 -1.016324,-0.3979 -1.414213,0 l -2.828428,2.8284 c -0.397818,0.3978 -0.39786,1.0163 0,1.4142 l 0.294171,0.2942 0.114629,0.1146 1.309251,1.3093 3.231697,3.2316 3.535534,-3.5355 0.707107,0.7071 -3.831105,3.8311 c -0.03111,0.044 -0.0693,0.082 -0.113208,0.1132 l -8.0765033,8.0765 1.4142143,1.4143 8.073745,-8.0738 c 0.03182,-0.045 0.07121,-0.084 0.115966,-0.116 l 3.831103,-3.8311 0.707107,0.7071 -3.535533,3.5356 4.538189,4.5382 c 0.04773,0.034 0.08933,0.075 0.122916,0.1229 l 0.288641,0.2886 c 0.397868,0.3979 1.016396,0.3978 1.414214,0 l 2.828427,-2.8284 c 0.397889,-0.3979 0.397868,-1.0163 0,-1.4142 l -3.027301,-3.0273 c 0.715769,-0.037 1.421532,-0.3167 1.966641,-0.8618 1.16913,-1.1691 1.169095,-3.0735 0,-4.2426 -0.737958,-0.738 -1.767993,-1.0072 -2.722078,-0.8135 0.193697,-0.9541 -0.07548,-1.9841 -0.813456,-2.7221 z m -0.707107,0.7071 c 0.789584,0.7896 0.789626,2.0388 0,2.8285 l -0.353553,0.3535 -1.06066,1.0607 -1.060659,-1.0607 -0.353554,-0.3535 c -0.789598,-0.7896 -0.789555,-2.0389 0,-2.8285 0.789626,-0.7896 2.03885,-0.7895 2.828426,0 z m 3.535534,3.5356 c 0.789584,0.7895 0.789626,2.0388 0,2.8284 -0.789555,0.7895 -2.038822,0.7896 -2.828427,0 l -0.353553,-0.3536 -1.06066,-1.0606 1.06066,-1.0607 0.353553,-0.3535 c 0.789626,-0.7897 2.038851,-0.7896 2.828427,0 z m -10.989152,-3.9126 1.056523,1.0565 c 0.485189,0.4711 -0.235707,1.192 -0.707106,0.7071 l -1.028897,-1.0289 -0.92532,0.9253 c -0.471004,0.4852 -1.191942,-0.2357 -0.707107,-0.7071 l 1.044114,-1.0441 c 0.196929,-0.1969 0.475416,-0.2461 0.69604,-0.2099 0.220625,0.036 0.413368,0.1427 0.571753,0.3011 z m -4.21365,4.2661 -7.0710673,7.0711 c -0.397819,0.3978 -0.397861,1.0163 0,1.4142 l 3.535533,3.5355 7.7781753,-7.7782 -2.828427,-2.8284 -4.5920223,4.592 c -0.471075,0.4853 -1.192013,-0.2357 -0.707107,-0.7071 l 4.5920223,-4.592 -0.707107,-0.7071 z m 7.071068,7.0711 -7.778174,7.7782 3.535534,3.5355 c 0.397867,0.3979 1.016395,0.3978 1.414213,0 l 7.071067,-7.0711 -4.24264,-4.2426 z m -11.6630973,-0.3688 c 0.199588,0.1996 0.202742,0.5217 7e-6,0.7182 l -0.707107,0.7071 c -0.471074,0.4852 -1.192012,-0.2358 -0.707106,-0.7071 l 0.707106,-0.7071 c 0.192404,-0.1981 0.508799,-0.2033 0.7071,-0.011 z"/></g></svg>