<svg xmlns="http://www.w3.org/2000/svg" xmlns:xlink="http://www.w3.org/1999/xlink" width="48" height="48" viewBox="0 0 48 48"><defs><linearGradient id="b" x1="992.183" x2="1019.298" y1="516.081" y2="545.959" gradientTransform="matrix(1.53785 0 0 1.53785 -1522.705 211.343)" gradientUnits="userSpaceOnUse" xlink:href="#a"/><linearGradient id="a"><stop offset="0" stop-color="#ff1679"/><stop offset="1" stop-color="#ff770b"/></linearGradient></defs><g transform="translate(0 -1004.362)"><rect width="48" height="48" y="1004.362" fill="url(#b)" rx="10.144" ry="10.144"/><path fill="#fff" fill-rule="evenodd" d="m 18.225956,1019.3622 c -1.589999,0 -3.18009,0.613 -4.398439,1.8359 -2.43669,2.4458 -2.43669,6.3823 0,8.8282 l 0.87891,0.8847 8.79687,8.8282 8.796881,-8.8282 0.878909,-0.8847 c 2.436689,-2.4459 2.436689,-6.3824 0,-8.8282 -2.43669,-2.4459 -6.360191,-2.4459 -8.796881,0 l -0.87891,0.8829 -0.8789,-0.8829 c -1.218351,-1.2229 -2.808431,-1.8359 -4.398441,-1.8359 z m 0.0273,1.5059 a 0.50005,0.50005 0 1 1 0,1 c -1.340539,0 -2.577767,0.7141 -3.248038,1.875 -0.670279,1.161 -0.670279,2.5891 0,3.75 a 0.50005,0.50005 0 1 1 -0.865239,0.5 c -0.848101,-1.4689 -0.848101,-3.281 0,-4.75 0.84811,-1.4689 2.417069,-2.375 4.113277,-2.375 z"/></g></svg>