<svg xmlns="http://www.w3.org/2000/svg" xmlns:xlink="http://www.w3.org/1999/xlink" width="48" height="48" viewBox="0 0 48 48"><defs><linearGradient id="b" x1="992.183" x2="1019.298" y1="516.081" y2="545.959" gradientTransform="matrix(1.53785 0 0 1.53785 -794.812 -103.993)" gradientUnits="userSpaceOnUse" xlink:href="#a"/><linearGradient id="a"><stop offset="0" stop-color="#ff1679"/><stop offset="1" stop-color="#ff770b"/></linearGradient></defs><g transform="rotate(-45 -1195.675 534.131)"><rect width="48" height="48" x="727.893" y="689.027" fill="url(#b)" rx="10.144" ry="10.144" transform="rotate(45)"/><path fill="#fff" fill-rule="evenodd" d="m 35.142639,1031.0292 c -0.59018,-0.6778 -1.383207,-1.1928 -2.32158,-1.4432 -2.502578,-0.6675 -5.059405,0.809 -5.732861,3.3105 l -0.241626,0.9018 -2.432079,9.0308 9.033572,2.4099 0.904559,0.2418 c 2.502557,0.6674 5.058345,-0.8105 5.731482,-3.3119 0.673442,-2.5015 -0.798224,-5.0529 -3.300774,-5.7203 l -0.903258,-0.2403 0.243103,-0.9033 c 0.420863,-1.5634 0.0026,-3.1455 -0.980538,-4.2758 z m -7.9536,-0.4792 c -0.756173,-0.2711 -1.597673,-0.325 -2.436174,-0.099 l -0.789987,0.2127 -0.21134,-0.7914 c -0.584601,-2.1895 -2.815975,-3.4789 -5.00358,-2.8906 -2.187639,0.5884 -3.477946,2.8251 -2.893339,5.0147 l 0.209962,0.7899 2.111583,7.904 6.230042,-1.6753 1.473624,-5.476 0.241619,-0.9018 c 0.211906,-0.787 0.584572,-1.4896 1.06759,-2.0868 z"/></g></svg>