<svg xmlns="http://www.w3.org/2000/svg" xmlns:xlink="http://www.w3.org/1999/xlink" width="48" height="48" viewBox="0 0 48 48"><defs><linearGradient id="b" x1="992.183" x2="1019.298" y1="516.081" y2="545.959" gradientTransform="matrix(1.53785 0 0 1.53785 -794.698 -90.283)" gradientUnits="userSpaceOnUse" xlink:href="#a"/><linearGradient id="a"><stop offset="0" stop-color="#ff1679"/><stop offset="1" stop-color="#ff770b"/></linearGradient></defs><g fill="#fff" transform="rotate(-45 -1212.281 527.414)"><rect width="48" height="48" x="728.007" y="702.736" fill="url(#b)" rx="10.144" ry="10.144" transform="rotate(45)"/><path d="m 21.050916,1030.4264 c -0.587605,-0.5876 -1.533715,-0.5876 -2.12132,0 L 1.9590334,1047.397 c -0.5876051,0.5876 -0.5876051,1.5337 0,2.1213 l 11.3137086,11.3137 c 0.587605,0.5876 1.533714,0.5876 2.12132,0 l 16.970563,-16.9705 c 0.587605,-0.5876 0.587605,-1.5338 0,-2.1214 l -11.313709,-11.3137 z m 3.158503,6.7162 c 0.01259,0.011 0.0246,0.023 0.03591,0.036 l 0.617338,0.6173 0.178157,0.1782 0.618719,0.6187 c 0.485195,0.471 -0.235771,1.192 -0.707107,0.7071 l -0.353553,-0.3536 -2.121321,2.1214 0.353554,0.3535 c 0.485196,0.471 -0.23577,1.192 -0.707107,0.7071 l -1.414214,-1.4142 c -0.495442,-0.4474 0.175856,-1.1904 0.6712,-0.743 0.01259,0.011 0.0246,0.023 0.03591,0.036 l 0.353554,0.3536 2.12132,-2.1214 -0.353554,-0.3535 c -0.49544,-0.4473 0.175858,-1.1904 0.6712,-0.743 z m -4.311694,4.1597 0,0 c 0.287091,0.2869 0.389956,0.7022 0.473705,1.1145 0.412859,0.084 0.82857,0.1876 1.115904,0.4751 0.384249,0.3847 0.624279,0.9139 0.629766,1.4943 0.0067,1.164 -0.947055,2.1155 -2.111652,2.1034 -1.550792,0.037 -1.561988,0.034 -1.561988,0.034 l -1.615849,-0.011 c -0.152042,0 -0.282012,-0.074 -0.372889,-0.1823 -0.107565,-0.091 -0.179413,-0.2204 -0.180919,-0.3715 l -0.0083,-1.6159 c 0,0 -6.15e-4,-7e-4 0.03453,-1.562 -0.01174,-1.1642 0.939716,-2.1179 2.103366,-2.1116 0.580365,0.01 1.109643,0.2454 1.494316,0.6297 z m -0.537236,0.8687 c -0.235636,-0.2353 -0.5588,-0.382 -0.915648,-0.3853 -0.716172,0 -1.287497,0.5695 -1.28025,1.2858 l 0.01105,1.2927 0.01381,1.2927 1.29268,0.011 1.292679,0.01 c 0.716096,0 1.286046,-0.568 1.278869,-1.2844 l -0.0069,0.01 c -0.0071,-0.7163 -0.588663,-1.2958 -1.302348,-1.3024 -0.0035,-0.3581 -0.151069,-0.6817 -0.386699,-0.917 l 0.0028,-0.011 z m -4.661104,3.8353 c 0.199588,0.1996 0.202735,0.5216 0,0.7181 l -1.767767,1.7678 c -0.397889,0.3979 -0.397847,1.0164 0,1.4142 0.397853,0.3979 1.016324,0.3979 1.414213,0 l 1.767767,-1.7678 c 0.471075,-0.4852 1.19202,0.2357 0.707107,0.7071 l -1.767767,1.7678 c -0.777393,0.7773 -2.051062,0.7773 -2.828427,0 -0.777358,-0.7774 -0.777393,-2.051 0,-2.8284 l 1.767767,-1.7678 c 0.192404,-0.1981 0.508806,-0.2033 0.707107,-0.011 z m -6.0242182,3.1571 4.9414602,4.9414 c 0.485188,0.471 -0.235777,1.1921 -0.707106,0.7072 l -4.941461,-4.9415 c -0.4851891,-0.471 0.2357777,-1.192 0.7071068,-0.7071 z m -2.8256652,0 7.7781744,7.7782 c 0.485188,0.4711 -0.235778,1.192 -0.707107,0.7071 l -7.7781741,-7.7782 c -0.4851884,-0.4711 0.2357776,-1.192 0.7071067,-0.7071 z"/></g></svg>