<svg xmlns="http://www.w3.org/2000/svg" xmlns:xlink="http://www.w3.org/1999/xlink" width="48" height="48" viewBox="0 0 48 48"><defs><linearGradient id="b" x1="992.183" x2="1019.298" y1="516.081" y2="545.959" gradientTransform="translate(-794.698 -90.283) scale(1.53785)" gradientUnits="userSpaceOnUse" xlink:href="#a"/><linearGradient id="a"><stop offset="0" stop-color="#ff1679"/><stop offset="1" stop-color="#ff770b"/></linearGradient></defs><g fill="#fff" transform="rotate(-45 -1212.281 527.414)"><rect width="48" height="48" x="728.007" y="702.736" fill="url(#b)" rx="10.144" ry="10.144" transform="rotate(45)"/><path d="m 19.954987,1039.2299 c -1.644009,-1.6441 -6.947321,-3.4473 -13.0461199,-2.4396 0,0 -1.4319041,9.1748 4.2426349,14.8494 5.67451,5.6744 14.849273,4.2425 14.849273,4.2425 1.53794,-5.5684 0.106088,-10.5003 -2.227381,-12.834 -0.742467,-0.7423 -1.7501,-1.1137 -2.704697,-1.1137 -0.05304,-1.0077 -0.424275,-2.015 -1.11371,-2.7046 z m -0.795497,1.3259 c 0.477302,0.4773 -0.212139,1.1665 -0.689427,0.6892 -0.265183,-0.2657 -0.795501,-0.5832 -1.431884,-0.9014 -0.6364,-0.3189 -1.431888,-0.5832 -2.386483,-0.7955 -0.477301,-0.053 -0.954602,-0.2126 -1.537963,-0.2657 -0.212129,0 -0.477295,-0.053 -0.742462,-0.1063 -0.689435,-0.053 -0.583361,-1.0074 0.106059,-0.9546 0.212133,0 0.530335,0 0.795502,0.053 0.530335,0.1063 1.113689,0.1595 1.59099,0.3189 0.954596,0.2126 1.909198,0.5305 2.598619,0.9015 0.742446,0.3189 1.325814,0.6895 1.697049,1.0608 z m -3.553199,1.5378 c 0,0 1.060649,1.6973 2.121319,2.7578 1.06067,1.0605 2.810774,2.1746 2.810774,2.1746 0.265183,1.3255 0.636408,2.6514 0.583382,3.9774 -0.21214,-0.1063 -0.477302,-0.1595 -0.742471,-0.3189 -1.697071,-0.6364 -3.288069,-1.591 -4.719971,-3.0229 -1.431903,-1.4322 -2.386513,-3.0231 -3.022886,-4.72 -0.265166,-0.4773 -0.371234,-1.0078 -0.530334,-1.485 l 0,-0.1063 3.500187,0.7423 z m -4.560848,-3.8183 c 0.318201,0.3189 0.106072,0.8487 -0.42426,0.8487 -0.212133,0 -0.530335,0 -0.8485355,0 -0.6894223,0.053 -0.7424633,-0.9546 -0.05303,-1.0078 0.3182035,0 0.6363955,0 0.9545895,0 0.10607,0 0.265165,0.053 0.371233,0.1595 z"/></g></svg>