<svg xmlns="http://www.w3.org/2000/svg" xmlns:xlink="http://www.w3.org/1999/xlink" width="48" height="48" viewBox="0 0 48 48"><defs><linearGradient id="b" x1="868.253" x2="937.656" y1="521.354" y2="588.736" gradientTransform="matrix(1.53785 0 0 1.53785 -598.962 -90.283)" gradientUnits="userSpaceOnUse" xlink:href="#a"/><linearGradient id="a"><stop offset="0" stop-color="#24f3d2"/><stop offset=".394" stop-color="#0674f0"/><stop offset=".507" stop-color="#6961b5"/><stop offset=".813" stop-color="#f34660"/><stop offset="1" stop-color="#ee078d"/></linearGradient></defs><g fill="#fff" transform="rotate(-45 -1212.281 527.414)"><rect width="48" height="48" x="728.007" y="702.736" fill="url(#b)" rx="10.144" ry="10.144" transform="rotate(45)"/><path fill-rule="evenodd" d="m 20.437003,1034.8966 c -1.113996,-1.114 -2.652382,-1.8037 -4.402959,-1.8568 -3.448105,0.053 -6.2596355,2.8648 -6.2596165,6.2596 l -7e-6,1.2731 0.05304,2.7057 c 0,0 0,0 0.106099,0 l 2.1219115,0.4243 1.273155,-1.2731 c 0.159143,-0.1595 0.477412,-0.1595 0.636556,0 l 1.060956,1.0608 1.803622,-1.8034 c 0.159143,-0.1595 0.477433,-0.1595 0.689619,0.053 0.212195,0.2127 0.212191,0.5306 0.05305,0.6897 l -2.015794,2.0157 -2.1e-5,2.5462 c 0,0.4246 -0.31829,0.6369 -0.636578,0.5306 l -1.644471,-0.5834 -0.583551,1.6446 c -0.212191,0.6365 -1.167037,0.319 -0.954845,-0.319 l 0.742681,-2.122 c 0.05305,-0.2658 0.371337,-0.3715 0.636578,-0.319 l 1.432271,0.4774 2.8e-5,-1.9097 -0.901818,-0.902 -1.060963,1.0612 c -0.106096,0.1063 -0.265236,0.1595 -0.424377,0.1063 l -2.3871615,-0.3714 -0.05302,8.753 12.5192185,0 1.220107,-0.053 c 3.129812,0.053 5.676106,-2.2812 6.153526,-5.1989 l -1.007915,-0.053 7e-6,0.5306 c 0,0.6365 -1.007906,0.6893 -1.007913,-0.053 l 0,-0.4246 -1.007844,-0.053 7e-6,0.5306 c -7.1e-5,0.6366 -1.007907,0.6894 -1.007914,-0.053 l 0,-0.4242 -1.007908,-0.053 0,0.5306 c 0.05305,0.6894 -1.007907,0.6894 -0.954866,0 l 0,-0.5306 -1.007908,0.053 -0.05305,0.4774 c 0.05305,0.6894 -1.007908,0.6894 -0.954867,0 l 0,-0.5306 -1.007907,0.053 0,0.4242 c 0,0.7426 -1.007893,0.6898 -1.007893,0.053 l -2.2e-5,-0.5306 -0.477412,0.053 c -0.689626,-0.053 -0.689647,-1.008 -2.2e-5,-1.0612 l 0.477434,0.053 -7e-6,-0.5306 c 0,-0.4243 0.53048,-0.6366 0.84877,-0.319 0.106095,0.1063 0.159143,0.1595 0.106099,0.319 l 0.05305,0.4774 1.007914,0.053 -7e-6,-0.5306 c 0,-0.4243 0.53048,-0.6366 0.84877,-0.319 0.05305,0.053 0.159143,0.1595 0.106099,0.319 l 0.05305,0.4774 1.007914,0.053 -8e-6,-0.5306 c -0.05305,-0.4774 0.477433,-0.6897 0.795722,-0.3714 0.106096,0.1063 0.159144,0.2658 0.159144,0.3714 l 0,0.5306 1.007907,-0.053 0.05305,-0.4774 c -0.05305,-0.4774 0.477434,-0.6897 0.795723,-0.3711 0.106095,0.1063 0.159143,0.2658 0.159143,0.3711 l 10e-7,0.5306 1.007907,-0.053 -0.05305,-0.4774 c 0.05305,-0.4774 0.583529,-0.6894 0.90182,-0.3711 0.106081,0.1063 0.15914,0.2658 0.15914,0.3711 l -7.5e-5,0.5306 1.060956,0 c 0.05306,-0.053 0.05306,-0.053 0.05306,-0.053 6.3e-5,-3.3951 -2.758441,-6.1536 -6.206559,-6.2064 l -1.273148,0 0.05304,-1.2203 c -0.05303,-1.7506 -0.742653,-3.2888 -1.856656,-4.4028 z m -1.060955,1.0608 c 0.477433,0.4775 -0.265236,1.2203 -0.689619,0.6898 -0.901811,-0.9017 -2.334104,-1.2732 -3.607244,-0.9549 -1.326197,0.3715 -2.334104,1.3791 -2.652386,2.6522 -0.159144,0.6898 -1.167052,0.4246 -0.954867,-0.2126 0.424386,-1.6977 1.697534,-2.9709 3.342012,-3.3423 1.644485,-0.4774 3.395059,0 4.562104,1.1671 z"/></g></svg>