<svg xmlns="http://www.w3.org/2000/svg" xmlns:xlink="http://www.w3.org/1999/xlink" width="48" height="48" viewBox="0 0 48 48"><defs><linearGradient id="b" x1="906.952" x2="931.379" y1="515.915" y2="546.094" gradientTransform="translate(-660.712 -90.283) scale(1.53785)" gradientUnits="userSpaceOnUse" xlink:href="#a"/><linearGradient id="a"><stop offset="0" stop-color="#ffd800"/><stop offset="1" stop-color="#ff6100"/></linearGradient></defs><g fill="#fff" transform="rotate(-45 -1212.281 527.414)"><rect width="48" height="48" x="728.007" y="702.736" fill="url(#b)" rx="10.144" ry="10.144" transform="rotate(45)"/><path d="m 27.761346,1035.7258 a 0.50005,0.50005 0 0 0 -0.707099,0.011 l -0.701592,0.7016 a 0.50005,0.50005 0 1 0 0.707107,0.7071 l 0.701591,-0.7016 a 0.50005,0.50005 0 0 0 -7e-6,-0.7181 z m 2.528741,6.2935 a 0.50005,0.50005 0 0 0 -0.0028,0 0.50005,0.50005 0 0 0 -0.499946,-0.1 l -0.01131,0 a 0.5000653,0.5000653 0 1 0 0.31631,0.9487 l 0.01131,0 a 0.50005,0.50005 0 0 0 0.187879,-0.8481 z m -8.84712,-8.8471 a 0.50005,0.50005 0 0 0 -0.82175,0.2583 l -0.0028,0.011 a 0.50005,0.50005 0 1 0 0.969457,0.2431 l 0.0028,-0.011 a 0.50005,0.50005 0 0 0 -0.147778,-0.5014 z m 4.202574,4.6694 a 0.50005,0.50005 0 0 0 -0.705685,0.01 l -1.408698,1.4087 a 0.50005,0.50005 0 1 0 0.707106,0.7071 l 1.408699,-1.4087 a 0.50005,0.50005 0 0 0 -0.0014,-0.7167 z m -4.716309,-2.7277 a 0.50005,0.50005 0 0 0 -0.824529,0.2445 l -0.51647,1.9252 a 0.50050437,0.50050437 0 1 0 0.966749,0.2596 l 0.51647,-1.9251 a 0.50005,0.50005 0 0 0 -0.14222,-0.5042 z m 7.443953,7.444 a 0.50005,0.50005 0 0 0 -0.493066,-0.1312 l -1.925169,0.5165 a 0.50050437,0.50050437 0 1 0 0.259643,0.9667 l 1.925168,-0.5164 a 0.50005,0.50005 0 0 0 0.233424,-0.8356 z m -6.666446,-1.5371 c -4.915665,-4.487 -12.6767852,-4.2303 -12.6767852,-4.2303 0,0 -0.2529391,7.7105 4.1901592,12.6285 a 6,6 0 0 1 0.406035,-8.0323 6,6 0 0 1 8.080591,-0.3659 z m 0.823121,0.8231 a 6,6 0 0 1 -0.415672,8.0254 6,6 0 0 1 -8.093086,0.3536 c 4.914924,4.4994 12.689279,4.2426 12.689279,4.2426 0,0 0.254466,-7.7032 -4.180521,-12.6216 z m -3.938775,0.7899 c -0.342473,-0.3424 -0.814318,-0.5556 -1.336884,-0.5579 -1.04521,0 -1.88285,0.8332 -1.878289,1.8783 l 0.0014,0.377 0.0166,3.7731 3.773045,0.017 0.377015,0 c 1.045139,0 1.882778,-0.8331 1.878288,-1.8783 -0.0046,-1.0452 -0.849688,-1.8903 -1.894827,-1.8949 l -0.377015,0 -0.0014,-0.377 c -0.0023,-0.5225 -0.215463,-0.9944 -0.557943,-1.3369 z m -8.569584,4.8407 a 0.50005,0.50005 0 0 0 -0.4944087,-0.1298 l -1.9238254,0.5151 a 0.50052885,0.50052885 0 1 0 0.2596426,0.9668 l 1.9238254,-0.5151 a 0.50005,0.50005 0 0 0 0.2347661,-0.837 z m 5.991077,5.9911 a 0.50005,0.50005 0 0 0 -0.82453,0.2445 l -0.515128,1.9238 a 0.50051215,0.50051215 0 1 0 0.96675,0.2597 l 0.513749,-1.9252 a 0.50005,0.50005 0 0 0 -0.140841,-0.5028 z m -3.804823,-2.1862 a 0.50005,0.50005 0 0 0 -0.707099,0.011 l -1.408698,1.4087 a 0.50005,0.50005 0 1 0 0.707106,0.7071 l 1.408698,-1.4087 a 0.50005,0.50005 0 0 0 -7e-6,-0.7181 z m -6.0214663,-2.7622 a 0.50005,0.50005 0 0 0 -0.034507,-0.034 0.50005,0.50005 0 0 0 -0.4985315,-0.1008 l -0.012728,0 a 0.5000653,0.5000653 0 1 0 0.3162394,0.9488 l 0.012728,0 a 0.50005,0.50005 0 0 0 0.2182273,-0.8149 z m 8.8264103,8.8264 a 0.50005,0.50005 0 0 0 -0.03592,-0.036 0.50005,0.50005 0 0 0 -0.8203,0.2596 l -0.0028,0.011 a 0.50025304,0.50025304 0 0 0 0.970872,0.2417 l 0.0028,-0.011 a 0.50005,0.50005 0 0 0 -0.113244,-0.4668 z m -5.6278553,-3.2413 a 0.50005,0.50005 0 0 0 -0.7070997,0.011 l -0.7015914,0.7016 a 0.50005,0.50005 0 1 0 0.7071068,0.7071 l 0.7015913,-0.7016 a 0.50005,0.50005 0 0 0 -7e-6,-0.7181 z"/></g></svg>