<svg xmlns="http://www.w3.org/2000/svg" xmlns:xlink="http://www.w3.org/1999/xlink" width="48" height="48" viewBox="0 0 48 48"><defs><linearGradient id="b" x1="992.183" x2="1019.298" y1="516.081" y2="545.959" gradientTransform="matrix(1.53785 0 0 1.53785 -794.698 -90.283)" gradientUnits="userSpaceOnUse" xlink:href="#a"/><linearGradient id="a"><stop offset="0" stop-color="#ff1679"/><stop offset="1" stop-color="#ff770b"/></linearGradient></defs><g fill="#fff" transform="rotate(-45 -1212.281 527.414)"><rect width="48" height="48" x="728.007" y="702.736" fill="url(#b)" rx="10.144" ry="10.144" transform="rotate(45)"/><path fill-rule="evenodd" d="m 20.856259,1035.889 c -1.124301,-1.1243 -2.680714,-1.8166 -4.407002,-1.8133 -3.452442,0.01 -6.237241,2.7912 -6.243754,6.2438 l -0.0028,1.2457 -0.0235,12.4641 12.464159,-0.024 1.245717,0 c 3.452513,-0.01 6.237311,-2.7913 6.243753,-6.2438 0.0024,-1.226 -0.350845,-2.3621 -0.955655,-3.3229 l -1.142168,-0.073 -0.731955,2.7317 -2.532856,-0.384 -0.980587,2.2982 -3.998174,-0.924 2.798029,-1.1545 0.932222,-2.3851 2.230441,-0.134 0.635258,-2.3671 c -0.757757,-0.3256 -1.593819,-0.5072 -2.474888,-0.5055 l -1.245717,0 0.0028,-1.2457 c 0.0033,-1.7263 -0.689026,-3.2827 -1.813333,-4.407 z m -1.045459,1.0841 a 0.50005,0.50005 0 1 1 -0.707106,0.7071 c -0.947905,-0.9479 -2.327633,-1.3179 -3.622537,-0.9709 -1.29484,0.3469 -2.304659,1.3568 -2.65165,2.6517 a 0.50051181,0.50051181 0 1 1 -0.966749,-0.2597 c 0.439042,-1.6384 1.72039,-2.9198 3.358757,-3.3587 1.638444,-0.4391 3.389884,0.031 4.589285,1.2305 z"/></g></svg>