<svg xmlns="http://www.w3.org/2000/svg" xmlns:xlink="http://www.w3.org/1999/xlink" width="48" height="48" viewBox="0 0 48 48"><defs><linearGradient id="b" x1="992.183" x2="1019.298" y1="516.081" y2="545.959" gradientTransform="translate(-794.698 -90.283) scale(1.53785)" gradientUnits="userSpaceOnUse" xlink:href="#a"/><linearGradient id="a"><stop offset="0" stop-color="#ff1679"/><stop offset="1" stop-color="#ff770b"/></linearGradient></defs><g fill="#fff" transform="rotate(-45 -1212.281 527.414)"><rect width="48" height="48" x="728.007" y="702.736" fill="url(#b)" rx="10.144" ry="10.144" transform="rotate(45)"/><path d="m 19.990264,1030.78 c -0.391737,-0.3917 -1.022477,-0.3917 -1.414214,0 l -16.2634545,16.2635 c -0.391737,0.3917 -0.391737,1.0225 0,1.4142 l 9.1923865,9.1924 c 0.384391,0.3844 0.99642,0.3865 1.389423,0.016 l 6.381851,-6.3819 -1.06066,-1.0606 -3.179223,3.1792 c -0.195254,0.1952 -0.511854,0.1953 -0.707107,0 l -7.7795535,-7.7796 c -0.195253,-0.1952 -0.19521,-0.5118 0,-0.7071 l 11.3178805,-11.3178 c 0.195253,-0.1953 0.511853,-0.1953 0.707107,0 l 7.779553,7.7795 c 0.195254,0.1953 0.195211,0.5119 0,0.7071 l -1.066176,1.0662 1.060661,1.0607 2.850489,-2.8505 c 0.369958,-0.393 0.367815,-1.005 -0.01658,-1.3894 l -9.192388,-9.1924 z m 2.786997,4.2012 c 0.01259,0.011 0.02461,0.023 0.03592,0.036 l 2.12132,2.1213 c 0.485189,0.471 -0.235778,1.192 -0.707107,0.7071 l -2.12132,-2.1213 c -0.495448,-0.4474 0.175851,-1.1905 0.671186,-0.7431 z m -4.556115,-0.3218 -10.6107725,10.6108 7.0724455,7.0724 2.82567,-2.8256 -0.0083,-0.01 c -0.128708,-0.1287 -0.30238,-0.2034 -0.484743,-0.203 l -3.466429,-10e-5 c -0.514667,0 -0.940975,-0.334 -1.111819,-0.7471 -0.171063,-0.4129 -0.10287,-0.9412 0.261078,-1.3051 l 0.923906,-0.9239 2.520482,-2.5205 3.487168,-3.4872 c 0.776834,-0.7768 2.052949,-0.7755 2.829805,0 l 2.12132,2.1213 0.712622,-0.7126 -7.072445,-7.0725 z m 3.534155,6.3681 c -0.394707,-0.3947 -1.025029,-0.3947 -1.419736,0 l -3.487167,3.4872 -2.520483,2.5205 -0.923905,0.9239 c -0.07877,0.079 -0.07425,0.1428 -0.04144,0.2182 0.03147,0.077 0.07475,0.1256 0.186471,0.1256 l 3.466499,0 c 0.446715,1e-4 0.878538,0.1799 1.194593,0.4958 l 4.953891,4.9539 c 0.394714,0.3948 1.019514,0.4003 1.414221,0.01 l 4.244054,-4.2441 c 0.3947,-0.3947 0.3947,-1.025 -7e-6,-1.4197 l -7.066924,-7.067 z m 2.012213,3.4264 c 0.290112,0.2899 0.393067,0.7116 0.476498,1.1284 0.0064,0.01 0.01153,0.011 0.01089,0.025 0.0064,0.01 0.01039,0.011 0.02362,0.01 0.416755,0.083 0.838473,0.1863 1.128302,0.4765 0.383146,0.3835 0.621505,0.9109 0.625648,1.4901 0.0039,1.1617 -0.949672,2.1125 -2.111774,2.1033 l -1.611737,-0.012 -1.345115,-0.011 -0.269344,0 c -0.06887,-10e-4 -0.133176,-0.016 -0.193337,-0.042 -0.05883,-0.025 -0.111504,-0.059 -0.155981,-0.1036 -0.04533,-0.045 -0.08216,-0.1006 -0.107797,-0.1602 -0.02496,-0.059 -0.03796,-0.1228 -0.03869,-0.1905 l -0.0014,0 3.5e-5,-0.2679 -0.01109,-1.3451 -0.0124,-1.6118 c -0.009,-1.1619 0.941767,-2.1154 2.103288,-2.1117 0.579163,0 1.10658,0.2425 1.49015,0.6256 z m -0.537231,0.877 c -0.23454,-0.2342 -0.558395,-0.3813 -0.914268,-0.3839 -0.714503,0 -1.285817,0.5712 -1.280216,1.2859 l 0.01105,1.2899 0.0097,1.2912 1.288532,0 1.291333,0 c 0.714496,0 1.285746,-0.5711 1.280146,-1.2858 l -0.0071,0.01 c -0.0054,-0.7146 -0.586248,-1.2932 -1.298206,-1.2982 -0.0027,-0.3573 -0.148012,-0.6787 -0.382552,-0.9129 z m -13.4985896,4.889 c 0.5815946,0.5816 0.5815946,1.5398 0,2.1214 -0.5815949,0.5816 -1.5397249,0.5816 -2.1213199,0 -0.581603,-0.5816 -0.581596,-1.5398 0,-2.1214 0.581595,-0.5816 1.539718,-0.5816 2.1213199,0 z m -0.7071069,0.7071 c -0.199453,-0.1994 -0.507632,-0.1994 -0.707107,0 -0.199474,0.1995 -0.199453,0.5077 0,0.7072 0.199447,0.1994 0.507632,0.1994 0.707107,0 0.199475,-0.1995 0.199447,-0.5077 0,-0.7072 z"/></g></svg>