<svg xmlns="http://www.w3.org/2000/svg" xmlns:xlink="http://www.w3.org/1999/xlink" width="48" height="48" viewBox="0 0 48 48"><defs><linearGradient id="b" x1="868.253" x2="937.656" y1="521.354" y2="588.736" gradientTransform="matrix(1.53785 0 0 1.53785 -599.075 -103.993)" gradientUnits="userSpaceOnUse" xlink:href="#a"/><linearGradient id="a"><stop offset="0" stop-color="#24f3d2"/><stop offset=".394" stop-color="#0674f0"/><stop offset=".507" stop-color="#6961b5"/><stop offset=".813" stop-color="#f34660"/><stop offset="1" stop-color="#ee078d"/></linearGradient></defs><g transform="rotate(-45 -1195.675 534.131)"><rect width="48" height="48" x="727.893" y="689.027" fill="url(#b)" rx="10.144" ry="10.144" transform="rotate(45)"/><path fill="#fff" d="m 29.957358,1019.9448 c -0.593715,-0.5937 -1.527633,-0.5937 -2.12132,0 l -0.353554,0.3535 2.121321,2.1214 0.164331,-0.1644 0.189222,-0.1892 c 0.593687,-0.5937 0.593722,-1.5276 0,-2.1213 z m 1.404547,1.4045 c -0.07188,0.5211 -0.298491,1.025 -0.69744,1.4239 l -0.189222,0.1892 -0.459902,0.4599 c -0.03182,0.045 -0.07036,0.083 -0.114622,0.1147 l -5.093361,5.0933 -2.915473,2.9155 -0.138097,0.1381 -0.132583,0.1326 1.219477,7.3956 c 0.07932,0.4817 0.290345,0.7925 0.661526,0.9626 0.123447,0.057 0.264847,0.098 0.425375,0.1243 l 7.733973,1.2761 0.0042,0 0.142128,-0.1507 0.106349,-0.1063 2.752484,-2.7525 4.480158,-4.4802 1.414213,-1.4142 c 0.593687,-0.5937 0.593723,-1.5276 0,-2.1213 l -9.202054,-9.202 z m 2.448633,5.2771 a 0.50005,0.50005 0 0 1 0.03592,0.036 l 2.828428,2.8284 a 0.50005,0.50005 0 1 1 -0.707107,0.7071 l -2.828427,-2.8284 a 0.50064475,0.50064475 0 1 1 0.671185,-0.743 z m -4.24264,0 a 0.50004997,0.50004997 0 0 1 0.03592,0.036 l 7.071068,7.0711 a 0.50004997,0.50004997 0 1 1 -0.707107,0.7071 l -7.071068,-7.0711 a 0.50064475,0.50064475 0 1 1 0.671186,-0.743 z m -1.414214,1.4142 a 0.50004997,0.50004997 0 0 1 0.03592,0.036 l 7.071068,7.0711 a 0.50004997,0.50004997 0 1 1 -0.707107,0.7071 l -7.071068,-7.0711 a 0.50064475,0.50064475 0 1 1 0.671186,-0.743 z m -1.414213,1.4142 a 0.50004997,0.50004997 0 0 1 0.03592,0.036 l 7.071067,7.0711 a 0.50004997,0.50004997 0 1 1 -0.707106,0.7071 l -7.071068,-7.0711 a 0.50064475,0.50064475 0 1 1 0.671186,-0.743 z m -2.967954,-1.2029 c -1.197245,-0.1957 -2.213612,-0.3464 -2.803559,-0.406 l 0.454338,2.7553 2.349221,-2.3493 z m 11.290374,11.3371 -2.186233,2.1862 2.593682,0.4281 c -0.07176,-0.627 -0.217944,-1.5471 -0.407449,-2.6143 z m -9.736493,-8.7201 a 0.50004997,0.50004997 0 0 1 0.03592,0.036 l 7.071068,7.0711 a 0.50004997,0.50004997 0 1 1 -0.707106,0.7071 l -7.071068,-7.0711 a 0.50064475,0.50064475 0 0 1 0.671185,-0.743 z m 10.171505,12.3509 -11.73211,-1.9321 c -0.997721,-0.1644 -1.748436,-0.9151 -1.912774,-1.9128 l -1.889369,-11.4711 c -0.09044,0.047 -0.181019,0.095 -0.258235,0.1725 l -8.485281,8.4853 c -0.397889,0.3979 -0.397861,1.0164 0,1.4142 l 14.142136,14.1422 c 0.397868,0.3978 1.016325,0.3979 1.414214,0 l 8.485281,-8.4853 c 0.120703,-0.1207 0.190282,-0.264 0.236103,-0.4129 z m -11.585718,-10.9367 a 0.50004997,0.50004997 0 0 1 0.03592,0.036 l 7.071068,7.0711 a 0.50004997,0.50004997 0 1 1 -0.707107,0.7071 l -7.071068,-7.0711 a 0.50064475,0.50064475 0 0 1 0.671186,-0.743 z m 1.762244,13.076 c 0.01259,0.011 0.02461,0.023 0.03592,0.036 l 2.121321,2.1213 c 0.485188,0.471 -0.235707,1.1919 -0.707107,0.7071 l -2.12132,-2.1213 c -0.495491,-0.4474 0.175928,-1.1906 0.671185,-0.743 z m -2.822904,0.01 c 0.01259,0.011 0.02461,0.023 0.03592,0.036 l 3.530011,3.53 c 0.485189,0.4711 -0.235707,1.192 -0.707107,0.7071 l -3.530011,-3.53 c -0.495491,-0.4474 0.175928,-1.1906 0.671186,-0.743 z"/></g></svg>