<svg xmlns="http://www.w3.org/2000/svg" xmlns:xlink="http://www.w3.org/1999/xlink" width="48" height="48" viewBox="0 0 48 48"><defs><linearGradient id="b" x1="906.952" x2="931.379" y1="515.915" y2="546.094" gradientTransform="matrix(1.53785 0 0 1.53785 -1388.719 211.343)" gradientUnits="userSpaceOnUse" xlink:href="#a"/><linearGradient id="a"><stop offset="0" stop-color="#ffd800"/><stop offset="1" stop-color="#ff6100"/></linearGradient></defs><g transform="translate(0 -1004.362)"><rect width="48" height="48" y="1004.362" fill="url(#b)" rx="10.144" ry="10.144"/><path fill="#fff" style="line-height:normal;text-indent:0;text-align:start;text-decoration-line:none;text-decoration-style:solid;text-decoration-color:#000;text-transform:none;block-progression:tb;isolation:auto;mix-blend-mode:normal" d="m 14,1016.3622 c -0.552285,0 -1,0.4477 -1,1 l 0,22 c 0,0.5523 0.4477,1 1,1 l 20,0 c 0.5523,0 1,-0.4477 1,-1 l 0,-22 c 0,-0.5523 -0.447715,-1 -1,-1 l -20,0 z m 1.5,2 17,0 c 0.276131,0 0.499972,0.2239 0.5,0.5 l 0,16 c -2.8e-5,0.2761 -0.223869,0.5 -0.5,0.5 l -17,0 c -0.276131,0 -0.499972,-0.2239 -0.5,-0.5 l 0,-16 c 2.8e-5,-0.2761 0.223869,-0.5 0.5,-0.5 z m 0.5,1 0,15 16,0 0,-15 -16,0 z m 5.314453,1.3398 c 0.937793,10e-5 1.877378,0.3574 2.591797,1.0723 l 0.09375,0.094 0.0918,-0.092 c 1.42773,-1.4317 3.750909,-1.43 5.179687,0 1.428566,1.4297 1.429785,3.7525 0.002,5.1816 l -0.447266,0.4473 -4.46875,4.4726 c -0.195265,0.1952 -0.511766,0.1952 -0.707031,0 l -4.47461,-4.4785 -0.447265,-0.4473 c -1.428542,-1.43 -1.429826,-3.7526 -0.002,-5.1816 0.408201,-0.4082 1.273435,-1.0684 2.587888,-1.0684 z m 0.002,0.9922 0,0 c -0.678744,-2e-4 -1.358655,0.2615 -1.882812,0.7871 l -0.002,0 c -1.043463,1.0493 -1.044075,2.7127 0.0039,3.7617 l 0.447265,0.4473 4.121094,4.125 4.115235,-4.1192 0.447265,-0.4472 c 1.048107,-1.0491 1.047601,-2.7171 -0.002,-3.7676 -1.049841,-1.0488 -2.715321,-1.0513 -3.763672,0 l -0.447265,0.4473 c -0.195487,0.1964 -0.513498,0.1964 -0.708985,0 l -0.447212,-0.4493 c -0.524941,-0.5253 -1.202115,-0.787 -1.88086,-0.7871 z m 0.03706,1.043 c 0.129424,0 0.259192,0.024 0.386718,0.059 0.642565,0.1743 0.383632,1.138 -0.259765,0.9668 -0.210608,-0.056 -0.434444,-0.014 -0.607422,0.1191 -0.172976,0.1327 -0.273433,0.3387 -0.273438,0.5567 0.0096,0.6761 -1.009563,0.6761 -1,0 1.1e-5,-0.5281 0.247056,-1.0281 0.666016,-1.3496 0.314225,-0.2415 0.699618,-0.3639 1.087891,-0.3516 z" color="#000" font-family="sans-serif" font-weight="400" overflow="visible" white-space="normal"/></g></svg>