<svg xmlns="http://www.w3.org/2000/svg" xmlns:xlink="http://www.w3.org/1999/xlink" width="48" height="48" viewBox="0 0 48 48"><defs><linearGradient id="b" x1="906.952" x2="931.379" y1="515.915" y2="546.094" gradientTransform="matrix(1.53785 0 0 1.53785 -660.712 -90.283)" gradientUnits="userSpaceOnUse" xlink:href="#a"/><linearGradient id="a"><stop offset="0" stop-color="#ffd800"/><stop offset="1" stop-color="#ff6100"/></linearGradient></defs><g fill="#fff" transform="rotate(-45 -1212.281 527.414)"><rect width="48" height="48" x="728.007" y="702.736" fill="url(#b)" rx="10.144" ry="10.144" transform="rotate(45)"/><path fill-rule="evenodd" d="m 20.879568,1035.912 c -1.1243,-1.1243 -2.680777,-1.8165 -4.407001,-1.8133 -3.452441,0.01 -6.237312,2.7913 -6.243824,6.2438 l -0.0028,1.2457 -0.02208,12.4628 12.462744,-0.022 1.245717,0 c 1.758348,0 3.337141,-0.7336 4.469127,-1.9004 l -5.655412,-0.057 -6.457872,0 c -1.367679,2e-4 -2.499877,-1.132 -2.499729,-2.4997 l -0.0028,-2.9997 c 5e-5,-1.3676 1.133542,-2.5011 2.501107,-2.5011 l 6.637443,0 0.01273,0 6.044992,0.059 c -1.127326,-1.5537 -2.947136,-2.5685 -5.025755,-2.5646 l -1.245717,0 0.0028,-1.2457 c 0.0033,-1.7263 -0.689026,-3.2827 -1.813333,-4.407 z m 8.688299,9.2187 -1.796759,-0.018 2.1e-5,5.9551 c -4.24e-4,0.017 -0.0011,0.033 -0.0027,0.05 l 1.405942,0.014 c 0.617099,-0.9677 0.979604,-2.1136 0.981945,-3.3491 0.0018,-0.9512 -0.211998,-1.8474 -0.588327,-2.6517 z m -9.732385,-8.1359 c 0.485188,0.471 -0.235778,1.192 -0.707107,0.7071 -0.947905,-0.9479 -2.327633,-1.3179 -3.622536,-0.9709 -1.29484,0.3469 -2.304659,1.3567 -2.65165,2.6517 -0.152679,0.6766 -1.170962,0.4041 -0.965371,-0.2583 0.439043,-1.6384 1.720391,-2.9198 3.358757,-3.3588 1.638444,-0.439 3.388505,0.03 4.587907,1.2292 z m 6.934335,8.0723 -5.999364,10e-5 -1.4e-5,5.9993 5.999371,0 7e-6,-5.9994 z m -1.640559,1.6519 a 0.5,0.5 0 0 1 0.140856,0.348 0.5,0.5 0 0 1 -0.499925,0.5 0.5,0.5 0 0 1 -0.499945,-0.5 0.5,0.5 0 0 1 0.499924,-0.4999 0.5,0.5 0 0 1 0.35909,0.1519 z m -1.999818,0 a 0.5,0.5 0 0 1 0.140863,0.3481 0.5,0.5 0 0 1 -0.499925,0.4999 0.5,0.5 0 0 1 -0.499953,-0.5 0.5,0.5 0 0 1 0.499925,-0.4999 0.5,0.5 0 0 1 0.35909,0.1519 z m 1.99979,1.9998 a 0.5,0.5 0 0 1 0.140856,0.3481 0.5,0.5 0 0 1 -0.499925,0.4999 0.5,0.5 0 0 1 -0.499946,-0.5 0.5,0.5 0 0 1 0.499925,-0.4999 0.5,0.5 0 0 1 0.35909,0.1519 z m -5.359905,-3.6529 -3.49962,0 c -0.830992,0 -1.499844,0.6688 -1.499844,1.4998 l 0.0014,3.0011 c -7e-5,0.831 0.668774,1.4999 1.499837,1.4998 l 3.498276,0 -2.8e-5,-6.0021 z m 3.360165,3.6529 a 0.5,0.5 0 0 1 0.140855,0.348 0.5,0.5 0 0 1 -0.499995,0.5 0.5,0.5 0 0 1 -0.499946,-0.4999 0.5,0.5 0 0 1 0.499995,-0.5 0.5,0.5 0 0 1 0.359091,0.1519 z"/></g></svg>