<svg xmlns="http://www.w3.org/2000/svg" xmlns:xlink="http://www.w3.org/1999/xlink" width="48" height="48" viewBox="0 0 48 48"><defs><linearGradient id="b" x1="992.183" x2="1019.298" y1="516.081" y2="545.959" gradientTransform="matrix(1.53785 0 0 1.53785 -794.812 -103.993)" gradientUnits="userSpaceOnUse" xlink:href="#a"/><linearGradient id="a"><stop offset="0" stop-color="#ff1679"/><stop offset="1" stop-color="#ff770b"/></linearGradient></defs><g transform="rotate(-45 -1195.675 534.131)"><rect width="48" height="48" x="727.893" y="689.027" fill="url(#b)" rx="10.144" ry="10.144" transform="rotate(45)"/><path fill="#fff" d="m 39.171898,1025.627 c -0.406926,-0.3504 -0.973545,-0.5022 -1.530236,-0.3563 -0.246971,-0.8872 -1.164202,-1.413 -2.055001,-1.1795 -0.890721,0.2334 -1.408493,1.1361 -1.161514,2.0233 l 0.446092,1.6007 0.444671,1.602 1.608986,-0.4212 1.60753,-0.4226 c 0.890728,-0.2334 1.409872,-1.1347 1.162893,-2.0219 -0.09259,-0.3328 -0.279264,-0.6143 -0.523421,-0.8245 z m -8.430057,-1.2043 c -0.507257,-0.5073 -1.332853,-0.5051 -1.845082,0 -0.507264,-0.5073 -1.332924,-0.505 -1.845152,0 l -0.0071,0.01 c -0.512229,0.5023 -0.511401,1.3088 -0.0041,1.8161 l 0.922718,0.9085 0.922718,0.9086 0.923905,-0.9074 0.92532,-0.9059 c 0.512228,-0.5023 0.511436,-1.3116 0.0042,-1.8189 z m 7.471581,8.8858 c -0.507265,-0.5073 -1.316534,-0.508 -1.818898,0 l -0.90736,0.924 -0.905945,0.9253 0.908583,0.9227 0.908576,0.9227 c 0.507264,0.5073 1.313726,0.5081 1.816097,0 l 0.0071,-0.01 c 0.502329,-0.5122 0.501792,-1.3351 -0.0027,-1.8451 0.502329,-0.5123 0.501714,-1.3351 -0.0028,-1.8451 z m -15.680667,-6.6402 c -0.0379,-0.038 -0.08577,-0.055 -0.126847,-0.086 l 1.341056,8.1441 c 0.230779,-0.068 0.468466,-0.1155 0.719503,-0.1146 l 0.0028,0 c 0.713336,0.01 1.362998,0.3 1.836851,0.7734 l -0.0071,0.01 c 0.293789,0.2935 0.350181,0.7378 0.480607,1.1407 0.957931,0.309 1.735254,1.0218 1.874087,2.0233 0.02319,0.073 0.03772,0.1481 0.04424,0.2237 0,0.014 -0.0099,0.02 -0.01089,0.033 l -0.004,-0.018 c -0.0035,0.011 5.65e-4,0.015 0.0025,0.019 0.01293,0.2093 -0.01264,0.4143 -0.05524,0.6159 l 7.983928,1.3162 -14.081374,-14.0813 z m 14.382489,15.1448 -8.710445,-1.4349 c -0.461621,0.6362 -1.211557,1.0827 -2.096423,1.0827 l -0.0014,0 -1.613073,-0.01 -1.61173,-0.01 c -0.54788,0 -0.991243,-0.4465 -0.994369,-0.9944 l -0.01244,-1.6144 -0.0124,-1.6118 c -0.0063,-0.8032 0.372059,-1.5216 0.951526,-2.0039 l -1.437655,-8.7297 c -0.0903,0.047 -0.181019,0.098 -0.258306,0.1754 l -8.485281,8.4853 c -0.397819,0.3978 -0.397861,1.0163 0,1.4142 l 14.142136,14.1421 c 0.397868,0.3979 1.016396,0.3978 1.414214,0 l 8.485281,-8.4853 c 0.12035,-0.1203 0.192828,-0.2631 0.240353,-0.4116 z m -11.312379,-5.7217 c -0.293209,-0.293 -0.695729,-0.4747 -1.140726,-0.4779 -0.893394,0 -1.607636,0.7155 -1.600607,1.6091 l 0.01247,1.6116 0.01106,1.6131 1.613074,0.01 1.613073,0.01 c 0.893394,0 1.606214,-0.7141 1.599193,-1.6077 l -0.0071,0.01 c -0.0067,-0.8935 -0.731163,-1.6152 -1.621368,-1.6214 -0.0034,-0.4466 -0.187369,-0.8506 -0.480649,-1.1435 z"/></g></svg>