<svg xmlns="http://www.w3.org/2000/svg" xmlns:xlink="http://www.w3.org/1999/xlink" width="48" height="48" viewBox="0 0 48 48"><defs><linearGradient id="b" x1="868.253" x2="937.656" y1="521.354" y2="588.736" gradientTransform="translate(-598.962 -90.283) scale(1.53785)" gradientUnits="userSpaceOnUse" xlink:href="#a"/><linearGradient id="a"><stop offset="0" stop-color="#24f3d2"/><stop offset=".394" stop-color="#0674f0"/><stop offset=".507" stop-color="#6961b5"/><stop offset=".813" stop-color="#f34660"/><stop offset="1" stop-color="#ee078d"/></linearGradient></defs><g fill="#fff" transform="rotate(-45 -1212.281 527.414)"><rect width="48" height="48" x="728.007" y="702.736" fill="url(#b)" rx="10.144" ry="10.144" transform="rotate(45)"/><path d="m 27.762094,1035.7251 a 0.50005,0.50005 0 0 0 -0.707099,0.011 l -0.701592,0.7016 a 0.50005,0.50005 0 1 0 0.707107,0.7071 l 0.701591,-0.7016 a 0.50005,0.50005 0 0 0 -7e-6,-0.7181 z m -6.283853,-2.5191 a 0.50005,0.50005 0 0 0 -0.03451,-0.034 0.50005,0.50005 0 0 0 -0.821751,0.2583 l -0.0028,0.011 a 0.50027881,0.50027881 0 1 0 0.970943,0.2416 l 0.0028,-0.011 a 0.50005,0.50005 0 0 0 -0.11325,-0.4668 z m 8.845743,8.8457 a 0.50005,0.50005 0 0 0 -0.03592,-0.036 0.50005,0.50005 0 0 0 -0.498602,-0.1008 l -0.01273,0 a 0.5000653,0.5000653 0 1 0 0.31631,0.9487 l 0.01273,0 a 0.50005,0.50005 0 0 0 0.219543,-0.8134 z m -4.677624,-4.2109 a 0.50005,0.50005 0 0 0 -0.70717,0.011 l -1.408628,1.4086 a 0.50005,0.50005 0 1 0 0.707107,0.7072 l 1.408627,-1.4087 a 0.50005,0.50005 0 0 0 6.4e-5,-0.7182 z m -4.717726,-2.7262 a 0.50005,0.50005 0 0 0 -0.824528,0.2445 l -0.515127,1.9238 a 0.50050437,0.50050437 0 1 0 0.966749,0.2596 l 0.515128,-1.9238 a 0.50005,0.50005 0 0 0 -0.142222,-0.5041 z m 7.443954,7.4439 a 0.50005,0.50005 0 0 0 -0.493065,-0.1311 l -1.923825,0.5151 a 0.50050437,0.50050437 0 1 0 0.259643,0.9667 l 1.923824,-0.5151 a 0.50005,0.50005 0 0 0 0.233423,-0.8356 z m -6.260412,-1.1725 c -4.881554,-4.8815 -13.0814753,-4.5962 -13.0814753,-4.5962 0,0 -0.28536,8.2 4.5961943,13.0815 4.881554,4.8816 13.081476,4.5962 13.081476,4.5962 0,0 0.28536,-8.1999 -4.596195,-13.0815 z m -2.52324,-0.3935 c 0.503043,0.503 0.790828,1.1796 0.907423,1.9099 0.0057,0.028 0.01648,0.086 0.01648,0.086 0,0 -0.0022,0 0.08712,0.018 1.633226,0.2613 2.91835,1.6268 2.922275,3.3284 0.0043,1.8823 -1.54273,3.4293 -3.425014,3.4251 l -0.487557,0 -4.855773,-0.011 c -0.551126,-8e-4 -0.997656,-0.4474 -0.998512,-0.9985 l -0.01249,-4.8572 3.5e-5,-0.4861 c -0.0042,-1.8823 1.542759,-3.4294 3.425013,-3.425 0.94111,0 1.798802,0.3901 2.421013,1.0123 z m 2.220783,3.6211 c -0.439771,-0.4398 -1.047976,-0.7111 -1.720816,-0.7126 l -0.487479,0 -3.6e-5,-0.4861 c -0.0015,-0.6729 -0.27394,-1.2795 -0.713973,-1.7195 -0.440032,-0.44 -1.04801,-0.7138 -1.72085,-0.7154 -1.34561,0 -2.426776,1.0781 -2.42375,2.4238 l 0.0028,0.4861 0.0097,4.8572 4.858573,0.011 0.484757,0 c 1.345682,0 2.426847,-1.0782 2.42375,-2.4238 -0.0015,-0.6728 -0.272851,-1.281 -0.712629,-1.7208 z m -3.626709,-2.2042 a 0.50004997,0.50004997 0 1 1 -0.707107,0.7072 c -0.09918,-0.099 -0.254551,-0.1415 -0.432247,-0.087 -0.177837,0.054 -0.332199,0.2089 -0.386717,0.3867 a 0.50004997,0.50004997 0 1 1 -0.955662,-0.2928 c 0.154241,-0.5029 0.546686,-0.8954 1.04963,-1.0496 0.503,-0.1543 1.059267,-0.037 1.432103,0.3356 z m -8.162105,5.0658 A 0.50005,0.50005 0 0 0 9.52791,1047.344 l -1.9252401,0.5165 a 0.50050437,0.50050437 0 1 0 0.259643,0.9667 l 1.9252396,-0.5165 a 0.50005,0.50005 0 0 0 0.2333525,-0.8355 z m 5.991075,5.9911 a 0.50005,0.50005 0 0 0 -0.824458,0.2444 l -0.516542,1.9252 a 0.50051215,0.50051215 0 0 0 0.96675,0.2597 l 0.515162,-1.9267 a 0.50005,0.50005 0 0 0 -0.140912,-0.5026 z m -3.806235,-2.1849 a 0.50005,0.50005 0 0 0 -0.705686,0.01 l -1.408698,1.4087 a 0.50005,0.50005 0 1 0 0.707107,0.7072 l 1.408698,-1.4087 a 0.50005,0.50005 0 0 0 -0.0014,-0.7168 z m 2.7691,6.0283 0,0 a 0.50005,0.50005 0 0 0 -0.818956,0.2583 l -0.0028,0.011 a 0.50005,0.50005 0 1 0 0.969528,0.243 l 0.0028,-0.011 a 0.50005,0.50005 0 0 0 -0.149157,-0.5027 z m -8.825017,-8.825 a 0.50005,0.50005 0 0 0 -0.498532,-0.1008 l -0.01131,0 a 0.5000653,0.5000653 0 1 0 0.316239,0.9488 l 0.01131,0 a 0.50005,0.50005 0 0 0 0.182293,-0.848 z m 3.2344898,5.6182 a 0.50005,0.50005 0 0 0 -0.7057562,0.01 l -0.7029347,0.703 a 0.50005,0.50005 0 1 0 0.7071066,0.7071 l 0.7029349,-0.7029 a 0.50005,0.50005 0 0 0 -0.00135,-0.7168 z"/></g></svg>