<svg xmlns="http://www.w3.org/2000/svg" xmlns:xlink="http://www.w3.org/1999/xlink" width="48" height="48" viewBox="0 0 48 48"><defs><linearGradient id="b" x1="992.183" x2="1019.298" y1="516.081" y2="545.959" gradientTransform="matrix(1.53785 0 0 1.53785 -794.698 -90.283)" gradientUnits="userSpaceOnUse" xlink:href="#a"/><linearGradient id="a"><stop offset="0" stop-color="#ff1679"/><stop offset="1" stop-color="#ff770b"/></linearGradient></defs><g fill="#fff" transform="rotate(-45 -1212.281 527.414)"><rect width="48" height="48" x="728.007" y="702.736" fill="url(#b)" rx="10.144" ry="10.144" transform="rotate(45)"/><path d="m 25.050782,1035.9179 c -0.407739,0.93 -1.026881,1.7538 -1.91686,2.2677 -1.020114,0.5891 -2.215847,0.7325 -3.362958,0.4958 a 0.50004997,0.50004997 0 0 1 -0.0099,0 0.50004997,0.50004997 0 0 1 -0.191994,0 l -0.02927,-0.01 -0.0042,0 c -1.91773,-0.5113 -3.964967,-0.1235 -5.562951,1.0552 -0.303136,0.2236 -0.579403,0.4739 -0.835517,0.7416 0.171212,-0.02 0.338648,-0.051 0.515078,-0.051 1.237394,-6e-4 2.356519,0.4962 3.177851,1.2968 0.74865,-0.2364 1.439097,-0.3113 2.353386,-0.066 0.540456,0.1448 0.914119,0.066 1.346515,-0.1836 0.413396,-0.2393 0.713895,-0.6318 0.838289,-1.0924 a 0.50005,0.50005 0 0 1 0.01952,-0.053 l 0.03465,-0.093 a 0.50005,0.50005 0 0 1 0.812057,-0.1767 l 0,0 c 1.695677,1.6334 2.22023,4.1441 1.32311,6.328 -0.230581,0.5612 -0.553665,1.064 -0.930899,1.5137 0.28244,0.5931 0.45334,1.2494 0.452987,1.9501 -1.42e-4,0.051 -0.01315,0.097 -0.0152,0.1477 1.629038,-1.0175 2.942433,-2.5323 3.702672,-4.3905 1.355269,-3.3126 0.626779,-7.0368 -1.715335,-9.684 z m -3.221974,5.3765 c -0.239781,0.3755 -0.405788,0.8114 -0.79831,1.0386 -0.605354,0.3495 -1.330506,0.4908 -2.106089,0.2831 -0.615919,-0.1651 -0.983501,-0.1706 -1.422544,-0.063 0.443682,0.7033 0.708917,1.5308 0.708479,2.4238 l 3.5e-5,0.3093 0.310703,0 c 1.433567,-7e-4 2.697245,0.6748 3.532806,1.7097 0.224435,-0.3071 0.426866,-0.6329 0.575881,-0.9957 0.66374,-1.6158 0.263978,-3.3735 -0.800961,-4.7067 z m -5.654118,1.1601 c -0.641827,-0.6418 -1.531658,-1.0363 -2.521848,-1.0358 -1.980302,9e-4 -3.559426,1.58 -3.560352,3.5604 l -5.7e-5,0.8121 -0.0027,7.6152 7.616579,0 0.812127,0 c 1.980387,-10e-4 3.559484,-1.5801 3.560354,-3.5604 8.56e-4,-1.9803 -1.57733,-3.5585 -3.557632,-3.5576 l -0.810677,0 a 0.50005,0.50005 0 0 1 -0.501324,-0.5013 l 0.0014,-0.8107 c 4.66e-4,-0.9902 -0.393993,-1.88 -1.035784,-2.5218 z m -0.758231,0.6698 a 0.50005,0.50005 0 1 1 -0.707107,0.7071 c -0.373855,-0.3738 -0.9252,-0.5179 -1.458422,-0.3673 -0.533159,0.1505 -0.958476,0.5758 -1.108956,1.1089 a 0.50016327,0.50016327 0 1 1 -0.96262,-0.272 c 0.245607,-0.8701 0.929443,-1.5539 1.799516,-1.7995 0.870067,-0.2456 1.804304,-0.01 2.437589,0.6228 z"/></g></svg>