<svg xmlns="http://www.w3.org/2000/svg" xmlns:xlink="http://www.w3.org/1999/xlink" width="48" height="48" viewBox="0 0 48 48"><defs><linearGradient id="b" x1="992.183" x2="1019.298" y1="516.081" y2="545.959" gradientTransform="matrix(1.53785 0 0 1.53785 -1522.705 211.343)" gradientUnits="userSpaceOnUse" xlink:href="#a"/><linearGradient id="a"><stop offset="0" stop-color="#ff1679"/><stop offset="1" stop-color="#ff770b"/></linearGradient></defs><g transform="translate(0 -1004.362)"><rect width="48" height="48" y="1004.362" fill="url(#b)" rx="10.144" ry="10.144"/><path fill="#fff" style="line-height:normal;text-indent:0;text-align:start;text-decoration-line:none;text-decoration-style:solid;text-decoration-color:#000;text-transform:none;isolation:auto;mix-blend-mode:normal" d="m 26.001955,1015.3564 c -0.5582,0 -1.0039,0.4457 -1.00391,1.0039 l 0,4.9316 0,3.5645 0,1.3066 c 0,0.1115 0.0485,0.1556 0.125,0.1856 0.0765,0.032 0.14366,0.034 0.22266,-0.045 l 2.45117,-2.4511 c 0.31594,-0.3159 0.74844,-0.4942 1.19531,-0.4942 l 7.00586,0 c 0.55821,0 1.00392,-0.4379 1.00391,-0.9961 l 0,-6.0019 c 0,-0.5582 -0.44571,-1.0039 -1.00391,-1.0039 l -9.99609,0 z m 3.84765,1.4961 c 0.41447,-3e-4 0.83019,0.1572 1.14844,0.4707 0.63384,-0.6251 1.65647,-0.627 2.29297,0 l 0,-0.01 c 0.63669,0.6269 0.63767,1.638 0.004,2.2676 l -1.14258,1.1367 -1.14453,1.1367 -1.15039,-1.1328 -1.14844,-1.1308 c -0.6367,-0.6269 -0.63767,-1.638 -0.004,-2.2676 0.31693,-0.3124 0.73007,-0.4704 1.14453,-0.4707 z m -17.84765,13.5039 c -0.5582,0 -1.0039,0.4457 -1.00391,1.0039 l 0,6.0019 c 0,0.5581 0.4457,0.9961 1.00391,0.9961 l 7.00586,0 c 0.44687,0 0.87937,0.1783 1.19531,0.4942 l 2.45117,2.4511 c 0.079,0.079 0.14422,0.075 0.2207,0.043 0.0765,-0.03 0.12696,-0.072 0.12696,-0.1836 l 0,-1.3066 0,-3.5645 0,-4.9316 c -10e-6,-0.5582 -0.44571,-1.0039 -1.00391,-1.0039 l -9.99609,0 z m 3.85547,1.4961 c 0.41451,2e-4 0.82761,0.1581 1.14453,0.4707 0.63651,-0.6269 1.65912,-0.6248 2.29297,0 0.63385,0.6296 0.63288,1.6407 -0.004,2.2676 l -1.15039,1.1308 -1.14844,1.1328 -1.14453,-1.1367 -1.14453,-1.1367 c -0.63385,-0.6296 -0.63097,-1.6407 0.006,-2.2676 l 0,0.01 c 0.31825,-0.3135 0.73392,-0.4709 1.14844,-0.4707 z" color="#000" font-family="sans-serif" font-weight="400" overflow="visible" white-space="normal"/></g></svg>