<svg xmlns="http://www.w3.org/2000/svg" xmlns:xlink="http://www.w3.org/1999/xlink" width="48" height="48" viewBox="0 0 48 48"><defs><linearGradient id="b" x1="949.87" x2="974.39" y1="518.014" y2="544.657" gradientTransform="matrix(1.53785 0 0 1.53785 -726.346 -90.283)" gradientUnits="userSpaceOnUse" xlink:href="#a"/><linearGradient id="a"><stop offset="0" stop-color="#24f7bc"/><stop offset="1" stop-color="#24c4fc"/></linearGradient></defs><g fill="#fff" transform="rotate(-45 -1212.281 527.414)"><rect width="48" height="48" x="728.007" y="702.736" fill="url(#b)" rx="10.144" ry="10.144" transform="rotate(45)"/><path d="m 31.229835,1043.6731 c -0.528774,-0.5287 -1.261033,-0.8527 -2.070196,-0.8521 -0.0068,-1.6171 -1.313755,-2.9193 -2.932174,-2.918 -1.617075,-10e-5 -2.914256,1.3006 -2.906987,2.9183 l 0.01239,2.921 0.01242,2.9182 2.919608,0 2.918195,0 c 1.617068,10e-5 2.912976,-1.3021 2.905572,-2.9197 -0.0034,-0.8086 -0.331781,-1.5385 -0.861765,-2.0661 l 0,0 z m -3.398836,-2.3353 a 0.50004997,0.50004997 0 1 1 -0.707106,0.7071 c -0.218822,-0.2188 -0.525904,-0.3228 -0.834153,-0.2818 -0.308136,0.041 -0.580018,0.2233 -0.736077,0.4931 a 0.50030606,0.50030606 0 1 1 -0.865923,-0.5014 c 0.310809,-0.5374 0.854114,-0.9013 1.469403,-0.9832 0.615254,-0.082 1.235139,0.1275 1.673856,0.5662 z m -18.6319592,-6.8377 -7.2008932,7.2009 1.7691462,1.7691 1.7705319,1.7706 7.2008923,-7.2009 -1.770532,-1.7706 -0.350788,-0.3507 -5.0685423,5.0685 c -0.471074,0.4852 -1.1923229,-0.236 -0.7071059,-0.7071 l 5.068541,-5.0686 -0.71125,-0.7112 z m 2.9195722,5.5243 -4.6307002,4.6307 4.5008762,9.1109 0.0014,0 c 0.423047,0.7096 1.250829,1.33 2.030153,1.4833 a 0.50005,0.50005 0 0 1 0.04526,0.013 l 10.595522,3.1324 0.259628,0.072 c 0.422454,0.1173 0.836394,-0.086 0.995776,-0.4793 0.178594,-0.4399 0.07456,-0.6273 -0.05527,-0.801 -0.127577,-0.1714 -0.287595,-0.2522 -0.29113,-0.2558 l -7.21879,-2.6448 a 0.50005,0.50005 0 0 1 -0.172824,-0.098 l -0.0014,0 c -0.168582,-0.092 -0.331669,-0.1987 -0.473882,-0.3409 l -4.917984,-4.918 0.354896,-0.3549 0.35221,-0.3522 4.917985,4.918 c 0.102926,0.1029 0.22114,0.1773 0.34383,0.2307 l 0.03062,0.011 c 0.375806,0.1488 0.805918,0.075 1.107641,-0.2265 0.409414,-0.4095 0.408318,-1.0584 -0.0152,-1.4819 l -3.274513,-3.2745 -0.310738,-0.3108 0.122888,-0.3052 c 0.03939,-0.099 0.06293,-0.1978 0.107742,-0.3535 0.03627,-0.1261 0.06602,-0.2538 0.08978,-0.3826 0.0475,-0.2574 0.06894,-0.5194 0.06628,-0.7817 -0.01066,-1.0489 -0.420962,-2.1003 -1.238815,-2.9182 l -3.321472,-3.3214 z"/></g></svg>