<svg xmlns="http://www.w3.org/2000/svg" xmlns:xlink="http://www.w3.org/1999/xlink" width="48" height="48" viewBox="0 0 48 48"><defs><linearGradient id="b" x1="992.183" x2="1019.298" y1="516.081" y2="545.959" gradientTransform="translate(-794.698 -90.283) scale(1.53785)" gradientUnits="userSpaceOnUse" xlink:href="#a"/><linearGradient id="a"><stop offset="0" stop-color="#ff1679"/><stop offset="1" stop-color="#ff770b"/></linearGradient></defs><g fill="#fff" transform="rotate(-45 -1212.281 527.414)"><rect width="48" height="48" x="728.007" y="702.736" fill="url(#b)" rx="10.144" ry="10.144" transform="rotate(45)"/><path d="m 27.407748,1035.3723 a 0.50005,0.50005 0 0 0 -0.7071,0.011 l -0.70159,0.7016 a 0.50005,0.50005 0 1 0 0.70711,0.7071 l 0.70159,-0.7016 a 0.50005,0.50005 0 0 0 -10e-6,-0.7181 z m 2.52874,6.2935 a 0.50005,0.50005 0 0 0 -0.003,0 0.50005,0.50005 0 0 0 -0.49994,-0.1 l -0.0113,0 a 0.5000653,0.5000653 0 1 0 0.31631,0.9487 l 0.0113,0 a 0.50005,0.50005 0 0 0 0.18788,-0.8481 z m -8.84712,-8.8471 a 0.50005,0.50005 0 0 0 -0.82175,0.2583 l -0.003,0.011 a 0.50005,0.50005 0 1 0 0.96946,0.2431 l 0.003,-0.011 a 0.50005,0.50005 0 0 0 -0.14778,-0.5014 z m 4.20258,4.6694 a 0.50005,0.50005 0 0 0 -0.70569,0.01 l -1.40869,1.4087 a 0.50005,0.50005 0 1 0 0.7071,0.7071 l 1.4087,-1.4087 a 0.50005,0.50005 0 0 0 -0.001,-0.7167 z m -4.71631,-2.7277 a 0.50005,0.50005 0 0 0 -0.82453,0.2445 l -0.51647,1.9252 a 0.50050437,0.50050437 0 1 0 0.96675,0.2596 l 0.51647,-1.9251 a 0.50005,0.50005 0 0 0 -0.14222,-0.5042 z m 7.44395,7.444 a 0.50005,0.50005 0 0 0 -0.49306,-0.1312 l -1.92517,0.5165 a 0.50050437,0.50050437 0 1 0 0.25964,0.9667 l 1.92517,-0.5164 a 0.50005,0.50005 0 0 0 0.23342,-0.8356 z m -6.26175,-1.1712 c -4.88156,-4.8815 -13.08148,-4.5962 -13.08148,-4.5962 0,0 -0.28536,8.2 4.59619,13.0815 4.88156,4.8816 13.08148,4.5962 13.08148,4.5962 0,0 0.28536,-8.1999 -4.59619,-13.0815 z m 0.0152,2.9045 c 0.44011,0.4401 0.71248,1.0493 0.714,1.7221 0.003,1.3457 -1.07807,2.4268 -2.42375,2.4238 l -0.48617,0 -4.85723,-0.012 -0.0124,-4.8572 2e-5,-0.4862 c -0.003,-1.3457 1.07814,-2.4268 2.42375,-2.4237 0.67277,0 1.27938,0.274 1.71941,0.714 0.44003,0.44 0.71383,1.048 0.71542,1.7208 l 3e-5,0.4861 0.4861,0 c 0.67284,0 1.28071,0.2725 1.72083,0.7127 z m -3.60739,-2.1904 c -0.27947,-0.2653 -0.66175,-0.4097 -1.0579,-0.3977 -0.52794,0.016 -1.01087,0.2946 -1.28853,0.7444 a 0.49982375,0.50027651 15.000224 1 0 0.84803,0.5247 c 0.0976,-0.158 0.28546,-0.2665 0.47095,-0.2721 0.1853,-0.01 0.32802,0.081 0.40188,0.2086 a 0.50006639,0.50051937 15.000224 1 0 0.86593,-0.5013 c -0.0663,-0.1144 -0.14729,-0.2181 -0.24022,-0.3067 z m -8.49772,5.3737 a 0.50005,0.50005 0 0 0 -0.49441,-0.1298 l -1.92382,0.5151 a 0.5005289,0.5005289 0 1 0 0.25964,0.9668 l 1.92383,-0.5151 a 0.50005,0.50005 0 0 0 0.23476,-0.837 z m 5.99108,5.9911 a 0.50005,0.50005 0 0 0 -0.82453,0.2445 l -0.51513,1.9238 a 0.50051215,0.50051215 0 0 0 0.96675,0.2597 l 0.51375,-1.9252 a 0.50005,0.50005 0 0 0 -0.14084,-0.5028 z m -3.80482,-2.1862 a 0.50005,0.50005 0 0 0 -0.7071,0.011 l -1.4087,1.4087 a 0.50005,0.50005 0 1 0 0.70711,0.7071 l 1.40869,-1.4087 a 0.50005,0.50005 0 0 0 0,-0.7181 z m -6.02147,-2.7622 a 0.50005,0.50005 0 0 0 -0.0345,-0.034 0.50005,0.50005 0 0 0 -0.49853,-0.1008 l -0.0127,0 a 0.5000653,0.5000653 0 1 0 0.31624,0.9488 l 0.0127,0 a 0.50005,0.50005 0 0 0 0.21823,-0.8149 z m 8.82641,8.8264 a 0.50005,0.50005 0 0 0 -0.0359,-0.036 0.50005,0.50005 0 0 0 -0.8203,0.2596 l -0.003,0.011 a 0.50025304,0.50025304 0 0 0 0.97087,0.2417 l 0.003,-0.011 a 0.50005,0.50005 0 0 0 -0.11324,-0.4668 z m -5.62785,-3.2413 a 0.50005,0.50005 0 0 0 -0.7071,0.011 l -0.7016,0.7016 a 0.50005,0.50005 0 1 0 0.70711,0.7071 l 0.70159,-0.7016 a 0.50005,0.50005 0 0 0 0,-0.7181 z"/></g></svg>