<svg xmlns="http://www.w3.org/2000/svg" xmlns:xlink="http://www.w3.org/1999/xlink" width="48" height="48" viewBox="0 0 48 48"><defs><linearGradient id="b" x1="992.183" x2="1019.298" y1="516.081" y2="545.959" gradientTransform="matrix(1.53785 0 0 1.53785 -794.812 -103.993)" gradientUnits="userSpaceOnUse" xlink:href="#a"/><linearGradient id="a"><stop offset="0" stop-color="#ff1679"/><stop offset="1" stop-color="#ff770b"/></linearGradient></defs><g transform="rotate(-45 -1195.675 534.131)"><rect width="48" height="48" x="727.893" y="689.027" fill="url(#b)" rx="10.144" ry="10.144" transform="rotate(45)"/><path fill="#fff" d="m 28.907713,1018.1659 c -0.593715,-0.5937 -1.527633,-0.5937 -2.12132,0 l -0.353554,0.3535 2.121321,2.1214 0.164402,-0.1644 0.189151,-0.1892 c 0.593687,-0.5937 0.593722,-1.5276 0,-2.1213 z m 1.404547,1.4045 c -0.07188,0.5211 -0.298491,1.025 -0.69744,1.4239 l -0.189151,0.1892 -0.461317,0.4613 c -0.03111,0.044 -0.0693,0.082 -0.113208,0.1132 l -12.671354,12.6713 -1.414213,1.4143 c -0.593687,0.5936 -0.593694,1.5276 0,2.1213 0.593701,0.5937 1.527633,0.5937 2.12132,0 l 0.707107,-0.7071 c 0.195253,-0.1952 0.511853,-0.1953 0.707107,0 l 5.876447,5.8764 2.777324,-0.051 -1.22915,-1.2291 c -0.495399,-0.4474 0.175893,-1.1904 0.671186,-0.7431 0.01259,0.011 0.02461,0.023 0.03592,0.036 l 1.910016,1.91 4.409765,-0.082 c 0.101187,0 0.201151,0.012 0.296971,0.04 l 7.878937,-7.879 1.414214,-1.4142 c 0.593687,-0.5937 0.593722,-1.5276 0,-2.1213 L 30.312259,1019.57 Z m 2.802187,5.6306 c 0.01259,0.011 0.02461,0.023 0.03592,0.036 l 4.949747,4.9497 c 0.485189,0.4711 -0.235777,1.192 -0.707106,0.7071 l -4.949748,-4.9497 c -0.495399,-0.4473 0.175907,-1.1904 0.671186,-0.7431 z m -4.242641,0 c 0.01259,0.011 0.02461,0.023 0.03592,0.036 l 9.192388,9.1924 c 0.485189,0.471 -0.235777,1.192 -0.707106,0.7071 l -9.192389,-9.1924 c -0.495399,-0.4473 0.175907,-1.1904 0.671186,-0.7431 z m -1.414213,1.4143 c 0.01259,0.011 0.02461,0.023 0.03592,0.036 l 9.192388,9.1924 c 0.485188,0.471 -0.235778,1.192 -0.707107,0.7071 l -9.192388,-9.1924 c -0.495399,-0.4473 0.175907,-1.1904 0.671186,-0.743 z m -1.414214,1.4142 c 0.01259,0.011 0.02461,0.023 0.03592,0.036 l 9.192388,9.1924 c 0.485189,0.471 -0.235778,1.192 -0.707107,0.7071 l -9.192388,-9.1924 c -0.495399,-0.4473 0.175907,-1.1904 0.671186,-0.743 z m -1.414214,1.4142 c 0.01259,0.011 0.02461,0.023 0.03592,0.036 l 9.192389,9.1924 c 0.485188,0.471 -0.235778,1.192 -0.707107,0.7071 l -9.192388,-9.1924 c -0.495399,-0.4473 0.175907,-1.1903 0.671185,-0.743 z m -1.414213,1.4142 c 0.01259,0.011 0.02461,0.023 0.03592,0.036 l 4.242641,4.2427 c 0.485188,0.471 -0.235778,1.192 -0.707107,0.7071 l -4.24264,-4.2427 c -0.495399,-0.4473 0.175907,-1.1903 0.671186,-0.743 z m 12.426907,14.5315 -2.412762,-1.1725 -0.04557,2.4349 2.458328,-1.2624 z m -3.407081,-1.4045 -11.712913,0.2196 -0.05518,2.9334 11.712835,-0.2196 0.05526,-2.9334 z m -9.467206,-9.3513 0,0 c 0.235969,0.2357 0.38321,0.5612 0.386668,0.9199 0.714764,0.01 1.296749,0.5864 1.303728,1.3037 l 0.0071,-0.01 c 0.007,0.7175 -0.564469,1.2937 -1.28156,1.2901 l -1.295399,-0.01 -1.294091,-0.01 -0.01378,-1.2955 -0.01104,-1.2954 c -0.0071,-0.7175 0.564286,-1.2909 1.281562,-1.2873 0.357315,0 0.682407,0.1497 0.918369,0.3854 z m -4.819944,3.6848 -0.353553,0.3535 c -0.412951,0.413 -0.960683,0.5576 -1.501223,0.6201 l 3.920857,3.9209 0.01414,0 0.01273,0 2.746934,-0.051 -4.840642,-4.8407 z m 9.685433,9.6854 -2.777331,0.051 1.930733,1.9307 1.414214,1.4142 c 0.593701,0.5937 1.527633,0.5937 2.12132,0 l 0.353554,-0.3535 -3.04249,-3.0425 z m -8.110982,-3.7828 -1.455629,0.028 c -0.541629,0.01 -0.985692,0.454 -0.995747,0.9958 l -0.01935,0.9778 c -0.01012,0.5418 0.417999,0.9699 0.95984,0.9598 l 1.457008,-0.026 0.05387,-2.9348 z"/></g></svg>