<svg xmlns="http://www.w3.org/2000/svg" xmlns:xlink="http://www.w3.org/1999/xlink" width="48" height="48" viewBox="0 0 48 48"><defs><linearGradient id="b" x1="906.952" x2="931.379" y1="515.915" y2="546.094" gradientTransform="matrix(1.53785 0 0 1.53785 -660.826 -103.993)" gradientUnits="userSpaceOnUse" xlink:href="#a"/><linearGradient id="a"><stop offset="0" stop-color="#ffd800"/><stop offset="1" stop-color="#ff6100"/></linearGradient></defs><g transform="rotate(-45 -1195.675 534.131)"><rect width="48" height="48" x="727.893" y="689.027" fill="url(#b)" rx="10.144" ry="10.144" transform="rotate(45)"/><path fill="#fff" d="m 29.954477,1019.949 c -0.593715,-0.5937 -1.527633,-0.5937 -2.12132,0 l -0.353554,0.3535 2.121321,2.1214 0.164331,-0.1644 0.189222,-0.1892 c 0.593687,-0.5937 0.593722,-1.5276 0,-2.1213 z m 1.404547,1.4045 0,0 0.0014,0 c -6.16e-4,-6e-4 -7.07e-4,-7e-4 -0.0014,0 z m 0.0014,0 c -0.07247,0.5196 -0.298173,1.0219 -0.695991,1.4197 l -0.189222,0.1892 -0.459902,0.4599 c -0.03182,0.045 -0.07029,0.083 -0.114622,0.1147 l -5.093361,5.0933 -2.915472,2.9155 -0.138098,0.1381 -0.132583,0.1326 1.219477,7.3956 c 0.07932,0.4817 0.290267,0.7926 0.661519,0.9626 0.123447,0.057 0.264783,0.098 0.425381,0.1243 l 7.733974,1.2761 0.0042,0 0.142129,-0.1507 0.106349,-0.1063 2.752484,-2.7525 4.480158,-4.4801 1.414213,-1.4143 c 0.593687,-0.5936 0.593722,-1.5276 0,-2.1213 l -9.200675,-9.2007 z m 0.680936,3.5038 a 0.50005,0.50005 0 0 1 0.03592,0.036 l 1.408684,1.4087 a 0.50005,0.50005 0 1 1 -0.707106,0.7071 l -1.408684,-1.4087 a 0.50064475,0.50064475 0 0 1 0.671185,-0.743 z m -0.01105,2.8173 a 0.50005,0.50005 0 0 1 0.03592,0.036 l 4.949748,4.9497 a 0.50005,0.50005 0 1 1 -0.707107,0.7071 l -4.949747,-4.9497 a 0.50067128,0.50067128 0 0 1 0.671185,-0.7431 z m -2.828427,0 a 0.50005,0.50005 0 0 1 0.03592,0.036 l 6.363961,6.3639 a 0.50005,0.50005 0 1 1 -0.707107,0.7071 l -6.363961,-6.3639 a 0.50067161,0.50067161 0 0 1 0.671186,-0.7431 z m 0.28722,3.2373 c 0.526844,0.5268 0.848684,1.2611 0.854892,2.0619 l 0.0028,0 0.0028,0 c 1.604376,0.015 2.91608,1.3238 2.91941,2.9335 0.0039,1.6143 -1.309222,2.9275 -2.923674,2.9237 l -0.48755,0 c -0.01343,7e-4 -0.0256,0 -0.0384,0 l -4.50502,-0.3646 c -0.244694,-0.02 -0.438958,-0.2138 -0.458509,-0.4585 l -0.366013,-4.5064 c -7e-5,-0.014 -0.0013,-0.027 -0.0016,-0.04 l -3.5e-5,-0.4861 c -0.0039,-1.6144 1.309434,-2.9277 2.923745,-2.9238 0.807226,0 1.545403,0.3301 2.075761,0.8604 l 0,0 z m -0.443292,0.7858 c -0.390903,-0.3909 -0.932568,-0.6339 -1.530215,-0.6353 -1.195293,0 -2.156039,0.9579 -2.15314,2.1531 l 0.0014,0.4323 0.324485,4.001 4.001015,0.3245 0.432212,0 c 1.195222,0 2.155968,-0.9579 2.15314,-2.1531 -0.0028,-1.1953 -0.968835,-2.1613 -2.164129,-2.1642 l -0.430903,0 7e-6,-0.4309 c -0.0014,-0.5976 -0.243012,-1.1379 -0.633914,-1.5288 z m -0.798267,0.522 a 0.4440325,0.4440325 0 1 1 -0.626992,0.627 c -0.0098,-0.01 -0.06286,-0.043 -0.197502,0.01 -0.134775,0.053 -0.280014,0.1981 -0.332835,0.3328 a 0.44432788,0.44432788 0 1 1 -0.82728,-0.3245 c 0.150621,-0.3836 0.451919,-0.6849 0.835588,-0.8356 0.383691,-0.1506 0.843748,-0.1146 1.149021,0.1906 z m -4.476057,-3.9677 c -1.197316,-0.1957 -2.213541,-0.3465 -2.803558,-0.4061 l 0.454337,2.7553 2.349221,-2.3492 z m 11.290374,11.337 -2.186233,2.1862 2.593682,0.4281 c -0.07176,-0.627 -0.217944,-1.5471 -0.407449,-2.6143 z m 0.435012,3.6308 -11.732111,-1.9321 c -0.997727,-0.1644 -1.748441,-0.9151 -1.91278,-1.9128 l -1.889361,-11.4711 c -0.09044,0.047 -0.181019,0.095 -0.258235,0.1725 l -8.485281,8.4853 c -0.397889,0.3979 -0.39786,1.0164 0,1.4142 l 14.142135,14.1422 c 0.397868,0.3978 1.016324,0.3979 1.414213,0 l 8.485282,-8.4853 c 0.120703,-0.1207 0.190282,-0.264 0.236103,-0.4129 z m -9.823474,2.1393 c 0.01259,0.011 0.02461,0.023 0.03592,0.036 l 2.12132,2.1213 c 0.485189,0.4711 -0.235777,1.192 -0.707106,0.7071 l -2.121321,-2.1213 c -0.495491,-0.4474 0.175886,-1.1905 0.671186,-0.743 z m -2.822905,0.01 c 0.01259,0.011 0.02461,0.023 0.03592,0.036 l 3.530011,3.53 c 0.485188,0.4711 -0.235778,1.192 -0.707107,0.7071 l -3.530011,-3.53 c -0.495491,-0.4474 0.175886,-1.1905 0.671185,-0.743 z"/></g></svg>