<svg xmlns="http://www.w3.org/2000/svg" xmlns:xlink="http://www.w3.org/1999/xlink" width="48" height="48" viewBox="0 0 48 48"><defs><linearGradient id="b" x1="992.183" x2="1019.298" y1="516.081" y2="545.959" gradientTransform="translate(-794.698 -90.283) scale(1.53785)" gradientUnits="userSpaceOnUse" xlink:href="#a"/><linearGradient id="a"><stop offset="0" stop-color="#ff1679"/><stop offset="1" stop-color="#ff770b"/></linearGradient></defs><g fill="#fff" transform="rotate(-45 -1212.281 527.414)"><rect width="48" height="48" x="728.007" y="702.736" fill="url(#b)" rx="10.144" ry="10.144" transform="rotate(45)"/><path d="m 28.485874,1037.9359 c -0.440386,-0.4404 -1.049205,-0.7123 -1.722201,-0.714 l -0.486171,10e-5 3.6e-5,-0.4862 c -0.0016,-0.6731 -0.275186,-1.2806 -0.715416,-1.7208 -0.440231,-0.4402 -1.04772,-0.7138 -1.720787,-0.7154 -1.346197,0 -2.42701,1.0777 -2.423821,2.4238 l 3.6e-5,0.4861 0.01102,4.1681 -1.747049,1.7471 c -0.0063,-0.098 -0.0237,-0.1981 -0.05105,-0.297 -0.214925,-0.776 -2.175223,-2.4486 -2.175223,-2.4486 0,0 -0.834973,2.3964 -0.620076,3.1723 0.173163,0.6253 0.727457,1.0432 1.339642,1.08 l -2.030174,2.0301 -3.542443,-3.5424 c -0.201992,-0.202 -0.505086,-0.202 -0.707106,0 l -0.720896,0.7209 c -0.194525,0.1945 -0.196788,0.4807 -0.01654,0.6822 l 0.0028,0 c 0.0263,0.026 0.05296,0.052 0.07165,0.086 l 7.717406,7.7174 c 0.201999,0.202 0.505157,0.202 0.707107,0 l 0.720895,-0.7209 c 0.202021,-0.202 0.201999,-0.5051 0,-0.7071 l -3.528625,-3.5286 3.076975,-3.077 c 0.04764,0.6012 0.462766,1.1401 1.078656,1.3106 0.775915,0.2149 3.172286,-0.62 3.172286,-0.62 0,0 -1.672647,-1.9603 -2.448591,-2.1753 -0.09037,-0.025 -0.180785,-0.039 -0.270758,-0.047 l 0.689217,-0.6892 4.139043,0.01 0.487487,0 c 1.346126,0 2.426939,-1.0776 2.42382,-2.4238 -0.0017,-0.673 -0.273622,-1.2818 -0.714008,-1.7222 z m -3.499655,-2.2124 a 0.50004994,0.50004994 0 1 1 -0.707107,0.7071 c -0.113024,-0.113 -0.285855,-0.16 -0.477834,-0.1022 -0.192404,0.058 -0.357514,0.2233 -0.415709,0.4157 a 0.50004994,0.50004994 0 1 1 -0.957111,-0.2886 c 0.156978,-0.5197 0.562998,-0.9258 1.082793,-1.0828 0.519787,-0.1571 1.091016,-0.033 1.474968,0.3508 z m -14.099342,9.9202 -4.2508922,5.5574 c -0.391525,0.512 -0.43864,1.0668 -0.04285,1.4626 l 4.2426402,4.2426 c 0.395796,0.3958 0.950571,0.3487 1.462587,-0.043 l 5.557386,-4.2509 -6.96887,-6.9689 z"/></g></svg>