<svg xmlns="http://www.w3.org/2000/svg" xmlns:xlink="http://www.w3.org/1999/xlink" width="48" height="48" viewBox="0 0 48 48"><defs><linearGradient id="b" x1="1073.403" x2="1097.116" y1="516.451" y2="544.308" gradientTransform="matrix(1.53785 0 0 1.53785 -915.979 -103.993)" gradientUnits="userSpaceOnUse" xlink:href="#a"/><linearGradient id="a"><stop offset="0" stop-color="#16ff6a"/><stop offset="1" stop-color="#0090a5"/></linearGradient></defs><g transform="rotate(-45 -1195.675 534.131)"><rect width="48" height="48" x="727.893" y="689.027" fill="url(#b)" rx="10.144" ry="10.144" transform="rotate(45)"/><path fill="#fff" d="m 28.89674,1018.8842 c -0.391745,-0.3917 -1.050549,-0.3636 -1.476369,0.062 l -16.139145,16.1391 c -0.425891,0.4259 -0.453899,1.0847 -0.06216,1.4764 l 14.849241,14.8492 c 0.391745,0.3918 1.050478,0.3638 1.476369,-0.062 l 16.13915,-16.1392 c 0.42582,-0.4258 0.453899,-1.0846 0.06216,-1.4763 l -4.596194,-4.5962 -2.35748,0.4709 4.832354,4.8324 -12.020815,12.0208 -13.435028,-13.435 12.020815,-12.0208 5.3033,5.3033 1.414213,-1.4143 -6.010406,-6.0104 z m 6.912243,10.9257 -0.190586,0.039 0,2.8285 -2.828427,0 -0.707107,2.1213 -3.535533,0.7071 2.121319,-2.1213 0,-2.8285 2.121321,-0.7071 0,-2.8284 a 1.0001,1.0001 0 0 1 -0.0042,0 l -4.596193,-4.5962 -6.090523,6.0905 5.848834,-0.6809 -0.864537,7.4136 -5.858492,-5.8585 -3.641883,3.6419 12.020814,12.0208 10.606601,-10.6066 -4.121103,-4.1211 a 1.0001,1.0001 0 0 1 -0.280361,-0.5096 z m 1.219484,4.2771 a 1.5,1.5 0 0 1 0,2.1213 1.5,1.5 0 0 1 -2.121321,0 1.5,1.5 0 0 1 0,-2.1213 1.5,1.5 0 0 1 2.121321,0 z m -7.359715,-1.9321 -2.1e-5,0.8149 -1.520492,1.5205 0.258214,-2.189 1.262299,-0.1464 z m 1.860312,3.7745 -0.392225,3.367 -2.817374,-2.8174 a 1.0001,1.0001 0 0 0 0.423967,0.01 l 2.785632,-0.5566 z"/></g></svg>