<svg xmlns="http://www.w3.org/2000/svg" xmlns:xlink="http://www.w3.org/1999/xlink" width="48" height="48" viewBox="0 0 48 48"><defs><linearGradient id="b" x1="949.87" x2="974.39" y1="518.014" y2="544.657" gradientTransform="matrix(1.53785 0 0 1.53785 -726.46 -103.993)" gradientUnits="userSpaceOnUse" xlink:href="#a"/><linearGradient id="a"><stop offset="0" stop-color="#24f7bc"/><stop offset="1" stop-color="#24c4fc"/></linearGradient></defs><g transform="rotate(-45 -1195.675 534.131)"><rect width="48" height="48" x="727.893" y="689.027" fill="url(#b)" rx="10.144" ry="10.144" transform="rotate(45)"/><path fill="#fff" d="m 28.896735,1018.8841 c -0.391745,-0.3917 -1.050478,-0.3637 -1.476298,0.062 l -16.139218,16.1392 c -0.425819,0.4259 -0.453899,1.0847 -0.06215,1.4764 l 14.849242,14.8492 c 0.391745,0.3918 1.050549,0.3637 1.476369,-0.062 l 16.139217,-16.1392 c 0.42582,-0.4258 0.453828,-1.0846 0.06208,-1.4763 l -4.596194,-4.5962 -4.242641,-4.2427 -6.010407,-6.0104 z m -0.707107,2.1214 13.435029,13.435 -12.020816,12.0208 -13.435029,-13.435 12.020816,-12.0208 z m 0.0069,1.4211 -6.062875,6.0628 5.79636,-0.6753 -0.966743,7.5185 -0.896314,-0.8963 -1.602042,-1.602 -3.33804,-3.3381 -3.536948,3.537 12.020816,12.0208 10.606602,-10.6066 -12.020816,-12.0208 z m 8.831927,11.6603 c 0.585788,0.5858 0.585838,1.5355 0,2.1213 -0.585768,0.5858 -1.535532,0.5858 -2.121321,0 -0.585788,-0.5857 -0.585767,-1.5355 0,-2.1213 0.585838,-0.5858 1.535532,-0.5858 2.121321,0 z m -5.045002,-2.2194 -0.96675,7.5186 -3.144694,-3.1447 0.548283,-3.9596 3.563161,-0.4143 z"/></g></svg>