<svg xmlns="http://www.w3.org/2000/svg" xmlns:xlink="http://www.w3.org/1999/xlink" width="48" height="48" viewBox="0 0 48 48"><defs><linearGradient id="b" x1="1073.403" x2="1097.116" y1="516.451" y2="544.308" gradientTransform="matrix(1.53785 0 0 1.53785 -915.865 -90.283)" gradientUnits="userSpaceOnUse" xlink:href="#a"/><linearGradient id="a"><stop offset="0" stop-color="#16ff6a"/><stop offset="1" stop-color="#0090a5"/></linearGradient></defs><g fill="#fff" transform="rotate(-45 -1212.281 527.414)"><rect width="48" height="48" x="728.007" y="702.736" fill="url(#b)" rx="10.144" ry="10.144" transform="rotate(45)"/><path d="m 22.106633,1028.6519 c -1.958685,-1.9587 -5.115916,-1.9552 -7.07934,0.01 l -8.4728361,8.4729 c -1.963423,1.9634 -1.966959,5.1206 -0.0083,7.0793 l -1.056559,1.0566 -0.353553,0.3535 c -1.958686,1.9587 -1.955136,5.1159 0.0083,7.0794 l 8.4728501,8.4728 c 1.963424,1.9634 5.12067,1.967 7.079355,0.01 l 0.349312,-0.3578 1.060658,-1.0606 -15.5563581,-15.5564 15.5563481,-15.5563 z m 4.238533,12.0138 a 0.50005,0.50005 0 0 0 -0.7071,0.011 l -0.707107,0.7071 a 0.50005,0.50005 0 1 0 0.707107,0.7071 l 0.707107,-0.7071 a 0.50005,0.50005 0 0 0 -7e-6,-0.7182 z m 1.317509,3.182 a 0.50005,0.50005 0 0 0 -0.0014,0 0.50005,0.50005 0 0 0 -0.350831,-0.1353 l -0.99987,0 a 0.50005,0.50005 0 1 0 2.1e-5,0.9999 l 0.99987,0 a 0.50005,0.50005 0 0 0 0.353539,-0.8645 z m -4.498139,-4.4981 a 0.50005,0.50005 0 0 0 -0.853521,0.3619 l 2.1e-5,0.9998 a 0.50005,0.50005 0 1 0 0.999871,0 l -2.2e-5,-0.9998 a 0.50005,0.50005 0 0 0 -0.146349,-0.3619 z m -0.255492,2.8436 -1.06066,0.3536 2.626788,2.6268 0.353554,-1.0607 -1.919682,-1.9197 z m -1.338256,1.4902 -0.29419,2.0647 2.063335,-0.2956 -1.769145,-1.7691 z m -1.02891,0.1505 c -2.09165,-0.9802 -4.57257,-0.549 -6.210661,1.0787 l 1.414214,1.4142 c 1.20689,-1.2013 3.104475,-1.359 4.493989,-0.3729 l 0.302458,-2.12 z m 2.648891,2.6489 -2.126876,0.3039 c 0.985217,1.3883 0.828445,3.2837 -0.370129,4.4912 l 1.414213,1.4142 c 1.628396,-1.6368 2.061343,-4.1172 1.082792,-6.2093 z m -10.893898,-2.1876 c -1.218903,-1.2189 -3.1461511,-1.2539 -4.3213631,-0.079 l 14.1821851,14.1822 c 1.175212,-1.1752 1.138803,-3.1038 -0.0801,-4.3227 l -9.780721,-9.7808 z"/></g></svg>