<svg xmlns="http://www.w3.org/2000/svg" xmlns:xlink="http://www.w3.org/1999/xlink" width="48" height="48" viewBox="0 0 48 48"><defs><linearGradient id="b" x1="992.183" x2="1019.298" y1="516.081" y2="545.959" gradientTransform="matrix(1.53785 0 0 1.53785 -794.698 -90.283)" gradientUnits="userSpaceOnUse" xlink:href="#a"/><linearGradient id="a"><stop offset="0" stop-color="#ff1679"/><stop offset="1" stop-color="#ff770b"/></linearGradient></defs><g fill="#fff" transform="rotate(-45 -1212.281 527.414)"><rect width="48" height="48" x="728.007" y="702.736" fill="url(#b)" rx="10.144" ry="10.144" transform="rotate(45)"/><path d="m 31.599504,1042.3898 0,0 -12.005145,-12.0052 c -0.05288,0.5816 -0.264428,1.005 -0.687519,1.4279 l -0.211545,0.212 -0.423086,0.423 c -0.05289,0.053 -0.105773,0.106 -0.105773,0.106 l -12.639774,12.6398 -1.427939,1.4282 c -0.5817527,0.5816 -0.5817527,1.5336 -6.7e-6,2.1152 0.6346323,0.6346 1.5337049,0.582 2.1154576,0 l 0.687526,-0.6873 c 0.2115487,-0.212 0.5288665,-0.212 0.7404056,0 l 2.6971895,2.6972 c 0.317321,-0.212 0.634568,-0.423 0.951889,-0.529 0.634639,-0.423 1.322166,-0.6873 1.322166,-0.6873 0.370205,-0.159 0.793299,-0.053 1.057733,0.212 0.158658,0.159 0.264431,0.3704 0.317321,0.6347 0,0 0.05289,0.6876 0.05289,1.4279 0,0.318 0,0.7406 -0.05289,1.1105 l 1.375052,0 -0.317321,-0.318 c -0.528867,-0.4229 0.211545,-1.1632 0.687526,-0.6872 0,0 0,0 0,0 l 1.004846,1.0045 0.211545,0 c 0.105776,-0.212 0.211548,-0.5286 0.370206,-0.7932 0.7933,-1.3219 2.327012,-2.2212 3.913612,-2.2212 l 0.528866,0 0.423094,0 -8.884917,-8.8847 c -0.52886,-0.4233 0.105779,-1.1636 0.634638,-0.7406 0,0 0,0 0.05289,0.053 l 9.14935,9.1493 c 0.105773,0.106 0.158659,0.265 0.105773,0.423 l 1.322095,0.053 c 0.158659,-0.053 0.105772,-0.106 0.105776,0 0,0 0,0 0,0 l 0,0 c 0,-0.106 0,-0.106 0,-0.212 l 0,0 c 0.158638,-0.7933 1.110591,-1.1106 1.692344,-0.529 l 0,0 c 0.105772,0.106 0.211549,0.212 0.211545,0.318 l 3.596269,-3.596 1.427923,-1.4279 c 0.581749,-0.582 0.634632,-1.4809 -7e-6,-2.1156 z m -13.380183,-13.3801 c -0.581749,-0.5819 -1.5337,-0.5819 -2.11545,0 l -0.370206,0.37 2.115449,2.1155 0.158659,-0.159 0.211545,-0.212 c 0.58175,-0.5816 0.581746,-1.5336 0,-2.1152 z m 4.178009,7.0339 c 0,0 0,0 0.05289,0.053 l 4.918435,4.9186 c 0.475979,0.476 -0.264428,1.2163 -0.687519,0.6873 l -4.918435,-4.9183 c -0.528866,-0.423 0.10578,-1.1636 0.634632,-0.7403 z m -4.230896,0 c 0,0 0,0 0.05289,0.053 l 9.149351,9.1493 c 0.475979,0.476 -0.264431,1.2166 -0.687526,0.6877 l -9.149351,-9.1494 c -0.52886,-0.423 0.105779,-1.1636 0.634638,-0.7403 z m -1.427931,1.4279 c 0,0 0,0 0.05289,0.053 l 9.14935,9.1493 c 0.475979,0.476 -0.211538,1.1636 -0.687519,0.6877 l -9.14935,-9.1494 c -0.52886,-0.423 0.158659,-1.2162 0.634631,-0.7403 z m -1.375038,1.3749 c 0,0 0,0 0.05289,0.053 l 9.14935,9.1493 c 0.47598,0.476 -0.26441,1.2163 -0.740392,0.7403 l -9.14935,-9.1494 c -0.475973,-0.4759 0.158645,-1.2162 0.687504,-0.7932 z m 11.634973,13.539 c -0.105776,0 -0.158659,0.053 -0.211545,0 l -1.110621,0.053 c -0.317318,0.7406 -0.793299,1.4279 -1.375052,2.0099 0.105772,0.106 0.211548,0.212 0.370206,0.37 1.163506,-0.423 2.062578,-1.3219 2.32701,-2.4325 z m -2.009692,-1.0579 c -0.158659,0.053 -0.317321,0.106 -0.423093,0.106 l -3.331787,-0.053 c -1.11062,0.053 -2.115465,0.6346 -2.591445,1.5335 -0.475981,0.6877 -0.581753,1.5339 -0.317318,2.3272 1.639415,0.3703 3.331788,0.053 4.653953,-0.9519 0.951959,-0.7406 1.692371,-1.7982 2.009692,-2.9618 z m -12.481137,-9.6253 c 0,0 0,0 0.05289,0.053 l 4.548214,4.5483 c 0.475979,0.476 -0.211545,1.1632 -0.687526,0.6873 l -4.548214,-4.548 c -0.52886,-0.4233 0.158666,-1.2166 0.634638,-0.7406 z m 13.85619,13.8563 c -0.105773,-0.106 -0.264435,-0.159 -0.370208,-0.265 -0.211548,0.106 -0.475979,0.265 -0.687526,0.3703 0.105772,0.212 0.264435,0.476 0.317318,0.7407 l 1.163508,0 c 0,0 0.05289,0.053 0.105776,0 -0.158659,-0.2651 -0.317322,-0.529 -0.528866,-0.8463 z m -2.538558,-0.212 c -0.105773,-0.106 -0.211549,-0.106 -0.317322,-0.212 -1.269278,0.9523 -2.961651,1.3753 -4.601137,1.2166 0.581752,0.6876 1.42794,1.0049 2.327013,1.0576 0,0 0,0 0,0 l 3.331858,-0.053 c 0.158658,0.053 0.264431,0.053 0.423093,0.106 -0.264435,-0.7933 -0.63464,-1.4809 -1.163506,-2.1155 z m -10.048388,-8.9907 0,0 c 0.211548,0.212 0.370207,0.582 0.370206,0.8993 l 0,0 c 0,0.7403 -0.528866,1.2692 -1.269279,1.2692 l -1.269279,0 -1.269257,0 -0.05288,-1.3222 0,-1.2693 c 7e-6,-0.7402 0.528874,-1.2692 1.269279,-1.2692 0.317321,0 0.687526,0.159 0.899073,0.3703 0.264424,0.265 0.3702,0.5816 0.423086,0.9519 0.317321,0 0.687505,0.1591 0.899051,0.37 z m 3.437629,7.5628 -4.548178,0 c 0,-0.106 0.05289,-0.159 0.105773,-0.212 0.423093,-0.7403 0.211474,-3.2788 0.211474,-3.2788 0,0 -2.379827,1.1106 -2.750034,1.7983 -0.3173208,0.5286 -0.2644308,1.2162 0.211546,1.6922 l -4.230929,0 c -0.6346394,0 -0.6875261,1.0049 0.052886,1.0049 l 7.086807,0 c -0.423093,0.423 -0.475979,1.1106 -0.158659,1.6396 0.423094,0.7402 2.750035,1.7978 2.750035,1.7978 0,0 0.211615,-2.5385 -0.158659,-3.2257 -0.05289,-0.053 -0.158659,-0.1591 -0.211549,-0.2121 l 1.692372,0 c -0.05289,-0.3703 -0.05289,-0.6876 -0.05289,-1.0049 z m -0.105771,2.0099 -0.158659,-0.053 c 0.05289,0.3703 0.05296,0.7933 0.05289,1.1106 0,0.212 0,0.212 0,0.4229 l 0.846185,0.8463 0.423093,-0.4233 c -0.687526,-0.7933 -0.95203,-1.3749 -1.163505,-1.9035 z m -9.7839267,-6.8225 -0.3702066,0.3703 c -0.4230931,0.4229 -0.9519599,0.5286 -1.5337049,0.5816 l 2.8558421,2.8558 0.740413,0 c 0,-0.423 0.1586593,-0.7933 0.3702065,-1.2163 0.05289,-0.053 0.105772,-0.212 0.211545,-0.318 l -2.2740966,-2.2742 z m 9.5723797,9.5723 c -0.158659,0.5819 -0.793299,0.8993 -1.375052,0.6346 0,0 -0.63464,-0.318 -1.322096,-0.6873 -0.158658,-0.159 -0.423093,-0.318 -0.634638,-0.4233 l 2.538487,2.5385 1.427938,1.4282 c 0.581753,0.5817 1.533712,0.5817 2.115465,0 l 0.370206,-0.3703 -3.120309,-3.1204 z m -4.865499,-2.7498 -0.740413,0 0.95196,0.9519 c -0.158659,-0.3703 -0.211546,-0.6346 -0.211546,-0.9519 z"/></g></svg>