<svg xmlns="http://www.w3.org/2000/svg" xmlns:xlink="http://www.w3.org/1999/xlink" width="48" height="48" viewBox="0 0 48 48"><defs><linearGradient id="b" x1="1073.403" x2="1097.116" y1="516.451" y2="544.308" gradientTransform="matrix(1.53785 0 0 1.53785 -1643.872 211.343)" gradientUnits="userSpaceOnUse" xlink:href="#a"/><linearGradient id="a"><stop offset="0" stop-color="#16ff6a"/><stop offset="1" stop-color="#0090a5"/></linearGradient></defs><g transform="translate(0 -1004.362)"><rect width="48" height="48" y="1004.362" fill="url(#b)" rx="10.144" ry="10.144"/><path fill="#fff" d="m 14.689453,1016.8616 c -0.06414,-0.01 -0.132536,-0.01 -0.199219,0.012 -0.273779,0.069 -0.436685,0.3496 -0.359375,0.6211 l 0.259766,0.9668 c 0.165776,0.6557 1.149092,0.3909 0.964844,-0.2598 l -0.257813,-0.9648 c -0.05047,-0.2011 -0.21579,-0.3458 -0.408203,-0.375 z m 18.623047,0 c -0.192413,0.029 -0.359686,0.1739 -0.410156,0.375 l -0.257813,0.9648 c -0.184248,0.6507 0.799068,0.9155 0.964844,0.2598 l 0.259766,-0.9668 c 0.07731,-0.2715 -0.0856,-0.5523 -0.359375,-0.6211 -0.06668,-0.018 -0.133128,-0.021 -0.197266,-0.012 z m -15.251953,0.4453 c -0.05055,0 -0.102273,0 -0.15625,0.018 -0.130722,0.035 -0.242384,0.1202 -0.308594,0.2383 l -0.5,0.8672 c -0.349819,0.582 0.536377,1.0938 0.865234,0.5 l 0.500001,-0.8672 c 0.199204,-0.3366 -0.04655,-0.7383 -0.400391,-0.7559 z m 11.878906,0 c -0.353844,0.018 -0.599595,0.4193 -0.400391,0.7559 l 0.5,0.8672 c 0.328857,0.5938 1.215054,0.082 0.865235,-0.5 l -0.5,-0.8672 c -0.06621,-0.1181 -0.177872,-0.2037 -0.308594,-0.2383 -0.05398,-0.014 -0.105701,-0.02 -0.15625,-0.018 z m -17.988281,1.6543 c -0.0631,-0.01 -0.126783,-0.01 -0.189453,0.01 -0.442406,0.1057 -0.525359,0.6989 -0.128907,0.9219 l 0.865235,0.5 c 0.581668,0.3498 1.093782,-0.5365 0.5,-0.8653 l -0.865235,-0.5 c -0.0559,-0.034 -0.118542,-0.056 -0.18164,-0.066 z m 24.097656,0 c -0.0631,0.01 -0.123787,0.033 -0.179687,0.066 l -0.867188,0.5 c -0.593782,0.3288 -0.08167,1.215 0.5,0.8652 l 0.867188,-0.5 c 0.396452,-0.223 0.313499,-0.8161 -0.128907,-0.9218 -0.06267,-0.017 -0.128308,-0.02 -0.191406,-0.01 z m -19.025391,0.8692 -3.265625,0.875 -0.222656,1.0957 4.230469,-1.1329 -0.742188,-0.8378 z m 13.953125,0 -0.742187,0.8378 4.232422,1.1329 -0.224609,-1.0957 -3.265626,-0.875 z m -13.134765,1.8515 -3.863282,1.0352 2.621094,2.0605 1.242188,-3.0957 z m 12.316406,0 1.242188,3.0957 2.621093,-2.0605 -3.863281,-1.0352 z m -11.916015,1.6914 -0.712891,1.7754 c -0.04789,0.1191 -0.117902,0.2283 -0.207032,0.3203 1.957964,-0.3605 3.881246,0.2046 5.316407,1.3906 -0.603262,0.8256 -1.069443,1.7673 -1.347656,2.8008 -0.69171,2.5816 -0.113952,5.2008 1.345703,7.2051 -0.697904,0.5778 -1.524573,1.0236 -2.457031,1.2734 -3.46753,0.9292 -7.031804,-1.13 -7.960938,-4.5976 -0.874609,-3.2746 0.91469,-6.6705 4.109375,-7.8027 -0.12558,-0.035 -0.242835,-0.096 -0.345703,-0.1758 l -1.503907,-1.1817 c -3.471317,1.8647 -5.2067157,5.8704 -4.191406,9.6778 1.215,4.5344 5.875695,7.2267 10.410157,6.0117 1.260113,-0.3377 2.37162,-0.949 3.302734,-1.7422 0.931114,0.7932 2.042621,1.4045 3.302734,1.7422 4.534462,1.215 9.195157,-1.4773 10.410157,-6.0117 1.01531,-3.8074 -0.72009,-7.8131 -4.191407,-9.6778 l -1.503906,1.1817 c -0.102868,0.08 -0.220123,0.1408 -0.345703,0.1758 3.194685,1.1322 4.983984,4.5281 4.109375,7.8027 -0.929134,3.4676 -4.493407,5.5268 -7.960938,4.5976 -0.932458,-0.2498 -1.759127,-0.6956 -2.457031,-1.2734 1.459655,-2.0043 2.037413,-4.6235 1.345703,-7.2051 -0.278213,-1.0335 -0.744394,-1.9752 -1.347656,-2.8008 1.435233,-1.1864 3.35813,-1.7511 5.316406,-1.3906 -0.08913,-0.092 -0.159139,-0.2012 -0.207031,-0.3203 l -0.712891,-1.7754 c -2.164746,-0.066 -4.19514,0.6948 -5.757812,2.0215 -1.562672,-1.3267 -3.593066,-2.0873 -5.757812,-2.0215 z M 24,1028.4046 c 0.337691,0.5373 0.604877,1.1308 0.777344,1.7734 0.486411,1.8153 0.147174,3.6526 -0.777344,5.1289 -0.924358,-1.4762 -1.263719,-3.3137 -0.777344,-5.1289 0.172368,-0.6422 0.439933,-1.2364 0.777344,-1.7734 z"/></g></svg>