<svg xmlns="http://www.w3.org/2000/svg" xmlns:xlink="http://www.w3.org/1999/xlink" width="48" height="48" viewBox="0 0 48 48"><defs><linearGradient id="b" x1="949.87" x2="974.39" y1="518.014" y2="544.657" gradientTransform="matrix(1.53785 0 0 1.53785 -726.346 -90.283)" gradientUnits="userSpaceOnUse" xlink:href="#a"/><linearGradient id="a"><stop offset="0" stop-color="#24f7bc"/><stop offset="1" stop-color="#24c4fc"/></linearGradient></defs><g fill="#fff" transform="rotate(-45 -1212.281 527.414)"><rect width="48" height="48" x="728.007" y="702.736" fill="url(#b)" rx="10.144" ry="10.144" transform="rotate(45)"/><path d="m 26.681945,1036.0561 c -0.15886,-0.1592 -0.47659,-0.1592 -0.688407,0.053 l -0.688408,0.6881 c -0.476586,0.4766 0.211825,1.1651 0.688404,0.6885 l 0.688407,-0.6885 c 0.211825,-0.2123 0.211825,-0.5293 4e-6,-0.7412 z m -3.177261,-1.2709 c -0.317719,-0.3184 -0.847271,-0.1061 -0.847271,0.3184 l 0.05297,1.0063 c -0.05297,0.6881 1.006134,0.6881 0.95318,0 l 0,-0.9532 c 0,-0.2123 -0.05297,-0.2653 -0.15886,-0.3708 z m 4.501109,4.5012 c -0.105894,-0.1062 -0.211824,-0.2123 -0.370683,-0.1593 l -0.953179,0 c -0.688411,-0.053 -0.688411,1.0059 0,0.9532 l 0.953186,0 c 0.476585,0.053 0.741357,-0.5296 0.370676,-0.7943 z m -5.003477,-1.8807 -1.059096,0.3184 3.124296,3.1245 0.31772,-1.0593 -2.382931,-2.3829 z m -1.641591,1.2178 -0.476586,3.2303 3.283152,-0.4236 z m -1.217951,1.2182 c -3.336121,-2.0652 -7.625421,-1.5886 -10.4320219,1.2178 -3.2831246,3.2833 -3.2831456,8.6845 2.8e-5,11.9679 3.3361209,3.336 8.7375059,3.336 12.0206299,0.053 2.806601,-2.8064 3.230215,-7.1487 1.164976,-10.4847 l -1.853369,0.2653 c -0.105895,0 -0.26479,0.053 -0.423639,0 2.224078,2.5418 2.065215,6.4075 -0.317755,8.7904 -2.541755,2.5418 -6.672227,2.5418 -9.214024,0 -2.5418159,-2.5418 -2.4888402,-6.6194 0.05293,-9.1611 2.382963,-2.3829 6.19569,-2.5949 8.790449,-0.4235 -0.05297,-0.053 0,-0.2123 0,-0.3185 l 0.211789,-1.9063 z"/></g></svg>