<svg xmlns="http://www.w3.org/2000/svg" xmlns:xlink="http://www.w3.org/1999/xlink" width="48" height="48" viewBox="0 0 48 48"><defs><linearGradient id="b" x1="868.253" x2="937.656" y1="521.354" y2="588.736" gradientTransform="matrix(1.53785 0 0 1.53785 -598.962 -90.283)" gradientUnits="userSpaceOnUse" xlink:href="#a"/><linearGradient id="a"><stop offset="0" stop-color="#24f3d2"/><stop offset=".394" stop-color="#0674f0"/><stop offset=".507" stop-color="#6961b5"/><stop offset=".813" stop-color="#f34660"/><stop offset="1" stop-color="#ee078d"/></linearGradient></defs><g fill="#fff" transform="rotate(-45 -1212.281 527.414)"><rect width="48" height="48" x="728.007" y="702.736" fill="url(#b)" rx="10.144" ry="10.144" transform="rotate(45)"/><path d="m 33.785772,1047.5283 c -0.406928,-0.3504 -0.972142,-0.5008 -1.528842,-0.355 -0.246973,-0.8872 -1.162849,-1.4143 -2.053649,-1.1808 -0.89072,0.2334 -1.408456,1.1361 -1.161478,2.0233 l 0.444704,1.602 0.446085,1.6007 1.607563,-0.4199 1.607563,-0.4226 c 0.890728,-0.2335 1.409837,-1.1346 1.162859,-2.0218 -0.09259,-0.3328 -0.280648,-0.6157 -0.524805,-0.8259 z m -10.635605,-5.0202 -0.0014,0 c -0.07914,-0.1032 -0.180223,-0.1939 -0.302453,-0.2638 -0.487246,-0.2814 -1.084476,-0.1214 -1.365877,0.366 l -5.499412,9.5266 c -0.281351,0.4872 -0.119946,1.0833 0.367364,1.3645 0.487253,0.2814 1.084596,0.1212 1.365876,-0.366 l 5.499413,-9.5266 c 0.21098,-0.3654 0.173877,-0.7925 -0.06353,-1.1021 z m 2.985869,3.6377 c -0.321741,-0.3218 -0.833195,-0.3224 -1.15181,0 l -0.575905,0.587 -0.575906,0.5869 0.573143,0.587 0.574525,0.5883 c 0.321741,0.3217 0.834498,0.321 1.153191,0 l 0.0069,-0.01 c 0.318976,-0.3247 0.3186,-0.8461 -0.0014,-1.1697 0.318906,-0.3245 0.31718,-0.8477 -0.0028,-1.1712 z m -5.60023,-3.8987 -10.02241,-2.6392 -0.05939,0.098 c 0,0 0.0028,0 0.0028,0 l -1.2498662,2.1641 -1.2498671,2.1642 -0.059386,0.1036 0.6076699,0.6131 -0.2541165,-0.2541 -0.6118135,1.0593 c -0.5496766,0.952 -0.3572523,2.2143 0.4281312,2.9997 l 2.1958982,2.1959 c 0.392706,0.3927 0.903813,0.5958 1.403165,0.5414 0.499429,-0.054 0.957038,-0.3692 1.231913,-0.8452 l 0.461277,-0.7983 1.834057,1.8506 1.941782,-3.3615 2.305002,-3.9954 -8.036434,-2.1144 a 0.50067204,0.50067204 0 0 1 0.255497,-0.9682 l 8.298837,2.1863 0.577287,-0.9999 z m 4.57824,8.5446 c -0.507265,-0.5073 -1.315121,-0.5084 -1.817485,0 l -0.907361,0.924 -0.905982,0.9253 0.907362,0.9212 0.908743,0.9225 c 0.507265,0.5072 1.315114,0.5082 1.817485,0 l 0.0041,0 c 0.502329,-0.5123 0.50176,-1.3351 -0.0028,-1.8451 0.502328,-0.5122 0.500344,-1.3338 -0.0041,-1.8438 z m -15.5881134,-12.6851 -0.00138,0 c -0.079139,-0.1032 -0.1788351,-0.1953 -0.3010727,-0.2652 -0.487246,-0.2814 -1.0845462,-0.1213 -1.3658764,0.366 l -0.2513546,0.4337 -1.4984582,2.5978 -0.74992,1.2996 c -0.2813507,0.4873 -0.1213339,1.0846 0.3659829,1.3658 0.4872461,0.2814 1.0845965,0.1213 1.3658758,-0.3659 l 2.4997327,-4.3311 c 0.2110509,-0.3655 0.1738896,-0.7926 -0.063528,-1.1021 z m -3.0355875,0.4696 -0.8673113,-0.5 -0.9998926,1.7319 0.8673103,0.5 0.9998936,-1.7319 z m 2.4886835,6.654 3.6501634,3.6833 -0.598002,1.0344 c -0.140644,0.2436 -0.303611,0.3325 -0.472326,0.3508 -0.168737,0.018 -0.372695,-0.039 -0.588334,-0.2541 l -2.1958991,-2.1959 c -0.4313069,-0.4313 -0.5506453,-1.3067 -0.269308,-1.794 l 0.4737057,-0.8245 z"/></g></svg>