<svg xmlns="http://www.w3.org/2000/svg" xmlns:xlink="http://www.w3.org/1999/xlink" width="48" height="48" viewBox="0 0 48 48"><defs><linearGradient id="b" x1="906.952" x2="931.379" y1="515.915" y2="546.094" gradientTransform="translate(-660.712 -90.283) scale(1.53785)" gradientUnits="userSpaceOnUse" xlink:href="#a"/><linearGradient id="a"><stop offset="0" stop-color="#ffd800"/><stop offset="1" stop-color="#ff6100"/></linearGradient></defs><g fill="#fff" transform="rotate(-45 -1212.281 527.414)"><rect width="48" height="48" x="728.007" y="702.736" fill="url(#b)" rx="10.144" ry="10.144" transform="rotate(45)"/><path d="m 18.462816,1027.8387 c -0.721165,-0.7212 -1.880768,-0.7212 -2.601933,0 l -10.0348396,10.0348 c 1.5121903,-0.221 3.1058817,0.2333 4.2647386,1.3921 l 2.624029,2.624 c 1.477739,-0.8513 3.272548,-1.0472 4.92765,-0.4861 l 0.0055,-0.044 a 1.0001,1.0001 0 0 1 0.364602,-0.638 1.0001,1.0001 0 0 1 0.63391,-1.2582 l 1.590991,-0.5303 a 1.0001,1.0001 0 0 1 1.023371,0.2417 l 2.356103,2.3561 a 1.0001,1.0001 0 0 1 0.241686,1.0233 l -0.53033,1.591 a 1.0001,1.0001 0 0 1 -1.259534,0.6326 1.0001,1.0001 0 0 1 -0.636673,0.3659 l -0.04834,0.01 c 0.561788,1.6546 0.368209,3.4487 -0.481993,4.9263 l 2.624029,2.624 c 1.158863,1.1589 1.613165,2.7526 1.392116,4.2647 l 10.034839,-10.0348 c 0.721164,-0.7212 0.719798,-1.8822 -0.0014,-2.6033 l -16.488569,-16.4886 0,0 z m 6.470302,10.0058 a 0.50005,0.50005 0 0 1 0.0028,0.7182 l -0.707107,0.7071 a 0.50005,0.50005 0 1 1 -0.707106,-0.7071 l 0.707106,-0.7072 a 0.50005,0.50005 0 0 1 0.343886,-0.1505 0.50005,0.50005 0 0 1 0.360458,0.1395 z m 1.31754,3.182 a 0.50005,0.50005 0 0 1 -0.350792,0.8645 l -0.999893,0 a 0.50005,0.50005 0 1 1 1e-6,-0.9999 l 0.999892,0 a 0.50005,0.50005 0 0 1 0.350792,0.1354 z m -4.498138,-4.4954 a 0.50005,0.50005 0 0 1 0.147774,0.3605 l 0,0.9999 a 0.50005,0.50005 0 1 1 -0.999894,0 l 10e-7,-0.9999 a 0.50005,0.50005 0 0 1 0.493041,-0.5069 0.50005,0.50005 0 0 1 0.359078,0.1464 z m -1.198768,3.3505 -1.59099,0.5303 3.416763,3.4168 0.53033,-1.591 -2.356103,-2.3561 z m -1.915541,1.62 -0.441941,3.0936 3.093592,-0.442 -2.651651,-2.6516 z m -1.139381,0.899 c -1.333724,-0.5062 -2.799377,-0.4033 -4.042385,0.2307 l 1.136619,1.1366 c 0.870435,-0.2972 1.837032,-0.249 2.686177,0.1726 l 0.219589,-1.5399 z m 2.889194,2.892 -1.535747,0.221 c 0.422221,0.8492 0.471119,1.8166 0.174014,2.6875 l 1.135238,1.1353 c 0.632938,-1.2442 0.734742,-2.7102 0.226495,-4.0438 z m -2.53564,0.2403 a 1.0001,1.0001 0 0 1 -0.59386,-0.5911 1.0001,1.0001 0 0 1 -0.42675,-0.1036 c -0.448723,-0.2236 -0.937799,-0.2976 -1.41007,-0.2417 l 2.774566,2.7746 c 0.05678,-0.4727 -0.01685,-0.9623 -0.240306,-1.4114 a 1.0001,1.0001 0 0 1 -0.10358,-0.4268 z m -8.4687096,-5.5602 c -1.4458424,-1.4459 -3.6971085,-1.5413 -5.2687742,-0.319 l 19.0214498,19.0214 c 1.222318,-1.5717 1.128189,-3.8215 -0.317646,-5.2673 L 9.3836744,1039.9727 Z m -6.0104076,0.3536 -0.019335,0.019 -1.7484318,1.7484 -2.23318676,2.2332 c -0.72117894,0.7212 -0.72253864,1.8821 -0.001381,2.6033 l 16.48856976,16.4886 c 0.721157,0.7211 1.883516,0.7211 2.604695,0 l 2.233186,-2.2332 1.748432,-1.7484 0.01934,-0.019 -19.0918831,-19.0919 z m 6.3280537,10.5707 a 0.50005,0.50005 0 0 1 0.03591,0.036 l 2.1213215,2.1213 a 0.50005,0.50005 0 1 1 -0.707107,0.7071 l -2.121321,-2.1213 a 0.50067138,0.50067138 0 1 1 0.6711995,-0.743 z"/></g></svg>