<svg xmlns="http://www.w3.org/2000/svg" xmlns:xlink="http://www.w3.org/1999/xlink" width="48" height="48" viewBox="0 0 48 48"><defs><linearGradient id="b" x1="992.183" x2="1019.298" y1="516.081" y2="545.959" gradientTransform="translate(-794.698 -90.283) scale(1.53785)" gradientUnits="userSpaceOnUse" xlink:href="#a"/><linearGradient id="a"><stop offset="0" stop-color="#ff1679"/><stop offset="1" stop-color="#ff770b"/></linearGradient></defs><g fill="#fff" transform="rotate(-45 -1212.281 527.414)"><rect width="48" height="48" x="728.007" y="702.736" fill="url(#b)" rx="10.144" ry="10.144" transform="rotate(45)"/><path d="m 31.337284,1042.1036 c -0.232186,0.088 -0.484495,0.1395 -0.744393,0.1395 l -0.955718,0 c -0.473938,1.3612 -1.238179,2.6103 -2.251181,3.6627 0.17018,0.156 0.333359,0.3178 0.487515,0.4875 1.831704,-0.7638 3.110902,-2.3877 3.463777,-4.2897 z m -2.321587,-1.3189 c -0.360052,0.2079 -0.774996,0.3356 -1.219477,0.3356 l -4.266174,0 a 0.50004988,0.50005012 0 0 1 -0.04957,-10e-5 c -1.606893,10e-5 -3.090558,0.8653 -3.89601,2.2746 -0.8055,1.4093 -0.805599,3.1456 7e-6,4.5548 4.25e-4,10e-4 0.0023,0 0.0028,0 2.472131,0.1707 4.905391,-0.6855 6.727181,-2.3768 1.385789,-1.2864 2.32156,-2.9642 2.70139,-4.7895 z m 2.592253,3.501 c -0.352429,0.6487 -0.805472,1.2337 -1.349308,1.7388 0.443356,0.3811 0.833092,0.8091 1.150251,1.2832 0.154573,-0.1645 0.30448,-0.3415 0.439184,-0.5276 0.236173,-0.3262 0.431766,-0.6596 0.566258,-0.9087 0.06633,-0.1231 0.06647,-0.13 0.100833,-0.2003 -0.03472,-0.07 -0.03578,-0.077 -0.102417,-0.2014 -0.134966,-0.2495 -0.330063,-0.5835 -0.56623,-0.9088 -0.07519,-0.096 -0.160732,-0.1791 -0.2392,-0.2745 z m -1.861713,2.6075 c -0.09313,-0.079 -0.189384,-0.1568 -0.285805,-0.2334 -0.29649,0.2018 -0.609484,0.3794 -0.940459,0.5344 0.425063,0.5916 0.772825,1.2314 1.041278,1.9059 l 1.031648,0 c 0.213404,0 0.422284,0.036 0.61876,0.097 -0.272823,-0.8692 -0.76907,-1.6666 -1.465351,-2.3049 z m -2.720685,0.047 c -0.11919,-0.1192 -0.246307,-0.2322 -0.37039,-0.3478 -1.760251,1.4947 -3.970745,2.3368 -6.265914,2.3796 0.824324,0.7904 1.923726,1.2513 3.090841,1.2512 a 0.50004988,0.50005012 0 0 1 0.04823,0 l 4.268861,0 c 0.428839,1e-4 0.828446,0.1201 1.179412,0.3149 -0.324958,-1.3434 -0.991357,-2.5881 -1.951424,-3.5977 z m -9.008676,-1.7692 -6.979957,0 c 0.209516,-0.169 0.397323,-0.373 0.540018,-0.62 0.619998,-1.0738 0.3011,-5.0106 0.301107,-5.0106 0,0 -3.5689167,1.6925 -4.1888017,2.7663 -0.561032,0.9717 -0.306509,2.1822 0.541361,2.8644 l -6.582174,0 c -0.68099316,-0.015 -0.68100816,1.0145 2.1e-5,0.9998 l 11.0692827,0 c -0.846668,0.6822 -1.099424,1.8932 -0.538653,2.8644 0.619914,1.0739 4.188809,2.7662 4.188809,2.7662 0,0 0.320284,-3.9382 -0.299714,-5.0118 -0.07758,-0.1342 -0.167804,-0.2569 -0.266735,-0.3686 -0.07949,-0.094 -0.172308,-0.1723 -0.263949,-0.2498 l 2.480389,0 c -0.03023,-0.3334 -0.03089,-0.6679 -0.0013,-1.0013 z"/></g></svg>