<svg xmlns="http://www.w3.org/2000/svg" xmlns:xlink="http://www.w3.org/1999/xlink" width="48" height="48" viewBox="0 0 48 48"><defs><linearGradient id="b" x1="1073.403" x2="1097.116" y1="516.451" y2="544.308" gradientTransform="translate(-915.865 -90.283) scale(1.53785)" gradientUnits="userSpaceOnUse" xlink:href="#a"/><linearGradient id="a"><stop offset="0" stop-color="#16ff6a"/><stop offset="1" stop-color="#0090a5"/></linearGradient></defs><g fill="#fff" transform="rotate(-45 -1212.281 527.414)"><rect width="48" height="48" x="728.007" y="702.736" fill="url(#b)" rx="10.144" ry="10.144" transform="rotate(45)"/><path d="m 31.304881,1042.0599 c -0.232186,0.088 -0.484496,0.1394 -0.744393,0.1395 l -0.955711,0 c -0.473953,1.3611 -1.238172,2.6103 -2.251188,3.6626 0.17018,0.1561 0.333359,0.3178 0.487522,0.4875 1.831682,-0.7638 3.110895,-2.3877 3.46377,-4.2896 z m -2.321587,-1.3189 c -0.360052,0.2079 -0.774996,0.3356 -1.219477,0.3356 l -4.266173,0 a 0.50004988,0.50005012 0 0 1 -0.04964,-1e-4 c -1.606921,0 -3.090558,0.8653 -3.896009,2.2746 -0.333444,0.5834 -0.521265,1.2223 -0.578647,1.8714 l -8.021264,-0.042 c 0.23384,-0.1762 0.43678,-0.4029 0.592485,-0.6725 0.619998,-1.0738 0.3011,-5.0105 0.3011,-5.0105 0,0 -3.5689093,1.6925 -4.1887943,2.7663 -0.571795,0.9903 -0.295133,2.2277 0.592484,2.9016 l -6.629119,-0.036 a 0.50005,0.50005 0 1 0 -0.0055,0.9998 l 10.9918763,0.06 c -0.786161,0.6921 -1.003823,1.8629 -0.459902,2.8049 0.619913,1.0739 4.188809,2.7663 4.188809,2.7663 0,0 0.320284,-3.9382 -0.299715,-5.0119 -0.07758,-0.1341 -0.167803,-0.2569 -0.266734,-0.3686 -0.05346,-0.068 -0.119912,-0.1199 -0.186613,-0.1724 l 3.400243,0.019 c 0.07611,0.5835 0.265293,1.1558 0.566216,1.6821 3.54e-4,0 0.0023,0 0.0028,0 2.472201,0.1705 4.905383,-0.6856 6.72718,-2.3769 1.385788,-1.2863 2.321559,-2.9642 2.701389,-4.7895 z m 2.592253,3.501 c -0.352408,0.6487 -0.805508,1.2336 -1.349308,1.7388 0.443356,0.3811 0.833092,0.809 1.15025,1.2832 0.154574,-0.1645 0.304481,-0.3416 0.439184,-0.5276 0.236174,-0.3263 0.431767,-0.6596 0.566259,-0.9088 0.06633,-0.123 0.06647,-0.13 0.100833,-0.2002 -0.03472,-0.07 -0.03578,-0.077 -0.102417,-0.2015 -0.134966,-0.2495 -0.330064,-0.5834 -0.56623,-0.9087 -0.07237,-0.099 -0.160733,-0.1791 -0.2392,-0.2746 z m -1.861713,2.6075 c -0.09313,-0.079 -0.190092,-0.1562 -0.285806,-0.2335 -0.296489,0.2019 -0.609483,0.3795 -0.940459,0.5344 0.425063,0.5917 0.772826,1.2315 1.041279,1.906 l 1.031647,0 c 0.213405,0 0.42215,0.036 0.618754,0.097 -0.272809,-0.8692 -0.768922,-1.6668 -1.465344,-2.305 z m -2.720685,0.047 c -0.11919,-0.1192 -0.246307,-0.2322 -0.37039,-0.3477 -1.76025,1.4947 -3.970744,2.3367 -6.26592,2.3795 0.824338,0.7904 1.923733,1.2513 3.090848,1.2513 a 0.50004988,0.50005012 0 0 1 0.04823,0 l 4.26886,0 c 0.428839,0 0.828446,0.12 1.179412,0.3149 -0.324958,-1.3435 -0.991569,-2.5879 -1.951424,-3.5977 z"/></g></svg>