<svg xmlns="http://www.w3.org/2000/svg" xmlns:xlink="http://www.w3.org/1999/xlink" width="48" height="48" viewBox="0 0 48 48"><defs><linearGradient id="b" x1="992.183" x2="1019.298" y1="516.081" y2="545.959" gradientTransform="matrix(1.53785 0 0 1.53785 -794.812 -103.993)" gradientUnits="userSpaceOnUse" xlink:href="#a"/><linearGradient id="a"><stop offset="0" stop-color="#ff1679"/><stop offset="1" stop-color="#ff770b"/></linearGradient></defs><g transform="rotate(-45 -1195.675 534.131)"><rect width="48" height="48" x="727.893" y="689.027" fill="url(#b)" rx="10.144" ry="10.144" transform="rotate(45)"/><path fill="#fff" style="line-height:normal;text-indent:0;text-align:start;text-decoration-line:none;text-decoration-style:solid;text-decoration-color:#000;text-transform:none;block-progression:tb;isolation:auto;mix-blend-mode:normal" d="m 36.872333,1027.4179 c -0.631257,-0.728 -1.478152,-1.2807 -2.476255,-1.5482 -2.498667,-0.6695 -5.074314,0.6883 -5.970355,3.0591 l -3.889088,-1.0413 0.5179,-1.9321 a 0.50005,0.50005 0 0 0 -0.508235,-0.6353 0.50005,0.50005 0 0 0 -0.457134,0.377 l -0.517901,1.9321 -2.415488,-0.6477 a 0.50004994,0.50004994 0 0 0 -0.147776,-0.018 0.50004994,0.50004994 0 0 0 -0.110485,0.9834 l 2.415488,0.6477 -0.517901,1.9321 a 0.50005,0.50005 0 1 0 0.965367,0.2583 l 0.5179,-1.9322 3.887706,1.0428 c -0.409013,2.5009 1.143451,4.9639 3.641876,5.6333 2.661609,0.7131 5.410477,-0.8739 6.123655,-3.5355 0.445735,-1.6635 -0.0072,-3.3621 -1.059279,-4.5755 z m -0.749922,0.656 c 0.84174,0.9685 1.200764,2.3226 0.842451,3.6598 -0.573302,2.1396 -2.759063,3.4032 -4.898648,2.8299 -2.139583,-0.5733 -3.401729,-2.7605 -2.828427,-4.9001 0.573303,-2.1395 2.759067,-3.4003 4.898651,-2.827 0.802344,0.215 1.480932,0.6563 1.985975,1.2374 z m -3.659831,12.5263 a 0.50005,0.50005 0 0 0 -0.364601,-0.1381 0.50005,0.50005 0 0 0 -0.410178,0.7554 l 1.39626,2.4183 -6.102939,-1.6338 c 0.409953,-2.5015 -1.140148,-4.9665 -3.639111,-5.6361 -2.6616,-0.7132 -5.410469,0.8739 -6.123655,3.5355 -0.713176,2.6616 0.873925,5.4104 3.535534,6.1236 2.498101,0.6693 5.072376,-0.6878 5.968975,-3.0576 l 6.101559,1.6351 -2.41825,1.3963 a 0.50029091,0.50029091 0 0 0 0.501327,0.8659 l 3.42643,-1.979 a 0.50029236,0.50029236 0 0 0 0.03729,-0.021 0.50005,0.50005 0 0 0 0.0069,0 0.50029236,0.50029236 0 0 0 0.03452,-0.024 0.50005,0.50005 0 0 0 0.0069,0 0.50029236,0.50029236 0 0 0 0.03176,-0.026 0.50029236,0.50029236 0 0 0 0.03732,-0.034 0.50005,0.50005 0 0 0 0.0055,-0.01 0.50029236,0.50029236 0 0 0 0.02621,-0.035 0.50005,0.50005 0 0 0 0.0042,0 0.50029236,0.50029236 0 0 0 0.02487,-0.036 0.50005,0.50005 0 0 0 0.0028,-0.01 0.50029236,0.50029236 0 0 0 0.01934,-0.039 0.50005,0.50005 0 0 0 0.0041,-0.01 0.50029236,0.50029236 0 0 0 0.01657,-0.039 0.50005,0.50005 0 0 0 0.0014,-0.01 0.50029236,0.50029236 0 0 0 0.01381,-0.042 0.50005,0.50005 0 0 0 0.0014,-0.01 0.50029236,0.50029236 0 0 0 0.0083,-0.041 0.50005,0.50005 0 0 0 0,-0.01 0.50029236,0.50029236 0 0 0 0.0041,-0.043 0.50005,0.50005 0 0 0 0,-0.01 0.50029236,0.50029236 0 0 0 0,-0.044 0.50005,0.50005 0 0 0 -0.0014,-0.01 0.50029236,0.50029236 0 0 0 -0.0041,-0.043 0.50005,0.50005 0 0 0 -0.0014,-0.01 0.50029236,0.50029236 0 0 0 -0.0083,-0.042 0.50005,0.50005 0 0 0 -0.0028,-0.01 0.50029236,0.50029236 0 0 0 -0.01243,-0.04 0.50005,0.50005 0 0 0 -0.0028,-0.01 0.50029236,0.50029236 0 0 0 -0.0055,-0.014 0.50005,0.50005 0 0 0 -0.01381,-0.033 0.50029236,0.50029236 0 0 0 -0.0069,-0.012 0.50005,0.50005 0 0 0 -0.0069,-0.012 l -1.999786,-3.4637 a 0.50005,0.50005 0 0 0 -0.09253,-0.1174 z m -7.394237,-2.0302 c 0.841742,0.9685 1.202148,2.324 0.843836,3.6612 -0.573286,2.1395 -2.760446,3.4018 -4.90003,2.8285 -2.139583,-0.5733 -3.401711,-2.7606 -2.828427,-4.9001 0.57332,-2.1397 2.759073,-3.4003 4.898648,-2.827 0.80234,0.215 1.480932,0.6564 1.985976,1.2374 z" color="#000" font-family="sans-serif" font-weight="400" overflow="visible" white-space="normal"/></g></svg>