<svg xmlns="http://www.w3.org/2000/svg" xmlns:xlink="http://www.w3.org/1999/xlink" width="48" height="48" viewBox="0 0 48 48"><defs><linearGradient id="b" x1="949.87" x2="974.39" y1="518.014" y2="544.657" gradientTransform="matrix(1.53785 0 0 1.53785 -1454.353 211.343)" gradientUnits="userSpaceOnUse" xlink:href="#a"/><linearGradient id="a"><stop offset="0" stop-color="#24f7bc"/><stop offset="1" stop-color="#24c4fc"/></linearGradient></defs><g transform="translate(0 -1004.362)"><rect width="48" height="48" y="1004.362" fill="url(#b)" rx="10.144" ry="10.144"/><path fill="#fff" style="line-height:normal;text-indent:0;text-align:start;text-decoration-line:none;text-decoration-style:solid;text-decoration-color:#000;text-transform:none;block-progression:tb;isolation:auto;mix-blend-mode:normal" d="m 31.611328,1016.3577 0,0 A 0.50005,0.50005 0 0 0 31.5,1017.344 l 2.695312,0.7227 -5.470703,3.1562 c -1.479684,-2.056 -4.317391,-2.701 -6.55664,-1.4082 -1.06286,0.6137 -1.793724,1.5703 -2.179688,2.6446 -0.319752,-0.064 -0.649907,-0.1 -0.988281,-0.1 -2.755502,0 -5,2.2445 -5,5 0,2.5865 1.978357,4.7204 4.5,4.9726 l 0,4.0274 -2,0 a 0.50005,0.50005 0 1 0 0,1 l 2,0 0,2.5 a 0.50004994,0.50004994 0 1 0 1,0 l 0,-2.5 2,0 a 0.50005,0.50005 0 1 0 0,-1 l -2,0 0,-4.0274 c 1.949323,-0.195 3.554513,-1.5222 4.191406,-3.3066 1.151134,0.2312 2.383026,0.082 3.476563,-0.5488 2.240262,-1.2934 3.101462,-4.0767 2.058593,-6.3868 l 5.472657,-3.1601 -0.722657,2.7011 a 0.50005,0.50005 0 1 0 0.964844,0.2579 l 1.019532,-3.8047 a 0.50004994,0.50004994 0 0 0 -0.40625,-0.6895 l -3.794922,-1.0176 a 0.50005,0.50005 0 0 0 -0.148438,-0.019 z m -6.662109,3.7949 c 1.280013,0.09 2.491387,0.7952 3.183593,1.9942 1.107531,1.9183 0.453464,4.3553 -1.464843,5.4629 -0.86,0.4965 -1.8204,0.6217 -2.722657,0.455 0.03291,-0.231 0.05469,-0.465 0.05469,-0.705 0,-2.0695 -1.266811,-3.8507 -3.064453,-4.6094 0.313484,-0.839 0.893166,-1.5838 1.732422,-2.0684 0.719365,-0.4153 1.513242,-0.583 2.28125,-0.5293 z M 19,1023.3597 c 0.25483,0 0.502759,0.029 0.744141,0.074 -0.156596,1.0738 0.0107,2.203 0.59375,3.2129 0.567591,0.9831 1.429203,1.6822 2.404297,2.0898 -0.561131,1.5296 -2.014006,2.6231 -3.742188,2.6231 -2.215062,0 -4,-1.785 -4,-4 0,-2.2151 1.784938,-4 4,-4 z m 1.695312,0.3867 C 22.05501,1024.384 23,1025.754 23,1027.3597 c 0,0.138 -0.02552,0.2679 -0.03906,0.4023 -0.71099,-0.3357 -1.331499,-0.8802 -1.75586,-1.6152 -0.43714,-0.7572 -0.590771,-1.5951 -0.509766,-2.4004 z" color="#000" font-family="sans-serif" font-weight="400" overflow="visible" white-space="normal"/></g></svg>