<svg xmlns="http://www.w3.org/2000/svg" xmlns:xlink="http://www.w3.org/1999/xlink" width="48" height="48" viewBox="0 0 48 48"><defs><linearGradient id="b" x1="992.183" x2="1019.298" y1="516.081" y2="545.959" gradientTransform="matrix(1.53785 0 0 1.53785 -794.698 -90.283)" gradientUnits="userSpaceOnUse" xlink:href="#a"/><linearGradient id="a"><stop offset="0" stop-color="#ff1679"/><stop offset="1" stop-color="#ff770b"/></linearGradient></defs><g fill="#fff" transform="rotate(-45 -1212.281 527.414)"><rect width="48" height="48" x="728.007" y="702.736" fill="url(#b)" rx="10.144" ry="10.144" transform="rotate(45)"/><path fill-rule="evenodd" d="m 28.474651,1035.0183 a 0.50005,0.50005 0 0 0 -0.705686,0.01 l -1.074448,1.0745 c -4.974023,-4.6078 -12.673482,-4.6063 -17.6459282,0 l -1.078614,-1.0786 a 0.50005,0.50005 0 1 0 -0.707106,0.7071 l 1.078613,1.0786 c -4.602452,4.9728 -4.600953,12.6665 0.0041,17.6377 l -1.082722,1.0827 a 0.50005,0.50005 0 1 0 0.707107,0.7071 l 1.082722,-1.0827 c 4.9712082,4.6051 12.6648982,4.6066 17.6376552,0 l 1.078613,1.0786 a 0.50005,0.50005 0 1 0 0.707107,-0.7071 l -1.078614,-1.0786 c 4.610415,-4.9725 4.611914,-12.6719 0.0042,-17.6459 l 1.074449,-1.0745 a 0.50005,0.50005 0 0 0 -0.0014,-0.7167 z m -2.183475,2.0647 c 7.78e-4,6e-4 0.0021,0 0.0028,0 a 0.50005,0.50005 0 0 0 0.120159,0.1201 c 4.618814,4.6811 4.614055,12.1944 -0.01654,16.8684 a 0.50005,0.50005 0 0 0 -0.08846,0.086 c -4.694057,4.6429 -12.246248,4.6304 -16.9208532,-0.044 -4.675057,-4.6751 -4.687114,-12.2283 -0.04277,-16.9223 a 0.50005,0.50005 0 0 0 0.08697,-0.087 c 4.6717132,-4.6269 12.1774052,-4.6347 16.8586992,-0.024 z m -6.227242,0.8383 c -0.831063,-0.8311 -1.980408,-1.3422 -3.255166,-1.3411 -2.549509,0 -4.603442,2.0563 -4.605811,4.6059 l -0.0014,0.9212 -0.0083,9.2034 9.203462,-0.01 0.921211,0 c 2.54958,0 4.603513,-2.0563 4.605811,-4.6058 0.0023,-2.5495 -2.048071,-4.5999 -4.59758,-4.5976 l -0.921141,0 0.0014,-0.9212 c 0.0012,-1.2747 -0.511274,-2.4255 -1.342407,-3.2565 z m -0.905924,0.6269 a 0.50005,0.50005 0 1 1 -0.707107,0.7071 c -0.602894,-0.6029 -1.483991,-0.8343 -2.320194,-0.6049 -0.836203,0.2294 -1.494166,0.8874 -1.723573,1.7236 a 0.50005,0.50005 0 1 1 -0.964034,-0.2651 c 0.322773,-1.1768 1.245689,-2.0997 2.422406,-2.4224 1.17681,-0.3229 2.43464,0 3.292502,0.8617 z"/></g></svg>