<svg xmlns="http://www.w3.org/2000/svg" xmlns:xlink="http://www.w3.org/1999/xlink" width="48" height="48" viewBox="0 0 48 48"><defs><linearGradient id="b" x1="992.183" x2="1019.298" y1="516.081" y2="545.959" gradientTransform="translate(-794.698 -90.283) scale(1.53785)" gradientUnits="userSpaceOnUse" xlink:href="#a"/><linearGradient id="a"><stop offset="0" stop-color="#ff1679"/><stop offset="1" stop-color="#ff770b"/></linearGradient></defs><g fill="#fff" transform="rotate(-45 -1212.281 527.414)"><rect width="48" height="48" x="728.007" y="702.736" fill="url(#b)" rx="10.144" ry="10.144" transform="rotate(45)"/><path fill-rule="evenodd" d="m 30.051563,1039.4271 c -0.471165,-0.5042 -1.255855,-0.4936 -1.737383,0 l -0.174015,0.1795 -1.740146,1.7816 1.738765,1.7829 0.175395,0.1754 c 0.471164,0.5041 1.255855,0.4936 1.737384,0 0.481536,-0.4937 0.481541,-1.2879 0,-1.7815 l -0.175395,-0.1754 0.174014,-0.1796 c 0.240872,-0.2469 0.361864,-0.57 0.36184,-0.8922 l 0.0014,0 c 3.14e-4,-0.3225 -0.121649,-0.6427 -0.36184,-0.8894 z m -14.981825,-6.4966 c -0.408002,-0.408 -1.061097,-0.4098 -1.466694,0 l -9.8746363,9.8747 17.6776693,17.6776 9.874637,-9.8746 c 0.405597,-0.4056 0.40256,-1.0587 -0.0055,-1.4667 l -2.691702,-2.6945 -0.109105,-0.1091 0.0014,0 -11.313708,-11.3137 -0.0041,0 -2.090937,-2.091 0.0028,-0.01 z m 1.595133,4.4236 4.654199,4.6542 c -9.95e-4,0 -0.0018,0 -0.0028,0.01 l 1.350685,1.3507 c -0.05646,-0.044 -0.10131,-0.1 -0.146393,-0.1547 l 0.160204,0.1602 c -0.0032,0 -0.0079,0 -0.01105,-0.01 l 1.204291,1.2043 c 0.0018,-2e-4 0.0037,2e-4 0.0055,0 l 2.411345,2.4113 c -4.35e-4,0 4.44e-4,0.01 10e-7,0.01 l 0.874215,0.8742 2.014978,2.015 -7.778175,7.7782 -1.361732,-1.3618 -2.128226,-2.1282 -7.646974,-7.647 -3.7123102,-3.7123 7.7781752,-7.7781 2.139274,2.1392 0.178158,0.1782 c 0.0057,0 0.01085,0.01 0.01657,0.01 z m -2.331243,-0.9171 -6.3639608,6.364 7.2713228,7.2713 c -0.0025,0 -0.0058,0 -0.0083,-0.01 l 3.012109,3.0121 1.923827,1.9238 1.230532,1.2306 0.0014,0 0.0041,0 6.363962,-6.3639 -13.43503,-13.4351 z m 0.573144,1.9874 0,0 c 0.146517,0.1465 0.238886,0.3484 0.241687,0.5703 l 0.0014,0.1589 0.160203,0 c 0.443505,0.01 0.805158,0.3672 0.810687,0.8107 0.0055,0.4435 -0.346406,0.8049 -0.78997,0.7899 l -0.160205,0 -1.602038,-0.019 -0.01933,-1.602 -0.0014,-0.1589 c -0.0055,-0.4435 0.346405,-0.8049 0.78997,-0.7899 0.221479,0 0.422484,0.091 0.569,0.2375 z m 6.140228,6.1402 2.121321,2.1214 a 0.50005,0.50005 0 1 1 -0.707107,0.7071 l -2.121321,-2.1214 a 0.50005,0.50005 0 0 1 0.348029,-0.859 0.50005,0.50005 0 0 1 0.359078,0.1519 z m 3.186124,3.1862 2.12132,2.1213 -2.12132,2.1213 -2.121321,-2.1213 2.121321,-2.1213 z m -6.014551,-3.1862 3.535534,3.5356 a 0.50005,0.50005 0 1 1 -0.707107,0.7071 l -3.535534,-3.5356 a 0.50005,0.50005 0 0 1 0.348029,-0.859 0.50005,0.50005 0 0 1 0.359078,0.1519 z m -6.713372,-3.8849 2.121321,2.1213 -2.121321,2.1213 -2.1213202,-2.1213 2.1213202,-2.1213 z m 3.187505,3.1875 2.12132,2.1213 a 0.50005,0.50005 0 1 1 -0.707107,0.7071 l -2.12132,-2.1213 a 0.50005,0.50005 0 0 1 0.348029,-0.859 0.50005,0.50005 0 0 1 0.359078,0.1519 z m -1.414214,1.4142 3.535534,3.5355 a 0.50005,0.50005 0 1 1 -0.707107,0.7071 l -3.535534,-3.5355 a 0.50005,0.50005 0 0 1 0.34803,-0.859 0.50005,0.50005 0 0 1 0.359077,0.1519 z m -11.6727856,-3.1875 c -1.17535295,1.1754 -1.19298895,3.0497 -0.04005,4.2026 L 17.909215,1062.64 c 1.152937,1.1529 3.027236,1.1353 4.202589,-0.04 l -8.369272,-8.3693 -0.551046,0.5511 c -0.305326,0.3053 -0.791545,0.311 -1.089662,0.012 l -2.6903212,-2.6903 c -0.2981155,-0.2981 -0.2929685,-0.7843 0.01243,-1.0897 l 0.5510462,-0.551 -8.3692716,-8.3693 z"/></g></svg>