<svg xmlns="http://www.w3.org/2000/svg" xmlns:xlink="http://www.w3.org/1999/xlink" width="48" height="48" viewBox="0 0 48 48"><defs><linearGradient id="b" x1="906.952" x2="931.379" y1="515.915" y2="546.094" gradientTransform="translate(-660.712 -90.283) scale(1.53785)" gradientUnits="userSpaceOnUse" xlink:href="#a"/><linearGradient id="a"><stop offset="0" stop-color="#ffd800"/><stop offset="1" stop-color="#ff6100"/></linearGradient></defs><g fill="#fff" transform="rotate(-45 -1212.281 527.414)"><rect width="48" height="48" x="728.007" y="702.736" fill="url(#b)" rx="10.144" ry="10.144" transform="rotate(45)"/><path fill-rule="evenodd" d="m 27.249553,1036.7604 c -0.264955,-0.2655 -0.582865,-0.4769 -0.900794,-0.5831 -1.006765,-0.2655 -1.907552,0.3186 -2.172486,1.2189 l -0.053,0.3707 -0.900777,3.4443 3.4442,1.0069 0.317918,0.1062 c 0.953778,0.2124 1.907552,-0.3186 2.172486,-1.3248 0.264955,-0.9006 -0.317917,-1.9075 -1.324697,-2.1723 l -0.317918,-0.1062 0.105961,-0.3186 c 0.158959,-0.5827 -0.053,-1.2186 -0.370919,-1.6424 z m -12.187111,-5.1929 c -0.423903,-0.4238 -1.05975,-0.4238 -1.483653,0 l -9.855687,9.8558 17.644802,17.6448 9.855692,-9.8558 c 0.4239,-0.4238 0.4239,-1.0596 0,-1.4837 l -2.702379,-2.7023 -1.854501,-1.8544 -0.264955,-0.053 -3.444204,-1.0069 c -0.105996,0 -0.211956,-0.1062 -0.317917,-0.1062 l 1.165735,1.1658 c 0.68884,-0.053 1.377674,0.1062 1.907552,0.6358 l 0,0 c 0.476891,0.4769 0.63579,1.1655 0.529815,1.8013 l 0.847803,0.8479 2.013538,2.0138 -7.736186,7.7358 -1.324694,-1.3244 -2.119442,-2.1196 -7.683207,-7.6831 -3.7091201,-3.7091 7.7361851,-7.7363 2.172486,2.1723 0.158958,0.1594 c 0.423893,0.1062 0.847796,0.4241 1.165725,0.742 l 0.158959,0.1593 c 0,0 0,0 0.158959,-0.053 1.059749,-0.3186 2.225459,-0.1062 2.9143,0.6889 0.105961,0.1063 0.158959,0.2656 0.264955,0.3711 0.476891,0.9006 0.476891,1.9602 7e-6,2.755 l 1.377682,1.3779 c -0.317918,-0.3186 -0.476891,-0.6889 -0.370913,-1.1127 l 0.476885,-1.6427 -4.874845,-4.875 -2.808332,-2.8081 0,0 z m 5.086771,6.5704 c -0.582865,-0.5827 -1.483631,-0.7417 -2.278447,-0.371 l -0.317917,0.2124 -0.105961,-0.3186 c -0.529879,-0.8479 -1.642607,-1.1127 -2.543391,-0.6358 -0.794819,0.4768 -1.112723,1.5364 -0.582851,2.3843 l 0.105996,0.3187 1.854543,3.0202 3.12625,-1.7486 0.264955,-0.1593 c 0.900787,-0.4768 1.218715,-1.5365 0.68883,-2.3844 -0.105961,-0.1062 -0.105961,-0.2124 -0.211957,-0.3186 z m 4.8219,6.4115 c -0.476891,-0.4769 -1.32469,-0.4769 -1.801581,0 l -0.953772,0.9537 -0.900773,0.9007 0.953782,0.9541 0.900721,0.9006 c 0.47689,0.4769 1.324697,0.4769 1.801567,0 l 0,0 c 0.529878,-0.5299 0.529871,-1.3778 0.053,-1.8547 0.423899,-0.5296 0.476951,-1.3244 -0.05293,-1.8544 z m -10.650499,-9.4848 -6.358511,6.3587 3.338211,3.3381 3.815101,3.8151 c -0.158959,-0.1594 -0.264955,-0.3711 -0.264955,-0.689 l 0,-1.8016 0,-0.2124 c -0.053,-1.0069 0.847803,-1.9076 1.907559,-1.9076 0.529878,0 0.953781,0.2125 1.324697,0.5828 0.211957,0.2124 0.317918,0.4237 0.370912,0.7948 0.158959,0.053 0.053,0.053 0.211957,0.1062 0.635854,0.3186 1.165732,0.8479 1.165732,1.5899 0,1.0596 -0.900794,1.9603 -1.907563,1.9075 l -0.211957,0 -1.854571,-0.053 c -0.26492,0.053 -0.476891,-0.053 -0.635854,-0.2124 l 2.967316,2.9675 1.960479,1.9606 1.218719,1.2186 6.358509,-6.3584 -1.589635,-1.5899 c 0.211957,0.742 0.105996,1.4837 -0.423896,2.0137 l -0.053,0.053 c -0.847781,0.8475 -2.278454,0.9006 -3.179244,-4e-4 l 0,0 -0.953712,-0.9534 -0.900794,-0.901 c -0.370912,-0.371 -0.370912,-1.0068 0,-1.3775 l 0.95376,-0.9538 0.900788,-0.901 c 0.105961,-0.1062 0.211957,-0.2124 0.317918,-0.3186 l -2.119514,-2.1196 c -0.158959,0.053 -0.317918,0.2125 -0.476891,0.2656 l -0.317918,0.2124 -3.073269,1.6958 c -0.476891,0.2655 -1.059756,0.1062 -1.377681,-0.3186 l -1.80156,-3.0734 -0.211957,-0.3186 0,0 c -0.741821,-1.2717 -0.264919,-3.0202 1.006755,-3.7623 0.211957,-0.1062 0.476891,-0.1593 0.688834,-0.2655 l -0.794809,-0.7948 z m 3.073276,10.1737 c -0.158959,-0.1593 -0.4239,-0.2124 -0.688841,-0.2655 -0.529878,0 -0.953781,0.4241 -0.953781,0.9538 l 0.053,0.1593 0,1.9078 1.907558,0 0.158959,0.053 c 0.476891,-0.053 0.900794,-0.4768 0.953782,-0.9537 0,-0.53 -0.423904,-0.9538 -0.953782,-0.9538 l -0.211957,0 0,-0.2124 c 0,-0.2124 -0.105961,-0.5296 -0.264955,-0.6886 z m -15.7902228,-4.557 c -1.21871907,1.2185 -1.16573907,3.0733 -0.053,4.186 l 16.3201158,16.32 c 1.165731,1.1658 3.020304,1.2189 4.239026,0 l -8.372002,-8.3721 -0.582866,0.5831 c -0.317917,0.3187 -0.794819,0.2656 -1.059756,0 l -2.702379,-2.7023 c -0.317918,-0.3186 -0.317918,-0.742 0,-1.0599 l 0.582866,-0.5828 -8.3720028,-8.372 z"/></g></svg>