<svg xmlns="http://www.w3.org/2000/svg" xmlns:xlink="http://www.w3.org/1999/xlink" width="48" height="48" viewBox="0 0 48 48"><defs><linearGradient id="b" x1="868.253" x2="937.656" y1="521.354" y2="588.736" gradientTransform="translate(-598.962 -90.283) scale(1.53785)" gradientUnits="userSpaceOnUse" xlink:href="#a"/><linearGradient id="a"><stop offset="0" stop-color="#24f3d2"/><stop offset=".394" stop-color="#0674f0"/><stop offset=".507" stop-color="#6961b5"/><stop offset=".813" stop-color="#f34660"/><stop offset="1" stop-color="#ee078d"/></linearGradient></defs><g fill="#fff" transform="rotate(-45 -1212.281 527.414)"><rect width="48" height="48" x="728.007" y="702.736" fill="url(#b)" rx="10.144" ry="10.144" transform="rotate(45)"/><path fill-rule="evenodd" d="m 27.730906,1047.9467 0,0 c -0.06739,-0.067 -0.147446,-0.1206 -0.240056,-0.1439 l -12.918501,-3.4555 -1.56197,-2.7304 -0.186167,-0.3275 c -0.06509,-0.1132 -0.141301,-0.2177 -0.224089,-0.3118 -0.57881,-0.6594 -1.552255,-0.8363 -2.342271,-0.3757 -0.9028052,0.5264 -1.2119659,1.6808 -0.6932892,2.5881 l 0.186167,0.3276 -0.325906,0.1906 c -0.9028757,0.5265 -1.2119667,1.6808 -0.6932897,2.5881 0.518727,0.9073 1.6630729,1.2142 2.5660129,0.6878 l 0.325976,-0.1906 2.585338,-1.5082 9.584577,2.5633 -0.255442,0.9598 a 0.50005,0.50005 0 1 0 0.965364,0.2583 l 0.258242,-0.9598 0.918404,0.2472 -0.516548,1.9252 a 0.50051167,0.50051167 0 1 0 0.966749,0.2597 l 0.516506,-1.928 0.585619,0.1574 c 0.486878,0.1361 0.845198,-0.4538 0.499918,-0.8231 z m -15.752451,-6.2314 a 0.50030053,0.50030053 0 0 1 -0.678044,0.7333 c -0.0096,-0.01 -0.04137,-0.013 -0.06618,-0.017 a 0.50005,0.50005 0 0 1 -0.93225,-0.3521 c 0.09608,-0.3556 0.411529,-0.5847 0.737583,-0.6409 0.326563,-0.056 0.647173,0.03 0.901837,0.2417 a 0.50030053,0.50030053 0 0 1 0.03592,0.036 z"/></g></svg>