<svg xmlns="http://www.w3.org/2000/svg" xmlns:xlink="http://www.w3.org/1999/xlink" width="48" height="48" viewBox="0 0 48 48"><defs><linearGradient id="b" x1="992.183" x2="1019.298" y1="516.081" y2="545.959" gradientTransform="translate(-794.698 -90.283) scale(1.53785)" gradientUnits="userSpaceOnUse" xlink:href="#a"/><linearGradient id="a"><stop offset="0" stop-color="#ff1679"/><stop offset="1" stop-color="#ff770b"/></linearGradient></defs><g fill="#fff" transform="rotate(-45 -1212.281 527.414)"><rect width="48" height="48" x="728.007" y="702.736" fill="url(#b)" rx="10.144" ry="10.144" transform="rotate(45)"/><path fill-rule="evenodd" d="m 20.148104,1035.1806 c -1.113388,-1.1134 -2.650934,-1.8028 -4.400554,-1.8559 -3.446219,0.053 -6.2562131,2.8633 -6.2561951,6.2562 l -7e-6,1.2724 -0.05299,12.4596 12.5123751,0 1.21944,-0.053 c 3.446215,0.053 6.256209,-2.757 6.256194,-6.2562 6.4e-5,-3.3932 -2.756932,-6.1503 -6.203168,-6.2031 l -1.272452,0 0.05303,-1.2196 c -0.05299,-1.7496 -0.742246,-3.287 -1.855641,-4.4003 z m -1.060377,1.0602 c 0.477173,0.4771 -0.265076,1.2196 -0.68924,0.6893 -0.90132,-0.9011 -2.332828,-1.2724 -3.605276,-0.9543 -1.32547,0.3713 -2.332828,1.3784 -2.650933,2.6508 -0.159053,0.6893 -1.166414,0.4244 -0.954346,-0.2126 0.424154,-1.6968 1.696605,-2.9692 3.340185,-3.3404 1.643587,-0.4772 3.393204,0 4.55961,1.1665 z m 0.742253,6.6806 0,0 c 1.166421,1.1661 1.166428,3.0748 1.4e-5,4.2413 -0.583203,0.5834 -1.325449,0.7952 -2.173757,0.7952 l -2.756992,2.7571 c -0.371135,0.3712 -1.007364,0.3712 -1.3785,0 l -1.431515,-1.4315 c -0.371113,-0.3713 -0.371113,-1.0075 2.2e-5,-1.3784 l 2.756992,-2.757 c 0,-0.8484 0.159053,-1.6437 0.742249,-2.2267 1.166414,-1.1665 3.075088,-1.1665 4.241487,0 z m -0.689241,0.689 c -0.742267,-0.7422 -2.0147,-0.7422 -2.809986,0.053 -0.477166,0.4772 -0.68922,1.2193 -0.530185,1.9086 l -3.022089,3.022 1.431514,1.4315 3.022094,-3.022 c 0.689248,0.1594 1.431494,-0.053 1.908659,-0.5303 0.795286,-0.7953 0.795279,-2.0677 -7e-6,-2.8629 z"/></g></svg>