<svg xmlns="http://www.w3.org/2000/svg" xmlns:xlink="http://www.w3.org/1999/xlink" width="48" height="48" viewBox="0 0 48 48"><defs><linearGradient id="b" x1="992.183" x2="1019.298" y1="516.081" y2="545.959" gradientTransform="translate(-794.698 -90.283) scale(1.53785)" gradientUnits="userSpaceOnUse" xlink:href="#a"/><linearGradient id="a"><stop offset="0" stop-color="#ff1679"/><stop offset="1" stop-color="#ff770b"/></linearGradient></defs><g fill="#fff" transform="rotate(-45 -1212.281 527.414)"><rect width="48" height="48" x="728.007" y="702.736" fill="url(#b)" rx="10.144" ry="10.144" transform="rotate(45)"/><path d="m 25.279806,1036.0971 -0.707107,0.7071 1.414214,1.4142 0.37017,-0.3702 0.336936,-0.3369 -1.414213,-1.4142 z m -1.4128,1.4128 0,0 -0.336936,0.3369 c -1.767696,1.7666 -4.241652,2.1203 -5.655511,3.5342 l -2.140625,2.1406 -2.122699,-2.1227 1.484641,-1.4846 c 0.523677,0.2332 1.178585,0.1482 1.680758,-0.2638 l 0.488894,-0.4889 1.298177,-1.2982 -2.12132,-2.1213 -1.298178,1.2982 -0.502753,0.5027 c -0.402343,0.5008 -0.480493,1.1445 -0.251341,1.6628 l -1.485985,1.486 -1.052373,-1.0524 c -0.391736,-0.3917 -1.022475,-0.3917 -1.414212,0 -0.391737,0.3918 -0.391737,1.0225 0,1.4142 l 4.942838,4.9429 -7.0545222,7.0545 c -0.391878,0.3919 -0.391892,1.0223 0,1.4142 0.391893,0.3919 1.0223349,0.3919 1.4142149,0 l 7.0545213,-7.0545 4.956656,4.9567 c 0.391737,0.3917 1.022476,0.3917 1.414214,0 0.391737,-0.3918 0.391737,-1.0225 0,-1.4143 l -1.074477,-1.0744 1.484641,-1.4847 c 0.52403,0.2341 1.179482,0.1501 1.682143,-0.2624 l 0.488894,-0.4889 1.298177,-1.2981 -2.12132,-2.1214 -1.298177,1.2982 -0.502753,0.5028 c -0.401991,0.5002 -0.481066,1.1433 -0.252727,1.6614 l -1.485985,1.486 -2.114413,-2.1145 2.140625,-2.1406 c 1.41386,-1.4138 1.768969,-3.8891 3.535534,-5.6568 l 0.337007,-0.337 -1.414213,-1.4143 z m -12.361994,-5.3157 c -0.391737,-0.3918 -1.022476,-0.3918 -1.414213,0 l -11.3137099,11.3137 c -0.391737,0.3917 -0.391737,1.0225 0,1.4142 0.391737,0.3917 1.022477,0.3917 1.414214,0 l 4.2426407,-4.2426 4.24264,4.2426 -4.24264,4.2426 c -0.391738,0.3918 -0.391738,1.0225 0,1.4143 0.391737,0.3917 1.022476,0.3917 1.414213,0 l 4.9497492,-4.9498 c 0.391737,-0.3917 0.391737,-1.0225 0,-1.4142 l -4.9497492,-4.9497 5.6568552,-5.6569 c 0.391737,-0.3917 0.391737,-1.0225 0,-1.4142 z m 19.091883,19.0919 c -0.391737,-0.3918 -1.022476,-0.3918 -1.414213,0 l -5.656855,5.6568 -4.949748,-4.9497 c -0.391737,-0.3918 -1.022476,-0.3918 -1.414213,0 l -4.949748,4.9497 c -0.391737,0.3918 -0.391737,1.0225 0,1.4142 0.391737,0.3918 1.022477,0.3918 1.414214,0 l 4.242641,-4.2426 4.242641,4.2426 -4.242641,4.2427 c -0.391738,0.3917 -0.391738,1.0225 0,1.4142 0.391737,0.3917 1.022476,0.3917 1.414213,0 l 11.313709,-11.3137 c 0.391737,-0.3918 0.391737,-1.0225 0,-1.4142 z m -11.320589,-9.8788 2.121321,2.1213 -1.414215,1.4142 -2.12132,-2.1213 1.414214,-1.4142 z"/></g></svg>