<svg xmlns="http://www.w3.org/2000/svg" xmlns:xlink="http://www.w3.org/1999/xlink" width="48" height="48" viewBox="0 0 48 48"><defs><linearGradient id="b" x1="992.183" x2="1019.298" y1="516.081" y2="545.959" gradientTransform="translate(-794.698 -90.283) scale(1.53785)" gradientUnits="userSpaceOnUse" xlink:href="#a"/><linearGradient id="a"><stop offset="0" stop-color="#ff1679"/><stop offset="1" stop-color="#ff770b"/></linearGradient></defs><g fill="#fff" transform="rotate(-45 -1212.281 527.414)"><rect width="48" height="48" x="728.007" y="702.736" fill="url(#b)" rx="10.144" ry="10.144" transform="rotate(45)"/><path fill-rule="evenodd" d="m 23.879342,1037.4976 c -4.083555,-4.0838 -10.765773,-4.0838 -14.849325,0 -4.0836021,4.0837 -4.0835524,10.7658 0,14.8491 3.7654,3.7656 9.599048,4.0838 13.682578,0.9546 l -2.121278,-2.121 c -2.916858,1.9623 -6.894397,1.5909 -9.440019,-0.9546 -2.9168221,-2.9169 -2.9168008,-7.6898 5.7e-5,-10.6067 2.916824,-2.9169 7.689826,-2.9169 10.606649,0 2.54562,2.5455 2.916872,6.523 0.954641,9.4398 l 2.121282,2.1215 c 3.129038,-4.0838 2.810813,-9.9172 -0.954585,-13.6827 z m -6.04579,3.1819 c -0.477305,-0.4773 -1.06067,-0.7423 -1.750108,-0.6895 -1.325833,-0.053 -2.439536,1.0609 -2.386485,2.3868 l -0.05304,0.4773 -3.5e-5,4.8788 3.50023,0 -1.378881,-1.3787 c -1.431889,-1.4319 0.689439,-3.5533 2.121332,-2.1214 l 2.810791,2.8109 c 0.424265,-0.4245 0.742466,-1.0608 0.742458,-1.6972 0,-1.3788 -1.060676,-2.4396 -2.439553,-2.4396 l -0.477298,-0.053 -7e-6,-0.4245 c 2.1e-5,-0.7423 -0.26515,-1.3256 -0.68941,-1.75 z m -0.689431,0.7955 c 0.530331,0.4245 -0.212141,1.1668 -0.689439,0.6895 -0.212141,-0.2126 -0.530338,-0.2126 -0.795502,0.053 -0.477305,0.4773 -1.21977,-0.2658 -0.689432,-0.6896 0.636398,-0.6363 1.537967,-0.6895 2.174373,-0.053 z m 9.917226,11.9326 -1.166744,0.2126 -8.69747,-8.6975 c -0.477306,-0.4773 -1.219756,0.2657 -0.742451,0.7423 l 8.69747,8.6975 -0.212141,1.1669 2.121353,2.121 0.212141,-1.1664 0.477305,0.4772 c 0.477301,0.4773 1.219756,-0.2657 0.742451,-0.7426 l -0.477305,-0.4773 1.166744,-0.2126 -2.121353,-2.1214 z"/></g></svg>