<svg xmlns="http://www.w3.org/2000/svg" xmlns:xlink="http://www.w3.org/1999/xlink" width="48" height="48" viewBox="0 0 48 48"><defs><linearGradient id="b" x1="906.952" x2="931.379" y1="515.915" y2="546.094" gradientTransform="translate(-660.712 -90.283) scale(1.53785)" gradientUnits="userSpaceOnUse" xlink:href="#a"/><linearGradient id="a"><stop offset="0" stop-color="#ffd800"/><stop offset="1" stop-color="#ff6100"/></linearGradient></defs><g fill="#fff" transform="rotate(-45 -1212.281 527.414)"><rect width="48" height="48" x="728.007" y="702.736" fill="url(#b)" rx="10.144" ry="10.144" transform="rotate(45)"/><path fill-rule="evenodd" d="m 27.698652,1037.1245 -0.317942,0.5296 c -0.053,0.1593 -0.105969,0.2125 -0.053,0.3711 l 0.053,0.5827 -0.635902,-0.1062 c -0.105969,0 -0.211973,0 -0.317942,0 l -0.635895,0.3187 0,-0.6359 c -10e-6,-0.1062 -0.106004,-0.2124 -0.158971,-0.2655 l -0.423935,-0.5301 0.58291,-0.2655 c 0.105969,0 0.211973,-0.1062 0.264975,-0.1593 l 0.26494,-0.5832 0.476927,0.4769 c 0.053,0.053 0.158971,0.1594 0.264976,0.1594 l 0.635898,0.1062 z m -5.56412,-5.2464 c -0.211973,-0.1063 -0.423936,-0.1063 -0.582911,0.053 -0.158971,0.1593 -0.211973,0.4238 -0.053,0.5827 0.211973,0.2125 0.476924,0.1594 0.635899,0 0.158971,-0.1593 0.211973,-0.4238 0,-0.6358 0,0 0,0 0,0 z m -5.564106,-4.3981 c -0.582904,-0.5832 -1.483763,-0.53 -2.013671,0 -0.529919,0.5296 -0.529915,1.3776 0.053,1.9604 0.529915,0.53 1.377773,0.53 1.907691,0 0.529912,-0.5297 0.582911,-1.4308 0.053,-1.9604 z m 14.360667,14.4663 c -0.158971,-0.1593 -0.476927,-0.1593 -0.635901,0 -0.158972,0.1594 -0.158972,0.4773 0,0.6363 0.158971,0.1593 0.476927,0.1593 0.635901,0 0.158971,-0.1594 0.158971,-0.4773 0,-0.6363 z m -15.102545,-13.7246 c 0.158971,0.1593 0.158971,0.3711 0,0.53 -0.158971,0.1594 -0.370944,0.1594 -0.529919,0 -0.158971,-0.1593 -0.211973,-0.4241 -0.053,-0.5831 0.158971,-0.1593 0.423936,-0.1062 0.582903,0.053 z m 6.19999,6.3061 c -0.317942,-0.3186 -0.847871,-0.1062 -0.847871,0.3187 7e-6,0.7417 -0.05297,1.3248 -0.105969,2.0135 -0.105969,0.6359 0.900863,0.7948 0.953854,0.1062 0.105969,-0.6359 0.105969,-1.378 0.158971,-2.067 0,-0.1062 -0.053,-0.2655 -0.158971,-0.3707 z m 7.524775,7.5248 c -0.053,-0.053 -0.211973,-0.1063 -0.317942,-0.1063 -0.741885,0 -1.37779,0 -2.013614,0.1063 -0.688894,0.053 -0.529983,1.0596 0.05293,1.0069 0.688893,-0.053 1.271804,-0.1062 1.96069,-0.1593 0.423935,0 0.635902,-0.5301 0.317942,-0.848 z m -12.558959,-10.8632 0,0 c -0.423928,-0.4241 -1.059823,0.1062 -0.741881,0.6359 0.582903,1.0066 1.006846,2.0666 1.377783,3.1794 0.158971,0.5828 1.112822,0.3707 0.953847,-0.3186 -0.317942,-1.1659 -0.847864,-2.3318 -1.483766,-3.3915 0,0 -0.053,-0.053 -0.105969,-0.1062 z m 14.625647,15.1554 c -0.582911,-0.5828 -1.430778,-0.5828 -1.960691,-0.053 -0.529919,0.53 -0.582903,1.4311 7e-6,2.0138 0.52992,0.5301 1.430772,0.4769 1.960691,-0.053 0.529911,-0.5296 0.529911,-1.3776 -7e-6,-1.9076 z m -0.688894,0.689 c 0.158971,0.1593 0.158971,0.371 8e-6,0.53 -0.158971,0.1593 -0.370941,0.1593 -0.529919,0 -0.158971,-0.1593 -0.211973,-0.4242 -0.053,-0.5831 0.158971,-0.1594 0.423928,-0.1063 0.582903,0.053 z m -10.863248,-7.472 c -0.58291,-0.5828 -1.430778,-1.0066 -2.384626,-1.0066 -1.854685,0.053 -3.338437,1.5366 -3.39145,3.3911 l 0.053,0.689 -0.053,6.7299 6.782886,0 0.635902,0 c 1.907709,0 3.391458,-1.4838 3.39145,-3.3915 -0.05293,-1.8545 -1.536697,-3.3384 -3.338416,-3.3384 l -0.741885,0 0.053,-0.6886 c -8e-6,-0.9538 -0.370948,-1.749 -1.006853,-2.3849 z m -8.955557,-8.6376 -0.582903,0.5832 -0.5829031,-0.5832 -0.68889,0.689 0.582907,0.5828 -0.58291,0.5831 0.688893,0.6887 0.5829101,-0.5828 0.635895,0.6359 0.688886,-0.689 -0.635895,-0.6359 0.582904,-0.5828 z m 20.719683,20.7197 -0.582904,0.5832 -0.58291,-0.5832 -0.688891,0.689 0.582912,0.5828 -0.582912,0.5831 0.74189,0.7418 0.58291,-0.5828 0.58291,0.5828 0.688886,-0.689 -0.58291,-0.5828 0.582903,-0.5828 z m -12.558995,-11.499 c 0.476927,0.4769 -0.26494,1.2187 -0.741878,0.7417 -0.264975,-0.2655 -0.688893,-0.371 -1.112829,-0.2655 -0.423915,0.1062 -0.741867,0.4238 -0.84785,0.8476 -0.211973,0.6363 -1.112829,0.3711 -0.953851,-0.3186 0.264975,-0.6887 0.847846,-1.2718 1.53674,-1.5366 0.741881,-0.2125 1.589749,0 2.119668,0.53 z m -4.663247,-4.4515 c -0.158971,-0.1594 -0.423936,-0.2125 -0.635902,0 -0.158971,0.1593 -0.158971,0.4772 7e-6,0.6362 0.158971,0.1593 0.476927,0.1593 0.635895,0 0.211973,-0.2124 0.158971,-0.4769 0,-0.6362 z m 11.923088,14.6788 c -0.423935,-0.4239 -1.059837,0.1062 -0.794876,0.5827 0.58291,1.007 0.847868,2.1198 0.794876,3.2326 0.053,0.689 1.006846,0.689 1.059838,0 0,-1.2718 -0.317942,-2.5436 -1.006846,-3.6564 0,-0.1062 0,-0.1062 -0.053,-0.1593 l 0,0 z m -13.141872,-12.9298 0,0 c -0.053,-0.053 -0.105969,-0.1062 -0.158971,-0.1593 -1.006839,-0.4769 -2.119668,-0.7421 -3.2854821,-0.7421 -0.741884,0 -0.688893,1.0069 -0.053,1.0069 1.0598311,0 2.0136781,0.2124 2.8615461,0.6359 0.582903,0.2655 1.006839,-0.3711 0.635902,-0.7418 z m -5.0871971,-0.53 c -0.158971,-0.1594 -0.370944,-0.1594 -0.58291,0.053 -0.158971,0.1593 -0.211973,0.4238 -0.053,0.5828 0.211973,0.2124 0.476916,0.1593 0.635895,0 0.211973,-0.2125 0.211973,-0.4238 7e-6,-0.6359 z m 18.8649711,18.8648 c -0.158971,-0.1594 -0.423932,-0.2125 -0.635902,0 -0.158971,0.1593 -0.158971,0.4769 0,0.6359 0.158971,0.1593 0.476928,0.1593 0.635902,0 0.211973,-0.2125 0.158971,-0.477 0,-0.6359 z m -5.670128,-5.6699 -1.271803,0 c 0.741884,0.8476 1.16582,1.9077 1.16582,2.9674 -0.053,0.689 1.006846,0.689 1.006846,0.053 0,-1.0601 -0.317942,-2.1198 -0.900863,-3.0205 z m -7.948707,-7.7368 c -0.794855,-0.3711 -1.695718,-0.6359 -2.543579,-0.6359 -0.635902,0 -0.688893,1.0069 -7e-6,0.9538 0.90086,0.053 1.801701,0.3187 2.543586,0.848 z m 4.504308,7.7896 -1.059838,0 c -0.794876,2.7028 -0.105968,5.6171 1.854714,7.6837 0.423936,0.4242 1.16575,-0.2124 0.688826,-0.6886 -1.801726,-1.9077 -2.278649,-4.6106 -1.483702,-6.9951 z m 4.822186,4.9284 c -0.58291,-0.5831 -1.48377,-0.53 -2.013689,0 -0.529918,0.5297 -0.529918,1.3777 0.053,1.9608 0.529918,0.5297 1.377786,0.5297 1.907705,0 0.529919,-0.53 0.58291,-1.4311 0.053,-1.9608 z m -14.5196521,-14.3077 0,0 -0.317942,0.53 c -0.053,0.1593 -0.053,0.2655 -0.053,0.3707 l 0.106005,0.6359 -0.688894,-0.1593 c -0.105968,0 -0.211973,0 -0.264939,0.053 l -0.5829107,0.2655 -0.1059689,-0.6359 c 0,-0.1062 -0.1059689,-0.2124 -0.158971,-0.2655 l -0.4239251,-0.53 0.5829103,-0.2656 c 0.1060042,0 0.2119734,-0.1062 0.2649754,-0.1593 l 0.317942,-0.6359 0.423925,0.5297 c 0.053,0.053 0.158971,0.1593 0.264975,0.1593 l 0.635899,0.1062 z m 13.7777671,15.0495 c 0.158971,0.1593 0.158971,0.371 0,0.53 -0.158971,0.1593 -0.370941,0.1593 -0.529919,0 -0.158971,-0.1593 -0.211973,-0.4242 -0.053,-0.5831 0.158971,-0.1594 0.423936,-0.1062 0.58291,0.053 z m -8.6376,-8.5317 c -2.27865,0.5831 -4.6632151,0 -6.3589231,-1.5897 -0.476927,-0.4769 -1.1658238,0.2124 -0.6888966,0.689 1.9076806,1.8014 4.5042087,2.4904 7.1008107,1.9076 z m 2.119675,2.8615 -1.059838,0 c -0.211973,0.8479 -0.317942,1.6959 -0.264904,2.5966 -0.053,0.689 1.006771,0.5831 0.953783,-0.1062 0,-0.848 0.105969,-1.6956 0.370941,-2.4908 z m 5.299113,8.0547 c -0.211973,-0.1062 -0.423936,-0.1062 -0.58291,0.053 -0.211903,0.2124 -0.211903,0.4238 -0.05293,0.5827 0.211973,0.2125 0.423936,0.2125 0.635831,0 0.158971,-0.1593 0.158971,-0.3707 0,-0.6359 0,0 0,0 0,0 z m -8.743516,-7.5778 c -0.158971,-0.1593 -0.370941,-0.1593 -0.529919,-0.1062 -1.112829,0.2655 -2.2786501,0.2655 -3.3914791,0 -0.688893,-0.1594 -0.900859,0.7948 -0.317942,0.9538 1.324799,0.371 2.6495941,0.3186 3.9743891,-0.053 0.370944,-0.053 0.529919,-0.5297 0.26494,-0.7949 z m 2.066683,4.3984 -0.317942,0.53 c -0.053,0.053 -0.106039,0.2125 -0.106039,0.3187 l 0.106004,0.6359 -0.635902,-0.1062 c -0.1589,-0.053 -0.264869,-0.053 -0.317871,0 l -0.582911,0.2655 -0.105968,-0.6359 c 0,-0.1062 0,-0.2124 -0.106005,-0.3186 l -0.423935,-0.4242 0.58291,-0.2655 c 0.053,-0.053 0.158971,-0.1594 0.211973,-0.2125 l 0.370944,-0.5827 0.370941,0.4769 c 0.105969,0.1062 0.211973,0.1062 0.264975,0.1593 l 0.688893,0.1593 z m -10.0154221,-8.4258 -0.5829103,0.5831 -0.5829102,-0.5831 -0.6888969,0.689 0.5829103,0.5831 -0.5829103,0.5828 0.6888898,0.689 0.5829103,-0.5831 0.6358947,0.6358 0.6888933,-0.6886 -0.6358947,-0.6359 0.5829102,-0.5831 z m 1.6427124,4.0805 c -0.2119732,-0.1062 -0.4769273,-0.1593 -0.6359054,0 -0.2119731,0.2124 -0.158971,0.4769 0,0.6359 0.1589711,0.1593 0.4239357,0.2124 0.6359054,0 0.158971,-0.1593 0.158971,-0.4769 0,-0.6359 0,0 0,0 0,0 z"/></g></svg>