<svg xmlns="http://www.w3.org/2000/svg" xmlns:xlink="http://www.w3.org/1999/xlink" width="48" height="48" viewBox="0 0 48 48"><defs><linearGradient id="b" x1="868.253" x2="937.656" y1="521.354" y2="588.736" gradientTransform="translate(-598.962 -90.283) scale(1.53785)" gradientUnits="userSpaceOnUse" xlink:href="#a"/><linearGradient id="a"><stop offset="0" stop-color="#24f3d2"/><stop offset=".394" stop-color="#0674f0"/><stop offset=".507" stop-color="#6961b5"/><stop offset=".813" stop-color="#f34660"/><stop offset="1" stop-color="#ee078d"/></linearGradient></defs><g fill="#fff" transform="rotate(-45 -1212.281 527.414)"><rect width="48" height="48" x="728.007" y="702.736" fill="url(#b)" rx="10.144" ry="10.144" transform="rotate(45)"/><path d="m 19.283134,1029.3658 c -0.391744,-0.3917 -1.050478,-0.3637 -1.476298,0.062 L 1.6676191,1045.567 c -0.4258196,0.4258 -0.4538986,1.0847 -0.06216,1.4764 l 14.8492429,14.8492 c 0.391744,0.3918 1.050548,0.3637 1.476368,-0.062 l 16.139218,-16.1392 c 0.42582,-0.4259 0.453829,-1.0846 0.06208,-1.4763 l -4.596194,-4.5962 -4.24264,-4.2427 -6.010409,-6.0104 z m -0.707107,2.1213 13.43503,13.4351 -12.020816,12.0208 -13.4350289,-13.435 12.0208149,-12.0209 z m 0.0069,1.4212 -10.6066019,10.6066 12.0070059,12.007 10.606602,-10.6066 -12.007006,-12.007 z m 5.888942,8.0046 c 0.221338,0.2213 0.332552,0.5435 0.39221,0.8176 0.0081,0.028 0.01916,0.091 0.01916,0.091 0,0 0.06435,0.012 0.0927,0.021 0.329596,0.049 0.674325,0.2518 0.816192,0.3937 0.326075,0.3265 0.531532,0.7745 0.537253,1.2664 0.0076,0.9866 -0.804419,1.7977 -1.791314,1.7856 l -1.296855,-0.015 -1.0399,-0.013 -0.25827,0 c -0.01619,-7e-4 -0.03196,0 -0.04815,0 -0.04914,-0.01 -0.09709,-0.018 -0.142093,-0.037 l -0.0057,-0.01 c -0.0064,-0.01 -0.02001,-0.01 -0.02637,-0.012 -0.01435,-2e-4 -0.02178,-0.01 -0.02913,-0.015 l -0.0042,0 -0.0028,0 c -0.01754,0 -0.02814,-0.014 -0.03882,-0.025 -0.01146,-0.011 -0.02263,-0.023 -0.03451,-0.034 -0.0065,-0.01 -0.01301,-0.013 -0.01938,-0.019 l -0.03592,-0.036 c -0.0022,-0.016 -0.01145,-0.026 -0.02058,-0.035 -0.0074,-0.01 -0.0078,-0.022 -0.01499,-0.029 l -0.0028,0 c -0.0098,-0.01 -0.01096,-0.028 -0.02051,-0.037 l -0.0042,0 c -0.0033,-0.017 -0.01273,-0.028 -0.01556,-0.045 -0.0034,-0.017 -0.01068,-0.03 -0.01343,-0.047 -0.0029,-0.017 -0.0062,-0.033 -0.0085,-0.049 -0.0021,-0.016 -0.0037,-0.032 -0.0043,-0.048 l -0.0014,0 -0.0028,-0.2569 -0.0124,-1.04 -0.01523,-1.2967 c -0.01202,-0.9869 0.799094,-1.7989 1.785656,-1.7914 0.491928,0.01 0.939993,0.2111 1.266492,0.5372 z m -4.119726,-4.1198 0.617333,0.6174 0.178163,0.1781 0.618719,0.6188 c 0.485188,0.471 -0.236061,1.1923 -0.707108,0.7071 l -0.353553,-0.3536 -2.121321,2.1213 0.353554,0.3536 c 0.485188,0.471 -0.236061,1.1923 -0.707107,0.7071 l -1.414213,-1.4142 c -0.485189,-0.4711 0.23606,-1.1923 0.707106,-0.7071 l 0.353554,0.3535 2.12132,-2.1213 -0.353553,-0.3535 c -0.485189,-0.4711 0.23606,-1.1923 0.707106,-0.7072 z m 3.578379,4.9898 c -0.177498,-0.1772 -0.421125,-0.2882 -0.689189,-0.2914 -0.538306,0 -0.966297,0.427 -0.959756,0.9655 l 0.01238,0.9709 0.01111,0.9722 0.970865,0.01 0.972243,0.01 c 0.538307,0 0.966361,-0.4271 0.959827,-0.9655 l -0.0071,0.01 c -0.0065,-0.5382 -0.444233,-0.9744 -0.980559,-0.9805 -0.0033,-0.2691 -0.115315,-0.5133 -0.292749,-0.6906 z m -7.811353,0.6353 c 0.317314,0.2947 0.135743,0.8259 -0.295535,0.8646 l -2.303641,0.3314 -1.289904,1.2899 c -0.471004,0.4852 -1.192253,-0.2361 -0.707107,-0.7071 l 1.289904,-1.2899 0.330092,-2.305 c 0.05291,-0.4238 0.57813,-0.5908 0.865902,-0.2748 0.100769,0.1149 0.148853,0.2663 0.124316,0.4171 l -0.258235,1.8078 1.807796,-0.2583 c 0.156907,-0.031 0.31631,0.018 0.436412,0.1243 z m 2.470497,2.4903 c 0.777365,0.7774 0.777322,2.0511 0,2.8285 l -0.707107,0.7071 c -0.777393,0.7774 -2.051062,0.7773 -2.828427,0 -0.777358,-0.7774 -0.777393,-2.0511 0,-2.8285 l 0.707107,-0.7071 c 0.777322,-0.7773 2.051069,-0.7773 2.828427,0 z m 2.46228,2.4765 c 0.199588,0.1995 0.202381,0.5214 -6.4e-5,0.7182 l -1.767767,1.7677 c -0.397818,0.3979 -0.397846,1.0164 0,1.4142 0.397854,0.3979 1.016395,0.3979 1.414214,0 l 1.767767,-1.7677 c 0.471075,-0.4852 1.192324,0.236 0.707107,0.7071 l -1.767766,1.7678 c -0.777324,0.7773 -2.051064,0.7773 -2.828429,0 -0.777357,-0.7774 -0.777322,-2.0512 0,-2.8285 l 1.767767,-1.7677 c 0.192475,-0.1982 0.51191,-0.2064 0.707171,-0.011 z m -3.170943,-1.7678 c -0.397846,-0.3979 -1.016395,-0.3978 -1.414213,0 l -0.707107,0.7071 c -0.397889,0.3979 -0.397846,1.0164 0,1.4142 0.397854,0.3979 1.016324,0.3979 1.414213,0 l 0.707107,-0.7071 c 0.397818,-0.3978 0.397854,-1.0164 0,-1.4142 z"/></g></svg>