<svg xmlns="http://www.w3.org/2000/svg" xmlns:xlink="http://www.w3.org/1999/xlink" width="48" height="48" viewBox="0 0 48 48"><defs><linearGradient id="b" x1="949.87" x2="974.39" y1="518.014" y2="544.657" gradientTransform="translate(-726.46 -103.993) scale(1.53785)" gradientUnits="userSpaceOnUse" xlink:href="#a"/><linearGradient id="a"><stop offset="0" stop-color="#24f7bc"/><stop offset="1" stop-color="#24c4fc"/></linearGradient></defs><g transform="rotate(-45 -1195.675 534.131)"><rect width="48" height="48" x="727.893" y="689.027" fill="url(#b)" rx="10.144" ry="10.144" transform="rotate(45)"/><path fill="#fff" d="m 30.66463,1020.652 c -0.587606,-0.5876 -1.516744,-0.6046 -2.082642,-0.039 l -16.340743,16.3407 c -0.565827,0.5659 -0.548998,1.4952 0.03861,2.0828 l 11.313707,11.3137 c 0.587606,0.5876 1.516886,0.6044 2.082713,0.039 l 16.340743,-16.3409 c 0.565897,-0.5659 0.548927,-1.495 -0.03868,-2.0826 L 30.66463,1020.652 Z m 2.016421,7.6621 c 0.29468,0.2944 0.480302,0.6998 0.484721,1.1477 0.892581,0.01 1.620809,0.7338 1.629662,1.6297 l 0.0071,-0.01 c 0.0089,0.8959 -0.706385,1.6128 -1.602032,1.6077 l -1.617178,-0.01 -1.615831,-0.01 -0.01658,-1.6186 -0.01655,-1.6159 c -0.0089,-0.8959 0.706244,-1.6126 1.60195,-1.6076 0.446262,0 0.850197,0.1876 1.14494,0.4819 z m -5.905508,-3.0659 2.085413,2.0854 0.578668,0.5787 c -0.31742,0.4346 -0.509803,0.9643 -0.504047,1.537 l 0.0152,1.6173 0.0055,0.6049 -1.085522,-1.0855 -3.216509,-3.2165 1.767767,-0.3536 0.353554,-1.7677 z m 8.018484,8.0185 0.573138,0.5731 2.014979,2.015 -1.767767,0.3535 -0.353554,1.7678 -3.429191,-3.4292 -0.864544,-0.8645 0.607716,0 1.617216,0.01 0.0028,0 c 0.830963,0 1.297293,-0.1647 1.599228,-0.4309 z m -8.372038,-1.301 a 0.5,0.5 0 0 1 0,0.7071 0.5,0.5 0 0 1 -0.707107,0 0.5,0.5 0 0 1 0,-0.7071 0.5,0.5 0 0 1 0.707107,0 z m 2.12132,2.1213 a 0.5,0.5 0 0 1 0,0.7071 0.5,0.5 0 0 1 -0.707106,0 0.5,0.5 0 0 1 0,-0.7071 0.5,0.5 0 0 1 0.707106,0 z m 2.121321,2.1213 a 0.5,0.5 0 0 1 0,0.7071 0.5,0.5 0 0 1 -0.707107,0 0.5,0.5 0 0 1 0,-0.7071 0.5,0.5 0 0 1 0.707107,0 z m -8.16487,-3.9222 a 0.50004997,0.50004997 0 0 1 0.03592,0.036 l 7.772652,7.7727 a 0.50004997,0.50004997 0 1 1 -0.707107,0.7071 l -7.772652,-7.7727 a 0.50064475,0.50064475 0 1 1 0.671186,-0.743 z m -0.704343,2.1241 a 0.50004997,0.50004997 0 0 1 0.03592,0.036 l 2.111654,2.1117 a 0.50004997,0.50004997 0 1 1 -0.707106,0.7071 l -2.111654,-2.1117 a 0.50064475,0.50064475 0 1 1 0.671186,-0.743 z m 4.241256,4.2412 a 0.50004997,0.50004997 0 0 1 0.03592,0.036 l 2.111655,2.1116 a 0.50004997,0.50004997 0 1 1 -0.707108,0.7071 l -2.111654,-2.1116 a 0.50067195,0.50067195 0 1 1 0.671187,-0.7431 z m -6.365341,-3.5369 a 0.50004997,0.50004997 0 0 1 0.03592,0.036 l 7.772653,7.7727 a 0.50004997,0.50004997 0 1 1 -0.707107,0.7071 l -7.772652,-7.7726 a 0.50067161,0.50067161 0 0 1 0.671185,-0.7431 z m 0.0014,2.8298 a 0.50004997,0.50004997 0 0 1 0.03592,0.036 l 4.941468,4.9414 a 0.50004997,0.50004997 0 1 1 -0.707108,0.7071 l -4.941466,-4.9414 a 0.50067171,0.50067171 0 1 1 0.671186,-0.7431 z m -2.829806,0 a 0.50004997,0.50004997 0 0 1 0.03592,0.036 l 7.772653,7.7726 a 0.50004997,0.50004997 0 1 1 -0.707107,0.7071 l -7.772652,-7.7726 a 0.50064475,0.50064475 0 0 1 0.671186,-0.743 z"/></g></svg>