<svg xmlns="http://www.w3.org/2000/svg" xmlns:xlink="http://www.w3.org/1999/xlink" width="48" height="48" viewBox="0 0 48 48"><defs><linearGradient id="b" x1="906.952" x2="931.379" y1="515.915" y2="546.094" gradientTransform="matrix(1.53785 0 0 1.53785 -660.826 -103.993)" gradientUnits="userSpaceOnUse" xlink:href="#a"/><linearGradient id="a"><stop offset="0" stop-color="#ffd800"/><stop offset="1" stop-color="#ff6100"/></linearGradient></defs><g transform="rotate(-45 -1195.675 534.131)"><rect width="48" height="48" x="727.893" y="689.027" fill="url(#b)" rx="10.144" ry="10.144" transform="rotate(45)"/><path fill="#fff" d="m 31.725174,1024.5657 c -0.391737,-0.3918 -1.022476,-0.3918 -1.414213,0 l -2.828427,2.8284 c -0.391738,0.3917 -0.391738,1.0225 0,1.4142 0.391737,0.3918 1.022476,0.3918 1.414213,0 l 2.828427,-2.8284 c 0.391737,-0.3917 0.391737,-1.0225 0,-1.4142 z m 6.363961,6.3639 c -0.391737,-0.3917 -1.022476,-0.3917 -1.414213,0 l -2.828427,2.8285 c -0.391738,0.3917 -0.391738,1.0224 0,1.4142 0.391737,0.3917 1.022476,0.3917 1.414213,0 l 2.828427,-2.8284 c 0.391737,-0.3918 0.391737,-1.0225 0,-1.4143 z m -11.654832,-7.4619 c -0.587604,-0.5876 -1.533715,-0.5876 -2.12132,0 l -2.463826,2.4639 14.849243,14.8492 2.463825,-2.4638 c 0.587606,-0.5876 0.587606,-1.5337 0,-2.1213 l -1.755337,-1.7554 -1.440454,1.4405 c -0.771241,0.7712 -2.057186,0.7712 -2.828427,0 -0.771241,-0.7713 -0.771241,-2.0572 0,-2.8285 l 1.440453,-1.4404 -3.535533,-3.5355 -1.440454,1.4404 c -0.771241,0.7712 -2.057186,0.7712 -2.828427,0 -0.771241,-0.7712 -0.771242,-2.0572 0,-2.8284 l 1.440453,-1.4405 -1.780196,-1.7802 z m -5.368211,3.2469 -8.066818,8.0668 c -0.587606,0.5876 -0.587606,1.5338 0,2.1214 l 12.727922,12.7279 c 0.587605,0.5876 1.533715,0.5876 2.121321,0 l 8.066817,-8.0668 -14.849242,-14.8493 z m 9.591517,11.6024 0,0 a 1.0001,1.0001 0 0 1 0.0014,1.435 l -2.71656,2.7165 a 1.0001,1.0001 0 0 1 -0.230639,0.2307 l -2.709655,2.7096 a 1.0001,1.0001 0 1 1 -1.414213,-1.4142 l 2.12132,-2.1213 -1.984594,-1.9846 a 1.0001,1.0001 0 0 1 -0.372889,-1.2153 1.0001,1.0001 0 0 1 0.0028,-0.011 1.0001,1.0001 0 0 1 0.0221,-0.044 1.0001,1.0001 0 0 1 0.277596,-0.3604 l 2.752468,-2.7525 a 1.0001,1.0001 0 0 1 1.412833,-0.021 1.0001,1.0001 0 0 1 0.0014,1.4349 l -2.117178,2.1172 1.419738,1.4197 2.12132,-2.1213 a 1.0001,1.0001 0 0 1 1.412833,-0.021 z m -6.358437,-6.3474 a 1.0001,1.0001 0 0 1 0.0014,1.4349 l -5.656854,5.6569 a 1.0001,1.0001 0 1 1 -1.414214,-1.4142 l 5.656855,-5.6569 a 1.0001,1.0001 0 0 1 1.412832,-0.021 z"/></g></svg>