<svg xmlns="http://www.w3.org/2000/svg" xmlns:xlink="http://www.w3.org/1999/xlink" width="48" height="48" viewBox="0 0 48 48"><defs><linearGradient id="b" x1="992.183" x2="1019.298" y1="516.081" y2="545.959" gradientTransform="translate(-794.698 -90.283) scale(1.53785)" gradientUnits="userSpaceOnUse" xlink:href="#a"/><linearGradient id="a"><stop offset="0" stop-color="#ff1679"/><stop offset="1" stop-color="#ff770b"/></linearGradient></defs><g fill="#fff" transform="rotate(-45 -1212.281 527.414)"><rect width="48" height="48" x="728.007" y="702.736" fill="url(#b)" rx="10.144" ry="10.144" transform="rotate(45)"/><path d="m 22.116441,1034.3205 c -0.371654,-0.3717 -1.008775,-0.3717 -1.380425,0 l -2.867026,2.867 c -0.371655,0.3717 -0.371655,1.0088 0,1.3803 0.424741,0.4249 1.061862,0.4249 1.433517,0.053 l 2.867026,-2.867 c 0.371651,-0.3718 0.371649,-1.0089 -0.05309,-1.4335 z m 6.371176,6.3711 c -0.371654,-0.3718 -1.008774,-0.3718 -1.380426,0 l -2.867024,2.8669 c -0.371655,0.3718 -0.371655,1.0089 0,1.3806 0.424747,0.4247 1.061869,0.4247 1.433524,0.053 l 2.867025,-2.867 c 0.371651,-0.3714 0.371649,-1.0085 -0.0531,-1.4335 z m -11.68049,-7.4332 c -0.584024,-0.5839 -1.539696,-0.5839 -2.123725,0 l -2.495373,2.4956 14.866036,14.8659 2.495373,-2.4952 c 0.584028,-0.5843 0.584021,-1.5399 6.3e-5,-2.1238 l -1.752085,-1.7521 -1.43351,1.4335 c -0.796395,0.7964 -2.070639,0.7964 -2.867041,0 -0.743309,-0.7432 -0.743309,-2.0174 0.05309,-2.8137 l 1.43351,-1.4335 -3.557235,-3.5573 -1.433511,1.4335 c -0.796395,0.7964 -2.070632,0.7964 -2.867027,0 -0.743309,-0.7435 -0.743302,-2.0178 0.05309,-2.8141 l 1.43351,-1.4335 -1.805164,-1.8053 z m -5.309306,3.1859 -8.1232119,8.1231 c -0.5840282,0.5839 -0.5840318,1.5395 -7.1e-6,2.1238 l 12.742374,12.7424 c 0.583957,0.5839 1.53964,0.5839 2.123668,-3e-4 l 8.123212,-8.1231 -14.866035,-14.8659 z m 7.698485,9.0787 c 0.212376,0.2129 0.265487,0.5839 0.371675,0.9025 l 0,0 c 0.318563,0.1064 0.690195,0.1596 0.902569,0.3717 0.371655,0.3718 0.584049,0.7964 0.530956,1.2743 l 0,0 c 0.05309,1.0088 -0.796403,1.8584 -1.805179,1.8052 l -1.274244,0 0,0 -1.274243,0 c -0.10619,0 -0.265466,-0.053 -0.371653,-0.1596 -0.106187,-0.1065 -0.106187,-0.2129 -0.15928,-0.3718 l 0,-1.2742 0,0 0,-1.2742 c -0.05307,-1.0089 0.796423,-1.8581 1.805178,-1.8053 l 0,0 c 0.477842,-0.053 0.955662,0.2129 1.274223,0.5311 z m -3.451041,-3.4508 0,0 c 0.05309,0.053 0.05309,0.053 0.106186,0.1064 l 0.637115,0.6371 c 0.477841,0.4778 -0.265444,1.221 -0.743288,0.7432 l -0.371654,-0.3714 -2.12374,2.1234 0.371655,0.3718 c 0.477841,0.4778 -0.212373,1.1681 -0.690216,0.6903 l -0.690208,-0.6903 -0.743302,-0.7432 c -0.477841,-0.4778 0.212373,-1.1681 0.690215,-0.6903 l 0.371648,0.3717 2.12374,-2.1237 -0.371648,-0.3718 c -0.477841,-0.4778 0.265448,-1.221 0.743288,-0.7432 l 0.637115,0.6371 c 0,0 0.05309,0.053 0.05309,0.053 z m 2.81394,4.3004 c -0.159279,-0.1596 -0.424748,-0.3192 -0.637122,-0.3192 -0.584028,-0.053 -1.008776,0.3714 -0.955683,0.9556 l 0.05309,1.0089 0,0.9556 1.008776,0.053 1.008776,0.053 c 0.530935,0 0.955683,-0.4247 0.902588,-1.0089 l 0,0 c -0.05309,-0.4778 -0.530934,-0.9557 -1.008776,-1.0085 -0.05309,-0.2661 -0.159279,-0.4782 -0.371654,-0.6903 z m -9.1320305,-2.1238 c 0.1061863,0.1065 0.1592795,0.2661 0.1061863,0.4246 l -0.2654764,1.7524 1.8051716,-0.2128 c 0.637122,-0.1064 0.796395,0.9024 0.15928,1.0089 l -2.3361072,0.3192 -1.2741729,1.2742 c -0.4778416,0.4779 -1.1680565,-0.2128 -0.6902153,-0.6903 l 1.2741729,-1.2742 0.3185696,-2.3363 c 0.0531,-0.3714 0.5840283,-0.5839 0.8494958,-0.3192 0,0 0,0 0.053093,0.053 l 0,0 z m 4.5659915,4.5662 c 0.796402,0.7964 0.796402,2.0706 0,2.8669 l -0.690216,0.6904 c -0.796402,0.7963 -2.070575,0.796 -2.866977,-4e-4 -0.7963819,-0.7964 -0.7964457,-2.0702 -4.3e-5,-2.867 l 0.690215,-0.6899 c 0.796403,-0.7964 2.070639,-0.7964 2.867021,0 z m 4.619133,4.619 c 0.159279,0.1596 0.159279,0.4778 -0.05309,0.6903 l -1.752085,1.752 c -0.796402,0.7964 -2.070575,0.7964 -2.813884,0.053 -0.796402,-0.7963 -0.796473,-2.0705 -7.1e-5,-2.8669 l 1.752086,-1.7521 c 0.212376,-0.2128 0.530935,-0.2128 0.743308,0 0.159279,0.1597 0.159279,0.4779 -0.05309,0.6904 l -1.752085,1.752 c -0.424748,0.4246 -0.424748,1.0617 0,1.4867 0.371655,0.3717 1.008777,0.3717 1.433524,-0.053 l 1.752086,-1.7521 c 0.212376,-0.2128 0.530935,-0.2128 0.743309,0 z m -5.362442,-3.8759 c -0.424727,-0.4246 -0.955662,-0.4246 -1.38041,0 l -0.690215,0.6904 c -0.424748,0.4246 -0.477842,1.0088 -0.05312,1.4334 0.424748,0.4247 1.008776,0.3718 1.433524,-0.053 l 0.690215,-0.6903 c 0.424748,-0.4246 0.424748,-0.9556 0,-1.3803 z"/></g></svg>