<svg xmlns="http://www.w3.org/2000/svg" xmlns:xlink="http://www.w3.org/1999/xlink" width="48" height="48" viewBox="0 0 48 48"><defs><linearGradient id="b" x1="1073.403" x2="1097.116" y1="516.451" y2="544.308" gradientTransform="translate(-915.865 -90.283) scale(1.53785)" gradientUnits="userSpaceOnUse" xlink:href="#a"/><linearGradient id="a"><stop offset="0" stop-color="#16ff6a"/><stop offset="1" stop-color="#0090a5"/></linearGradient></defs><g fill="#fff" transform="rotate(-45 -1212.281 527.414)"><rect width="48" height="48" x="728.007" y="702.736" fill="url(#b)" rx="10.144" ry="10.144" transform="rotate(45)"/><path fill-rule="evenodd" d="m 25.866785,1039.5532 c -0.522697,-0.6015 -1.225075,-1.0584 -2.056599,-1.2806 -2.217334,-0.593 -4.482196,0.7147 -5.077467,2.9314 l -0.213264,0.7993 -2.151444,8.0034 2.586206,0.6906 -0.08391,4.8573 3.498262,-3.9439 2.007049,0.5352 0.797822,0.2146 c 2.217405,0.5928 4.48219,-0.7148 5.077538,-2.9315 0.297635,-1.1085 0.12068,-2.2267 -0.408567,-3.1434 -0.52917,-0.9167 -1.410053,-1.6309 -2.518787,-1.9273 l -0.800619,-0.2146 0.214603,-0.8006 c 0.372034,-1.3855 7.68e-4,-2.7877 -0.870826,-3.7899 z m -1.159671,0.9065 c 0.471308,0.4573 0.748497,1.0894 0.748343,1.7581 a 0.49865859,0.49865859 0 0 1 -0.997316,0 c 3.58e-4,-0.5254 -0.286507,-1.0112 -0.768973,-1.2807 -0.48255,-0.2693 -1.081645,-0.2707 -1.564126,0 a 0.4982886,0.4982886 0 1 1 -0.486966,-0.8695 c 0.786623,-0.4392 1.750054,-0.4391 2.536698,0 0.196875,0.1096 0.375753,0.2419 0.532622,0.3946 z m -1.253157,2.3345 a 0.49808583,0.49808583 0 0 1 0.08905,0.1201 l 3.487219,6.0377 a 0.49858976,0.49858976 0 0 1 -0.863902,0.498 l -3.485881,-6.0391 a 0.49808583,0.49808583 0 0 1 0.771756,-0.615 l 0,0 z m -4.840903,-3.578 c -0.344241,0 -0.692694,0.034 -1.041372,0.1279 l -0.799252,0.216 -0.214609,-0.8006 c -0.296361,-1.1088 -1.0106,-1.9896 -1.927292,-2.5188 -0.916628,-0.5292 -2.036371,-0.7076 -3.144718,-0.41 -2.2167567,0.5954 -3.5229141,2.8587 -2.9301225,5.0762 l 0.2146092,0.8005 0.5364805,2.0058 -3.9453426,3.4968 4.8574284,-0.082 0.690538,2.5836 4.856055,-1.3042 0.854253,-3.1763 -1.799294,-1.0401 c -0.615492,-0.3196 -0.08891,-1.2342 0.496574,-0.8625 l 1.569604,0.9066 0.26823,-0.9973 -3.926065,-2.2671 c -0.575979,-0.332 -0.07794,-1.196 0.497989,-0.8639 l 3.694961,2.135 0.133463,-0.4966 0.215969,-0.7993 c 0.172863,-0.6437 0.465265,-1.2253 0.841913,-1.7305 z m 2.55589,3.6758 a 0.49808583,0.49808583 0 0 1 0.08976,0.1193 l 1.495319,2.5876 a 0.49857926,0.49857926 0 1 1 -0.863909,0.4979 l -1.4926,-2.5875 a 0.49808583,0.49808583 0 0 1 0.770374,-0.6163 l 0,0 z m 2.485839,4.3071 a 0.49808583,0.49808583 0 0 1 0.09046,0.1186 l 0.993231,1.7195 a 0.49858368,0.49858368 0 0 1 -0.863909,0.498 l -0.991858,-1.7182 a 0.49808583,0.49808583 0 0 1 0.770382,-0.6163 l 0,0 z m -9.806954,-9.6612 c 0.414878,0.4137 -0.101022,1.0797 -0.6053,0.7814 -0.454906,-0.2627 -1.020799,-0.2571 -1.495334,0.026 -0.474528,0.2832 -0.7761,0.8038 -0.784094,1.3563 0.02749,0.7008 -1.0433371,0.6844 -0.9945841,-0.015 0.01298,-0.9007 0.4931861,-1.735 1.2669761,-2.1968 0.773431,-0.4616 1.731403,-0.4789 2.503616,-0.033 0.04001,0.022 0.07621,0.05 0.109002,0.081 z m 6.585155,8.0627 a 0.49808583,0.49808583 0 0 1 0.08976,0.1193 l 1.495318,2.5876 a 0.49857926,0.49857926 0 0 1 -0.863909,0.4979 l -1.4926,-2.5875 a 0.49808583,0.49808583 0 0 1 0.770375,-0.6163 l 0,0 z m -6.724126,-3.1861 c 0.429176,0.4137 -0.09893,1.0951 -0.606639,0.7828 l -1.719542,-0.9932 c -0.575036,-0.3329 -0.07567,-1.1955 0.499362,-0.8626 l 1.718162,0.9919 c 0.03796,0.024 0.07558,0.05 0.107601,0.083 l 0,0 z m 1.597116,3.2232 c 0.414871,0.4137 -0.101022,1.0797 -0.605301,0.7813 l -2.588931,-1.4939 c -0.575036,-0.3328 -0.07567,-1.1954 0.499363,-0.8626 l 2.587593,1.4953 c 0.03754,0.024 0.07459,0.05 0.106219,0.081 l 0,0 z"/></g></svg>