<svg xmlns="http://www.w3.org/2000/svg" xmlns:xlink="http://www.w3.org/1999/xlink" width="48" height="48" viewBox="0 0 48 48"><defs><linearGradient id="b" x1="949.87" x2="974.39" y1="518.014" y2="544.657" gradientTransform="translate(-726.346 -90.283) scale(1.53785)" gradientUnits="userSpaceOnUse" xlink:href="#a"/><linearGradient id="a"><stop offset="0" stop-color="#24f7bc"/><stop offset="1" stop-color="#24c4fc"/></linearGradient></defs><g fill="#fff" transform="rotate(-45 -1212.281 527.414)"><rect width="48" height="48" x="728.007" y="702.736" fill="url(#b)" rx="10.144" ry="10.144" transform="rotate(45)"/><path d="m 22.124021,1034.328 c -0.391737,-0.3917 -1.022477,-0.3917 -1.414213,0 l -2.828427,2.8284 c -0.391737,0.3918 -0.391737,1.0225 0,1.4142 0.391737,0.3918 1.022476,0.3918 1.414213,0 l 2.828427,-2.8284 c 0.391737,-0.3917 0.391737,-1.0225 0,-1.4142 z m 6.363961,6.364 c -0.391737,-0.3918 -1.022477,-0.3918 -1.414214,0 l -2.828427,2.8284 c -0.391737,0.3917 -0.391737,1.0225 0,1.4142 0.391737,0.3917 1.022477,0.3917 1.414214,0 l 2.828427,-2.8284 c 0.391737,-0.3918 0.391737,-1.0225 0,-1.4142 z m -11.679692,-7.4371 c -0.587606,-0.5876 -1.533715,-0.5876 -2.121321,0 l -2.474873,2.4749 14.849241,14.8492 2.474874,-2.4749 c 0.587606,-0.5876 0.587606,-1.5337 0,-2.1213 l -1.755336,-1.7553 -1.440447,1.4404 c -0.771241,0.7713 -2.057186,0.7713 -2.828427,0 -0.771242,-0.7712 -0.771242,-2.0572 0,-2.8284 l 1.440447,-1.4404 -3.535534,-3.5356 -1.440446,1.4405 c -0.771242,0.7712 -2.057186,0.7712 -2.828428,0 -0.771241,-0.7713 -0.771241,-2.0572 0,-2.8285 l 1.440448,-1.4404 -1.780198,-1.7802 z m -5.303301,3.182 -8.1317274,8.1317 c -0.587606,0.5876 -0.587606,1.5337 0,2.1213 l 12.7279214,12.728 c 0.587606,0.5876 1.533715,0.5876 2.12132,0 l 8.131728,-8.1318 -14.849242,-14.8492 z m 6.709277,12.3384 a 0.50005,0.50005 0 0 1 -0.110528,0.8066 l -3.52719,2.1185 a 0.50005,0.50005 0 0 1 -0.686389,-0.6864 l 2.117113,-3.5286 a 0.50005,0.50005 0 0 1 0.76649,-0.1229 0.50005,0.50005 0 0 1 0.09117,0.6381 l -1.086915,1.8133 1.811975,-1.0883 a 0.50005,0.50005 0 0 1 0.624276,0.05 z m 2.80606,2.8287 a 0.50005,0.50005 0 1 1 -0.702863,0.7113 l -1.053915,-1.0397 -0.703005,0.703 0.353553,0.3535 a 0.50005,0.50005 0 1 1 -0.707107,0.7071 l -0.353553,-0.3535 -0.707107,0.7071 1.06066,1.0606 a 0.50005,0.50005 0 1 1 -0.707106,0.7071 l -1.414214,-1.4142 a 0.50005,0.50005 0 0 1 0,-0.7071 l 2.822912,-2.8229 a 0.50005,0.50005 0 0 1 0.705721,0 l 1.404709,1.3906 0,0 z m -9.885677,-9.8857 a 0.50005,0.50005 0 0 1 -0.0014,0.7168 l -2.4693574,2.4693 1.0606599,1.0607 a 0.50005,0.50005 0 1 1 -0.7071069,0.7071 l -1.414214,-1.4142 a 0.50005,0.50005 0 0 1 0,-0.7071 l 2.8229114,-2.8229 a 0.50005,0.50005 0 0 1 0.708479,-0.01 z m 3.539677,3.5397 c 0.58149,0.5815 0.581525,1.5398 0,2.1213 l -1.414213,1.4142 c -0.581454,0.5815 -1.539831,0.5815 -2.121321,0 -0.581496,-0.5815 -0.581453,-1.5399 0,-2.1213 l 1.414214,-1.4142 c 0.581525,-0.5815 1.539824,-0.5815 2.12132,0 z m -0.707106,0.7071 c -0.201985,-0.202 -0.505087,-0.202 -0.707107,0 l -1.414214,1.4142 c -0.201949,0.202 -0.201985,0.5051 0,0.7071 0.201978,0.202 0.505157,0.202 0.707107,0 l 1.414214,-1.4142 c 0.20202,-0.202 0.201978,-0.5051 0,-0.7071 z"/></g></svg>