<svg xmlns="http://www.w3.org/2000/svg" xmlns:xlink="http://www.w3.org/1999/xlink" width="48" height="48" viewBox="0 0 48 48"><defs><linearGradient id="b" x1="906.952" x2="931.379" y1="515.915" y2="546.094" gradientTransform="translate(-660.712 -90.283) scale(1.53785)" gradientUnits="userSpaceOnUse" xlink:href="#a"/><linearGradient id="a"><stop offset="0" stop-color="#ffd800"/><stop offset="1" stop-color="#ff6100"/></linearGradient></defs><g fill="#fff" transform="rotate(-45 -1212.281 527.414)"><rect width="48" height="48" x="728.007" y="702.736" fill="url(#b)" rx="10.144" ry="10.144" transform="rotate(45)"/><path d="m 22.110844,1034.3412 c -0.391737,-0.3917 -1.022477,-0.3917 -1.414213,0 l -2.828428,2.8284 c -0.391737,0.3918 -0.391737,1.0225 0,1.4142 0.391737,0.3918 1.022476,0.3918 1.414213,0 l 2.828428,-2.8284 c 0.391737,-0.3917 0.391737,-1.0225 0,-1.4142 z m 6.363961,6.364 c -0.391737,-0.3918 -1.022477,-0.3918 -1.414214,0 l -2.828427,2.8284 c -0.391737,0.3917 -0.391737,1.0225 0,1.4142 0.391737,0.3917 1.022477,0.3917 1.414214,0 l 2.828427,-2.8284 c 0.391737,-0.3918 0.391737,-1.0225 0,-1.4142 z m -11.653389,-7.4634 c -0.587606,-0.5876 -1.533715,-0.5876 -2.12132,0 l -2.463843,2.4638 14.849243,14.8493 2.463843,-2.4639 c 0.587605,-0.5876 0.587605,-1.5337 0,-2.1213 l -1.755337,-1.7553 -1.440517,1.4405 c -0.771242,0.7712 -2.057186,0.7712 -2.828428,0 -0.771241,-0.7712 -0.771241,-2.0572 0,-2.8284 l 1.440518,-1.4405 -3.535534,-3.5356 -1.440518,1.4405 c -0.771241,0.7713 -2.057186,0.7713 -2.828427,0 -0.771241,-0.7712 -0.771241,-2.0571 0,-2.8284 l 1.440518,-1.4405 -1.780198,-1.7802 z m -5.368213,3.2469 -8.0668161,8.0668 c -0.587606,0.5876 -0.587606,1.5337 0,2.1213 l 12.7279221,12.7279 c 0.587606,0.5877 1.533715,0.5877 2.121321,0 l 8.066816,-8.0668 -14.849243,-14.8492 z m 8.516988,9.854 c 0.777359,0.7773 0.777394,2.051 0,2.8284 l -0.707107,0.7071 c -0.777323,0.7773 -2.051069,0.7774 -2.828427,0 -0.777358,-0.7773 -0.777323,-2.0511 0,-2.8284 l 0.707107,-0.7071 c 0.777393,-0.7774 2.051069,-0.7774 2.828427,0 z m -4.601717,-4.6017 a 0.50005,0.50005 0 0 1 7e-6,0.7181 l -2.469358,2.4694 1.762244,1.7622 a 0.50005,0.50005 0 1 1 -0.707106,0.7071 l -2.115798,-2.1158 a 0.50005,0.50005 0 0 1 0,-0.7071 l 2.822911,-2.8229 a 0.50005,0.50005 0 0 1 0.7071,-0.011 z m 3.895953,5.3074 c -0.397853,-0.3978 -1.016324,-0.3979 -1.414213,0 l -0.707107,0.7071 c -0.397818,0.3979 -0.397853,1.0164 0,1.4143 0.397854,0.3978 1.016395,0.3978 1.414214,0 l 0.707106,-0.7071 c 0.397889,-0.3979 0.397854,-1.0164 0,-1.4143 z m -2.489998,4.5755 a 0.50005,0.50005 0 1 1 -0.705693,0.7085 l -1.758263,-1.7441 -0.703006,0.703 1.06066,1.0606 a 0.50005,0.50005 0 1 1 -0.707106,0.7071 l -1.060661,-1.0606 -0.707106,0.7071 1.766388,1.7664 a 0.50005,0.50005 0 1 1 -0.707107,0.7071 l -2.119942,-2.12 a 0.50005,0.50005 0 0 1 0,-0.7071 l 1.357645,-1.3576 a 0.50005,0.50005 0 0 1 0.113208,-0.1132 l 1.352059,-1.3521 a 0.50005,0.50005 0 0 1 0.705728,0 l 2.111817,2.0977 0,0 z m -5.666521,-5.6666 a 0.50005,0.50005 0 0 1 0.03592,0.036 0.50005,0.50005 0 0 1 0.08979,0.5593 l -1.213961,2.6696 2.668225,-1.2154 a 0.50028152,0.50028152 0 1 1 0.415708,0.9101 l -3.8835301,1.765 a 0.50005,0.50005 0 0 1 -0.661533,-0.6615 l 1.7649741,-3.8835 a 0.50005,0.50005 0 0 1 0.784421,-0.1796 z"/></g></svg>