<svg xmlns="http://www.w3.org/2000/svg" data-name="Layer 1" viewBox="0 0 512 512"><path fill="#b7aece" d="M168.71,228.44a4.844,4.844,0,0,0-3.71,1.74L98.63,310.12a4.8,4.8,0,0,0-1.02,2.13l-5.83,29.14a4.781,4.781,0,0,1-1.22,2.37l77.91-12.53,5.64-4.16,9.32-6.87a4.819,4.819,0,0,0,1.85-2.86l19.21-88.9Z"/><path fill="#978cac" d="M111.28,228.2l-45.11.24L48.71,247.55a1.743,1.743,0,0,0-.46,1.21l.32,15.37a1.769,1.769,0,0,1-.13.72l-8.53,20.19a1.75,1.75,0,0,0,.7,2.17l19.35,11.85a1.676,1.676,0,0,0,1.31.21l30.23-7.22a1.821,1.821,0,0,1,1.15.11l15.04,7.04,53.2-64.07Z"/><path fill="#665d7c" d="M90.56,343.76,35.93,401.34a1.436,1.436,0,0,1-.8.43l-17.94,3.01A1.428,1.428,0,0,0,16,406.19v13.5a1.43,1.43,0,0,0,1.43,1.43H46.08a1.443,1.443,0,0,0,.85-.28l121.54-89.61Z"/><path fill="#978cac" d="M423.04,172.26a.784.784,0,0,1-.26.41l-56.8,46.81,40.53,17.1a.715.715,0,0,1,.39.46l43.93-54.83Z"/><path fill="#665d7c" d="M464.81,123.91a.9.9,0,0,0-.13.28L458.8,95.76a.74.74,0,0,1,.44-.24l28.14-4.63a.768.768,0,0,1,.74,1.21Z"/><path fill="#b7aece" d="M236.6 419.25a1.718 1.718 0 0 1-1.71 1.87H195.68a1.714 1.714 0 0 1-1.68-2.06l2.12-10.23a1.732 1.732 0 0 1 .83-1.14l13.03-7.38a1.7 1.7 0 0 0 .68-2.26L196.57 370.7l33.31-21.81zM458.8 95.76l5.88 28.43-13.71 57.72a.69.69 0 0 1-.14.3l-27.79-9.95 12.53-50.86a.715.715 0 0 1 .18-.33z"/><polygon fill="#665d7c" points="227.77 326.81 229.88 348.89 196.57 370.7 174.11 327.07 183.43 320.2 227.78 326.72 227.77 326.81"/><path fill="#665d7c" d="M417.91,282.65a.718.718,0,0,0,.08-.52L406.9,237.04a.715.715,0,0,0-.39-.46l-77.32-32.63L312.46,315.14a.7.7,0,0,0,.14.54l29.76,37.94,51.93,21.85-9.56-39.72a.726.726,0,0,1,.08-.52Z"/><path fill="#b7aece" d="M394.29,375.47a.656.656,0,0,1-.15.61L353.9,420.9a.682.682,0,0,1-.5.22H316.33a.673.673,0,0,1-.65-.85l5.09-18.09a.675.675,0,0,1,.65-.49H340a.682.682,0,0,0,.54-.27l18.92-25.2a.661.661,0,0,0-.01-.81l-17.09-21.79Z"/><path fill="#4e4763" d="M312.6,315.68a.7.7,0,0,1-.14-.54l-124.78-8.91-2.4,11.11a4.819,4.819,0,0,1-1.85,2.86l150.01,22.05Z"/><path fill="#978cac" d="M495.91 388.18a.977.977 0 0 1 .03.75l-9.12 25.53a1.009 1.009 0 0 1-1.53.49l-12.4-8.61a1.006 1.006 0 0 1-.43-.92l1.47-15.75a1 1 0 0 0-.15-.63l-21.73-34.3a1.02 1.02 0 0 0-.57-.43l-66.67-19.08 33.1-52.58 22.6 28.59a1.21 1.21 0 0 0 .2.19l30.71 22.4a1.065 1.065 0 0 1 .32.41zM328.8 203.91L204.49 228.44l-16.81 77.79 124.78 8.91 16.73-111.19A.651.651 0 0 0 328.8 203.91z"/><path fill="#8f88a8" d="M123.61,312.25a4.8,4.8,0,0,1,1.02-2.13L191,229.96a5.073,5.073,0,0,1,3.71-1.96h-26a5.073,5.073,0,0,0-3.71,1.96L98.63,310.01a5,5,0,0,0-1.02,2.185l-5.83,29.168a4.822,4.822,0,0,1-1.22,2.383l27.635-4.437Z"/><path fill="#6a637c" d="M91.957,228.3l-25.787.137L48.71,247.55a1.743,1.743,0,0,0-.46,1.21l.32,15.37a1.769,1.769,0,0,1-.13.72l-8.53,20.19a1.75,1.75,0,0,0,.7,2.17l19.35,11.85a1.676,1.676,0,0,0,1.31.21l18.009-4.3L66.61,287.21a1.75,1.75,0,0,1-.7-2.17l8.53-20.19a1.769,1.769,0,0,0,.13-.72l-.32-15.37a1.743,1.743,0,0,1,.46-1.21Z"/><path fill="#49435b" d="M35.93,401.34a1.436,1.436,0,0,1-.8.43l-17.94,3.01A1.428,1.428,0,0,0,16,406.19v13.5A1.332,1.332,0,0,0,17.43,421h26A1.332,1.332,0,0,1,42,419.69v-13.5a1.428,1.428,0,0,1,1.19-1.41l17.94-3.01a1.436,1.436,0,0,0,.8-.43l57.1-62.159L90.56,343.76Z"/><path fill="#b7aece" d="M52.95,207.44a.77.77,0,0,0-.89,1.17L77.32,244.1a.769.769,0,0,0,.97.25l32.99-16.15Z"/></svg>