<svg xmlns="http://www.w3.org/2000/svg" data-name="Layer 1" viewBox="0 0 512 512"><path fill="#b0b5ca" d="M124.31,44.82a2.875,2.875,0,0,1,1.84.39L90.37,117.52l-.16-.08L36.55,92.1a1.667,1.667,0,0,1-.95-1.5V57.09a1.654,1.654,0,0,1,1.46-1.64Z"/><path fill="#6d7486" d="M188.01,142.05a1.711,1.711,0,0,0-.25-.76L127.14,46.16a2.809,2.809,0,0,0-.99-.95L16.06,267.72a.54.54,0,0,0-.03.43l179.64-28.63Z"/><path fill="#ccd3df" d="M492.97,303.52l-66.13,47.71,49.43,23.89a1.9,1.9,0,0,1,1.08,1.7l18.6-71.33A1.912,1.912,0,0,0,492.97,303.52Z"/><path fill="#4a5160" d="M476.27,375.12,133.93,209.68,213.21,425.8c73.55.25,164.53.79,164.53.79l98.54-48.05a1.9,1.9,0,0,0-.01-3.42Z"/><path fill="#d4e1f4" d="M122.51,425.85c6.83-.26,45.47-.21,90.7-.05l.29.79-19.38,39.89a1.281,1.281,0,0,1-1.8.54l-70.23-41.25A.854.854,0,0,0,122.51,425.85Z"/><polygon fill="#b0b5ca" points="440.61 341.3 426.84 351.23 195.67 239.52 193.51 212.04 440.61 341.3"/><path fill="#4a5160" d="M125.19,358.8l-3.21,57.4H94.28a.494.494,0,0,1-.48-.59l14.77-70.79.04-.04C117.68,352.44,124.01,357.8,125.19,358.8Z"/><path fill="#8a92a8" d="M57,73.09a1.493,1.493,0,0,1,1.26-1.64L116.8,64.306l9.4-19.1a2.948,2.948,0,0,0-1.865-.39L37.273,55.45A1.5,1.5,0,0,0,36,57.09V90.6a1.667,1.667,0,0,0,.95,1.5L57,101.568Z"/><path fill="#515868" d="M143.206,71.372,127.14,46.16a2.809,2.809,0,0,0-.99-.95L16.06,267.72a.54.54,0,0,0-.03.43l32.37-5.159Z"/><path fill="#b0b5ca" d="M132.98,209.68,16.03,268.15a.531.531,0,0,0,.24.31L125.19,358.8l8.34-149.22A.953.953,0,0,0,132.98,209.68Z"/><path fill="#9499aa" d="M133.93,209.68a.819.819,0,0,0-.4-.1L121.5,424.82a.973.973,0,0,0,.51.91l.08.04a.854.854,0,0,0,.42.08c6.83-.26,45.47-.21,90.7-.05Z"/><path fill="#969baa" d="M43.4,254.466,16.03,268.15a.531.531,0,0,0,.24.31L125.19,358.8l1.949-34.879Z"/><path fill="#707582" d="M151.5,424.82l8.111-145.132L133.93,209.68a.819.819,0,0,0-.4-.1L121.5,424.82a.973.973,0,0,0,.51.91l.08.04a.854.854,0,0,0,.42.08c3.3-.126,14.072-.179,29.415-.182A.968.968,0,0,1,151.5,424.82Z"/></svg>