<svg xmlns="http://www.w3.org/2000/svg" data-name="Layer 1" viewBox="0 0 512 512"><path fill="#6d7486" d="M22.06,136.52A7.346,7.346,0,0,0,16,143.75v17.67a7.36,7.36,0,0,0,4.86,6.91l40.18,14.44,5.65-54.25Z"/><path fill="#edc3b2" d="M407.57,398.58l-3.81-.45-18.3,54.9a3.837,3.837,0,0,0,3.64,5.05h70.46a6.262,6.262,0,0,0,3.88-1.33Z"/><path fill="#e1b7a3" d="M249.73 286.2l20.72 120.54-6.05 18.19L194.62 358.7l-.01-.01a11.254 11.254 0 0 0-2.92-5.05l-43.06-43a10.754 10.754 0 0 1-2.52-3.95h.01zM409.11 277.84L237.69 216.17l7.57 44.03 121.63 87.64 45.06-68.5A11.028 11.028 0 0 0 409.11 277.84z"/><path fill="#c79a83" d="M493.77 239.34l-37.847-32.011a1.288 1.288 0 0 0-1.77.1l-22.886 24.354a1.287 1.287 0 0 0 .094 1.854l26.5 23.012a3.845 3.845 0 0 1 .26 5.55l-1.279 1.337a1.287 1.287 0 0 0 .084 1.859L488.02 292.56l.01.01a1.921 1.921 0 0 0 .31-.56l7.61-47.04A6.3 6.3 0 0 0 493.77 239.34zM407.57 398.58l55.87 58.17a6.283 6.283 0 0 0 2.35-3.72l9.22-43.24a12.909 12.909 0 0 0 .26-3.1zM457.389 339.851a12.8 12.8 0 0 0-1.819-3.351l-41.38-54.93a11.18 11.18 0 0 0-1.093-1.245 1.279 1.279 0 0 0-1.952.239L366.89 347.84l-26.817 40.782a1.287 1.287 0 0 0 .923 1.985l31.9 3.818a1.286 1.286 0 0 0 .844-.191l83.132-52.84A1.3 1.3 0 0 0 457.389 339.851z"/><path fill="#ad826f" d="M474.84,403.73l-17.13-62.87-84.36,53.62,101.92,12.21A12.378,12.378,0,0,0,474.84,403.73Z"/><path fill="#c79a83" d="M221.694,123.084a1.287,1.287,0,0,0-2.55.092l-71.461,104.65L145.47,302.67a10.668,10.668,0,0,0,.64,4.02h.01L248.5,286.444a1.287,1.287,0,0,0,1.019-1.481Z"/><path fill="#ad826f" d="M488.02,292.56l-32.11-28.05L425.4,296.45l23.38,31.03s35.49-29.95,39.25-34.91Z"/><polygon fill="#ad826f" points="245.26 260.2 249.73 286.2 270.45 406.74 339.93 390.36 366.89 347.84 245.26 260.2"/><path fill="#c79a83" d="M204.4 456.507l-15.475-68.071a1.288 1.288 0 0 0-2.472-.137L164.01 452.98a3.834 3.834 0 0 0 3.62 5.1h35.517A1.287 1.287 0 0 0 204.4 456.507zM145.684 55.725l-.024.015L73.22 100.57a5.868 5.868 0 0 0-2.584 3.5 1.226 1.226 0 0 0 .206 1.006l42.591 61.736 34.1-109.566A1.284 1.284 0 0 0 145.684 55.725z"/><path fill="#ad826f" d="M194.62,358.7a11.4,11.4,0,0,1-.22,6.71l-6.47,18.63v.01l16.83,74.03h44.39a6.4,6.4,0,0,0,5.04-2.46l10.21-30.69Z"/><path fill="#e1b7a3" d="M112.92,164.93l-42.4-60.31L58.88,177.26a5.82,5.82,0,0,0,2.16,5.51l3.52,1.26,54.69.98Z"/><path fill="#515868" d="M36,171.42V153.75a7.346,7.346,0,0,1,6.06-7.23l23.188-4.156L66.69,128.52l-44.63,8A7.346,7.346,0,0,0,16,143.75v17.67a7.36,7.36,0,0,0,4.86,6.91l15.605,5.608A7.283,7.283,0,0,1,36,171.42Z"/><path fill="#a07a6a" d="M175.683,225.826l8.486-12.427L150.84,228.53a10.377,10.377,0,0,1-3.2.874l-2.166,73.421a14.314,14.314,0,0,0,.64,4.175h.01l27.358-5.565c0-.2-.015-.56-.008-.765Z"/><path fill="#ad826f" d="M218.57,93.37,151.62,55.62a5.761,5.761,0,0,0-3.33-.73L112.92,164.93a10.244,10.244,0,0,0,.47,7.5l5.86,12.58,17.95,38.48a10.32,10.32,0,0,0,13.64,5.04l55.2-25.06a10.33,10.33,0,0,0,6.01-8.38l9.47-96.05A5.862,5.862,0,0,0,218.57,93.37Z"/><path fill="#a37b69" d="M197.22,424.873l-8.293-36.457a1.287,1.287,0,0,0-2.472-.127L164.01,452.935A3.806,3.806,0,0,0,167.63,458h18.08Z"/><path fill="#c49a8a" d="M269.413,400.708l-99.447-98.579L146.12,307h-.01a16.161,16.161,0,0,0,2.52,3.8l43.06,42.923a11.124,11.124,0,0,1,2.92,5.011l.01-.01L264.4,424.94l6.05-18.195Z"/></svg>