<svg xmlns="http://www.w3.org/2000/svg" data-name="Layer 1" viewBox="0 0 512 512"><polygon fill="#e1b7a3" points="233.24 288.22 235.95 293.78 170.71 393.18 147.87 326.34 233.24 288.22"/><path fill="#c79a83" d="M140.09,44.03,87.25,118.68a.243.243,0,0,1,.28.11l25.62,43.17c.01.01.02.03.03.04l5.25,5.52L140.42,44.17A.184.184,0,0,0,140.09,44.03Z"/><polygon fill="#a37866" points="233.24 288.22 147.87 326.34 135.14 242.82 233.24 288.22"/><path fill="#a37866" d="M108.07,26.63,118.3,74.81,92.97,110.6l13.74-83.94A.692.692,0,0,1,108.07,26.63Z"/><polygon fill="#ffd0c0" points="104.31 238.85 104 265.05 77.96 265.05 66.62 238.85 104.31 238.85"/><path fill="#ffd0c0" d="M197.11,464.16l-96.2,2.87a1.2,1.2,0,0,1-.42-2.34l70.14-23.82Z"/><polygon fill="#ffd0c0" points="124.67 174.08 135.14 242.82 104.53 215.65 82 186.16 113.18 162 118.43 167.52 124.67 174.08"/><path fill="#a37866" d="M66.62,238.85l11.34,26.2a.458.458,0,0,0-.34.16l-21,25.26a.44.44,0,0,1-.77-.23l-4.62-38.95a.47.47,0,0,1,.16-.4l14.95-11.94A.478.478,0,0,1,66.62,238.85Z"/><path fill="#c79a83" d="M235.95,293.78l5.91,12.12-26.13,91.77a.342.342,0,0,0-.52,0H170.86v-4.21a.361.361,0,0,0-.15-.28Z"/><path fill="#e1b7a3" d="M16.11,141.23H16.1a.237.237,0,0,1,.07-.42l71.08-22.13a.243.243,0,0,1,.28.11l21.83,36.78Z"/><path fill="#c79a83" d="M147.87,326.34l-12.73-83.52-30.61-27.17a.226.226,0,0,1,.05.15l-1.55,130.57Z"/><path fill="#a37866" d="M113.15,161.96c.01.01.02.03.03.04L82,186.16a.339.339,0,0,0-.06-.06L16.11,141.23l93.25,14.34Z"/><polygon fill="#e1b7a3" points="124.67 174.08 233.24 288.22 135.14 242.82 124.67 174.08"/><path fill="#c79a83" d="M307.21,439.81a.345.345,0,0,0,.33.19l184.4-10.77a3.828,3.828,0,0,1,1.14,7.54L291.92,485.91a.332.332,0,0,1-.34-.11Z"/><path fill="#ffd0c0" d="M103.03,346.37l44.84-20.03,22.84,66.84-67.54-46.52A.33.33,0,0,1,103.03,346.37Z"/><path fill="#a37866" d="M170.86,397.67h44.35a.322.322,0,0,0-.08.14l-17.69,66.1a.345.345,0,0,1-.33.25l-26.48-23.29a.346.346,0,0,0,.23-.33Z"/><polygon fill="#e1b7a3" points="241.86 305.9 307.21 439.81 291.58 485.8 215.73 397.67 241.86 305.9"/><polygon fill="#d6a599" points="130.123 209.882 96.057 175.268 82 186.16 104.53 215.65 135.14 242.82 130.123 209.882"/><path fill="#ba907f" d="M87.53,118.761a.235.235,0,0,0-.28-.095L16.17,140.688c-.19.06-.23.312-.07.312h.01l39,6.045,37-20.6Z"/><path fill="#aa7c68" d="M133.19,332.9l1.078-90.852-29.738-26.4a.226.226,0,0,1,.05.15l-1.55,130.57Z"/><path fill="#7c594d" d="M54.85,147.188,16.11,141.23,81.94,186.1a.339.339,0,0,1,.06.06l14.053-10.889Z"/><path fill="#d6a599" d="M161.476,366.156,133.19,332.9,103.03,346.37a.33.33,0,0,0,.14.29l67.54,46.52Z"/></svg>