<svg xmlns="http://www.w3.org/2000/svg" data-name="Layer 1" viewBox="0 0 512 512"><polygon fill="#618de5" points="306.32 350.26 308.7 430.76 275.28 415.69 274.45 382.71 306.32 350.26"/><path fill="#9cc2ff" d="M417.3,237.23l-81.7-.97-40.45-37.91a6.056,6.056,0,0,0,3.38-3.18l26.01-57.96,95.29,98.98A3.443,3.443,0,0,1,417.3,237.23Z"/><path fill="#618de5" d="M140.73,233.94a3.469,3.469,0,0,1-2.62-1.23l68.47,92.36.33-.24,23.69-89.82Z"/><path fill="#f3ce7d" d="M334.47,469.12a2.074,2.074,0,0,1-1.15,3.8H277l32.26-23.23a5.2,5.2,0,0,0,2.32,4.18Z"/><path fill="#80aaff" d="M420.71,232.82,368.85,42.53a.925.925,0,0,0-.77-.68l-.08-.01a.908.908,0,0,0-.91.54l-42.55,94.83,95.29,98.98A3.473,3.473,0,0,0,420.71,232.82Z"/><path fill="#9cc2ff" d="M272.75,314.66a1.3,1.3,0,0,0-.97-1.23,1.273,1.273,0,0,0-1.41.5l-51.1,71.65,56.52,50.51Z"/><path fill="#f991a7" d="M335.33,16.26,368,41.84a.908.908,0,0,0-.91.54l-27.97,62.34L323.65,84.31a4.793,4.793,0,0,1-.9-3.68l10.62-63.6A1.224,1.224,0,0,1,335.33,16.26Z"/><polygon fill="#568ad6" points="335.6 236.26 230.6 235.01 218.66 280.3 343.06 312.84 417.3 237.23 335.6 236.26"/><path fill="#f3ce7d" d="M301.84,494.42a.9.9,0,0,1-.58,1.58H255.59a2.666,2.666,0,0,1-1.64-.56L277,472.92a2.688,2.688,0,0,0,.63.8Z"/><path fill="#568ad6" d="M308.7,430.76l.56,18.93L277,472.92a2.661,2.661,0,0,1-.32-1.21l-.89-35.62-.51-20.4Z"/><path fill="#80aaff" d="M295.15,198.35h-.01a6.094,6.094,0,0,1-2.13.39H250.97a5.874,5.874,0,0,1-2.13-.39l-38.26,36.42,125.02,1.49Z"/><path fill="#6994fe" d="M395.57 44.81l-27.49-2.96a.925.925 0 0 1 .77.68L388.9 116.1l9.51-67.63A3.214 3.214 0 0 0 395.57 44.81zM343.06 312.84l-36.74 37.42-31.87 32.45-1.7-68.05a1.3 1.3 0 0 0-.97-1.23v-.01l3.95-18.19zM185.29 96.31a2.145 2.145 0 0 1 1.17.26L152.94 187.4l-39.52-12.76L138.2 99.21z"/><path fill="#9cc2ff" d="M187.26,97.33a2.238,2.238,0,0,0-.8-.76L137.5,229.24a3.423,3.423,0,0,0,.15,2.76l90.64-65.63Z"/><path fill="#f3ce7d" d="M443.33,81.46a.64.64,0,0,1-.29,1.21H393.6l3.43-24.38Z"/><path fill="#6994fe" d="M248.84,198.35l-38.26,36.42-69.85-.83a3.469,3.469,0,0,1-2.62-1.23l-.14-.19a2.351,2.351,0,0,1-.32-.52l90.64-65.63,17.48,29.41A5.985,5.985,0,0,0,248.84,198.35Z"/><path fill="#9cc2ff" d="M68.54,137.34a.425.425,0,0,0-.22.39l5.29,155.5a.421.421,0,0,0,.82.12L138.2,99.21Z"/><path fill="#6994fe" d="M277,472.92l-23.05,22.52a2.6,2.6,0,0,1-.94-1.28L218.2,392.9a8.072,8.072,0,0,1,1.07-7.32l56.52,50.51.89,35.62A2.661,2.661,0,0,0,277,472.92Z"/><path fill="#80aaff" d="M271.78,313.42v.01a1.273,1.273,0,0,0-1.41.5l-35.33,49.53-28.46-38.39.33-.24,11.75-44.53,57.07,14.93Z"/><path fill="#4b78bf" d="M169.274,234.28l-28.544-.34a3.469,3.469,0,0,1-2.62-1.23l68.47,92.36.33-.24,7.739-29.343Z"/><path fill="#87a8d8" d="M98.32,137.73a.425.425,0,0,1,.22-.39l33.084-18.109L138.2,99.21,68.54,137.34a.425.425,0,0,0-.22.39l5.29,155.5a.421.421,0,0,0,.82.12l26.445-80.509Z"/><path fill="#85a6d6" d="M248.2,392.9a8.072,8.072,0,0,1,1.07-7.32h0l24.4-34.211-.919-36.709a1.3,1.3,0,0,0-.97-1.23,1.273,1.273,0,0,0-1.41.5l-51.1,71.65L257.4,419.652Z"/><polygon fill="#6b96db" points="214.652 295.491 206.91 324.83 206.58 325.07 235.04 363.46 249.751 342.836 214.652 295.491"/><path fill="#547dd1" d="M257.4,419.652,219.27,385.58a8.072,8.072,0,0,0-1.07,7.32l34.81,101.26a2.6,2.6,0,0,0,.94,1.28l22.083-21.575Z"/></svg>