<svg xmlns="http://www.w3.org/2000/svg" data-name="Layer 1" viewBox="0 0 512 512"><path fill="#b0b5ca" d="M406.28,106.75l51.87,71.4-55.54-13.88,2.16-58.42A2.257,2.257,0,0,1,406.28,106.75Z"/><path fill="#6d7486" d="M131.31,102.65,238.48,237.29l-78,13.3a14.7,14.7,0,0,0-6.77,3.05l-35.22,28.33L55.03,170.49l70.14-64.48A14.592,14.592,0,0,1,131.31,102.65Z"/><path fill="#7c818e" d="M106.15,394.24a4.046,4.046,0,0,0,1,2.77l16.59,24.03a2.2,2.2,0,0,1-1.81,3.44H69.56a2.194,2.194,0,0,1-2.19-2.15l-.51-27.66Z"/><polygon fill="#6d7486" points="107.81 334.65 106.15 394.24 66.86 394.67 66.22 360.39 66.23 360.39 107.81 334.65"/><path fill="#6d7486" d="M314.9,417.03a1.119,1.119,0,0,1-1.02,1.58H269.35a1.127,1.127,0,0,1-1.11-.95l-5.91-38.24h35.49Z"/><polygon fill="#7c818e" points="343.99 97.49 346.74 216.41 402.61 164.27 404.77 105.85 343.99 97.49"/><polygon fill="#7c818e" points="241.35 243.83 306.41 301.6 315.27 222.77 241.35 243.83"/><path fill="#7c818e" d="M55.03,170.49a14.56,14.56,0,0,0-4.52,8.38l-6.2,37.88a14.81,14.81,0,0,0-.18,2.66v.01a14.208,14.208,0,0,0,.19,2.05L66.1,353.69l.12,6.7h.01l41.58-25.74a4,4,0,0,1,.9-2.43l22.6-27.73Z"/><path fill="#b0b5ca" d="M50.51,178.87l-6.2,37.88a14.81,14.81,0,0,0-.18,2.66v.01l-9.01,21.89a1.933,1.933,0,0,0-.17.79v62.39l-13.74,5.93-1.81-76.6a1.885,1.885,0,0,1,.25-.98Z"/><path fill="#6d7486" d="M43.65,324.19a2.239,2.239,0,0,1-.11,2.06L33.25,344.13a2.282,2.282,0,0,1-3.64.42l-12.99-13.8a2.264,2.264,0,0,1-.53-2.18l5.12-18.15,13.74-5.93Z"/><polygon fill="#7c818e" points="462.24 183.77 473.91 226.51 432.78 246.69 432.77 246.69 421.65 214.24 462.24 183.77"/><path fill="#7c818e" d="M463.52 294.05l-5.37 31.25-27.2-15.14a.966.966 0 0 0 .34-.62l3.68-27.57zM241.35 243.83l6.1 39.44-44.73 7.78-42.24-40.46 78-13.3A13.936 13.936 0 0 1 241.35 243.83z"/><path fill="#b0b5ca" d="M433,352.69a.969.969,0,0,1-.98.28l-12.11-33.41,11.04-9.4,27.2,15.14a.953.953,0,0,1-.25.5Z"/><path fill="#585f6d" d="M419.91,319.56l12.11,33.41-26.95-7.33a.972.972,0,0,1-.72-.9l-.51-11a.975.975,0,0,1,.35-.79Z"/><path fill="#b0b5ca" d="M202.72 291.05l-68.97 12.01a3.969 3.969 0 0 0-2.44 1.43l-12.82-22.52 35.22-28.33a14.7 14.7 0 0 1 6.77-3.05zM302.86 333.19l-5.13 45.64a1.185 1.185 0 0 0 .09.59H262.33l-2.95-19.03z"/><path fill="#ccd3df" d="M493,293.21l-54.96-32.87a2.436,2.436,0,0,1-1.02-1.26l-15.37-44.84-22.08,11.25,25.12,51.5a2.339,2.339,0,0,0,1.2,1.14l61.54,26.04a6.169,6.169,0,0,0,8.44-4.42,5.966,5.966,0,0,0,.13-1.25A6.178,6.178,0,0,0,493,293.21Z"/><polygon fill="#6d7486" points="247.45 283.27 241.35 243.83 306.41 301.6 302.86 333.19 259.38 360.39 247.45 283.27"/><path fill="#b0b5ca" d="M473.91,226.51l-41.13,20.18,4.24,12.39a2.436,2.436,0,0,0,1.02,1.26l28.35,16.95,7.78-45.33A12.7,12.7,0,0,0,473.91,226.51Z"/><path fill="#585f6d" d="M315.62,219.7a2.224,2.224,0,0,0,2.24-.19l28.49-19.92.39,16.82a2.231,2.231,0,0,0,1.93,2.16l3.97.54-43.15,55.16,5.78-51.5h.01Z"/><path fill="#b0b5ca" d="M252.93,104.81l-117.54-2.65a14.668,14.668,0,0,0-4.08.49L238.48,237.29a13.936,13.936,0,0,1,2.87,6.54l73.92-21.06h.01l.34-3.07Z"/><path fill="#6d7486" d="M317.86 219.51a2.224 2.224 0 0 1-2.24.19l-90.77-42.98a2.207 2.207 0 0 1-1.26-1.73l-4.53-35.56a2.238 2.238 0 0 1 .64-1.87l33.23-32.75h.01l16.89-16.65a2.276 2.276 0 0 1 1.88-.62l72.28 9.95 2.36 102.1zM458.15 178.15l4.09 5.62-40.59 30.47-16.07 12.07-6.01-.82-46.93-6.38-3.97-.54a2.231 2.231 0 0 1-1.93-2.16l55.87-52.14z"/><path fill="#585d68" d="M85.03,170.49l57.906-53.234L131.31,102.65a14.592,14.592,0,0,0-6.14,3.36L55.03,170.49l20.818,36.57,4.662-28.19A14.56,14.56,0,0,1,85.03,170.49Z"/><polygon fill="#585d68" points="96.204 360.341 96.068 353.69 94.306 342.815 66.23 360 66.22 360 66.86 394.475 96.846 394.244 96.204 360.341"/><path fill="#636770" d="M97.366 422.09l-.514-27.42-.006-.328-29.986.328.51 27.42A2 2 0 0 0 69.56 424h30A2 2 0 0 1 97.366 422.09zM74 219.42v-.01a16.976 16.976 0 0 1 .245-2.66l1.6-9.69L55.03 170.49a14.56 14.56 0 0 0-4.52 8.38l-6.265 37.88A16.976 16.976 0 0 0 44 219.41v.01a13.052 13.052 0 0 0 .255 2.05L66.068 353.5l.152 6.5h.01l28.076-17.185L74.255 221.372A11.849 11.849 0 0 1 74 219.42z"/></svg>