<svg xmlns="http://www.w3.org/2000/svg" data-name="Layer 1" viewBox="0 0 512 512"><path fill="#4ca987" d="M335.2,411.52l-61.94,83.26a3.007,3.007,0,0,1-4.79.06l-26.88-34.35v-.01l9.3-64.16Z"/><path fill="#f0cd7a" d="M466.38,270.85l-69.05-11.48-121.92,86.6-.07.36,73.01,13.51,118.63-86.43A1.428,1.428,0,0,0,466.38,270.85Z"/><path fill="#4ca987" d="M114.28 259.37l-14.25 73.22L20.15 275.58a3.026 3.026 0 0 1-.01-4.92L63.1 239.92zM429.69 416.83a3.011 3.011 0 0 1-3.69 3.45L381.84 409.3l-33.49-49.46 62.46-45.5 1.29 1.77zM419.61 69.71a3.019 3.019 0 0 1 3.32 3.97l-20.14 58.37L362.52 156.1l-49.6-69.56zM202.46 427.34L97.76 445.71a3.013 3.013 0 0 1-3.51-3.36l6.28-49.05v-.01l53.49-25.6zM491.81 237.98a3.027 3.027 0 0 1-.02 5l-38 25.78h-.01l-56.45-9.39 14.76-76.07h.01z"/><path fill="#f58387" d="M114.28 259.37L87.5 397.01a1.425 1.425 0 0 0 2.01 1.56l64.51-30.88 36.72-158.46zM421.84 120.67L362.52 156.1l-33.7 151.93 68.51-48.66 26.63-137.21A1.416 1.416 0 0 0 421.84 120.67z"/><path fill="#4ca987" d="M271.61,53.95l-6.07,59.51-74.8-10.58,47.88-85.34a3.015,3.015,0,0,1,5.03-.35Z"/><path fill="#f58387" d="M265.54,113.46,131.05,94.44a1.419,1.419,0,0,0-1.43,2.11l35.43,62.55,143.39,18.05Z"/><path fill="#f0cd7a" d="M276.06,34.85a1.419,1.419,0,0,0-2.57.68l-7.95,77.93,80.07,118.86,16.91-76.22Z"/><path fill="#f58387" d="M388.14,418.6l-39.79-58.76L201.09,332.59l49.8,63.73L386.71,420.8A1.423,1.423,0,0,0,388.14,418.6Z"/><path fill="#f0cd7a" d="M171.06,294.16l-17.04,73.53L237.7,470.74a1.423,1.423,0,0,0,2.51-.7l10.68-73.72Z"/><path fill="#4ca987" d="M137.39,110.27l27.66,48.83-65.02,39.04L80.24,101.72a3.023,3.023,0,0,1,3.62-3.56Z"/><path fill="#f0cd7a" d="M165.05,159.1,45.62,230.81a1.425,1.425,0,0,0,.22,2.55l68.44,26.01,136.46-89.48Z"/><path fill="#398465" d="M103.689 313.79L50.15 275.58a3.026 3.026 0 0 1-.01-4.92l32.554-23.294L63.1 239.92 20.14 270.66a3.026 3.026 0 0 0 .01 4.92l79.88 57.01zM101 393.3l-6.515 49.05a2.931 2.931 0 0 0 3.392 3.36l26.835-4.677L134.8 377.078 101 393.29zM243.65 17.19a3.015 3.015 0 0 0-5.03.35l-47.88 85.34 27.96 3.955 39.433-70.6zM100.03 198.14L126.738 182.1l-15.98-77.858L83.86 98.16a3.023 3.023 0 0 0-3.62 3.56z"/></svg>