<svg xmlns="http://www.w3.org/2000/svg" data-name="Layer 1" viewBox="0 0 512 512"><path fill="#edacd8" d="M373.68,187.85l39.48,69.01-95.62,1a3.493,3.493,0,0,1,.3-4.11Z"/><polygon fill="#916186" points="208.86 259 259.29 334.44 182.54 339.76 101.95 261.01 102.78 260.1 208.86 259"/><path fill="#c185b0" d="M100.89,260.12,16,261.01v64.08a2.221,2.221,0,0,0,3.6,1.73l82.35-65.81Z"/><path fill="#ffc2ee" d="M373.68,187.85l-55.84,65.9a3.493,3.493,0,0,0-.3,4.11L208.86,259l-.33-.49,47.83-73.81.76-.69Z"/><path fill="#edacd8" d="M19.63,192.28a2.213,2.213,0,0,0-3.63,1.7v67.03l84.89-.89Z"/><polygon fill="#edacd8" points="257.12 184.01 256.36 184.7 208.53 258.51 208.86 259 102.78 260.1 175.25 181.31 257.12 184.01"/><path fill="#ffc2ee" d="M333.37,401.57l-74.08-67.13-76.75,5.32L287.2,442.02a2.172,2.172,0,0,0,1.54.63,2.212,2.212,0,0,0,1.5-.58l43.87-39.68Z"/><path fill="#c185b0" d="M375.08,326.41l-115.79,8.03L208.86,259l108.68-1.14a2.7,2.7,0,0,0,.29.4Z"/><polygon fill="#edacd8" points="393.29 348.09 393.68 348.53 334.11 402.39 333.37 401.57 259.29 334.44 375.08 326.41 393.29 348.09"/><path fill="#916186" d="M413.16,256.86l.16.28-38.24,69.27-57.25-68.15a2.7,2.7,0,0,1-.29-.4Z"/><polygon fill="#c185b0" points="495.93 256 496 256 393.68 348.53 393.29 348.09 375.08 326.41 413.32 257.14 413.16 256.86 495.93 256"/><path fill="#c185b0" d="M129.24 405.49L87.43 438.27a2.916 2.916 0 0 0 1.81 5.21h98.87zM87.17 73.7l42.07 34.14 54.47-38.89-94.7-.43A2.914 2.914 0 0 0 87.17 73.7z"/><path fill="#edacd8" d="M287.2 442.02l-91.06-88.97-66.9 52.44 58.87 37.99H288.69l.05-.83A2.172 2.172 0 0 1 287.2 442.02zM277.56 70.08a2.2 2.2 0 0 1 1.36-.7l-95.21-.43-54.47 38.89 65.05 52.77z"/><path fill="#916186" d="M280.62,69.88a2.233,2.233,0,0,0-1.7-.5,2.2,2.2,0,0,0-1.36.7L175.25,181.31l81.87,2.7L332.7,114.9Z"/><polygon fill="#c185b0" points="332.7 114.9 392.03 166.19 373.68 187.85 257.12 184.01 332.7 114.9"/><polygon fill="#ffc2ee" points="495.93 256 413.16 256.86 373.68 187.85 392.03 166.19 495.93 256"/><polygon fill="#6d4766" points="133.034 260.097 132.727 259.789 132.545 259.791 102.78 260.1 101.95 261.01 182.54 339.76 210.553 337.818 133.034 260.097"/><path fill="#ba83ab" d="M46,214.3,19.63,192.28a2.213,2.213,0,0,0-3.63,1.7v67.03l30-.315Z"/><polygon fill="#bf82ae" points="204.367 182.27 175.25 181.31 102.78 260.1 133.069 259.786 204.367 182.27"/><path fill="#916186" d="M89.01,68.52a2.914,2.914,0,0,0-1.84,5.18l42.07,34.14,27.475-19.616L132.677,68.718Z"/><polygon fill="#c68db6" points="219.394 375.77 196.14 353.05 129.24 405.49 157.892 423.979 219.394 375.77"/><polygon fill="#c68db6" points="156.714 88.224 129.24 107.84 194.29 160.61 216.363 136.613 156.714 88.224"/><path fill="#99688e" d="M46,261.01V260.7l-30,.315v64.08a2.221,2.221,0,0,0,3.6,1.73l26.4-21.1Z"/><path fill="#916186" d="M157.24,424.25l.652-.391L129.24,405.43,87.43,438a2.78,2.78,0,0,0,1.81,5h43.6Z"/></svg>