<svg xmlns="http://www.w3.org/2000/svg" data-name="Layer 1" viewBox="0 0 512 512"><path fill="#f2cd6d" d="M257.18 253.64a19.662 19.662 0 0 1 6.45 1.08v-.01l99.3-135.59L275.01 28.96 257.18 252.68l-.12.01.09.95zM24.32 175.43l213.49 93.83a19.764 19.764 0 0 1 8.57-12.42L146.69 121.49zM257.18 293.19a20.311 20.311 0 0 1-2.35-.14l-.02.14V452.46l124.96 30.58L271.52 287.05A19.74 19.74 0 0 1 257.18 293.19zM237.79 277.5l-.42.1L76.59 325.64 86.95 453.76 244.37 288.49A19.722 19.722 0 0 1 237.79 277.5zM275.01 264.79a19.6 19.6 0 0 1 1.98 8.62 19.251 19.251 0 0 1-.3 3.42l.3.05 157.23 48.76L496 218.79z"/><path fill="#ffef8f" d="M275.01 264.79l204.36-89.36L362.93 119.12l-99.3 135.59v.01A19.8 19.8 0 0 1 275.01 264.79zM276.69 276.83a19.591 19.591 0 0 1-5.17 10.22L427.11 457.38l7.11-131.74L276.99 276.88zM130.8 483.04l124.01-30.58V293.19l.02-.14a19.618 19.618 0 0 1-10.46-4.56zM235.8 28.96l-89.11 92.53 99.69 135.35a19.752 19.752 0 0 1 10.77-3.2l-.09-.95zM237.79 277.5a20.41 20.41 0 0 1-.42-4.09 19.613 19.613 0 0 1 .44-4.15L16 218.79 76.59 325.64 237.37 277.6z"/><polygon fill="#cca95a" points="379.77 483.04 386.69 448.72 427.11 457.38 271.52 287.05 379.77 483.04"/><polygon fill="#cca95a" points="256.98 47.94 235.8 28.96 257.06 252.69 257.18 252.68 275.01 28.96 256.98 47.94"/><polygon fill="#cca95a" points="275.01 264.79 496 218.79 466.3 202.15 479.37 175.43 275.01 264.79"/><polygon fill="#cca95a" points="125.31 445.34 130.8 483.04 244.37 288.49 86.95 453.76 125.31 445.34"/><polygon fill="#cca95a" points="237.81 269.26 24.32 175.43 44.51 202.15 16 218.79 237.81 269.26"/><circle cx="256" cy="273" r="21.5" fill="#cca95a"/><polygon fill="#bf9d52" points="146.69 121.49 24.32 175.43 42.003 183.202 154.043 131.473 146.69 121.49"/><polygon fill="#bf9d52" points="102.375 317.936 76.59 325.64 86.95 453.76 111.292 428.204 102.375 317.936"/><polygon fill="#d8c980" points="237.546 47.338 235.8 28.96 146.69 121.49 155.117 132.931 237.546 47.338"/><polygon fill="#d8c980" points="50.444 226.627 16 218.79 76.59 325.64 102.243 317.975 50.444 226.627"/></svg>