<svg xmlns="http://www.w3.org/2000/svg" data-name="Layer 1" viewBox="0 0 512 512"><path fill="#6d7486" d="M261.29,110.17h-9.91l-37.35,29.41,37.81,28.02,2.52,1.87a2.6,2.6,0,0,0,3.1-.01l2.63-1.96,37.27-27.73Z"/><path fill="#b0b5ca" d="M360.45,210.24l-91.37-49.42,28.28-21.05,16.1-29.13a.955.955,0,0,1,.6-.47h.11v-.02a.981.981,0,0,1,1.08.55l27.39,58.06,18.42,39.05Z"/><polygon fill="#545a66" points="269.08 160.82 260.09 167.5 260.1 167.51 299.06 359.03 299.2 359.09 360.45 210.24 269.08 160.82"/><polygon fill="#3e434c" points="299.06 359.03 289.15 310.33 219.45 310.33 209.47 354.28 222.18 384.32 247.42 388.61 254.34 389.79 261.76 388.61 288.82 384.32 299.2 359.09 299.06 359.03"/><path fill="#3e434c" d="M197.54,69.11l38.91,41.06H196.34a.9.9,0,0,0-.46,0h-.03V69.77A.977.977,0,0,1,197.54,69.11Z"/><path fill="#b0b5ca" d="M260.1,167.51l-.01-.01-2.63,1.96a2.6,2.6,0,0,1-3.1.01l-2.52-1.87-.01.02L219.45,310.33h69.7Z"/><path fill="#545a66" d="M261.29,110.17l36.07,29.6,16.1-29.13a.955.955,0,0,1,.6-.47Z"/><path fill="#3e434c" d="M17.03 313.4a.676.676 0 0 0 .69.39l168.06-15.51-25.79-60.97zM350.95 233.35h-.01l-26.22 63.73 170.49 20.79a.682.682 0 0 0 .71-.38z"/><path fill="#b0b5ca" d="M214.03,139.58l27.76,20.58-91.25,54.81,18.03-42.13h.01l26.57-62.09a1.034,1.034,0,0,1,.7-.58h.49a.982.982,0,0,1,.61.46Z"/><path fill="#545a66" d="M370.7 163.92l-.01-.02-.49-.6-.03-.03a4.014 4.014 0 0 0-3.9-1l-23.63 6.49 18.42 39.05 10.21-40.67A3.933 3.933 0 0 0 370.7 163.92zM141.37 167.52l-.16.19a3.971 3.971 0 0 0-.8 3.44l10.13 43.82 18.03-42.13-23.13-6.48A4.02 4.02 0 0 0 141.37 167.52z"/><polygon fill="#545a66" points="241.79 160.16 150.54 214.97 185.78 298.28 209.47 354.28 251.83 167.62 251.84 167.6 241.79 160.16"/><path fill="#6d7486" d="M140.41 171.15a3.971 3.971 0 0 1 .8-3.44L17.12 312.64a.673.673 0 0 0-.09.76l142.96-76.09-9.45-22.34zM495.84 316.73L370.7 163.92a3.933 3.933 0 0 1 .57 3.22l-10.21 40.67-.61 2.43-9.51 23.11h.01l144.97 84.14A.69.69 0 0 0 495.84 316.73z"/><path fill="#3e434c" d="M313.98,69.22a.981.981,0,0,1,1.69.7l-1.5,40.23a.425.425,0,0,0-.11.02H275.48v-.05Z"/><path fill="#545a66" d="M196.34 110.17a.982.982 0 0 1 .61.46l17.08 28.95 37.35-29.41zM330.56 412.91a.509.509 0 0 1-.31.93l-50.15-2.46-18.34-22.77 27.06-4.29zM247.42 388.61l-16.94 22.41-47.06 1.35a.564.564 0 0 1-.34-1.03l39.1-27.02z"/><path fill="#b0b5ca" d="M261.76,388.61l18.34,22.77a.5.5,0,0,0-.44.21l-23.34,31.4a.511.511,0,0,1-.82.01s-24.86-31.98-25.02-31.98l16.94-22.41,6.92,1.18Z"/><path fill="#888ea3" d="M188.57,188h.01l22.669-53.054-14.3-24.361c-.15-.25-.37-.585-.61-.585h-.49c-.29,0-.56.435-.7.745L168.58,173h-.01l-18.03,42.05L186.1,193.73Z"/><path fill="#4d535e" d="M146.936,199.381,140.41,171.15a3.971,3.971,0,0,1,.8-3.44L17.12,312.64a.673.673,0,0,0-.09.76l59.312-31.568Z"/></svg>