<svg xmlns="http://www.w3.org/2000/svg" data-name="Layer 1" viewBox="0 0 512 512"><path fill="#4ca987" d="M198.7 377.59a4.182 4.182 0 0 0 2.77 2.61l-64.69-13.82-19.7-46.86 62.4 4.56zM256.51 339a4.189 4.189 0 0 0-5.28.2l-19.92 17.44 21.36 38.07a3.249 3.249 0 0 0 5.73-.13l19.85-39.25zM60.39 349.06l9.09 99.67a2.055 2.055 0 0 0 1.1-.26l15.32-8.69a2.089 2.089 0 0 0 1.05-1.58l9.22-80.49L61.94 350.4A2.047 2.047 0 0 1 60.39 349.06zM450.06 350.4l-34.22 7.43 9.21 80.37a2.089 2.089 0 0 0 1.05 1.58l15.32 8.69a2.055 2.055 0 0 0 1.1.26l9.09-99.67A2.047 2.047 0 0 1 450.06 350.4zM392.23 319.59l-10.61 45.66-67.06 14.56a4.155 4.155 0 0 0 2.33-2.98l11.02-52.74z"/><path fill="#5fcda4" d="M66.7 418.23l2.78 30.5a1.945 1.945 0 0 1-1.02-.29L17.01 417.35a2.086 2.086 0 0 1 1.29-3.86zM493.7 413.49a2.086 2.086 0 0 1 1.29 3.86l-51.45 31.09a1.945 1.945 0 0 1-1.02.29l2.79-30.58zM84.05 317.1a5.051 5.051 0 0 0-4.56 2.22L60.62 347.19a2.089 2.089 0 0 0 1.32 3.21l74.84 15.98-19.7-46.86zM451.38 347.19l-18.87-27.87a5.051 5.051 0 0 0-4.56-2.22l-35.72 2.49-10.61 45.66 68.44-14.85a2.089 2.089 0 0 0 1.32-3.21z"/><path fill="#387f62" d="M259.84,62.93H227.2l-45.74,79.75,59.78,205.26v.01l9.99-8.75a4.189,4.189,0,0,1,5.28-.2l9.52,7.15,40.23-212.43Z"/><path fill="#5fcda4" d="M105.72,201.16,88.86,224.44,68.94,182.71a.423.423,0,0,1,.58-.56Z"/><polygon fill="#4ca987" points="160.63 179.01 146.19 204.18 145.46 203.76 135.63 207.61 123.15 179.14 160.63 179.01"/><path fill="#5fcda4" d="M352.16,204.96a8.382,8.382,0,0,0-1.05-2.85l-44.85-68.39L266.03,346.15l44.22,33.22a4.2,4.2,0,0,0,6.64-2.54L352.14,208.1A8.1,8.1,0,0,0,352.16,204.96Z"/><path fill="#4ca987" d="M371.79,179.14l-12.53,28.58-7.09-2.76h-.01a8.382,8.382,0,0,0-1.05-2.85l-14.93-22.77.31-.2Z"/><path fill="#5fcda4" d="M425.42 182.15a.429.429 0 0 1 .59.56l-19.93 41.73-16.86-23.28zM181.46 142.68l-39.71 69.25a8.491 8.491 0 0 0-.26 6.38L198.7 377.59a4.193 4.193 0 0 0 6.71 1.74l35.83-31.38v-.01z"/><path fill="#387f62" d="M374.13 180.33l15.09 20.83 16.86 23.28a.746.746 0 0 1-.88 1.13l-45.94-17.85 12.53-28.58A2.876 2.876 0 0 1 374.13 180.33zM123.15 179.14l12.48 28.47L89.74 225.57a.746.746 0 0 1-.88-1.13l16.86-23.28 15.09-20.83A2.876 2.876 0 0 1 123.15 179.14z"/><polygon fill="#285944" points="181.46 142.715 190.044 172.514 254.205 63 227.2 63 181.46 142.715"/><path fill="#45a37d" d="M181.46,142.68l-39.71,69.25a8.491,8.491,0,0,0-.26,6.38l8.87,24.695L190.144,172.5Z"/></svg>