<svg xmlns="http://www.w3.org/2000/svg" data-name="Layer 1" viewBox="0 0 512 512"><path fill="#e8c5c1" d="M446.75,112.267l22.58,54.72-29.93,45.03-24.79-51.03,30.15-48.88A1.122,1.122,0,0,1,446.75,112.267Z"/><path fill="#ffe8e6" d="M490.98,134.407,290.72,435.717l117.67-2.91a15.485,15.485,0,0,0,14.86-12.36l69.72-285.16A1.113,1.113,0,0,0,490.98,134.407Z"/><path fill="#b597fc" d="M262.72,436.416,258.35,71.687a1.09,1.09,0,0,0-1.01.53l-85.43,140.42-1.58.59L253,436.527v.13Z"/><path fill="#fdddd8" d="M385.56,101.177a1.12,1.12,0,0,0-2.06.11L276.16,436.077l14.56-.36,148.68-223.7Z"/><path fill="#ffe8e6" d="M15,135.077a1.115,1.115,0,0,0-1.99.83l76.41,291.18a15.486,15.486,0,0,0,15.68,13.23l135.81-3.36Z"/><path fill="#ddbfbc" d="M334.49,91.737l34.38,55.19-24.46,76.29L300.18,144.8l32.41-53.07A1.118,1.118,0,0,1,334.49,91.737Z"/><path fill="#8669f1" d="M259.27,72.257a1.093,1.093,0,0,0-.92-.57l4.37,364.729,13.44-.339,68.25-212.85v-.01Z"/><path fill="#fdddd8" d="M128.96,101.487a1.115,1.115,0,0,0-2.08.01L81.17,223.487h-.01l159.75,213.47,12.09-.3v-.13Z"/><path fill="#ddbfbc" d="M179.93,91.647l33.62,52.55-41.64,68.44-1.58.59-25.47-68.8,33.19-52.71A1.113,1.113,0,0,1,179.93,91.647Z"/><path fill="#e8c5c1" d="M67.36,111.887l35.81,52.89-22,58.71h-.01L39.9,168.347l25.52-56.29A1.115,1.115,0,0,1,67.36,111.887Z"/><path fill="#dbc0bf" d="M119.42,427.087,57.8,192.27,15,135.077a1.115,1.115,0,0,0-1.99.83l76.41,291.18a15.486,15.486,0,0,0,15.68,13.23l25.318-.627A15.464,15.464,0,0,1,119.42,427.087Z"/></svg>