<svg xmlns="http://www.w3.org/2000/svg" data-name="Layer 1" viewBox="0 0 512 512"><polygon fill="#8d8db2" points="395.65 299.97 376.1 336.81 336.53 326.3 336.67 321.71 337.97 279.58 395.65 299.97"/><path fill="#8d8db2" d="M219.98,236.18,136.06,294.5a10.9,10.9,0,0,0,1.4,1.91l19.78,21.69a11.02,11.02,0,0,0,8.14,3.6h65.87l52.85-49.52Z"/><path fill="#59597a" d="M342.29,152.11c-.13.02-.26.05-.39.07l-3.93,127.4,57.68,20.39,16.89-31.83Z"/><path fill="#6d6d93" d="M395.65 299.97L376.1 336.81l66.83 5.57 50.21-35.22a6.73 6.73 0 0 0 2.85-5.93zM79.69 136.51l72.23 96.08L68.59 219.37a6.044 6.044 0 0 0 .13-3.35L50.5 141.61a6.082 6.082 0 0 1 5.91-7.53H74.83A6.081 6.081 0 0 1 79.69 136.51z"/><path fill="#4f4f6d" d="M492.4,246.08l3.59,55.15-100.34-1.26,16.89-31.83,46.17-61.26L490.67,242A6.656,6.656,0,0,1,492.4,246.08Z"/><path fill="#6d6d93" d="M341.9 152.18l-2.84 91.97-.19-.01-89.06 8.79h-.01l-29.82-16.75 119.25-82.86A7.182 7.182 0 0 1 341.9 152.18zM345.05 152.25l80.79 20.2a6.674 6.674 0 0 1 3.34 1.99l29.53 32.44-46.17 61.26L342.29 152.11A7.148 7.148 0 0 1 345.05 152.25z"/><path fill="#59597a" d="M479.51,316.72l-36.58,25.66,35.32,4.41a2.411,2.411,0,0,0,2.71-2.52Z"/><path fill="#8d8db2" d="M68.59,219.37a6.1,6.1,0,0,1-1.67,2.59l-48.94,44.8a6.084,6.084,0,0,0,3.63,10.55l28.06,2.25a6.1,6.1,0,0,0,3.06-.56l99.19-46.41Z"/><path fill="#59597a" d="M336.33,321.7,215.32,377.69a2.421,2.421,0,0,1-3.29-3.02l19.22-52.97,52.85-49.52a7.789,7.789,0,0,1,1.58,1.17Z"/><path fill="#4f4f6d" d="M338.87,244.14l-89.06,8.79,34.29,19.25a7.789,7.789,0,0,1,1.58,1.17l50.65,48.35.34.01,2.39-77.56Z"/><path fill="#59597a" d="M177.05,266.01,136.06,294.5a10.52,10.52,0,0,1-.94-2.11L120.49,247.3l31.43-14.71Z"/><path fill="#545472" d="M341.159,176.182l.741-24a7.182,7.182,0,0,0-2.67,1.14L219.98,236.18,239.241,247Z"/><path fill="#545470" d="M91.72,217.02,73.5,142.57a6.159,6.159,0,0,1,4.726-7.485A6.1,6.1,0,0,0,74.83,134H56.41a6.114,6.114,0,0,0-5.91,7.57l18.22,74.45a6.044,6.044,0,0,1-.13,3.35l21.5,3.411a6.09,6.09,0,0,0,1.5-2.411h0A6.044,6.044,0,0,0,91.72,217.02Z"/><path fill="#666684" d="M156.46,307.56a11.41,11.41,0,0,1-1.39-1.985L239,247.217V247.2l.255-.194-19.27-10.82L136.063,294.5a10.83,10.83,0,0,0,1.4,1.909l19.78,21.84A11.165,11.165,0,0,0,165.38,322H169.4Z"/><path fill="#6f6f8c" d="M44.61,278.31a6.084,6.084,0,0,1-3.63-10.55l48.94-44.8c.061-.056.112-.12.171-.179l-21.5-3.411a6.1,6.1,0,0,1-1.67,2.59l-48.94,44.8a6.084,6.084,0,0,0,3.63,10.55l28.06,2.25a6.1,6.1,0,0,0,3.06-.56l.071-.033Z"/></svg>