<svg xmlns="http://www.w3.org/2000/svg" data-name="Layer 1" viewBox="0 0 512 512"><path fill="#83d3ff" d="M302.61 19.35l19 19.61L263.88 60.87l35.27-41.41A2.34 2.34 0 0 1 302.61 19.35zM239.78 60.87v.01L182.97 37.57 202.4 16.74a2.354 2.354 0 0 1 3.57.17zM212.63 103.32a2.543 2.543 0 0 0 .16.99l-.17.07.01 39.53-34.73 73.4L166.47 111.88l47.61-25.94.25.47z"/><path fill="#aee6ff" d="M289.61,86.09v18.04a2.607,2.607,0,0,1-.91,1.97L254,135.8a2.476,2.476,0,0,1-3.17.03l-37.25-30.41a2.425,2.425,0,0,1-.79-1.11,2.543,2.543,0,0,1-.16-.99l1.7-16.91-.25-.47,37.28-20.31Z"/><path fill="#3a91cc" d="M213.58,105.42l37.25,30.41a2.476,2.476,0,0,0,3.17-.03l34.7-29.7a2.607,2.607,0,0,0,.91-1.97v41.79l-37.39,71.39-38.64-71.3a2.579,2.579,0,0,1-.95-2.1l-.01-39.53.17-.07A2.425,2.425,0,0,0,213.58,105.42Z"/><path fill="#4eadf9" d="M213.58,146.01a2.579,2.579,0,0,1-.95-2.1l-34.73,73.4h74.32Z"/><polygon fill="#83d3ff" points="337.82 111.88 337.89 111.81 337.97 111.88 326.53 217.31 289.61 145.92 289.61 104.13 289.61 86.09 337.82 111.88"/><polygon fill="#4eadf9" points="289.61 145.92 252.22 217.31 326.53 217.31 289.61 145.92"/><polygon fill="#4eadf9" points="163.39 29.54 130.9 72.01 166.47 111.88 251.36 65.63 163.39 29.54"/><path fill="#4ca987" d="M177.9 217.31L31.51 403.04a7.407 7.407 0 0 0 1.82 10.82L65.8 434.68 208.24 217.31zM113.58 465.31l46.04 29.52A7.4 7.4 0 0 0 163.6 496l75.95-278.69H225.83zM252.22 217.31l1.33 278.01V496h92.94a7.549 7.549 0 0 0 2.17-.32l-85.6-278.37z"/><polygon fill="#4ca987" points="440.72 432.56 298.58 217.31 280.15 217.31 397.02 463.2 441.16 433.2 440.72 432.56"/><polygon fill="#4eadf9" points="338.65 32.49 251.36 65.63 337.82 111.88 337.89 111.81 376.06 72.45 338.65 32.49"/><path fill="#6ce5b4" d="M480.3,396.64,326.53,217.31H298.58L440.72,432.56l.44.64,37.68-25.61A7.416,7.416,0,0,0,480.3,396.64Z"/><polygon fill="#6ce5b4" points="208.24 217.31 65.8 434.68 113.58 465.31 225.83 217.31 208.24 217.31"/><polygon fill="#6ce5b4" points="239.55 217.31 163.6 496 253.55 496 253.55 495.32 252.22 217.31 239.55 217.31"/><path fill="#6ce5b4" d="M263.06,217.31l85.6,278.37a7.4,7.4,0,0,0,1.98-.96l46.38-31.52L280.15,217.31Z"/><path fill="#3a91cc" d="M251.89,86.54a11.18,11.18,0,1,1-11.16,11.18A11.171,11.171,0,0,1,251.89,86.54Z"/><path fill="#397c61" d="M63.33,413.86a7.407,7.407,0,0,1-1.82-10.82L207.9,217.31h-30L31.51,403.04a7.407,7.407,0,0,0,1.82,10.82L65.8,434.68l8.876-13.545Z"/></svg>