<svg xmlns="http://www.w3.org/2000/svg" data-name="Layer 1" viewBox="0 0 512 512"><path fill="#9fabb7" d="M123.38 124.64a8.086 8.086 0 0 0-1.01 1.39l-.12-.13L69.88 96.13a5.927 5.927 0 0 1-2.82-6.59L82.21 28.67a5.908 5.908 0 0 1 4.82-4.42l51.41-8.18a5.9 5.9 0 0 1 6.19 3.16l26.69 52.23.21.38a8.223 8.223 0 0 0-2.04 1.64zM384.71 130.71a7.721 7.721 0 0 0-1.06-1.42L331.84 73.65a8.057 8.057 0 0 0-2.56-1.86l.76-.07 26.38-46.13a5.9 5.9 0 0 1 6.37-2.85l61.41 13.1a5.915 5.915 0 0 1 4.58 4.67l9.98 51.44a5.929 5.929 0 0 1-2.64 6.14l-51.27 32.48z"/><path fill="#66717c" d="M305.9,349.69l-120.78,2.59-.03-.01a5.247,5.247,0,0,0-.02-2.61l-13.75-51.7.01-1.03,140.11.78-8.91,46.05A5.241,5.241,0,0,0,305.9,349.69Z"/><path fill="#86909d" d="M394.08,451.5l-28.39,39.9a10.158,10.158,0,0,1-8.28,4.28h-.03l-59.64-.04,40.93-62.56a6.261,6.261,0,0,0,1.14-2.7l.1.02Z"/><path fill="#566068" d="M481.13,469.83l-19.79-45.37a7.486,7.486,0,0,0-5.06-4.61l-33.84-8.95a10.68,10.68,0,0,1-1.36,2.67L365.69,491.4a10.158,10.158,0,0,1-8.28,4.28l98.06.32a7.446,7.446,0,0,0,5.36-2.24l18.63-16.07A7.506,7.506,0,0,0,481.13,469.83Z"/><path fill="#86909d" d="M162.84,430.38a6.546,6.546,0,0,0,.86,2.19l39.4,63-55.96-.04a10.164,10.164,0,0,1-8.66-4.84l-21.83-35.35,46.07-24.94Z"/><path fill="#9fabb7" d="M419.52,231.92l-34.1-99.68a7.608,7.608,0,0,0-.71-1.53l-36.6,37.51.59,71.85,33.92,35.97,32.2-27.15A15.608,15.608,0,0,0,419.52,231.92Z"/><path fill="#3d464c" d="M313.95,203.23l-119.77,2.22-73,74.73,15.1,12.89a15.538,15.538,0,0,0,10,3.72l204.61,1.14a15.528,15.528,0,0,0,10.1-3.66l21.62-18.23h.01Z"/><path fill="#566068" d="M163.7,432.57a6.546,6.546,0,0,1-.86-2.19,6.44,6.44,0,0,1,.14-3.05l19.96-71.97a5.232,5.232,0,0,0,2.15-3.09l.03.01,120.78-2.59,33.47,77.04a6.4,6.4,0,0,1,.44,3.65,6.261,6.261,0,0,1-1.14,2.7l-40.93,62.56-94.64-.07Z"/><path fill="#66717c" d="M422.61,318.88l-51.24,51.18a5.253,5.253,0,0,1-5.47,1.22l-60-21.59,33.47,77.04a6.4,6.4,0,0,1,.44,3.65l.1.02,54.17,21.1,27-37.93a10.68,10.68,0,0,0,1.36-2.67,10.322,10.322,0,0,0,.53-3.27v-86.7A5.9,5.9,0,0,0,422.61,318.88Z"/><path fill="#566068" d="M122.37,126.03a8.593,8.593,0,0,0-.67,1.48L84.72,236.14a15.588,15.588,0,0,0,4.63,16.89l31.83,27.15,37.28-38.16.3-75.74Z"/><path fill="#86909d" d="M421.31,316.77,384.85,278.4l-.32-.34-1.92-2.02-21.62,18.23a15.528,15.528,0,0,1-10.1,3.66l-39.45-.22-8.91,46.05a5.241,5.241,0,0,0,3.37,5.93l60,21.59a5.253,5.253,0,0,0,5.47-1.22l51.24-51.18A6.006,6.006,0,0,0,421.31,316.77Z"/><path fill="#9fabb7" d="M182.94,355.36a5.009,5.009,0,0,1-.68.39l-51.83,24.73a5.253,5.253,0,0,1-6.53-1.71L81.74,319.14a5.861,5.861,0,0,0-.26,2.17l5.21,83.24a10.05,10.05,0,0,0,.57,2.76,9.626,9.626,0,0,0,.94,1.97l28.44,46.06h.01l46.07-24.94.12-.02a6.44,6.44,0,0,1,.14-3.05Z"/><path fill="#66717c" d="M138.48,490.69,88.2,409.28a9.626,9.626,0,0,1-.94-1.97L56.22,413.4a2.91,2.91,0,0,0-2.17,1.86L30.59,477.7a2.962,2.962,0,0,0,1.22,3.57l22.81,13.98a2.933,2.933,0,0,0,1.55.44l90.97-.16A10.164,10.164,0,0,1,138.48,490.69Z"/><path fill="#86909d" d="M185.07,349.66l-13.75-51.7.01-1.03-25.05-.14a15.538,15.538,0,0,1-10-3.72l-15.1-12.89-.01.01L83.32,316.58a6.06,6.06,0,0,0-1.58,2.56l42.16,59.63a5.253,5.253,0,0,0,6.53,1.71l51.83-24.73a5.009,5.009,0,0,0,.68-.39,5.269,5.269,0,0,0,2.13-5.7Z"/><path fill="#566068" d="M383.65,129.29,331.84,73.65a8.057,8.057,0,0,0-2.56-1.86,8.265,8.265,0,0,0-1.82-.6l-75.37-15.3a8.127,8.127,0,0,0-1.63-.17v141.9l35.7,33.65a2.622,2.622,0,0,0,1.07-.67l97.48-99.89A7.721,7.721,0,0,0,383.65,129.29Z"/><path fill="#9fabb7" d="M285.17,231.41l-69.6-3.49a2.681,2.681,0,0,1-.93-.21l35.82-30.09,35.7,33.65A2.558,2.558,0,0,1,285.17,231.41Z"/><path fill="#86909d" d="M248.84,55.88,173.98,70.92a8.531,8.531,0,0,0-2.45.92,8.223,8.223,0,0,0-2.04,1.64l-46.11,51.16a8.086,8.086,0,0,0-1.01,1.39L213.7,227.04a2.7,2.7,0,0,0,.94.67l35.82-30.09V55.72A8.723,8.723,0,0,0,248.84,55.88Z"/><polygon fill="#e87187" points="194.18 205.45 158.46 242.02 136.17 220.04 136.17 192.43 158.76 166.28 194.18 205.45"/><polygon fill="#e87187" points="348.11 168.22 313.95 203.23 348.7 240.07 369.02 220.04 369.02 192.43 348.11 168.22"/><path fill="#72808c" d="M99.88,96.13a5.927,5.927,0,0,1-2.82-6.59l15.15-60.87a5.908,5.908,0,0,1,4.82-4.42l27.9-4.439-.3-.581a5.9,5.9,0,0,0-6.19-3.16L87.03,24.25a5.908,5.908,0,0,0-4.82,4.42L67.06,89.54a5.927,5.927,0,0,0,2.82,6.59l52.37,29.77.12.13a8.086,8.086,0,0,1,1.01-1.39l9.03-10.018Z"/><path fill="#3f474c" d="M119.35,253.03a15.588,15.588,0,0,1-4.63-16.89L144.043,150,122.37,126.03a8.593,8.593,0,0,0-.67,1.48L84.72,236.14a15.588,15.588,0,0,0,4.63,16.89l31.83,27.15,13.636-13.958Z"/><path fill="#4e5860" d="M84.62,495.25,61.81,481.27a2.962,2.962,0,0,1-1.22-3.57l23.46-62.44a2.91,2.91,0,0,1,2.17-1.86l4.035-.792L88.2,409.28a9.626,9.626,0,0,1-.94-1.97L56.22,413.4a2.91,2.91,0,0,0-2.17,1.86L30.59,477.7a2.962,2.962,0,0,0,1.22,3.57l22.81,13.98a2.933,2.933,0,0,0,1.55.44l29.623-.052A2.911,2.911,0,0,1,84.62,495.25Z"/><path fill="#646d77" d="M111.48,321.31a5.861,5.861,0,0,1,.26-2.17,6.06,6.06,0,0,1,1.58-2.56L137.1,293.713c-.279-.208-.558-.416-.824-.643l-15.1-12.89-.01.01L83.32,316.58a6.06,6.06,0,0,0-1.58,2.56l32.479,45.938Z"/><path fill="#7c8c99" d="M118.2,409.11a8.343,8.343,0,0,1-.94-1.8,10.05,10.05,0,0,1-.57-2.76l-2.471-39.472L81.74,319.14a5.861,5.861,0,0,0-.26,2.17l5.21,83.24a10.05,10.05,0,0,0,.57,2.76,8.343,8.343,0,0,0,.94,1.8L116.64,455h.01l22.614-12.072Z"/></svg>