<svg xmlns="http://www.w3.org/2000/svg" data-name="Layer 1" viewBox="0 0 512 512"><path fill="#48afaa" d="M328.83,379.69l73.4,79.77a5.981,5.981,0,0,1-4.46,1.98H255.07l.02-12.82.91.87Z"/><polygon fill="#97efef" points="106.36 137.89 106.36 307.84 189.93 228.73 106.36 137.89"/><path fill="#97efef" d="M402.41,134.08l-.01-.01-.91-.76-83.45,92.35,85.75,82.18V137.89A5.914,5.914,0,0,0,402.41,134.08Z"/><path fill="#4fc9c6" d="M255.3,106.94a.276.276,0,0,0-.47-.01l-.22.35-96.66,24.61H112.37a6.007,6.007,0,0,0-6.01,6l83.57,90.84,65.51-62.01.07-59.43Z"/><path fill="#7ce5e9" d="M403.79,307.84v147.6a5.932,5.932,0,0,1-1.56,4.02l-73.4-79.77Z"/><path fill="#48afaa" d="M397.77,131.89H348.74l-93.23-24.6-.07,59.43.56-.53,62.04,59.47,83.45-92.35.91.76A6,6,0,0,0,397.77,131.89Z"/><polygon fill="#97efef" points="255.26 307.84 255.09 448.62 256 449.49 403.79 307.84 255.26 307.84"/><polygon fill="#4fc9c6" points="256 166.19 255.44 166.72 255.26 307.84 403.79 307.84 256 166.19"/><path fill="#4fc9c6" d="M255.09,448.62l-.02,12.82H112.37a5.943,5.943,0,0,1-4.45-1.98l72.97-81.07Z"/><polygon fill="#7ce5e9" points="106.36 307.84 255.09 448.62 255.26 307.84 106.36 307.84"/><path fill="#7ce5e9" d="M106.36,137.89V277.65L16.44,218.02a2.008,2.008,0,0,1,.26-2.78Z"/><polygon fill="#48afaa" points="106.36 307.84 255.26 307.84 255.44 166.72 106.36 307.84"/><path fill="#7ce5e9" d="M495.32,211.47a1.9,1.9,0,0,1,.28,2.62l-91.81,63.56V137.89a5.914,5.914,0,0,0-1.38-3.81Z"/><path fill="#48afaa" d="M180.89 378.39l-72.97 81.07a5.932 5.932 0 0 1-1.56-4.02V307.84zM182.77 50.56l144.58.09a2.058 2.058 0 0 0-1.1.44l-70.74 56.2-.21-.35a.276.276 0 0 0-.47-.01l-.22.35L184 51.03a2.081 2.081 0 0 0-1.23-.46z"/><path fill="#4fc9c6" d="M360.65,118.55,329.53,51.87a2.13,2.13,0,0,0-1.64-1.22h-.54a2.058,2.058,0,0,0-1.1.44l-70.74,56.2,42.61,71.54a1.717,1.717,0,0,0,2.68.35l59.5-58.69A1.694,1.694,0,0,0,360.65,118.55Z"/><path fill="#7ce5e9" d="M184,51.03a2.081,2.081,0,0,0-1.23-.46,2.117,2.117,0,0,0-2.01,1.15l-34.64,66.8a1.714,1.714,0,0,0,.31,2.01l59.52,58.7a1.72,1.72,0,0,0,2.65-.3l46.01-71.65Z"/><path fill="#62b7b7" d="M106 175.144V137.89L16.52 215.24a2 2 0 0 0-.17 2.78l22.6 15.08zM198.729 65.117a2.327 2.327 0 0 1 1.472-1.181L184 51.03a2.081 2.081 0 0 0-1.23-.46 2.117 2.117 0 0 0-2.01 1.15l-34.64 66.8a1.714 1.714 0 0 0 .31 2.01l15.591 15.376z"/></svg>