<svg xmlns="http://www.w3.org/2000/svg" data-name="Layer 1" viewBox="0 0 512 512"><path fill="#e87187" d="M256.87,233.41l.15,261a1.588,1.588,0,0,0,1.59,1.59h22.33a1.588,1.588,0,0,0,1.59-1.59v-261Z"/><path fill="#4e7fa0" d="M350.44 243.74a69.139 69.139 0 0 0-26.69-21.78L257.53 191.4l-.01.02-.41.82a3.564 3.564 0 0 0-.07 2.55l62.69 168.76a1.914 1.914 0 0 0 3.53.15l43.56-95.03a4.531 4.531 0 0 0 .37-1.29zM429.39 124.74L333.72 80.58a4.41 4.41 0 0 0-1.32-.37L308.9 96.56a66.638 66.638 0 0 0-21.54 26.25L257.24 188.5a4.681 4.681 0 0 0 3.57.18l168.46-60.44A1.885 1.885 0 0 0 429.39 124.74z"/><path fill="#4e7fa0" d="M82.73,252.56a1.893,1.893,0,0,0-.12,3.51l95.67,44.16a4.21,4.21,0,0,0,1.3.37l23.52-16.36A66.678,66.678,0,0,0,224.64,258l32.47-65.76a4.486,4.486,0,0,1,.41-.82l.01-.02a6.649,6.649,0,0,1,3.28-2.72Z"/><path fill="#5fa8ed" d="M366.94,265.31a4.453,4.453,0,0,1,.25,2.07l-16.75-23.64a69.139,69.139,0,0,0-26.69-21.78L257.53,191.4a6.649,6.649,0,0,1,3.28-2.72l49.8-17.87c.04-.01.07-.03.11-.04a19.458,19.458,0,0,1,24.86,11.45Z"/><path fill="#5fa8ed" d="M260.81,188.68l-59.32,21.28c-.01,0-.02.01-.03.01a19.547,19.547,0,0,1-25.04-11.39L145.06,115.5a4.453,4.453,0,0,1-.25-2.07l16.75,23.64a69.114,69.114,0,0,0,26.69,21.77l68.99,29.67v-.01A4.681,4.681,0,0,0,260.81,188.68Z"/><path fill="#5fa8ed" d="M332.4,80.21,308.9,96.56a66.638,66.638,0,0,0-21.54,26.25L257.24,188.5a4.644,4.644,0,0,1-2.42-2.61l-18.81-50.38a20.046,20.046,0,0,1-.76-2.55,19.158,19.158,0,0,1,12.16-22.29l82.94-30.24A4.216,4.216,0,0,1,332.4,80.21Z"/><path fill="#4e7fa0" d="M254.82,185.89,192.27,17.26a1.914,1.914,0,0,0-3.53-.16l-43.56,95.03a4.289,4.289,0,0,0-.37,1.3l16.75,23.64a69.114,69.114,0,0,0,26.69,21.77l68.99,29.67v-.01A4.644,4.644,0,0,1,254.82,185.89Z"/><path fill="#5fa8ed" d="M257.04,194.79l18.68,50.29c3.76,10.07-1.06,21.38-11.13,25.05l-7.72,2.81-75.22,27.43a4.441,4.441,0,0,1-2.07.23l23.52-16.36A66.678,66.678,0,0,0,224.64,258l32.47-65.76A3.564,3.564,0,0,0,257.04,194.79Z"/><path fill="#39667f" d="M118.333 239.789L82.73 252.56a1.893 1.893 0 0 0-.12 3.51l95.67 44.16a4.21 4.21 0 0 0 1.3.37l23.52-16.36c1.469-1.063 2.884-2.188 4.254-3.36zM175.06 115.5a4.453 4.453 0 0 1-.25-2.07h0a4.289 4.289 0 0 1 .37-1.3l28.9-63.04L192.27 17.26a1.914 1.914 0 0 0-3.53-.16l-43.56 95.03a4.289 4.289 0 0 0-.37 1.3l16.75 23.64a69.114 69.114 0 0 0 26.69 21.77l3.784 1.627z"/><path fill="#4b89bc" d="M206.42,198.58l-14.386-38.113-3.784-1.627a69.114,69.114,0,0,1-26.69-21.77l-16.75-23.64a4.453,4.453,0,0,0,.25,2.07l31.36,83.08a19.547,19.547,0,0,0,25.04,11.39c.01,0,.02-.01.03-.01l10.247-3.676A19.344,19.344,0,0,1,206.42,198.58Z"/></svg>