<svg xmlns="http://www.w3.org/2000/svg" data-name="Layer 1" viewBox="0 0 512 512"><path fill="#ffd8b7" d="M265.01,92.18a4.192,4.192,0,0,1,3.43,6.33l-37.9,63.9-7.79-54.82,7.28-16.9Z"/><path fill="#e2bda1" d="M430.46,382.1l-4.31,35.32-37.4,9.78c2.12-11.72,3.96-21.89,3.96-21.89l34.09-22.6A4.494,4.494,0,0,1,430.46,382.1Z"/><path fill="#fbedce" d="M234.38,358.03l-34.62,51.19a6.113,6.113,0,0,0-5.99-1.73l-43.62,11.39-8.1-43.63a6.158,6.158,0,0,0-.38-7.08l-32.44-41.08a6.161,6.161,0,0,1-1.31-3.52l81.07,2.48Z"/><path fill="#ffd8b7" d="M142.05,375.25l8.1,43.63a6.109,6.109,0,0,0-3.72,2.82l-14.48,24.6-18.97-19.1,2.43-9.17a6.268,6.268,0,0,1,.74-1.7Z"/><path fill="#c6a58f" d="M298.54,495.8v.01L187.48,496a2.131,2.131,0,0,1-1.68-3.51l12.31-14.57a2.158,2.158,0,0,1,1.49-.75l49.22-.27a2.129,2.129,0,0,0,1.53-.8Z"/><polygon fill="#ffd8b7" points="199.76 409.22 233.32 444.93 255.06 459.46 255.06 327.45 199.76 409.22"/><path fill="#e2bda1" d="M167.63,296.06l21.36,29.99-81.07-2.48-3.05-67.17,13.68-1.97a15.011,15.011,0,0,0,3.75-2.56l8.33-7.74Z"/><path fill="#c6a58f" d="M189.84,239.6l-22.21,56.46-37-51.93,11.42-10.61,35.35-32.85,3.81-2.74,7.48,38.78A8.585,8.585,0,0,0,189.84,239.6Z"/><path fill="#e2bda1" d="M255.06,409.22l127.63,85.94a2.08,2.08,0,0,1-1.31.5l-82.84.15v-.01l-48.19-19.7,8.8-11.13a2.141,2.141,0,0,0-.48-3.1l-3.61-2.41Z"/><path fill="#c6a58f" d="M426.15,417.42l-3.35,27.51-39.01,9.79c1.23-6.89,3.19-17.74,4.96-27.52Z"/><path fill="#ffd8b7" d="M457.4,422.84a4.584,4.584,0,0,1-1.92,6.57L422.8,444.93l3.35-27.51,4.31-35.32a4.534,4.534,0,0,1,2.73,2Z"/><path fill="#e2bda1" d="M134.84,460.96a6.127,6.127,0,0,1-2.46,7.22l-8.72,5.59a6.1,6.1,0,0,1-8.43-1.83l-8.52-13.22a6.171,6.171,0,0,1-.77-4.9l7.04-26.62,18.97,19.1a6.065,6.065,0,0,0-.49,5.17Z"/><path fill="#fbedce" d="M382.69,495.16,255.06,409.22V388.3H256l120.51-36.78h.01l3.72,5.77,12.37,38.29a16.389,16.389,0,0,1,.1,9.73s-1.84,10.17-3.96,21.89c-1.77,9.78-3.73,20.63-4.96,27.52-.77,4.3-1.27,7.08-1.27,7.15l.93,31.59A2.131,2.131,0,0,1,382.69,495.16Z"/><path fill="#ffd8b7" d="M293.36,270.8l-38.3,56.65-20.68,30.58-45.39-31.98-21.36-29.99,22.21-56.46a8.341,8.341,0,0,0,4.88,3.62l94.19,25.52A14.667,14.667,0,0,1,293.36,270.8Z"/><path fill="#e2bda1" d="M351.27,312.37l25.25,39.15h-.01L256,388.3h-.94V327.45l38.3-56.65,53.47,36.99A16.276,16.276,0,0,1,351.27,312.37Z"/><polygon fill="#c6a58f" points="222.75 107.59 230.54 162.41 185 195.2 210.65 135.66 222.75 107.59"/><path fill="#fbedce" d="M230.03 32.13V90.69l-7.28 16.9-12.1 28.07L183.9 48.3l16.34-30.11a4.174 4.174 0 0 1 5.67-1.68l21.93 11.93A4.194 4.194 0 0 1 230.03 32.13zM134.4 162.41l7.65 71.11-11.42 10.61L70.55 195.2l16.11-18.68a15.125 15.125 0 0 1 7.98-4.83z"/><polygon fill="#ffd8b7" points="210.65 135.66 185 195.2 181.21 197.92 181.21 197.93 177.4 200.67 158.47 156.8 183.9 48.3 210.65 135.66"/><path fill="#ffd8b7" d="M130.63,244.13l-8.33,7.74a15.011,15.011,0,0,1-3.75,2.56l-13.68,1.97-14.21,2.05a11.615,11.615,0,0,1-8.72-2.29L62.83,241.47a15.074,15.074,0,0,1-5.16-7.32l-3.03-9.37a15.119,15.119,0,0,1,2.93-14.54L70.55,195.2Z"/><polygon fill="#e2bda1" points="158.47 156.8 177.4 200.67 142.05 233.52 134.4 162.41 158.47 156.8"/><path fill="#ccbfa6" d="M172.05,375.25a6.158,6.158,0,0,0-.38-7.08l-32.44-41.08a6.15,6.15,0,0,1-1.195-2.6l-30.115-.921a6.161,6.161,0,0,0,1.31,3.52l32.44,41.08a6.158,6.158,0,0,1,.38,7.08l8.1,43.63,28.613-7.471Z"/><polygon fill="#d6b196" points="229.7 409.22 255 371.81 255 327.45 199.73 409.22 233.275 444.93 255 459.46 255 436.141 229.7 409.22"/><path fill="#aa8c77" d="M138.953 255.812L130.63 244.13l-8.33 7.74a15.011 15.011 0 0 1-3.75 2.56l-13.68 1.97 3.05 67.17 29.909.915L134.87 256.4zM328.662 495.756l-48.2-19.656 8.743-11.13a2.153 2.153 0 0 0-.539-3.1L285 459.46V429.421l-30-20.2v50.24l3.64 2.41a2.144 2.144 0 0 1 .5 3.1l-8.563 11.13L299 495.8v.01z"/><path fill="#ccbfa6" d="M213.9 48.3l11.5-21.19L205.91 16.51a4.174 4.174 0 0 0-5.67 1.68L183.9 48.3l16.992 55.493zM100.55 195.2l16.11-18.68a15.125 15.125 0 0 1 7.98-4.83l10.495-2.45-.735-6.83-39.76 9.28a15.125 15.125 0 0 0-7.98 4.83L70.55 195.2l17.617 14.348z"/><polygon fill="#d6b196" points="188.469 156.8 200.892 103.793 183.9 48.3 158.47 156.8 177.295 200.67 181 197.93 181 197.92 184.895 195.2 194.941 172.003 188.469 156.8"/><path fill="#d6b196" d="M92.83,241.47a15.074,15.074,0,0,1-5.16-7.32l-3.03-9.37a15.119,15.119,0,0,1,2.93-14.54l.6-.692L70.55,195.2,57.57,210.24a15.119,15.119,0,0,0-2.93,14.54l3.03,9.37a15.074,15.074,0,0,0,5.16,7.32l19.11,14.69a11.615,11.615,0,0,0,8.72,2.29l14.21-2.05,6.217-.895Z"/></svg>