<svg xmlns="http://www.w3.org/2000/svg" data-name="Layer 1" viewBox="0 0 512 512"><rect width="12" height="219.974" x="217.708" y="276.026" fill="#a2a8ba"/><polygon fill="#6d7486" points="229.71 496 202.34 496 229.71 459.74 229.71 496"/><path fill="#bf9b77" d="M244.6,47.12,215.72,67.4a1.1,1.1,0,0,0-.35-.64l-10.54-9.37a1.126,1.126,0,0,0-.69-.27l18.65-40.97a1.331,1.331,0,0,1,.44.38L244.4,46.64A1.359,1.359,0,0,1,244.6,47.12Z"/><path fill="#fb6771" d="M362.08,232.97l-24.5-38.56-68.14,6.74,92.71,34.95A2.993,2.993,0,0,0,362.08,232.97Z"/><path fill="#993d4a" d="M337.58,194.41l-68.14,6.74-12.54-4.73-15.04-5.67,36.15-40.42,58.81,43.27A3.083,3.083,0,0,1,337.58,194.41Z"/><path fill="#bf9b77" d="M195.61,190.95l-15.9-7.69L156,234.04l.15,1.62a3.7,3.7,0,0,0,1.62,2.73l45.05,30.17,8.88-43.9Z"/><path fill="#efc597" d="M222.2 16H183.48a1.274 1.274 0 0 0-1.03.53L156.66 53.08a1.276 1.276 0 0 0-.19 1.07l4.52 16.13 21.32 4.43 21.12-17.35a1.055 1.055 0 0 1 .71-.24l18.65-40.97v-.01A1.315 1.315 0 0 0 222.2 16zM244.6 47.12L215.72 67.4a1.054 1.054 0 0 1-.18.8l-65.42 93.76a3.652 3.652 0 0 0-.66 2.48l6.54 69.6 23.71-50.78 58.08-91.62a1.449 1.449 0 0 0 .18-.49l6.64-43.6A1.243 1.243 0 0 0 244.6 47.12zM260.21 238.96l-48.51-14.3-8.88 43.9 19.21 12.86a3.72 3.72 0 0 0 1.68.61 3.666 3.666 0 0 0 1.84-.29l99.94-43.67z"/><path fill="#fb6771" d="M256.9,196.42l3.31,42.54-32.14.43a2.943,2.943,0,0,1-2.13-.85L211.7,224.66l-15.18-14.8a3.143,3.143,0,0,1-.78-1.28l46.12-17.83Z"/><path fill="#ff8a95" d="M275.77 149.78a3.038 3.038 0 0 1 2.24.55l-36.15 40.42-46.12 17.83a3.229 3.229 0 0 1-.13-.88V190.95l40.68-34.43a2.914 2.914 0 0 1 1.47-.67zM256.9 196.42l3.31 42.54 65.28-.89 34.11-.46a2.952 2.952 0 0 0 2.55-1.51z"/><path fill="#cca37a" d="M174.47 66.15a1.276 1.276 0 0 1 .19-1.07l25.79-36.55a1.274 1.274 0 0 1 1.03-.53H217.4L223 16.15v-.01c0-.09-.59-.14-.8-.14H183.48a1.274 1.274 0 0 0-1.03.53L156.66 53.08a1.276 1.276 0 0 0-.19 1.07l4.52 16.13 15.542 3.229zM167.46 176.44a3.652 3.652 0 0 1 .66-2.48L233.54 80.2a1.054 1.054 0 0 0 .18-.8l6.762-4.749 4.128-27.1a1.243 1.243 0 0 0-.01-.43L215.72 67.4a1.054 1.054 0 0 1-.18.8l-65.42 93.76a3.652 3.652 0 0 0-.66 2.48l6.54 69.6 14.046-30.082z"/><path fill="#fb6771" d="M189.68,117.25l-9.57-25.37a4.413,4.413,0,0,1-.22-2.22l2.42-14.95L171.7,63.05a.5.5,0,0,0-.68-.07l-10.03,7.3,2.3,28.74a4.339,4.339,0,0,0,1.92,3.26l23.63,15.65A.568.568,0,0,0,189.68,117.25Z"/><path fill="#b0b5ca" d="M295.263,340.114,249.719,270.09a6,6,0,1,0-10.059,6.542l41.7,64.11-98.073,6.113.746,11.976,105.165-6.555.07,0a7.6,7.6,0,0,0,5.154-2.445A7.906,7.906,0,0,0,295.263,340.114Z"/><polygon fill="#6d7486" points="217.19 344.63 177.4 376.67 183.65 346.72 217.19 344.63"/></svg>