<svg xmlns="http://www.w3.org/2000/svg" data-name="Layer 1" viewBox="0 0 512 512"><path fill="#86909d" d="M140.86,34.04l-10.57,217a2.922,2.922,0,0,0,.22,1.25l70.86-54.38Z"/><path fill="#8669f1" d="M130.64,252.57a2.9,2.9,0,0,0,.72.88l109.05,90.21,66.7-67.71Z"/><path fill="#aaf2f0" d="M307.11,275.95,182.7,402.23a3.1,3.1,0,0,0-.34,3.93l48.92,70.57a2.959,2.959,0,0,0,1.37,1.09l86.77-200.23Z"/><path fill="#c1cdd3" d="M130.23,36.56,18.58,108.55a5.63,5.63,0,0,0,2.18,10.29l115.06,18.57h.01l5.03-103.37A16.241,16.241,0,0,0,130.23,36.56Z"/><path fill="#a27af1" d="M333.99,96.13l-49.66,38.11L240.41,267.11,327,278.59a4.705,4.705,0,0,0,5.33-4.6l2.56-178.32A2.746,2.746,0,0,0,333.99,96.13Z"/><path fill="#b597fc" d="M130.51,252.29a2.394,2.394,0,0,0,.13.28l109.77,14.54,43.92-132.87Z"/><path fill="#afb9bf" d="M150.42,38.46a16.352,16.352,0,0,0-9.56-4.42l60.51,163.87,82.96-63.67v-.01Z"/><path fill="#a0eaea" d="M327,278.59l-7.58-1L232.65,477.82a3,3,0,0,0,2.05.11l88.84-26.22a3.1,3.1,0,0,0,2.22-2.87l5.52-171.95A4.716,4.716,0,0,1,327,278.59Z"/><path fill="#b597fc" d="M493.29,108.06,336.01,95.53a2.664,2.664,0,0,0-1.12.14l-.99,69.13h.19l103.88,42.01a8.683,8.683,0,0,0,1.26-1.62l55.91-92.12A2.943,2.943,0,0,0,493.29,108.06Z"/><path fill="#8669f1" d="M334.09,164.8h-.19l-1.57,109.19a4.71,4.71,0,0,1-1.05,2.9l105.25-68.9a9.046,9.046,0,0,0,1.44-1.18Z"/><path fill="#686f77" d="M158.96,83.056,140.86,34.04l-10.57,217a2.922,2.922,0,0,0,.22,1.25L151.5,236.181Z"/><path fill="#6a57c9" d="M161.189,256.617,130.64,252.57a2.9,2.9,0,0,0,.72.88l109.05,90.21,11.674-11.851Z"/><path fill="#82bfbc" d="M195.36,390.16a3.061,3.061,0,0,1-.277-.5L182.7,402.23a3.1,3.1,0,0,0-.34,3.93l48.92,70.57a2.959,2.959,0,0,0,1.37,1.09l9.031-20.839Z"/><path fill="#a1abaf" d="M38.58,118.55,139.928,53.2l.932-19.163a16.241,16.241,0,0,0-10.63,2.52L18.58,108.55a5.63,5.63,0,0,0,2.18,10.29l15.572,2.513A5.519,5.519,0,0,1,38.58,118.55Z"/><path fill="#9582d1" d="M273.1,168.206,284.33,134.24,130.51,252.29a2.394,2.394,0,0,0,.13.28l27.746,3.675Z"/></svg>