<svg xmlns="http://www.w3.org/2000/svg" data-name="Layer 1" viewBox="0 0 512 512"><path fill="#b0b5ca" d="M257.13,297.05l1.72,94.14a.536.536,0,0,0-.05.11l-28-34.45a23.836,23.836,0,0,1-3.72-12.79V326.65Z"/><path fill="#dd8097" d="M359.32,330.73,283.9,286.97l-.01,18.18v.01L389.82,437.18a5.359,5.359,0,0,0,5.91,1.94l93.35-29.01a5.27,5.27,0,0,0,3-2.36Z"/><path fill="#72bcef" d="M226.69 174.43l-59.88-67.02a1.206 1.206 0 0 0-.24-.21h-.01l-64.34 66.13 124.84 52.68-.01-46.21A5.488 5.488 0 0 1 226.69 174.43zM345.44 107.2h-.01a1.206 1.206 0 0 0-.24.21l-61 68.28a5.335 5.335 0 0 1-.28 3.14l-.01 48.24h.01l126.04-53.56z"/><path fill="#9ba1b2" d="M257.29,296.9l-.16.15,1.72,94.14a.076.076,0,0,1,.02-.04l21.3-34.3a23.836,23.836,0,0,0,3.72-12.79v-18Z"/><path fill="#99dbff" d="M494.43 135.77L436.16 73.39a3.871 3.871 0 0 0-4.23-.23l-86.22 33.89a1.174 1.174 0 0 0-.27.15l64.51 66.31 85.63-36.38A4.042 4.042 0 0 0 494.43 135.77zM80.07 73.16a3.871 3.871 0 0 0-4.23.23L17.57 135.77a4.042 4.042 0 0 0-1.15 1.36l85.8 36.2 64.34-66.13a1.174 1.174 0 0 0-.27-.15z"/><polygon fill="#6d7486" points="256.96 287.4 227.07 257.66 227.06 257.66 227.08 326.65 257.13 297.05 256.96 287.4"/><path fill="#dd8097" d="M19.92,407.75a5.27,5.27,0,0,0,3,2.36l93.35,29.01a5.359,5.359,0,0,0,5.91-1.94L226.92,306.3h.15V287.58Z"/><polygon fill="#5d6372" points="257.13 287.57 256.96 287.4 257.13 297.05 257.29 296.9 283.89 326.06 283.9 258.23 257.13 287.57"/><path fill="#9ba1b2" d="M283.45,179.75l-27.68,40.5,1.19,67.15.17.17,26.77-29.34v-1.29l.01-78.11A5.268,5.268,0,0,1,283.45,179.75Z"/><polygon fill="#b0b5ca" points="255.77 220.25 227.05 179.8 227.06 257.55 227.06 257.66 227.07 257.66 256.96 287.4 255.77 220.25"/><path fill="#8bcdea" d="M16.42,137.13a3.878,3.878,0,0,0-.36,2.4L34.87,249.01a11.61,11.61,0,0,0,.56,2.1l191.63-12.75V226.01Z"/><path fill="#f991a7" d="M227.06 257.66v-.11L52.98 282.26 20.49 319.05a5.193 5.193 0 0 0-1.08 1.93l133.27 9.75 74.39-43.15zM491.51 319.05l-32.49-36.79L283.91 256.94h-.01v30.03l75.42 43.76h.01l133.26-9.75A5.193 5.193 0 0 0 491.51 319.05z"/><path fill="#e87187" d="M19.15 322.59v82.42a5.193 5.193 0 0 0 .77 2.74l132.76-77.02L19.41 320.98A5.169 5.169 0 0 0 19.15 322.59zM492.59 320.98l-133.26 9.75 132.75 77.02a5.193 5.193 0 0 0 .77-2.74V322.59A5.169 5.169 0 0 0 492.59 320.98z"/><path fill="#8bcdea" d="M495.58,137.13,283.91,227.07h-.01v11.22l192.67,12.82a11.61,11.61,0,0,0,.56-2.1l18.81-109.48A3.878,3.878,0,0,0,495.58,137.13Z"/><path fill="#ccd3df" d="M284.19,175.69a5.556,5.556,0,0,0-5.47-4.49H231.75a5.587,5.587,0,0,0-4.7,8.6l28.72,42.45,27.68-42.5a5.268,5.268,0,0,0,.46-.92A5.335,5.335,0,0,0,284.19,175.69Z"/><path fill="#72bcef" d="M283.9,238.29l192.67,12.82a10.941,10.941,0,0,1-.87,1.87l-16.68,29.28-5.39,9.47a3.863,3.863,0,0,1-4.36,1.81l-165.36-36.6h-.01Z"/><path fill="#80c3e0" d="M46.045,139.53a3.873,3.873,0,0,1,.345-2.4l.149.063-.119-.063a4.042,4.042,0,0,1,1.15-1.36L99.076,80.631,80.07,73.16a3.871,3.871,0,0,0-4.23.23L17.57,135.77a4.042,4.042,0,0,0-1.15,1.36l31.5,13.289Z"/><path fill="#d67f94" d="M49,322.59a5.247,5.247,0,0,1,.328-1.61,5.34,5.34,0,0,1,1.147-1.93L82.95,282.26,227.031,261.8,227,257.66v-.11L52.95,282.26,20.475,319.05a5.161,5.161,0,0,0-1.072,1.93L49,323.145Z"/><path fill="#76adc1" d="M64.863,249.01,47.917,150.42l-31.5-13.29a3.878,3.878,0,0,0-.36,2.4L34.87,249.01a11.61,11.61,0,0,0,.56,2.1l29.461-1.96C64.883,249.1,64.87,249.057,64.863,249.01Z"/><path fill="#c1677b" d="M49,323.145,19.335,320.98A5.257,5.257,0,0,0,19,322.59v82.42a5.262,5.262,0,0,0,.845,2.74L49,390.879Z"/><path fill="#b76c82" d="M52.9,410.235A5.6,5.6,0,0,1,49.885,408h-.04A6.808,6.808,0,0,1,49,405.01V390.88L19.92,407.75a5.27,5.27,0,0,0,3,2.36l93.35,29.01a5.359,5.359,0,0,0,5.91-1.94l3.5-4.378Z"/><path fill="#72bcef" d="M227.06,238.36v19.19L62.73,293.54a3.863,3.863,0,0,1-4.36-1.81l-5.39-9.47L36.3,252.98a10.941,10.941,0,0,1-.87-1.87Z"/><path fill="#5ba5ce" d="M82.98,282.26,64.891,249.1,35.4,251a5.405,5.405,0,0,0,.885,1.925l16.687,29.307,5.394,9.484a3.869,3.869,0,0,0,4.362,1.817l23.715-5.19Z"/></svg>