<svg xmlns="http://www.w3.org/2000/svg" data-name="Layer 1" viewBox="0 0 512 512"><path fill="#c3eac6" d="M491.86,364.777a3.356,3.356,0,0,1-2.28,5.87l-69.79-1.04-4.91-72.74Z"/><polygon fill="#adf0e5" points="250.89 139.747 251.88 254.547 139.15 254.547 250.89 139.747"/><polygon fill="#9ac5a1" points="366.9 97.887 366.9 254.547 250.89 139.747 299.86 85.227 366.9 97.887"/><polygon fill="#9ac5a1" points="252.85 367.127 201.37 426.627 137.21 426.627 139.15 254.547 252.85 367.127"/><path fill="#c3eac6" d="M201.37,426.627l-59.01,68.2a3.357,3.357,0,0,1-5.9-2.23l.75-65.97Z"/><polygon fill="#9ac5a1" points="250.89 139.747 139.15 254.547 96.93 218.327 99.29 140.847 250.89 139.747"/><polygon fill="#8ecec2" points="251.88 254.547 252.85 367.127 139.15 254.547 251.88 254.547"/><path fill="#c3eac6" d="M99.29,140.847l-2.36,77.48-82.75-70.98a3.353,3.353,0,0,1,2.16-5.9Z"/><polygon fill="#adf0e5" points="366.9 254.547 252.85 367.127 251.88 254.547 366.9 254.547"/><polygon fill="#8ecec2" points="366.9 254.547 251.88 254.547 250.89 139.747 366.9 254.547"/><polygon fill="#9ac5a1" points="414.88 296.867 419.79 369.607 252.85 367.127 366.9 254.547 414.88 296.867"/><path fill="#c3eac6" d="M366.9,19.367v78.52l-67.04-12.66,61.18-68.11A3.362,3.362,0,0,1,366.9,19.367Z"/><polygon fill="#76997a" points="139.15 254.522 137.21 426.577 167.21 426.577 168.819 283.886 139.15 254.522"/><path fill="#95bc96" d="M167.21 426.577h-30l-.75 66a3.36 3.36 0 0 0 5.9 2.242L166.755 466.6zM44.18 147.912c-2.36-2.02-.94-6.335 2.16-6.335h-30c-3.1 0-4.52 4.315-2.16 6.335l82.75 71.2.764-25.186z"/></svg>