<svg xmlns="http://www.w3.org/2000/svg" data-name="Layer 1" viewBox="0 0 512 512"><path fill="#afa7c4" d="M114.27,145.15l73.96,120.04-1.93,1.41-66.82-56.51L93.79,188.36a4.672,4.672,0,0,1-1.64-5.47l4.48-63.91a4.717,4.717,0,0,1,.73-1.27Z"/><path fill="#f7afb6" d="M315.41,21.68a.588.588,0,0,1,.94.48l-.15,17.39-33.61,62.13-13.38-9.31L308.32,27Z"/><path fill="#7a728e" d="M293.83,220.33l-86.2,189.91.01-.91,1.87-125.31a3.68,3.68,0,0,0,2.37-.93l18.19-15.11,58.48-51.77Z"/><path fill="#978cac" d="M206.77 408.28L119.48 210.09 186.3 266.6l20.75 16.54a3.739 3.739 0 0 0 2.46.88l-1.87 125.31-.65-.01A2.558 2.558 0 0 0 206.77 408.28zM171.04 74.17a4.683 4.683 0 0 0-2.4.66L98.61 116.62a4.679 4.679 0 0 0-1.25 1.09l16.91 27.44 93.36 53.65.39-124.63z"/><polygon fill="#afa7c4" points="97.42 30.37 125.54 100.55 98.61 116.62 97.42 30.37"/><path fill="#f7afb6" d="M110.56,25.99l28.12,66.72-13.14,7.84L97.42,30.37,97.23,16.6a.584.584,0,0,1,.95-.47Z"/><path fill="#5f5a70" d="M110.56,25.99l60.48,48.18a4.683,4.683,0,0,0-2.4.66L138.68,92.71Z"/><path fill="#7a728e" d="M207.63,410.24l5.6,85.61a2.161,2.161,0,0,1-.74-.25l-69.11-36.49a2.588,2.588,0,0,1-.26-4.41l62.75-43.25a2.576,2.576,0,0,0,1.12-2.13l.65.01Z"/><polygon fill="#f7afb6" points="207.63 198.8 114.27 145.15 188.23 265.19 225.8 264.24 291.96 162.65 207.63 198.8"/><path fill="#5f5a70" d="M207.63,410.24l163.59-96.22L213.35,495.88a.527.527,0,0,1-.12-.03Z"/><polygon fill="#5f5a70" points="282.59 101.68 316.2 39.55 315.48 124.57 282.59 101.68"/><path fill="#afa7c4" d="M388.38,294.27l-17.15,19.75h-.01L207.63,410.24l86.2-189.91,93.99,73.34A2.455,2.455,0,0,1,388.38,294.27Z"/><path fill="#978cac" d="M213.35,495.88,371.22,314.02h.01l17.15-19.75a2.82,2.82,0,0,1,.32.68l31.35,102.3a2.625,2.625,0,0,1-.38,2.27L367.4,471.69a2.563,2.563,0,0,1-1.69,1.03L214.08,495.87A2.551,2.551,0,0,1,213.35,495.88Z"/><path fill="#5f5a70" d="M291.96,162.65l24.33-37.35a4.5,4.5,0,0,1,.6.83l9.22,51.91a4.681,4.681,0,0,1-1.27,6.04l-36.29,32.13-58.48,51.77-4.27-3.74Z"/><polygon fill="#afa7c4" points="308.32 27 269.21 92.37 244.26 75.01 308.32 27"/><path fill="#7a728e" d="M316.29,125.3l-24.33,37.35L207.63,198.8l.39-124.63h33.57a4.644,4.644,0,0,1,2.67.84l24.95,17.36,13.38,9.31,32.89,22.89A4.693,4.693,0,0,1,316.29,125.3Z"/><path fill="#f58387" d="M188.23,265.19l19.81-14.49a1.9,1.9,0,0,1,2.38.1l15.38,13.44,4.27,3.74-18.19,16.11a3.68,3.68,0,0,1-2.37.93,3.739,3.739,0,0,1-2.46-.88L186.3,266.6Z"/><path fill="#776e8e" d="M144.27,145.139l-16.91-27.45a4.736,4.736,0,0,1,1.25-1.111l70.03-41.833a4.77,4.77,0,0,1,2.4-.745h-30a4.77,4.77,0,0,0-2.4.745L98.61,116.578a4.736,4.736,0,0,0-1.25,1.111l16.91,27.45,93.36,53.571.054-17.184Z"/><path fill="#8a84a0" d="M149.48,210.09l-25.69-21.73a4.672,4.672,0,0,1-1.64-5.47l1.57-22.4-9.45-15.338L97.36,117.71a4.717,4.717,0,0,0-.73,1.27l-4.48,63.91a4.672,4.672,0,0,0,1.64,5.47l25.69,21.73L186.3,266.6l1.93-1.41-28.725-46.622Z"/><path fill="#776f89" d="M167.287,250.521,119.48,210.09l87.29,198.19a2.558,2.558,0,0,1,.22,1.04l.65.01.97-64.987Z"/><path fill="#5a546d" d="M173.38,459.11a2.588,2.588,0,0,1-.26-4.41l35.8-24.678L207.63,410.24l.01-.91-.65-.01a2.576,2.576,0,0,1-1.12,2.13L143.12,454.7a2.588,2.588,0,0,0,.26,4.41l69.11,36.49a2.161,2.161,0,0,0,.74.25l-1.064-16.261Z"/></svg>