<svg xmlns="http://www.w3.org/2000/svg" data-name="Layer 1" viewBox="0 0 512 512"><path fill="#af802e" d="M177.45,75.47a3.666,3.666,0,0,1-1.02,6.26l-51.1,19.36,15.78-54.54a3.623,3.623,0,0,1,1.95.81Z"/><path fill="#ffc85a" d="M447.49,83.27a3.719,3.719,0,0,0-1.98-2.19L365.15,44.73a3.661,3.661,0,0,0-2.13-.27l44.6,130.52h70.41a2.779,2.779,0,0,1,2.34,1.25Z"/><path fill="#af802e" d="M480.38,176.25l-.01-.02a2.779,2.779,0,0,0-2.34-1.25H335.55L449.4,248.99l.36-.56,30.84-69.51A2.769,2.769,0,0,0,480.38,176.25Z"/><path fill="#d39f37" d="M29.99,174.98a2.794,2.794,0,0,0-2.55,1.62,2.734,2.734,0,0,0,0,2.37l33.42,71.42L177.7,174.98Z"/><path fill="#ffc85a" d="M177.7,174.98,19.95,276.8a8.572,8.572,0,0,0-3.72,5.25h.01L145.4,327.78,256,256V174.98Z"/><polygon fill="#d39f37" points="335.55 174.98 256 174.98 256 256 374.48 321.67 492.08 276.74 335.55 174.98"/><path fill="#af802e" d="M145.4 327.78L254.2 366.3a5.043 5.043 0 0 0 1.8.3V256zM363.02 44.46l19.34 56.61L333.57 82.15a3.68 3.68 0 0 1-1.35-5.95l28.71-30.63A3.61 3.61 0 0 1 363.02 44.46z"/><path fill="#ffc85a" d="M139.21 46.86L61.39 82.19a3.7 3.7 0 0 0-1.92 2.06L27.44 176.6a2.794 2.794 0 0 1 2.55-1.62h73.97L141.11 46.55A3.577 3.577 0 0 0 139.21 46.86zM256 256V366.6a5.262 5.262 0 0 0 1.79-.34l116.69-44.59z"/><path fill="#d39f37" d="M18.5,290.09l91.94,92.76L62.88,460.14a3.293,3.293,0,0,1-6.01-1L16.28,286.23A8.552,8.552,0,0,0,18.5,290.09Z"/><path fill="#ffd68d" d="M145.4,327.78,16.24,282.05h-.01a8.7,8.7,0,0,0,.04,4.12l.01.06a8.552,8.552,0,0,0,2.22,3.86L189.85,462.96a13.427,13.427,0,0,0,3.36,2.47Z"/><path fill="#af802e" d="M492.08,276.74l-117.6,44.93-58.39,143.8a13.507,13.507,0,0,0,3.35-2.44L493.46,290.07a8.512,8.512,0,0,0,2.24-3.85l.12-.51.03-.13A8.622,8.622,0,0,0,492.08,276.74Z"/><path fill="#d39f37" d="M257.79,366.26a5.262,5.262,0,0,1-1.79.34,5.043,5.043,0,0,1-1.8-.3L145.4,327.78l47.81,137.65a13.5,13.5,0,0,0,6.34,1.57H309.81a13.7,13.7,0,0,0,6.28-1.52v-.01l58.39-143.8Z"/><path fill="#ffc85a" d="M495.7,286.22,453.65,468.36c.37-1.59-4.56-.76-6.6-3.98l-49.7-78.78,96.11-95.53A8.512,8.512,0,0,0,495.7,286.22Z"/><path fill="#ad8132" d="M57.44,178.97a2.712,2.712,0,0,1,0-2.36A2.785,2.785,0,0,1,59.99,175h-30a2.785,2.785,0,0,0-2.55,1.61,2.723,2.723,0,0,0,0,2.365l33.42,71.418L83.9,235.52Z"/><path fill="#d6a550" d="M177.7,175,19.95,276.785A8.7,8.7,0,0,0,16.23,282h.01l37.44,13.263L208,175Z"/><path fill="#d1a14b" d="M89.47,84.26A3.705,3.705,0,0,1,91.39,82.2l45.369-20.6,4.351-15.044a3.577,3.577,0,0,0-1.9.31L61.39,82.19a3.7,3.7,0,0,0-1.92,2.06L27.44,176.61A2.785,2.785,0,0,1,29.99,175H58Z"/><path fill="#aa7d2e" d="M56.089,328.014,18.5,290.09a8.552,8.552,0,0,1-2.22-3.86L56.87,459.14a3.293,3.293,0,0,0,6.01,1l17.535-28.5Z"/><path fill="#dbb67b" d="M53.665,295.276,16.24,282h-.01a8.81,8.81,0,0,0,.04,4.145l.01.072a8.569,8.569,0,0,0,2.22,3.867L189.85,462.957a13.431,13.431,0,0,0,3.36,2.471L177.519,420.24Z"/></svg>