<svg xmlns="http://www.w3.org/2000/svg" data-name="Layer 1" viewBox="0 0 512 512"><polygon fill="#993d4a" points="186.38 214.11 199.02 261.22 314.42 248.8 359.99 199.73 186.38 214.11"/><path fill="#cc4e5a" d="M424.3,473.82l-72.94-52.8-30.13,56.1a1.19,1.19,0,0,0,1.06.64H423.02A2.177,2.177,0,0,0,424.3,473.82Z"/><path fill="#993d4a" d="M386.83,406.63l-35.47,14.39,7.63-14.2a8.793,8.793,0,0,0,1.04-3.97l1.06-52.31,17.17-27.83,5.64,79.63A5.156,5.156,0,0,0,386.83,406.63Z"/><path fill="#ff8a95" d="M480.19,57.28,401.42,34.31,469.3,89.66a1.8,1.8,0,0,0,1.83-1.2L481.38,59.6A1.79,1.79,0,0,0,480.19,57.28Z"/><path fill="#993d4a" d="M495.63,232.32,469.6,253.84l-42.78-9.83,15.49-25.1,11.21-18.17,16.88,3.01a6.215,6.215,0,0,1,3.73,2.19l20.32,24.94A3.653,3.653,0,0,1,495.63,232.32Z"/><path fill="#fb6771" d="M17.07,228.13a1.181,1.181,0,0,0-.36,2.26l77.51,31.24,57.86-44.68Z"/><path fill="#ff8a95" d="M449.05 436.12a1.435 1.435 0 0 1-.44 2.72l-70.34 1.66h-.01l-26.9-19.48 35.47-14.39zM363.11 199.47l-3.12.26L245.78 322.71l114.21 29.61 1.1-1.78 3.09-152.24A1.181 1.181 0 0 1 363.11 199.47z"/><path fill="#fb6771" d="M359.99,352.32,245.78,322.71a1.151,1.151,0,0,1,.58.55l74.87,153.86,30.13-56.1,7.63-14.2a8.793,8.793,0,0,0,1.04-3.97l1.06-52.31Z"/><polygon fill="#fb6771" points="199.02 261.22 211.84 309.03 245.78 322.71 314.42 248.8 199.02 261.22"/><polygon fill="#cc4e5a" points="186.38 214.11 152.08 216.95 94.22 261.63 211.84 309.03 186.38 214.11"/><polygon fill="#fb6771" points="364.18 166.68 364.18 198.3 361.09 350.54 442.31 218.91 364.18 166.68"/><path fill="#cc4e5a" d="M415.93 85.5l37.59 115.24-11.21 18.17-78.13-52.23V82.06a1.7 1.7 0 0 1 .1-.59zM495.63 232.32l-40.87 33.79a1.187 1.187 0 0 0 .1 1.9l38.13 28.65a1.185 1.185 0 0 0 1.84-.99L496 234.09A3.686 3.686 0 0 0 495.63 232.32z"/><path fill="#cc5662" d="M55.531,224.945,17.07,228.13a1.181,1.181,0,0,0-.36,2.26l77.51,31.24,17.946-13.858Z"/><path fill="#bf4753" d="M280.468,331.7,245.78,322.71a1.151,1.151,0,0,1,.58.55l74.87,153.86,15.739-29.306Z"/><path fill="#a53c4b" d="M364.1,81.47a1.7,1.7,0,0,0-.1.59v84.62l30.917,20.644L394,83.8Z"/><path fill="#fb6771" d="M401.42,34.31a1.817,1.817,0,0,0-1.94.64L364.54,80.97a1.591,1.591,0,0,0-.26.5L469.3,89.66Z"/><path fill="#c95964" d="M422.8,51.745,401.42,34.31a1.817,1.817,0,0,0-1.94.64L364.54,80.97a1.591,1.591,0,0,0-.26.5l33.944,2.647Z"/><polygon fill="#a53d4c" points="110.756 248.861 94.22 261.63 211.84 309.03 205.996 287.242 110.756 248.861"/></svg>