<svg xmlns="http://www.w3.org/2000/svg" data-name="Layer 1" viewBox="0 0 512 512"><polygon fill="#e87187" points="265.31 69.66 259.58 69.66 259.58 70.13 276.88 309.07 358.32 282.45 265.31 69.66"/><path fill="#a5e2fb" d="M29.41,241.9a8.581,8.581,0,0,1,1.08.28l123.19,40.27,15.78-36.11Z"/><polygon fill="#8fcfe2" points="257.04 316.09 256.88 315.61 256 315.9 256.47 446.08 376.89 446.08 257.04 316.09"/><polygon fill="#ffa1b7" points="246.69 69.66 153.68 282.45 235.12 309.07 251 70.56 251 69.66 246.69 69.66"/><path fill="#bbefff" d="M486.6,241.77h-.01l-4.44.23c-.21.05-.43.11-.64.18L267.6,312.11l.04.13,188.27,35.12,39.85-92.38A11.1,11.1,0,0,0,486.6,241.77Z"/><polygon fill="#f28ba1" points="259.58 70.13 276.88 309.07 267.6 312.11 256.88 315.61 256 315.9 255.51 315.74 244.81 312.24 235.12 309.07 251 70.56 251 69.66 259.58 69.66 259.58 70.13"/><polygon fill="#77b9c9" points="256 315.9 255.51 315.74 255.4 316.09 137.06 446.08 256.47 446.08 256 315.9"/><path fill="#a5e2fb" d="M267.64 312.24l-.04-.13-10.72 3.5.16.48L376.89 446.08h29.37c5.27 0 9.34-3.6 10.88-8.86l38.77-89.86zM56.22 347.66l38.64 89.56c1.54 5.26 5.61 8.86 10.88 8.86h31.32L255.4 316.09l.11-.35-10.7-3.5zM343.78 249.18l14.54 33.27 123.19-40.27c.21-.07.43-.13.64-.18z"/><path fill="#bbefff" d="M30.49,242.18a8.581,8.581,0,0,0-1.08-.28l-4-.13H25.4a11.1,11.1,0,0,0-9.16,13.21l39.98,92.68,188.59-35.42Z"/><path fill="#a1d6e2" d="M46.24,255.1a10.689,10.689,0,0,1,1.089-7.411l-16.839-5.5a8.059,8.059,0,0,0-1.08-.165l-4-.015H25.4a11.028,11.028,0,0,0-9.16,13.1l39.98,92.622,27.732-5.237Z"/><path fill="#8bc4d6" d="M135.74,446c-5.27,0-9.34-3.531-10.88-8.791L83.952,342.451,56.22,347.66l38.64,89.52c1.54,5.26,5.61,8.82,10.88,8.82h30Z"/></svg>