<svg xmlns="http://www.w3.org/2000/svg" data-name="Layer 1" viewBox="0 0 512 512"><path fill="#b0b5ca" d="M371.02,235.89a3.241,3.241,0,0,0-.15-.87L233.8,212.15l24.34,143.38,118.11,84.14a2.212,2.212,0,0,0,.23-1.05Z"/><path fill="#5d596b" d="M384.88,489.63a3.622,3.622,0,0,1-2.35,6.37H296.82l52.46-36.96v.01Z"/><path fill="#6d7486" d="M258.14,355.53,242.1,391.82l-18.42,76.23-53.99,26.82a6.857,6.857,0,0,0,3.78,1.13H296.82l78.69-55.44a2.191,2.191,0,0,0,.74-.89Z"/><path fill="#7e788e" d="M185.08,342.39a8.425,8.425,0,0,1,3.47-3.32l96.24-49.63a5.4,5.4,0,0,0-.89-2.42L191.47,148.89l-65.98,37.14a4.767,4.767,0,0,0,0,1.36l41.1,302.59a6.929,6.929,0,0,0,3.1,4.89l53.99-26.82L184.37,349.3A8.437,8.437,0,0,1,185.08,342.39Z"/><path fill="#978cac" d="M330.95,70.15,308.99,16H198.73a2.447,2.447,0,0,0-2.25,1.49L125.84,184.74a5.245,5.245,0,0,0-.35,1.29L331.03,70.35Z"/><path fill="#f3ce7d" d="M385.13,44.47a1.71,1.71,0,0,1,.39,3.26L331.03,70.12l-.08.03L316.05,33.4Z"/><path fill="#ccd3df" d="M370.55,234.32,286.63,95.44l-.04-.08-95.12,53.53,42.33,63.26,137.07,22.87A3.418,3.418,0,0,0,370.55,234.32Z"/><polygon fill="#5d596b" points="326.4 72.95 326.5 73.13 313.3 139.57 286.63 95.44 286.59 95.36 326.4 72.95"/><path fill="#978cac" d="M284.79,289.44l-96.24,49.63a8.425,8.425,0,0,0-3.47,3.32l58.02,49.43,41.31-99.69A5.422,5.422,0,0,0,284.79,289.44Z"/><path fill="#5d596b" d="M243.1,391.82l45.15,38.46a3.627,3.627,0,0,1-.7,6.04l-63.87,31.73L184.37,349.3a8.437,8.437,0,0,1,.71-6.91Z"/><path fill="#585466" d="M164.589,164.025l-39.1,22a4.767,4.767,0,0,0,0,1.36l41.1,302.59a6.929,6.929,0,0,0,3.1,4.89l25.822-12.827Z"/><path fill="#6b627f" d="M226.48,17.49A2.447,2.447,0,0,1,228.73,16h-30a2.447,2.447,0,0,0-2.25,1.49L125.84,184.74a5.245,5.245,0,0,0-.35,1.29l39.1-22Z"/></svg>