<svg xmlns="http://www.w3.org/2000/svg" data-name="Layer 1" viewBox="0 0 512 512"><path fill="#bc4a73" d="M255.49,112.35l84.68,1.51,46.18,82.07-.3.17L270.32,154.18h-.01l-14.6-38.99A5.035,5.035,0,0,1,255.49,112.35Z"/><path fill="#ff80b4" d="M106.08,175.89a2.072,2.072,0,0,0-2.63,2.94l80.08,138.06,23.29,4.89,42.55-81.64Z"/><path fill="#f471a0" d="M146,309.01,23.24,283.24a3.626,3.626,0,0,0-3.52,5.86l56.94,69.25L203.91,377.2Z"/><path fill="#ff80b4" d="M328.01,417.93,189.86,495.12a7.26,7.26,0,0,0,3.46.88H382.79a12.3,12.3,0,0,0,5.45-1.28Z"/><path fill="#bc4a73" d="M203.91,377.2,76.66,358.35,187.64,493.31a7.392,7.392,0,0,0,2.21,1.81h.01l77.44-43.28Z"/><path fill="#df5982" d="M490.68 381.37a3.085 3.085 0 0 1 1.59 5.14L391.69 492.18a12.517 12.517 0 0 1-3.45 2.54l-60.23-76.79 91.98-51.4H420zM486.92 107.08a5.093 5.093 0 0 1-2.88 9.34l-143.87-2.56-.01-.02L441.3 77.55z"/><polygon fill="#bc4a73" points="343.88 350.55 343.86 350.55 226.95 283.16 249.37 240.14 313.24 268.78 313.25 268.78 323.12 295.15 343.88 350.55"/><polygon fill="#df5982" points="270.32 154.18 323.12 295.15 323.53 295 386.05 196.1 270.32 154.18"/><polygon fill="#df5982" points="146 309.01 214.04 389.12 419.99 366.53 146 309.01"/><path fill="#f471a0" d="M347.53,16.84,441.3,77.55,340.16,113.84l.01.02-84.68-1.51a5.061,5.061,0,0,1,1.19-2.35l84.29-92.31A5.052,5.052,0,0,1,347.53,16.84Z"/><polygon fill="#f471a0" points="419.99 366.53 328.01 417.93 267.3 451.84 214.04 389.12 419.99 366.53"/><polygon fill="#f471a0" points="386.05 196.1 393.75 361.02 343.88 350.55 323.12 295.15 323.53 295 386.05 196.1"/><polygon fill="#bc4a73" points="386.35 195.93 386.05 196.1 393.75 361.02 490.68 381.37 386.35 195.93"/><polygon fill="#f471a0" points="343.86 350.55 206.82 321.78 226.95 283.16 343.86 350.55"/><path fill="#d873a1" d="M140.766,191.443,106.08,175.89a2.072,2.072,0,0,0-2.63,2.94l80.08,138.06,23.29,4.89,4.518-8.669Z"/><path fill="#c65482" d="M49.474,288.747,23.24,283.24a3.626,3.626,0,0,0-3.52,5.86l56.94,69.25,34.166,5.061L49.72,289.1A3.8,3.8,0,0,1,49.474,288.747Z"/><path fill="#964063" d="M110.821,363.41,76.66,358.35l110.98,134.9c.62.75,1.37,1.75,2.21,1.75h.01l20.053-11.147Z"/></svg>