<svg xmlns="http://www.w3.org/2000/svg" data-name="Layer 1" viewBox="0 0 512 512"><path fill="#ad5e73" d="M490.29 60.87L423.63 83.65 382.97 17.97a9.146 9.146 0 0 1 4.39.64zM273.26 278.97l71.5 128.85a1.2 1.2 0 0 0-1.6.61l-37 84.93a1.2 1.2 0 0 1-2.28-.3zM490.17 238.84l-97.38 38.44a9.234 9.234 0 0 1-9.82-1.96l41.26-57.94z"/><path fill="#e87187" d="M21.71,60.87A9.21,9.21,0,0,0,16,69.38V230.29a9.188,9.188,0,0,0,5.83,8.55l185.74-60.45V124.38Z"/><path fill="#f789a1" d="M134.78,20.73a9.193,9.193,0,0,0-5.75-2.76L88.37,83.65l119.2,40.73,5.54-22.61Z"/><path fill="#ad5e73" d="M87.77 217.38l41.26 57.94a9.234 9.234 0 0 1-9.82 1.96L21.83 238.84zM238.66 279.5L208.12 493.06a1.2 1.2 0 0 1-2.28.3l-37-84.93z"/><path fill="#e87187" d="M238.66,279.5,168.84,408.43a1.2,1.2,0,0,0-1.6-.61L90.83,442.91a1.189,1.189,0,0,1-1.66-1.36l39.86-166.23,84.08-81.6h37.82Z"/><path fill="#ad5e73" d="M129.03,17.97,88.37,83.65,21.71,60.87,124.64,18.61A9.146,9.146,0,0,1,129.03,17.97Z"/><polygon fill="#f789a1" points="211.87 193.72 207.57 178.39 87.77 217.38 129.03 275.32 213.11 193.72 211.87 193.72"/><path fill="#f789a1" d="M382.97,17.97a9.193,9.193,0,0,0-5.75,2.76l-78.33,81.04,4.31,23.03L423.63,83.65Z"/><path fill="#e87187" d="M422.83 441.55a1.189 1.189 0 0 1-1.66 1.36l-76.41-35.09-71.5-128.85-12.19-85.25h37.82l84.08 81.6zM490.29 60.87L303.2 124.8v53.18l186.97 60.86a9.188 9.188 0 0 0 5.83-8.55V69.38A9.21 9.21 0 0 0 490.29 60.87z"/><polygon fill="#f789a1" points="303.2 177.98 298.89 193.72 382.97 275.32 424.23 217.38 303.2 177.98"/><path fill="#5fa8ed" d="M256.5 148.07a.114.114 0 0 0-.03.08.122.122 0 0 0 .04.09l46.69 41.18V106.07zM256.31 148.07l-48.74-42v83.35l48.74-41.18a.1.1 0 0 0 .05-.08A.138.138 0 0 0 256.31 148.07z"/><path fill="#4689d3" d="M256.51,148.24l46.69,41.18a4.3,4.3,0,0,1-4.31,4.3H211.87a4.293,4.293,0,0,1-4.3-4.3l48.74-41.18a.1.1,0,0,0,.05-.08l.11-.01A.122.122,0,0,0,256.51,148.24Z"/><path fill="#4689d3" d="M256.5,148.07a.114.114,0,0,0-.03.08l-.11.01a.138.138,0,0,0-.05-.09l-48.74-42a4.293,4.293,0,0,1,4.3-4.3h87.02a4.3,4.3,0,0,1,4.31,4.3Z"/><path fill="#7a4656" d="M123.081,266.966,46.854,230.7,21.83,238.84l97.38,38.44a9.234,9.234,0,0,0,9.82-1.96Z"/><path fill="#b2576b" d="M159.03,275.46,243.11,194h-30l-84.08,81.46L89.17,441.62a1.172,1.172,0,0,0,1.66,1.325l31.48-14.4Z"/><path fill="#7a4656" d="M129.03,17.97a9.146,9.146,0,0,0-4.39.64L21.71,60.87,47.551,69.7l72.22-36.775Z"/><path fill="#b5576b" d="M46,230.29V69.38c0-.069.014-.136.015-.2l-24.3-8.3A9.21,9.21,0,0,0,16,69.38V230.29a9.188,9.188,0,0,0,5.83,8.55l24.221-7.883C46.035,230.735,46,230.516,46,230.29Z"/></svg>