<svg xmlns="http://www.w3.org/2000/svg" data-name="Layer 1" viewBox="0 0 512 512"><path fill="#4ca987" d="M293.36 46.727l-31.5-20.39a10.578 10.578 0 0 0-11.76.18l-30.03 20.8a10.56 10.56 0 0 0-4.16 11.51l14.59 52.24 55.17 3.54 12.27-56.8A10.522 10.522 0 0 0 293.36 46.727zM88.72 90.707l-17.75 62.31a4.443 4.443 0 0 0-3.14 1.3L23.56 198.9a4.412 4.412 0 0 1-7.48-3.88l10.84-60.67a4.448 4.448 0 0 1 1.82-2.85l57.46-40A4.45 4.45 0 0 1 88.72 90.707z"/><polygon fill="#868fa3" points="173.46 287.817 197.03 333.467 196.98 333.467 156.53 390.857 112.83 282.687 173.46 287.817"/><polygon fill="#b0b5ca" points="218.1 262.497 231.19 333.717 197.03 333.467 173.46 287.817 184.14 255.317 218.1 262.497"/><polygon fill="#6d7486" points="166.36 149.827 161.09 153.017 112.83 282.687 173.46 287.817 206.66 186.817 166.36 149.827"/><polygon fill="#868fa3" points="316.82 334.357 354.11 391.767 305.9 430.627 285.68 395.047 316.82 334.357"/><path fill="#b0b5ca" d="M260.43,98.567a8.514,8.514,0,0,0-4.5-1.35l.93,89.46,49.77-.13,25.34-42.52Z"/><path fill="#4ca987" d="M392.87,438.207a2.99,2.99,0,0,1,.49,3.01l-13.93,35.9a3.006,3.006,0,0,1-2.8,1.91H337.06a2.99,2.99,0,0,1-2.57-1.44l-28.59-46.96,48.21-38.86Z"/><polygon fill="#9fa9bc" points="206.66 186.817 184.14 255.317 255.32 270.367 306.63 186.547 206.66 186.817"/><path fill="#868fa3" d="M255.93,97.217a8.583,8.583,0,0,0-4.59,1.25l-84.98,51.36,40.3,36.99,50.2-.14Z"/><path fill="#5fcda4" d="M209.07,433.167l-30.37,52.69a3.005,3.005,0,0,1-3.07,1.47l-39.35-6.17a2.985,2.985,0,0,1-2.27-1.72l-16.69-36.61a3,3,0,0,1,.38-3.11l38.83-48.86Z"/><polygon fill="#9fa9bc" points="197.03 333.467 227.13 391.767 285.68 395.047 316.82 334.357 197.03 333.467"/><path fill="#b0b5ca" d="M285.68,395.047l20.22,35.58-42.48,34.23a11.961,11.961,0,0,1-15.01,0l-39.34-31.69,18.06-41.4Z"/><polygon fill="#868fa3" points="306.63 186.547 340.43 288.357 255.32 270.367 306.63 186.547"/><polygon fill="#6d7486" points="218.1 262.497 231.19 333.717 316.82 334.357 340.43 288.357 218.1 262.497"/><polygon fill="#6d7486" points="197.03 333.467 227.13 391.767 209.07 433.167 156.53 390.857 196.98 333.467 197.03 333.467"/><path fill="#87ddb6" d="M202.57,127.937v.01l-36.21,21.88-5.27,3.19h-4.56l-56.34-62.31h73.2a4.43,4.43,0,0,1,3.59,1.83Z"/><polygon fill="#5fcda4" points="100.19 90.707 156.53 153.017 70.97 153.017 88.72 90.707 100.19 90.707"/><polygon fill="#6d7486" points="356.85 159.837 331.97 144.027 306.63 186.547 340.43 288.357 397.82 283.297 356.85 159.837"/><path fill="#4ca987" d="M434.43,95.7l14.04,58.95a4.532,4.532,0,0,0-3.68-1.47l-87.94,6.66-5.51-3.5v-.01l65.22-65.62h9.02a4.6,4.6,0,0,1,2.52.76Z"/><polygon fill="#9fa9bc" points="397.82 283.297 354.11 391.767 316.82 334.357 340.43 288.357 397.82 283.297"/><path fill="#5fcda4" d="M416.56 90.707l-65.22 65.62v.01l-19.37-12.31-20.73-13.17 26.96-38.23a4.484 4.484 0 0 1 3.69-1.92zM495.95 194.487a4.517 4.517 0 0 1-7.82 3.66l-39.66-43.5L434.43 95.7l50.94 34.03a4.542 4.542 0 0 1 1.96 3.13z"/><polygon fill="#6b7382" points="112.83 282.687 156.53 390.857 175.549 363.873 143.761 285.304 112.83 282.687"/><path fill="#6b7382" d="M196.346,149.827,256.1,113.706l-.171-16.489a8.583,8.583,0,0,0-4.59,1.25l-84.98,51.36L185.721,167.6l5.362-14.425Z"/><path fill="#9398aa" d="M216.833,415.371l-7.763,17.8,39.34,31.69a11.961,11.961,0,0,0,15.01,0l7.465-6.015-31.815-25.6Z"/><polygon fill="#555a66" points="142.826 282.577 185.721 167.386 166.36 149.721 161.09 152.964 112.83 282.66 143.761 285.079 142.829 282.577 142.826 282.577"/><polygon fill="#555a66" points="175.549 363.873 156.53 390.857 209.07 433.167 216.833 415.371 186.53 391.013 175.549 363.873"/></svg>