<svg xmlns="http://www.w3.org/2000/svg" data-name="Layer 1" viewBox="0 0 512 512"><path fill="#74f58f" d="M209.28 273.71L127.94 93.28a.255.255 0 0 0-.16.24l-3.36 110.31a2.442 2.442 0 0 1 .64.42l80.83 74.34a10.141 10.141 0 0 1 3.5-4.72zM306.93 100.78l-92.64 61.36a2.735 2.735 0 0 1-1.74.45l2.19 109.32c.22-.01.44-.02.66-.02a9.752 9.752 0 0 1 2.17.24v-.01l89.64-171.35A.259.259 0 0 0 306.93 100.78z"/><polygon fill="#81c83d" points="405.7 124.25 372.81 203.65 316.4 203.65 405.7 124.25"/><polygon fill="#9be147" points="386.04 240.85 482.52 299.54 344.98 281 386.04 240.85"/><path fill="#436f1e" d="M124.84,190.16l-.42,13.67a2.165,2.165,0,0,0-.88-.18H112.46L26.28,128.08,16.27,108.35a.236.236,0,0,1,.29-.33l20.38,7.5.01.01Z"/><polygon fill="#9be147" points="112.46 203.65 64.61 203.65 26.28 128.08 112.46 203.65"/><path fill="#5cc69b" d="M307.36,101.02a.247.247,0,0,0-.15-.25L217.57,272.12v.01a9.96,9.96,0,0,1,3.67,1.62l84.94-70.78a2.408,2.408,0,0,1-.77-1.83Z"/><polygon fill="#81c83d" points="223.68 47.81 258.94 132.57 223.68 155.92 223.68 47.81"/><polygon fill="#9be147" points="362.21 370.77 390.6 468.56 297.94 365.31 362.21 370.77"/><path fill="#74f58f" d="M423.39,203.65H307.88a2.457,2.457,0,0,1-1.7-.68l-84.94,70.78a10.149,10.149,0,0,1,3.56,4.58l198.83-74.49h.02A.261.261,0,0,0,423.39,203.65Z"/><polygon fill="#81c83d" points="284.43 376.25 378.01 478.48 279.9 443.83 284.43 376.25"/><path fill="#74f58f" d="M16.05,203.81l189.26,77.83h.02c-.01.1-.01.21-.01.31a10.047,10.047,0,0,0,.95,4.28L91.2,290.71a.284.284,0,0,1-.22-.1L16.07,204.12a.259.259,0,0,1-.03-.32Z"/><path fill="#436f1e" d="M215.8 28.86l7.88 18.95V155.92l-9.39 6.22a2.735 2.735 0 0 1-1.74.45 2.842 2.842 0 0 1-1.58-.63l-4.91-4.07.84-110.68 8.08-18.35A.446.446 0 0 1 215.8 28.86zM412.36 107.82a.084.084 0 0 1 .1.11l-6.76 16.32-89.3 79.4h-8.52a2.457 2.457 0 0 1-1.7-.68 2.408 2.408 0 0 1-.77-1.83l.23-11.87 88.47-76.04z"/><polygon fill="#81c83d" points="478.01 315.43 386.04 348.3 342.1 298.68 478.01 315.43"/><path fill="#5cc69b" d="M224.78 285.62a10.117 10.117 0 0 1-4.87 5.33l65.51 73.64a.909.909 0 0 1 .73-.28l122.64 10.41a.25.25 0 0 0 .28-.18zM212.55 162.59a2.842 2.842 0 0 1-1.58-.63L128.23 93.32a.262.262 0 0 0-.29-.04l81.34 180.43.11.16a10.058 10.058 0 0 1 5.35-1.96z"/><polygon fill="#81c83d" points="126.11 148.36 124.84 190.16 36.95 115.53 126.11 148.36"/><polygon fill="#9be147" points="206.9 47.21 206.06 157.89 170.97 128.77 206.9 47.21"/><path fill="#5cc69b" d="M215.11,292.01l62.42,184.43v.01a.286.286,0,0,1-.26-.06l-75.43-66.85a.281.281,0,0,1-.09-.23l8.5-118.71a9.934,9.934,0,0,0,4.86,1.4Z"/><path fill="#436f1e" d="M394.15 480.78a1.976 1.976 0 0 1-2.61 2.48l-13.53-4.78L284.43 376.25l.75-11.11a.822.822 0 0 1 .24-.55.909.909 0 0 1 .73-.28l11.79 1L390.6 468.56zM495.48 307.42l-12.95-7.88h-.01L344.98 281l-8.78 8.58a1.737 1.737 0 0 0-.51 1.19 1.661 1.661 0 0 0 .43 1.16l5.97 6.75h.01l135.91 16.75h.01l17.28-6.18A1 1 0 0 0 495.48 307.42z"/><path fill="#5cc69b" d="M423.65,203.84h-.02L224.8,278.33a10.3,10.3,0,0,1,.63,2.67l110.26,9.77a1.737,1.737,0,0,1,.51-1.19l87.38-85.45A.271.271,0,0,0,423.65,203.84Z"/><polygon fill="#9be147" points="394.11 113.23 305.64 189.27 306.62 139.14 394.11 113.23"/><path fill="#74f58f" d="M409.02 374.26l-72.9-82.33a1.661 1.661 0 0 1-.43-1.16L225.43 281c.03.31.04.63.04.95a10.106 10.106 0 0 1-.69 3.67l184.29 88.92A.247.247 0 0 0 409.02 374.26zM219.91 290.95a10.05 10.05 0 0 1-4.51 1.06 2.81 2.81 0 0 1-.29-.01v.01l62.42 184.43a.248.248 0 0 0 .2-.24l7.45-111.06a.822.822 0 0 1 .24-.55z"/><path fill="#5cc69b" d="M125.06,204.25a2.442,2.442,0,0,0-.64-.42,2.165,2.165,0,0,0-.88-.18H16.28a.256.256,0,0,0-.24.15l.01.01,189.26,77.83h.02a10.235,10.235,0,0,1,.56-3.05Z"/><path fill="#436f1e" d="M205.017,278.282a11.02,11.02,0,0,1,9.663-7.294c.24-.011.48-.022.72-.022a10.7,10.7,0,0,1,2.37.262A10.883,10.883,0,0,1,221.777,273a11.08,11.08,0,0,1,3.886,5,11.207,11.207,0,0,1,.688,2.915c.033.338.044.688.044,1.037a10.977,10.977,0,0,1-11,10.984,3.033,3.033,0,0,1-.316-.011,10.848,10.848,0,0,1-5.306-1.529,11,11,0,0,1-2.118-1.638,10.586,10.586,0,0,1-2.217-3.133h-.011a10.969,10.969,0,0,1-1.037-4.673c0-.109,0-.229.011-.338A11.186,11.186,0,0,1,205.017,278.282Z"/><polygon fill="#80b238" points="26.28 128.255 64.61 204 94.61 204 80.311 175.722 26.28 128.255"/><path fill="#5dc96f" d="M62.26,222.813l-46.21-19-.01-.01a.259.259,0,0,0,.03.32l74.91,86.49a.284.284,0,0,0,.22.1l28.892-1.125Z"/></svg>