<svg xmlns="http://www.w3.org/2000/svg" data-name="Layer 1" viewBox="0 0 512 512"><path fill="#ff97ad" d="M386.15,26.23l87.76,66.52L376.9,161.08a6.411,6.411,0,0,0-7.78-.6L322.39,62.99l-.01-.01,54.53-36.93A7.866,7.866,0,0,1,386.15,26.23Z"/><path fill="#e87187" d="M496,113.38V251.9a7.838,7.838,0,0,1-2.2,5.45l-4.48,4.64-.01-.01L376.9,161.08l97.01-68.33,18.99,14.39A7.839,7.839,0,0,1,496,113.38Z"/><path fill="#ff97ad" d="M135.09 26.05a7.866 7.866 0 0 0-9.24.18L38.09 92.75l97.01 68.33a6.411 6.411 0 0 1 7.78-.6l52.61-95.03zM336.73 325.79a8.368 8.368 0 0 1-9.78-2.93l-69.53-73.1.01-.85 111.69-88.43 12.01 148.27z"/><path fill="#bc5b6f" d="M256.56 105.28a3.083 3.083 0 0 0 1.73.5v.01l-.86 143.12-.47.37-114.08-88.8 52.61-95.03zM257.42 249.76L256 484.97H245.1L179.5 326.34l-.01-.09a8.328 8.328 0 0 0 5.56-3.39l71.91-73.58z"/><path fill="#e87187" d="M332.51 326.25l-.01.09L267.02 484.97H256l1.42-235.21 69.53 73.1A8.328 8.328 0 0 0 332.51 326.25zM322.39 62.99l46.73 97.49L257.43 248.91l.86-143.12v-.01a3.067 3.067 0 0 0 1.69-.53l62.4-42.27zM38.09 92.75L19.1 107.14a7.839 7.839 0 0 0-3.1 6.24V251.9a7.838 7.838 0 0 0 2.2 5.45l4.48 4.64.01-.01L135.1 161.08z"/><path fill="#bc5b6f" d="M332.51,326.25a8.29,8.29,0,0,0,4.22-.46l44.4-17.04,100.09-38.4L275.37,483.14a6,6,0,0,1-4.31,1.83h-4.04L332.5,326.34Z"/><path fill="#994a5d" d="M489.32 261.99l-8.1 8.36-100.09 38.4L369.12 160.48a6.411 6.411 0 0 1 7.78.6l112.41 100.9zM179.5 326.34l65.6 158.63h-4.16a6 6 0 0 1-4.31-1.83L30.78 270.35l100.09 38.4 44.4 17.04a8.29 8.29 0 0 0 4.22.46z"/><path fill="#ff97ad" d="M256.96,249.28l-71.91,73.58a8.368,8.368,0,0,1-9.78,2.93l-44.4-17.04,12.01-148.27Z"/><path fill="#bc5b6f" d="M142.88,160.48,130.87,308.75,30.78,270.35l-8.1-8.36.01-.01L135.1,161.08A6.411,6.411,0,0,1,142.88,160.48Z"/><path fill="#d37f92" d="M135.09,26.05a7.866,7.866,0,0,0-9.24.18L38.09,92.75l18.471,13.01,92.845-70.372Z"/><polygon fill="#99485b" points="22.68 261.99 30.78 270.35 80.178 289.302 55.68 263.99 49 238.364 22.69 261.98 22.68 261.99"/><polygon fill="#bc5b6f" points="49 238.364 49 238.364 49 238.364 49 238.364"/><path fill="#c4586f" d="M49,115.38a7.839,7.839,0,0,1,3.1-6.24l4.461-3.38L38.09,92.75,19.1,107.14a7.839,7.839,0,0,0-3.1,6.24V251.9a7.838,7.838,0,0,0,2.2,5.45l4.48,4.64.01-.01L49,238.364Z"/><path fill="#77384a" d="M80.178,289.3,30.78,270.35l205.85,212.8A6.014,6.014,0,0,0,240.94,485h4.16l-18.184-43.988Z"/></svg>