<svg xmlns="http://www.w3.org/2000/svg" data-name="Layer 1" viewBox="0 0 512 512"><path fill="#5fcda4" d="M339.09,258.52a1.744,1.744,0,0,1-.5,1.43l-20.54.17L262.99,130.78l61.27.06a1.991,1.991,0,0,1,.24.71Z"/><polygon fill="#4ca987" points="262.99 130.78 318.05 260.12 188.48 261.18 188.47 259.95 246.16 130.76 262.99 130.78"/><path fill="#d3afa5" d="M191.21,367.49h-.01l-55.84-13.28-25.21,10.75a1.648,1.648,0,0,0,.7.5l41.98,15.1a1.462,1.462,0,0,0,.69.08l40.16-3.79Z"/><path fill="#ad8d86" d="M350.83,284.82a1.2,1.2,0,0,1,.1,1.59l-10.6,13.5-.03-.02-20.49-17.38-.15-3.55,12.17-12.22Z"/><path fill="#876b67" d="M176.8,267.89l14.63,14.62-21.25,17.38-10.63-13.48a1.2,1.2,0,0,1,.1-1.59Z"/><path fill="#5fcda4" d="M188.47,130.7l57.69.06L188.47,259.95l.01,1.23-17.3.14,17.21-130.31a1.654,1.654,0,0,1,.07-.32Z"/><path fill="#876b67" d="M214.42,305.47l38.27,38.23a1.732,1.732,0,0,0,2.47,0l1.35-1.35,39.56-39.72Z"/><path fill="#b0b5ca" d="M352.34 85.08a.569.569 0 0 1 .15.76l-28.23 45-67.85-114zM253.41 16.87L188.62 130.35a2.11 2.11 0 0 0-.16.34L159.65 85a.821.821 0 0 1 .19-1.12z"/><polygon fill="#876b67" points="340.33 299.91 321.59 323.77 319.81 282.51 340.3 299.89 340.33 299.91"/><path fill="#d3afa5" d="M320.49,367.56l56.15-13.35-54.82-25.19,1.2,27.98a5.931,5.931,0,0,1-.19,1.73Z"/><path fill="#f6d0c4" d="M269.32 417.14l13.15 76.76a2.3 2.3 0 0 0 4.47.51l35.89-135.68zM156.55 344.72L74.28 315.36a1.584 1.584 0 0 0-1.77 2.48l37.64 47.12 47.45-20.24A1.576 1.576 0 0 1 156.55 344.72z"/><path fill="#ad8d86" d="M319.81,282.51l-.15-3.55-63.15,63.39,12.81,74.79,53.51-58.41a5.931,5.931,0,0,0,.19-1.73Z"/><path fill="#d3afa5" d="M171.18,261.32a1.742,1.742,0,0,0,.5,1.46l42.74,42.69,81.65-2.84h.01l42.51-42.68Z"/><path fill="#ad8d86" d="M376.64,354.21l-56.15,13.35-2.44,9.25,40.43,3.83a1.462,1.462,0,0,0,.69-.08l41.98-15.1a1.648,1.648,0,0,0,.7-.5Z"/><polygon fill="#ad8d86" points="191.43 282.51 189.93 323.41 188.69 323.36 170.18 299.89 191.43 282.51"/><polygon fill="#f6d0c4" points="191.43 282.51 188.69 357 241.23 417.13 252.69 343.7 191.43 282.51"/><path fill="#f6d0c4" d="M437.72,315.36l-82.27,29.36a1.576,1.576,0,0,1-1.05,0l47.45,20.24,37.64-47.12A1.584,1.584,0,0,0,437.72,315.36Z"/><path fill="#ad8d86" d="M188.89,358.73a5.938,5.938,0,0,1-.2-1.73l1.02-27.77-54.35,24.98,55.84,13.28h.01Z"/><path fill="#d3afa5" d="M188.69,357a5.938,5.938,0,0,0,.2,1.73l35.89,135.68a2.289,2.289,0,0,0,4.46-.51l11.99-76.77Z"/><path fill="#6d7486" d="M256.41,16.84a1.743,1.743,0,0,0-3,.03L188.62,130.35a2.11,2.11,0,0,0-.16.34l.01.01,135.79.14Z"/><path fill="#51a583" d="M206.775,218.959,218.39,131.01a1.505,1.505,0,0,1,.061-.279L188.47,130.7l-.01-.01a1.654,1.654,0,0,0-.07.32L171.18,261.32l17.3-.14-.01-1.23Z"/><path fill="#848ba0" d="M253.41,16.87,159.84,83.88a.821.821,0,0,0-.19,1.12l16.812,26.663,56.2-58.448Z"/></svg>