<svg xmlns="http://www.w3.org/2000/svg" data-name="Layer 1" viewBox="0 0 512 512"><path fill="#94bdff" d="M270.35,95.44l17.1,83.68L254.07,201.7,16.15,165.49a4.4,4.4,0,0,1,3.05-3.69Z"/><path fill="#6994fe" d="M143.16 472.65l32.47-145.29a20.6 20.6 0 0 0 11.58 22.25l68.86 31.72L142.64 473.66l-.02-.03A3.7 3.7 0 0 0 143.16 472.65zM254.07 201.7L114.26 296.28c-.34.2-.68.39-1.03.56a16.689 16.689 0 0 1-10.83 1.48 17.934 17.934 0 0 1-11.88-8.31L18.53 171.31a7.926 7.926 0 0 1-2.38-5.82z"/><polygon fill="#b7586c" points="287.45 223.6 287.67 223.85 287.45 224.04 254.91 252.75 254.07 251.79 254.07 201.7 287.45 179.12 287.45 223.6"/><path fill="#e87187" d="M254.07,251.79l.84.96-73.66,65a15.314,15.314,0,0,0-5.33,8.29l-.01.03c-.11.42-.21.85-.28,1.29L143.16,472.65a3.7,3.7,0,0,1-.54.98,3.379,3.379,0,0,1-5.91-1.33L102.4,298.32a16.689,16.689,0,0,0,10.83-1.48c.35-.17.69-.36,1.03-.56L254.07,201.7Z"/><path fill="#6994fe" d="M443.89,209.73l-68.6,220.56a5.3,5.3,0,0,1-7.08,2.71L287.45,224.04l.22-.19,23.32-20.59H311Z"/><path fill="#e87187" d="M287.45,179.12,494.94,38.76l.01-.01a4.414,4.414,0,0,1,.81,1.47L311,203.26h-.01l-23.32,20.59-.22-.25Z"/><path fill="#6994fe" d="M494.95,38.75l-.01.01L287.45,179.12l-17.1-83.68L489.83,37.45A4.463,4.463,0,0,1,494.95,38.75Z"/><path fill="#94bdff" d="M311 203.26L495.76 40.22a4.373 4.373 0 0 1-.14 3.19L443.89 209.73zM287.45 224.04L368.21 433 256.07 381.33l-68.86-31.72a20.6 20.6 0 0 1-11.58-22.25l.28-1.29.01-.03a15.314 15.314 0 0 1 5.33-8.29l73.66-65z"/><path fill="#5b84d6" d="M51.15 176.49a4.4 4.4 0 0 1 3.05-3.69l3.648-.964-41.7-6.346a7.926 7.926 0 0 0 2.38 5.82l71.99 118.7a17.934 17.934 0 0 0 11.88 8.31 16.689 16.689 0 0 0 10.83-1.48c.35-.17.69-.36 1.03-.56l5.95-4.025L53.53 182.31A7.926 7.926 0 0 1 51.15 176.49zM489.83 37.45L270.35 95.44l3.926 19.211 178-47.032L494.94 38.76l.01-.01A4.463 4.463 0 0 0 489.83 37.45z"/><path fill="#799dd3" d="M274.276,114.651,270.35,95.44,19.2,161.8a4.4,4.4,0,0,0-3.05,3.69l41.7,6.346Z"/></svg>