<svg xmlns="http://www.w3.org/2000/svg" data-name="Layer 1" viewBox="0 0 512 512"><path fill="#55d8d8" d="M493.7,137.36,290.77,155.62l-47.98,46.77,123.92,33.19,128.43-94.43A2.106,2.106,0,0,0,493.7,137.36Z"/><polygon fill="#48c1be" points="287.51 110.82 254.14 158.91 340.24 151.17 287.51 110.82"/><path fill="#7ce5e9" d="M167.15,166.74l5.14,15.31-71.86,91.54a5.926,5.926,0,0,1-1.29-2.96l-13.6-99.15Z"/><path fill="#55d8d8" d="M73.94,86.9a1.328,1.328,0,0,0-1.08-1.13h-.01a1.349,1.349,0,0,0-.81.12L17.48,112.55a2.637,2.637,0,0,0-.02,4.73l64.5,28.13Z"/><polygon fill="#55d8d8" points="293.38 289.51 298.72 300.7 259.3 340.42 219.23 314.5 293.38 289.51"/><path fill="#55d8d8" d="M172.29,182.05l-71.86,91.54v.01a6,6,0,0,0,2.75,1.9l113.26,38.06Z"/><polygon fill="#55d8d8" points="167.15 125.26 167.15 166.74 254.14 158.91 298.72 94.67 167.15 125.26"/><polygon fill="#41aaa7" points="298.72 300.7 339.09 385.23 267.09 358.57 259.3 340.42 298.72 300.7"/><path fill="#41aaa7" d="M123.79,85.78a2.658,2.658,0,0,0-1.82-.68l-49.11.67a1.328,1.328,0,0,1,1.08,1.13l11.6,84.58,81.61-4.74V125.26Z"/><polygon fill="#41aaa7" points="167.15 166.74 194.82 249.15 290.77 155.62 167.15 166.74"/><path fill="#7ce5e9" d="M430.41,64.06,298.72,94.67l-11.21,16.15,52.73,40.35,36.3-3.27,56.08-80.59A2.105,2.105,0,0,0,430.41,64.06Z"/><path fill="#55d8d8" d="M354.17,443.43a3.653,3.653,0,0,1-3.54,4.57h-96a3.661,3.661,0,0,1-3.6-4.33l16.06-85.1,72,26.66Z"/><polygon fill="#7ce5e9" points="366.71 235.58 293.38 289.51 219.23 314.5 216.44 313.56 194.82 249.15 242.79 202.39 366.71 235.58"/><path fill="#65b7b7" d="M85.54,171.48l13.6,99.15a5.926,5.926,0,0,0,1.29,2.96l24.785-31.573-9.141-72.31Z"/><path fill="#44adaa" d="M76.288,104.027,73.94,87.015A1.113,1.113,0,0,0,72.86,86h-.01c-.27,0-.55-.125-.81,0l-54.56,26.6a2.614,2.614,0,0,0-.02,4.7L34.212,124.6Z"/><polygon fill="#44b2af" points="248.162 304.75 219.23 314.5 259.3 340.42 276.505 323.084 248.162 304.75"/><path fill="#4fbab7" d="M124.513,246.167a7.215,7.215,0,0,1-2-.978L100,273.59v.01a8.78,8.78,0,0,0,2.965,1.9l113.367,38.06-13.758-41.144Z"/><polygon fill="#358783" points="259.3 340.42 267.09 358.57 293.293 368.272 277.541 322.04 259.3 340.42"/><path fill="#318480" d="M103.747,85.349,72.86,85.77a1.328,1.328,0,0,1,1.08,1.13l11.6,84.58,29.763-1.729L103.94,86.9C103.914,86.7,103.845,86.086,103.747,85.349Z"/><path fill="#43afac" d="M281.03,443.67l14.1-74.717L267.09,358.57l-16.06,85.1a3.661,3.661,0,0,0,3.6,4.33h30A3.661,3.661,0,0,1,281.03,443.67Z"/></svg>