<svg xmlns="http://www.w3.org/2000/svg" data-name="Layer 1" viewBox="0 0 512 512"><polygon fill="#822f2f" points="278.66 185.73 277.61 186.79 277.61 277.2 308.18 234.6 278.66 185.73"/><polygon fill="#d35757" points="361.02 102.59 278.66 185.73 297.32 216.61 367 175.13 361.02 102.59"/><path fill="#822f2f" d="M396.15,380.81l-52.67,24.05-21.54-68.38a27.426,27.426,0,0,1-1.09-11.38l6.77-58.3,68.12,112.82A2.963,2.963,0,0,1,396.15,380.81Z"/><path fill="#d35757" d="M213.33,111.28,140.01,40.75a5.872,5.872,0,0,0-3.82-1.64l1.42,140.57a18.419,18.419,0,0,0,1.72,7.56l51.54-52.61,22.68-23.14Z"/><path fill="#b24440" d="M343.48,404.86l52.67-24.05a3.014,3.014,0,0,1-.02,1.12L373.39,490.24a3.146,3.146,0,0,1-2.26,2.42Z"/><path fill="#d35757" d="M343.48,404.86l27.65,87.8a3.159,3.159,0,0,1-3.11-.82l-89.47-89.4a3.119,3.119,0,0,1-.75-1.21l44.14-64.75Z"/><path fill="#b24440" d="M136.19 39.11a5.889 5.889 0 0 0-4.08 1.38L55.45 105.34a3.37 3.37 0 0 0 2.17 5.94h78.55l.75-.01zM320.85 325.1l6.77-58.3-19.44-32.2-30.57 42.6V400.18a2.873 2.873 0 0 0 .19 1.05l44.14-64.75A27.426 27.426 0 0 1 320.85 325.1z"/><polygon fill="#d35757" points="206.89 257.515 277.61 330.235 277.61 186.125 206.89 257.515"/><polygon fill="#822f2f" points="190.87 134.63 287.56 176.75 307.11 157.01 307.11 16 190.87 134.63"/><path fill="#b24440" d="M438.72,16H307.11V157.01l134-135.27A3.37,3.37,0,0,0,438.72,16Z"/><path fill="#822f2f" d="M454.21,108.15a9.655,9.655,0,0,1-1.18,15.77L367,175.13l-5.98-72.54,38.69-39.05Z"/><path fill="#b24440" d="M190.87,134.63l-51.54,52.61a18.368,18.368,0,0,0,3.46,5.02l64.1,65.92,80.67-81.43Z"/><path fill="#9e3f3f" d="M166.464 66.2L140.01 40.75a5.872 5.872 0 0 0-3.82-1.64l1.42 140.57a18.419 18.419 0 0 0 1.72 7.56L167.4 158.591zM294.1 377.321L277.8 401.23a3.119 3.119 0 0 0 .75 1.21l89.47 89.4a3.159 3.159 0 0 0 3.11.82L353.5 436.675z"/><path fill="#933838" d="M83.45,107.2l52.977-44.745-.237-23.38a5.905,5.905,0,0,0-4.08,1.4L55.45,105.191A3.283,3.283,0,0,0,57.62,111H82.56A3.189,3.189,0,0,1,83.45,107.2Z"/><polygon fill="#9e3f3f" points="222.577 241.877 207.183 257.515 278 330.235 278 298.667 222.577 241.877"/><path fill="#933838" d="M163.366,162.705,139.33,187.24a18.368,18.368,0,0,0,3.46,5.02l64.1,65.92L222.03,242.9Z"/><path fill="#893434" d="M278,400.18a2.873,2.873,0,0,0,.19,1.05L297,373.637l3.229-127.512L278,277.2Z"/></svg>