<svg xmlns="http://www.w3.org/2000/svg" data-name="Layer 1" viewBox="0 0 512 512"><path fill="#53d8d8" d="M413.49,479.93a2.246,2.246,0,0,1-.71,2.26l-71.47-95.56,38.79-45.75Z"/><path fill="#46a5a2" d="M495.84,202.49,261.28,279.61l80.03,107.02L495.45,204.81A2.265,2.265,0,0,0,495.84,202.49Z"/><path fill="#53d8d8" d="M16.17,200.18,133,238.04l-11.02,81.4L16.6,202.58A2.274,2.274,0,0,1,16.17,200.18Z"/><path fill="#7bfff8" d="M341.31,386.63,261.28,279.61,186.63,374.3,410.24,482.54a2.289,2.289,0,0,0,2.54-.35Z"/><path fill="#53d8d8" d="M103.48 482.81a2.284 2.284 0 0 1-2.27-.15v-.01L186.63 374.3l70.85 34.3zM257.34 28.97l2.11 134.49h-.14l-75.39 11.03L255.05 30.25A2.282 2.282 0 0 1 257.34 28.97zM495.84 202.49L368.83 244.25l-37.46-73.12 162.74 29.92A2.24 2.24 0 0 1 495.84 202.49z"/><path fill="#67efeb" d="M259.18 30.22a2.269 2.269 0 0 0-1.84-1.25l2.11 134.49 1.83 116.15 107.55-35.36zM133 238.04L100.19 480.42a2.285 2.285 0 0 0 1.02 2.24v-.01L261.28 279.61z"/><path fill="#46a5a2" d="M259.45,163.46h-.14L17.98,198.76a2.265,2.265,0,0,0-1.81,1.42l245.11,79.43Z"/><path fill="#44b2af" d="M258.214,84.669l-.874-55.7a2.282,2.282,0,0,0-2.29,1.28L183.92,174.49l32.333-4.73Z"/><path fill="#57c9c3" d="M161.739,247.353,133,238.04,100.085,480.42c-.13.95.915,1.78.915,2.24v-.01l34.728-43.918Z"/><path fill="#36827e" d="M259.833,187.542,259.45,163h-.14L17.98,198.53a2.394,2.394,0,0,0-1.81,1.535l49.4,15.95Z"/></svg>