<svg xmlns="http://www.w3.org/2000/svg" data-name="Layer 1" viewBox="0 0 512 512"><polygon fill="#c5d2d8" points="320.11 282.79 305.92 277.51 236.58 251.74 236.58 251.75 264.77 317.39 264.77 317.4 320.11 282.79"/><path fill="#afb9bf" d="M442.99,110.03a.982.982,0,0,1,1.68.97l-33.76,87.84-.06-.02-64.11,28.82Z"/><path fill="#43494f" d="M178.97,435.14a4.005,4.005,0,0,1-2.69.85l-.69-10.76-3.18-49.64a1.83,1.83,0,0,1,.27-1.09,1.888,1.888,0,0,1,2.11-.83l61.13,16.85Z"/><path fill="#f0cd7a" d="M101.63,247.57a1.93,1.93,0,0,0-1.23-.21l-22.54,3.46a1.877,1.877,0,0,0-.95.43L16.32,301.43a.857.857,0,0,0,.8,1.48l88.21-27.21a2.394,2.394,0,0,1,1.73.1v-.01l11.93-18.81Z"/><polygon fill="#86909d" points="410.91 198.84 377.12 286.78 368.48 279.13 320.11 282.79 305.92 277.51 346.74 227.64 410.85 198.82 410.91 198.84"/><path fill="#86909d" d="M105.33 275.7a2.394 2.394 0 0 1 1.73.1 2.459 2.459 0 0 1 1.3 1.26l67.23 148.17.69 10.76a4.073 4.073 0 0 1-2.44-.97L150.6 414.87a4.071 4.071 0 0 1-1.08-1.51L94.32 279.13l-.01-.03zM116.26 170.6L44.95 76.23a.956.956 0 0 1 1.13-.09l210.6 127.3a.955.955 0 0 1 .45.62l-65.87-15.64zM169.24 240.72l34.12 45.16-30.1 34.02-53.72-62.48a1.812 1.812 0 0 0-.55-.44l-17.36-9.41a1.93 1.93 0 0 0-1.23-.21l-13.62 2.09L77 209.52h.01l92.08 31.31z"/><path fill="#afb9bf" d="M234.85,251.31l-43.59-62.89,65.87,15.64,13.23,60.24-33.78-12.56-.78-.29a2.214,2.214,0,0,0-.95-.13Z"/><path fill="#656f7a" d="M236.58,251.75v-.01l-.78-.29a2.214,2.214,0,0,0-.95-.13,2.253,2.253,0,0,0-1.22.43L172.68,374.5a1.888,1.888,0,0,1,2.11-.83l89.98-56.27v-.01Z"/><path fill="#43494f" d="M233.26,252.09a2.369,2.369,0,0,1,.37-.34l-43.55,87.71L173.26,319.9l30.1-34.02Z"/><path fill="#afb9bf" d="M172.68 374.5l17.4-35.04-70.54-82.04a1.812 1.812 0 0 0-.55-.44l-11.93 18.81v.01a2.459 2.459 0 0 1 1.3 1.26l67.23 148.17-3.18-49.64A1.83 1.83 0 0 1 172.68 374.5zM44.95 76.23l71.31 94.37 52.98 70.12-.15.11L77.01 209.52H77L44.61 77.22A.945.945 0 0 1 44.95 76.23z"/><path fill="#c5d2d8" d="M191.26 188.42l-75-17.82 87.1 115.28 29.9-33.79a2.369 2.369 0 0 1 .37-.34 2.253 2.253 0 0 1 1.22-.43v-.01zM271.4 313.25l-96.61 60.42 61.13 16.85 5.73 1.58 253.07 1.8a1.23 1.23 0 0 0 1.22-.91z"/><path fill="#afb9bf" d="M495.57,391.69,368.48,279.13l-48.37,3.66L271.4,313.25l224.54,79.74A1.212,1.212,0,0,0,495.57,391.69Z"/><path fill="#626c77" d="M109.488,220.8,77.01,210H77l9.78,39.69,13.62-2.21a1.91,1.91,0,0,1,1.23.15l15.881,8.7Z"/><polygon fill="#a0abaf" points="301.371 323.893 271.4 313.25 174.79 373.67 207.405 382.66 301.371 323.893"/><path fill="#838e93" d="M88.467,133.819,44.95,76.23a1.378,1.378,0,0,0-.34,1.23L77,210h.01l32.478,10.8Z"/></svg>