<svg xmlns="http://www.w3.org/2000/svg" data-name="Layer 1" viewBox="0 0 512 512"><path fill="#6d7486" d="M278.91,229.44,256.74,463.38a.5.5,0,0,1-1-.01l-18-234.48,21.24-6.48Z"/><path fill="#f2cae2" d="M495.42,144.76l-35.35-23.97a1.384,1.384,0,0,0-.76-.23l-84.08.63L325,182.97a1.333,1.333,0,0,0,1.2.35l168.75-36.17A1.325,1.325,0,0,0,495.42,144.76Z"/><polygon fill="#d3aec6" points="264.38 122.03 261.7 122.05 325 182.97 375.23 121.19 264.38 122.03"/><path fill="#d3aec6" d="M254.88,122.1l-125.13.95,61.61,60.27a1.33,1.33,0,0,0,1.19-.33l65.24-60.91Z"/><path fill="#6d7486" d="M288.48,100.04a1.292,1.292,0,0,1-.35,1.48l-23.75,20.51-2.68.02-1.94.01-1.97.02-2.91.02-26.43-22.01a1.3,1.3,0,0,1-.35-1.54l7.82-16.94a1.29,1.29,0,0,1,1.18-.75h42.48a1.294,1.294,0,0,1,1.2.8Z"/><path fill="#f2cae2" d="M233.16,122.26v.01l-52.61.39L27.27,56.01l35.62-7.8a2.214,2.214,0,0,1,1.32.12Z"/><polygon fill="#4689d3" points="259.76 122.06 261.7 122.05 300.39 159.29 278.91 229.44 258.98 222.41 259.76 122.06"/><polygon fill="#5fa8ed" points="259.76 122.06 258.98 222.41 237.74 228.89 215.36 161.69 257.79 122.08 259.76 122.06"/><path fill="#f2cae2" d="M129.75,123.05l-72.25.54a1.307,1.307,0,0,0-.71.21L24.13,144.67a1.324,1.324,0,0,0,.43,2.41l166.8,36.24Z"/><path fill="#ffdcf3" d="M129.75 123.05l-20.79.15L17.03 62.12a2.213 2.213 0 0 1 .71-4.03l9.53-2.08 153.28 66.65zM486 58.09a2.213 2.213 0 0 1 .71 4.03l-92.29 58.93-19.19.14-51.11.39L476.47 56.01z"/><path fill="#f2cae2" d="M476.47,56.01,324.12,121.58l-38.55.29L439.53,48.33a2.214,2.214,0,0,1,1.32-.12Z"/><path fill="#565c68" d="M261.74 228.89l-2.76-6.48-21.24 6.48 18 234.48a.5.5 0 0 0 1 .01l12.707-134.089zM252.45 100.09a1.3 1.3 0 0 1-.35-1.54l7.82-16.87A1.23 1.23 0 0 1 261.1 81h-24a1.23 1.23 0 0 0-1.18.68l-7.82 16.9a1.27 1.27 0 0 0 .35 1.522l26.43 22 2.91-.025 1.97-.022 1.94-.011 2.68-.02 7.077-6.112z"/><polygon fill="#4f92c9" points="235.578 142.816 215.36 161.69 237.74 228.89 258.98 222.41 259 219.874 235.578 142.816"/></svg>