<svg xmlns="http://www.w3.org/2000/svg" xmlns:xlink="http://www.w3.org/1999/xlink" id="Capa_1" width="512" height="512" enable-background="new 0 0 510 510" viewBox="0 0 510 510">
  <linearGradient id="lg1">
    <stop offset="0" stop-color="#febbbf"/>
    <stop offset="1" stop-color="#d9b1ee"/>
  </linearGradient>
  <linearGradient xlink:href="#lg1" id="SVGID_1_" x1="243.418" x2="264.934" y1="184.582" y2="206.098" gradientUnits="userSpaceOnUse"/>
  <linearGradient id="lg2">
    <stop offset="0" stop-color="#6f3f8a" stop-opacity="0"/>
    <stop offset="1" stop-color="#5b3374"/>
  </linearGradient>
  <linearGradient xlink:href="#lg2" id="SVGID_2_" x1="255" x2="255" y1="191" y2="224.879" gradientUnits="userSpaceOnUse"/>
  <linearGradient id="lg3">
    <stop offset="0" stop-color="#af66da" stop-opacity="0"/>
    <stop offset="1" stop-color="#9857bd"/>
  </linearGradient>
  <linearGradient xlink:href="#lg3" id="SVGID_3_" x1="264.999" x2="250.666" y1="190.052" y2="219.552" gradientUnits="userSpaceOnUse"/>
  <linearGradient xlink:href="#lg1" id="SVGID_4_" x1="220.041" x2="273.416" y1="254.525" y2="307.901" gradientUnits="userSpaceOnUse"/>
  <linearGradient id="lg4">
    <stop offset="0" stop-color="#d9b1ee"/>
    <stop offset=".528" stop-color="#af66da"/>
    <stop offset="1" stop-color="#6f3f8a"/>
  </linearGradient>
  <linearGradient xlink:href="#lg4" id="SVGID_5_" x1="220.466" x2="443.619" y1="188.134" y2="411.288" gradientUnits="userSpaceOnUse"/>
  <linearGradient xlink:href="#lg2" id="SVGID_6_" x1="346.07" x2="363.849" y1="290.585" y2="233.862" gradientUnits="userSpaceOnUse"/>
  <linearGradient xlink:href="#lg4" id="SVGID_7_" x1="352.273" x2="480.915" y1="132.52" y2="261.162" gradientUnits="userSpaceOnUse"/>
  <linearGradient xlink:href="#lg2" id="SVGID_8_" x1="318.854" x2="349.331" y1="323.34" y2="294.133" gradientUnits="userSpaceOnUse"/>
  <linearGradient xlink:href="#lg2" id="SVGID_9_" x1="388.934" x2="377.928" y1="200.841" y2="137.345" gradientUnits="userSpaceOnUse"/>
  <linearGradient id="SVGID_10_" x1="368.406" x2="355.406" y1="209.41" y2="250.91" gradientUnits="userSpaceOnUse">
    <stop offset="0" stop-color="#af66da" stop-opacity="0"/>
    <stop offset="1" stop-color="#6f3f8a"/>
  </linearGradient>
  <linearGradient xlink:href="#lg4" id="SVGID_11_" x1="120.495" x2="218.281" y1="253.581" y2="351.366" gradientUnits="userSpaceOnUse"/>
  <linearGradient xlink:href="#lg2" id="SVGID_12_" x1="679.268" x2="697.047" y1="290.585" y2="233.862" gradientTransform="matrix(-1 0 0 1 843.198 0)" gradientUnits="userSpaceOnUse"/>
  <linearGradient xlink:href="#lg4" id="SVGID_13_" x1="37.63" x2="186.218" y1="118.864" y2="267.451" gradientUnits="userSpaceOnUse"/>
  <linearGradient xlink:href="#lg2" id="SVGID_14_" x1="652.052" x2="682.529" y1="323.34" y2="294.133" gradientTransform="matrix(-1 0 0 1 843.198 0)" gradientUnits="userSpaceOnUse"/>
  <linearGradient xlink:href="#lg2" id="SVGID_15_" x1="722.132" x2="711.126" y1="200.841" y2="137.345" gradientTransform="matrix(-1 0 0 1 843.198 0)" gradientUnits="userSpaceOnUse"/>
  <linearGradient xlink:href="#lg2" id="SVGID_16_" x1="148.988" x2="158.488" y1="232.279" y2="262.279" gradientUnits="userSpaceOnUse"/>
  <linearGradient xlink:href="#lg3" id="SVGID_17_" x1="267.333" x2="227.134" y1="288.051" y2="288.051" gradientUnits="userSpaceOnUse"/>
  <linearGradient xlink:href="#lg3" id="SVGID_18_" x1="255" x2="255" y1="321.333" y2="368.119" gradientUnits="userSpaceOnUse"/>
  <g>
    <path fill="url(#SVGID_1_)" d="m253.632 217.412-16.197-13.495c-.919-.765-1.435-1.804-1.435-2.886v-9.733c0-1.083.516-2.121 1.435-2.886l8.261-6.883c.919-.765 2.165-1.196 3.464-1.196h11.681c1.299 0 2.545.43 3.464 1.196l8.26 6.883c.919.765 1.435 1.804 1.435 2.886v9.733c0 1.083-.516 2.121-1.435 2.886l-16.197 13.495c-.755.629-1.981.629-2.736 0z"/>
    <path fill="url(#SVGID_2_)" d="m253.632 217.412-16.197-13.495c-.919-.765-1.435-1.804-1.435-2.886v-9.733c0-1.083.516-2.121 1.435-2.886l8.261-6.883c.919-.765 2.165-1.196 3.464-1.196h11.681c1.299 0 2.545.43 3.464 1.196l8.26 6.883c.919.765 1.435 1.804 1.435 2.886v9.733c0 1.083-.516 2.121-1.435 2.886l-16.197 13.495c-.755.629-1.981.629-2.736 0z"/>
    <path fill="url(#SVGID_3_)" d="m272.565 203.917c.919-.766 1.435-1.804 1.435-2.886v-9.733c0-1.083-.516-2.121-1.435-2.886l-8.261-6.883c-.919-.766-2.165-1.196-3.464-1.196h-5.84v33.564l2.681 2.422z"/>
    <path fill="url(#SVGID_4_)" d="m255 213.897-30.217 112.696c-.901 3.359.011 6.944 2.406 9.466l22.793 23.993c2.729 2.872 7.307 2.872 10.036 0l22.793-23.993c2.395-2.521 3.306-6.107 2.406-9.466z"/>
    <g>
      <g>
        <path fill="url(#SVGID_5_)" d="m255 213.897 33.018 99.055 66.166 108.701c2.778 4.564 8.636 6.167 13.351 3.652l50.457-26.91c2.997-1.598 5.337-4.199 6.611-7.348l25.921-64.082c1.568-3.876.666-8.314-2.29-11.27l-78.939-78.939z"/>
        <path fill="url(#SVGID_6_)" d="m448.233 315.695-78.939-78.939-114.294-22.859 33.018 99.055 5.669 9.313h157.56c-.186-2.432-1.219-4.775-3.014-6.57z"/>
        <path fill="url(#SVGID_7_)" d="m255 213.897 177.137-127.933c3.574-2.581 8.213-3.171 12.319-1.566l61.791 24.148c2.949 1.152 4.462 4.427 3.428 7.42l-44.624 129.175c-1.173 3.396-3.103 6.48-5.643 9.02l-19.002 19.002c-3.1 3.1-7.709 4.137-11.838 2.664l-83.082-29.644z"/>
        <path fill="url(#SVGID_8_)" d="m354.184 421.652c2.778 4.564 8.636 6.167 13.351 3.652l50.457-26.91c.636-.339 1.235-.733 1.808-1.158l-164.8-183.339 33.018 99.055z"/>
        <path fill="url(#SVGID_9_)" d="m440.406 273.164 19.002-19.002c2.54-2.54 4.47-5.625 5.643-9.02l44.624-129.175c.392-1.136.416-2.312.135-3.398l-254.81 101.328 173.568 61.931c4.13 1.473 8.738.436 11.838-2.664z"/>
        <path fill="url(#SVGID_10_)" d="m440.406 273.164 19.002-19.002c2.54-2.54 4.47-5.625 5.643-9.02l44.624-129.175c.392-1.136.416-2.312.135-3.398l-254.81 101.328 173.568 61.931c4.13 1.473 8.738.436 11.838-2.664z"/>
      </g>
      <g>
        <path fill="url(#SVGID_11_)" d="m255 213.897-33.018 99.055-66.166 108.701c-2.778 4.564-8.636 6.167-13.351 3.652l-50.457-26.91c-2.997-1.598-5.337-4.199-6.61-7.348l-25.921-64.082c-1.568-3.876-.666-8.314 2.291-11.27l78.939-78.939z"/>
        <path fill="url(#SVGID_12_)" d="m61.767 315.695 78.939-78.939 114.294-22.859-33.018 99.055-5.669 9.313h-157.56c.186-2.432 1.219-4.775 3.014-6.57z"/>
        <path fill="url(#SVGID_13_)" d="m255 213.897-177.137-127.933c-3.574-2.581-8.213-3.171-12.319-1.566l-61.791 24.148c-2.949 1.152-4.462 4.427-3.428 7.42l44.624 129.175c1.173 3.396 3.103 6.48 5.643 9.02l19.002 19.002c3.1 3.1 7.709 4.137 11.838 2.664z"/>
        <path fill="url(#SVGID_14_)" d="m155.816 421.652c-2.778 4.564-8.636 6.167-13.351 3.652l-50.457-26.91c-.636-.339-1.235-.733-1.808-1.158l164.8-183.339-33.018 99.055z"/>
        <path fill="url(#SVGID_15_)" d="m69.594 273.164-19.002-19.002c-2.54-2.54-4.47-5.625-5.643-9.02l-44.624-129.176c-.392-1.136-.416-2.312-.135-3.398l254.81 101.329-173.568 61.931c-4.13 1.473-8.738.436-11.838-2.664z"/>
        <path fill="url(#SVGID_16_)" d="m69.594 273.164-19.002-19.002c-2.54-2.54-4.47-5.625-5.643-9.02l-44.624-129.176c-.392-1.136-.416-2.312-.135-3.398l254.81 101.329-173.568 61.931c-4.13 1.473-8.738.436-11.838-2.664z"/>
      </g>
    </g>
    <path fill="url(#SVGID_17_)" d="m260.018 360.051 22.793-23.992c2.395-2.521 3.306-6.107 2.406-9.466l-30.217-112.696v148.308c1.827 0 3.654-.718 5.018-2.154z"/>
    <path fill="url(#SVGID_18_)" d="m224.783 326.593c-.901 3.359.011 6.944 2.406 9.466l22.793 23.992c2.729 2.872 7.307 2.872 10.036 0l22.793-23.992c2.395-2.521 3.306-6.107 2.406-9.466l-4.628-17.26h-51.178z"/>
  </g>
</svg>
