<svg xmlns="http://www.w3.org/2000/svg" xmlns:xlink="http://www.w3.org/1999/xlink" id="Capa_1" width="512" height="512" enable-background="new 0 0 510 510" viewBox="0 0 510 510">
  <linearGradient id="lg1">
    <stop offset="0" stop-color="#a2e62e"/>
    <stop offset=".528" stop-color="#81b823"/>
    <stop offset="1" stop-color="#037e73"/>
  </linearGradient>
  <linearGradient xlink:href="#lg1" id="SVGID_1_" x1="218.682" x2="336.636" y1="385" y2="385" gradientUnits="userSpaceOnUse"/>
  <linearGradient id="lg2">
    <stop offset="0" stop-color="#037e73" stop-opacity="0"/>
    <stop offset="1" stop-color="#037e73"/>
  </linearGradient>
  <linearGradient xlink:href="#lg2" id="SVGID_2_" x1="280.522" x2="255.272" y1="319.871" y2="286.871" gradientUnits="userSpaceOnUse"/>
  <linearGradient xlink:href="#lg2" id="SVGID_3_" x1="283.451" x2="259.784" y1="373.869" y2="403.536" gradientUnits="userSpaceOnUse"/>
  <linearGradient id="lg3">
    <stop offset="0" stop-color="#fef056"/>
    <stop offset=".521" stop-color="#f4d902"/>
    <stop offset="1" stop-color="#fe9738"/>
  </linearGradient>
  <linearGradient xlink:href="#lg3" id="SVGID_4_" x1="124.123" x2="382.01" y1="150.401" y2="150.401" gradientUnits="userSpaceOnUse"/>
  <linearGradient id="lg4">
    <stop offset="0" stop-color="#fe9738" stop-opacity="0"/>
    <stop offset="1" stop-color="#f05a24"/>
  </linearGradient>
  <linearGradient xlink:href="#lg4" id="SVGID_5_" x1="256.454" x2="207.954" y1="166.146" y2="182.146" gradientUnits="userSpaceOnUse"/>
  <linearGradient xlink:href="#lg3" id="SVGID_6_" x1="104.914" x2="252.588" y1="153.03" y2="153.03" gradientUnits="userSpaceOnUse"/>
  <linearGradient xlink:href="#lg3" id="SVGID_7_" x1="281.401" x2="371.401" y1="135.553" y2="216.553" gradientUnits="userSpaceOnUse"/>
  <linearGradient xlink:href="#lg4" id="SVGID_8_" x1="287.927" x2="-68.74" y1="161.455" y2="32.121" gradientUnits="userSpaceOnUse"/>
  <linearGradient xlink:href="#lg1" id="SVGID_9_" x1="161.062" x2="311.062" y1="388.415" y2="470.415" gradientUnits="userSpaceOnUse"/>
  <linearGradient xlink:href="#lg2" id="SVGID_10_" x1="251.99" x2="251.99" y1="491" y2="512.677" gradientUnits="userSpaceOnUse"/>
  <linearGradient xlink:href="#lg2" id="SVGID_11_" x1="225.845" x2="102.512" y1="404.349" y2="433.683" gradientUnits="userSpaceOnUse"/>
  <g>
    <path fill="url(#SVGID_1_)" d="m255 260-56.186 237.83c-1.468 6.213 3.245 12.17 9.63 12.17h96.706c4.549 0 7.908-4.244 6.862-8.672z"/>
    <path fill="url(#SVGID_2_)" d="m255.742 263.141-1.487.011-8.141 36.095 23.811 23.928z"/>
    <path fill="url(#SVGID_3_)" d="m207.436 461.333h95.128l-28.844-122.093-31.511-25.097z"/>
    <g>
      <path fill="url(#SVGID_4_)" d="m242.475 295.614-127.694-127.695c-10.817-10.817-10.817-28.356 0-39.173l120.632-120.633c10.817-10.817 28.356-10.817 39.173 0l120.633 120.633c10.817 10.817 10.817 28.356 0 39.173l-127.694 127.695c-6.917 6.917-18.133 6.917-25.05 0z"/>
      <path fill="url(#SVGID_5_)" d="m350.67 212.473-83.145 83.145c-6.917 6.917-18.133 6.917-25.05 0l-127.695-127.695c-10.819-10.819-10.819-28.361 0-39.18l76.08-76.08z"/>
      <g>
        <path fill="url(#SVGID_6_)" d="m164.432 7.166-52.556 52.56c-4.458 4.458-6.962 10.504-6.962 16.808v71.671c0 6.305 2.504 12.351 6.962 16.809l135.851 135.851c2.04 2.04 5.47.095 4.767-2.703l-71.963-286.546c-1.817-7.233-10.826-9.723-16.099-4.45z"/>
        <path fill="url(#SVGID_7_)" d="m345.568 7.166 52.556 52.56c4.458 4.458 6.962 10.504 6.962 16.808v71.671c0 6.305-2.505 12.351-6.963 16.809l-135.851 135.852c-2.04 2.04-5.47.095-4.767-2.703l71.964-286.548c1.817-7.232 10.826-9.722 16.099-4.449z"/>
      </g>
      <path fill="url(#SVGID_8_)" d="m267.525 295.614 127.694-127.694c10.817-10.817 10.817-28.356 0-39.173l-120.632-120.634c-5.409-5.409-12.498-8.113-19.587-8.113v300.802c4.533 0 9.066-1.73 12.525-5.188z"/>
    </g>
    <path fill="url(#SVGID_9_)" d="m305.15 510h-100.3c-.723 0-1.417-.108-2.068-.307-2.122-.65-3.644-2.523-4.112-4.693l-.64-3.85-33.858-203.843c-.5-3.01 3.155-4.889 5.313-2.732l62.565 62.565 58.063 58.063c1.325 1.325 2.255 2.993 2.686 4.816l19.211 81.31c1.05 4.431-2.31 8.671-6.86 8.671z"/>
    <path fill="url(#SVGID_10_)" d="m198.03 501.15.64 3.85c.468 2.169 1.99 4.043 4.112 4.693.651.199 1.345.307 2.068.307h100.3c4.55 0 7.91-4.24 6.86-8.67l-8.938-37.83h-111.296z"/>
    <path fill="url(#SVGID_11_)" d="m292.799 420.02c-.431-1.824-1.361-3.491-2.686-4.816l-58.063-58.064-62.565-62.565c-1.19-1.19-2.833-1.147-3.985-.369l99.105 215.794h40.545c4.55 0 7.91-4.24 6.86-8.67z"/>
  </g>
</svg>
