<svg xmlns="http://www.w3.org/2000/svg" xmlns:xlink="http://www.w3.org/1999/xlink" id="Capa_1" width="512" height="512" enable-background="new 0 0 510 510" viewBox="0 0 510 510">
  <linearGradient id="lg1">
    <stop offset="0" stop-color="#ffdcbd"/>
    <stop offset=".003" stop-color="#ffdcbd"/>
    <stop offset="1" stop-color="#ffa9b1"/>
  </linearGradient>
  <linearGradient xlink:href="#lg1" id="SVGID_1_" x1="-65.198" x2="72.89" y1="195.336" y2="333.424" gradientTransform="rotate(-73.45 34.733 152.054)" gradientUnits="userSpaceOnUse"/>
  <linearGradient id="lg2">
    <stop offset="0" stop-color="#ffc2b5" stop-opacity="0"/>
    <stop offset="1" stop-color="#ff89a8"/>
  </linearGradient>
  <linearGradient xlink:href="#lg2" id="SVGID_2_" x1="123.539" x2="124.914" y1="220.922" y2="216.422" gradientUnits="userSpaceOnUse"/>
  <linearGradient xlink:href="#lg2" id="SVGID_3_" x1="124.293" x2="123.293" y1="218.426" y2="222.051" gradientUnits="userSpaceOnUse"/>
  <linearGradient xlink:href="#lg2" id="SVGID_4_" x1="25.439" x2="72.254" y1="335.947" y2="384.166" gradientTransform="rotate(-73.45 34.733 152.054)" gradientUnits="userSpaceOnUse"/>
  <linearGradient xlink:href="#lg2" id="SVGID_5_" x1="-3553.667" x2="-3506.852" y1="335.947" y2="384.166" gradientTransform="scale(-1 1)rotate(73.45 -1827.018 2554.573)" gradientUnits="userSpaceOnUse"/>
  <linearGradient xlink:href="#lg2" id="SVGID_6_" x1="169.065" x2="156.731" y1="232.452" y2="225.119" gradientUnits="userSpaceOnUse"/>
  <linearGradient xlink:href="#lg2" id="SVGID_7_" x1="173.345" x2="152.345" y1="230.069" y2="230.403" gradientUnits="userSpaceOnUse"/>
  <linearGradient xlink:href="#lg2" id="SVGID_8_" x1="181.82" x2="196.153" y1="229.314" y2="216.314" gradientUnits="userSpaceOnUse"/>
  <linearGradient id="lg3">
    <stop offset="0" stop-color="#fe646f"/>
    <stop offset=".521" stop-color="#e41f2d"/>
    <stop offset="1" stop-color="#c41926"/>
  </linearGradient>
  <linearGradient xlink:href="#lg3" id="SVGID_9_" x1="-47.466" x2="74.097" y1="164.962" y2="286.524" gradientTransform="rotate(-73.45 34.733 152.054)" gradientUnits="userSpaceOnUse"/>
  <linearGradient id="lg4">
    <stop offset="0" stop-color="#e41f2d" stop-opacity="0"/>
    <stop offset=".411" stop-color="#b1161e" stop-opacity=".411"/>
    <stop offset=".802" stop-color="#860e12" stop-opacity=".802"/>
    <stop offset="1" stop-color="#750b0d"/>
  </linearGradient>
  <linearGradient xlink:href="#lg4" id="SVGID_10_" x1="152.613" x2="168.63" y1="198.613" y2="182.596" gradientUnits="userSpaceOnUse"/>
  <linearGradient xlink:href="#lg4" id="SVGID_11_" x1="5.789" x2="-17.178" y1="214.216" y2="218.767" gradientTransform="rotate(-73.45 34.733 152.054)" gradientUnits="userSpaceOnUse"/>
  <linearGradient xlink:href="#lg3" id="SVGID_12_" x1="-45.198" x2="44.611" y1="196.641" y2="286.449" gradientTransform="rotate(-73.45 34.733 152.054)" gradientUnits="userSpaceOnUse"/>
  <linearGradient xlink:href="#lg1" id="SVGID_13_" x1="48.531" x2="156.698" y1="203.262" y2="311.429" gradientTransform="rotate(-73.45 34.733 152.054)" gradientUnits="userSpaceOnUse"/>
  <linearGradient xlink:href="#lg2" id="SVGID_14_" x1="147.103" x2="148.181" y1="122.684" y2="119.159" gradientUnits="userSpaceOnUse"/>
  <linearGradient xlink:href="#lg2" id="SVGID_15_" x1="147.694" x2="146.911" y1="120.729" y2="123.568" gradientUnits="userSpaceOnUse"/>
  <linearGradient xlink:href="#lg2" id="SVGID_16_" x1="119.529" x2="156.2" y1="313.405" y2="351.176" gradientTransform="rotate(-73.45 34.733 152.054)" gradientUnits="userSpaceOnUse"/>
  <linearGradient xlink:href="#lg2" id="SVGID_17_" x1="-3660.342" x2="-3623.671" y1="313.405" y2="351.176" gradientTransform="scale(-1 1)rotate(73.45 -1827.018 2554.573)" gradientUnits="userSpaceOnUse"/>
  <linearGradient xlink:href="#lg2" id="SVGID_18_" x1="182.765" x2="173.104" y1="131.716" y2="125.971" gradientUnits="userSpaceOnUse"/>
  <linearGradient xlink:href="#lg2" id="SVGID_19_" x1="186.118" x2="169.668" y1="129.849" y2="130.11" gradientUnits="userSpaceOnUse"/>
  <linearGradient xlink:href="#lg2" id="SVGID_20_" x1="192.756" x2="203.983" y1="129.258" y2="119.074" gradientUnits="userSpaceOnUse"/>
  <linearGradient xlink:href="#lg3" id="SVGID_21_" x1="62.421" x2="157.643" y1="179.469" y2="274.691" gradientTransform="rotate(-73.45 34.733 152.054)" gradientUnits="userSpaceOnUse"/>
  <linearGradient xlink:href="#lg4" id="SVGID_22_" x1="169.878" x2="182.424" y1="105.209" y2="92.662" gradientUnits="userSpaceOnUse"/>
  <linearGradient xlink:href="#lg4" id="SVGID_23_" x1="104.136" x2="86.146" y1="218.051" y2="221.615" gradientTransform="rotate(-73.45 34.733 152.054)" gradientUnits="userSpaceOnUse"/>
  <linearGradient xlink:href="#lg3" id="SVGID_24_" x1="64.198" x2="134.546" y1="204.284" y2="274.633" gradientTransform="rotate(-73.45 34.733 152.054)" gradientUnits="userSpaceOnUse"/>
  <linearGradient xlink:href="#lg4" id="SVGID_25_" x1="131.511" x2="169.511" y1="121.442" y2="128.775" gradientUnits="userSpaceOnUse"/>
  <linearGradient xlink:href="#lg3" id="SVGID_26_" x1="457.251" x2="515.113" y1="204.21" y2="262.072" gradientTransform="rotate(89.03 346.921 340.315)" gradientUnits="userSpaceOnUse"/>
  <linearGradient xlink:href="#lg4" id="SVGID_27_" x1="468.441" x2="469.941" y1="473.578" y2="442.578" gradientUnits="userSpaceOnUse"/>
  <linearGradient xlink:href="#lg3" id="SVGID_28_" x1="420.419" x2="497.685" y1="192.186" y2="269.452" gradientTransform="rotate(68.72 296.73 319.14)" gradientUnits="userSpaceOnUse"/>
  <linearGradient xlink:href="#lg4" id="SVGID_29_" x1="451.597" x2="450.097" y1="414.598" y2="388.098" gradientUnits="userSpaceOnUse"/>
  <linearGradient xlink:href="#lg3" id="SVGID_30_" x1="372.343" x2="464.252" y1="203.75" y2="295.658" gradientTransform="rotate(56.96 279.03 306.596)" gradientUnits="userSpaceOnUse"/>
  <linearGradient xlink:href="#lg4" id="SVGID_31_" x1="412.048" x2="406.048" y1="364.701" y2="334.034" gradientUnits="userSpaceOnUse"/>
  <linearGradient xlink:href="#lg3" id="SVGID_32_" x1="316.419" x2="419.83" y1="210.53" y2="313.941" gradientTransform="rotate(49.5 275.29 298.72)" gradientUnits="userSpaceOnUse"/>
  <linearGradient xlink:href="#lg4" id="SVGID_33_" x1="364.675" x2="364.675" y1="300.5" y2="263.5" gradientUnits="userSpaceOnUse"/>
  <linearGradient xlink:href="#lg3" id="SVGID_34_" x1="86.886" x2="377.645" y1="137.884" y2="428.643" gradientTransform="rotate(45 281.834 294.484)" gradientUnits="userSpaceOnUse"/>
  <linearGradient xlink:href="#lg4" id="SVGID_35_" x1="258.637" x2="309.97" y1="163.792" y2="265.125" gradientUnits="userSpaceOnUse"/>
  <linearGradient xlink:href="#lg4" id="SVGID_36_" x1="218.445" x2="165.112" y1="163.494" y2="225.494" gradientUnits="userSpaceOnUse"/>
  <linearGradient xlink:href="#lg3" id="SVGID_37_" x1="307.03" x2="366.363" y1="168.355" y2="301.688" gradientUnits="userSpaceOnUse"/>
  <linearGradient id="SVGID_38_" x1="210.434" x2="228.445" y1="83.793" y2="101.804" gradientUnits="userSpaceOnUse">
    <stop offset="0" stop-color="#5a5a5a"/>
    <stop offset=".06" stop-color="#575858"/>
    <stop offset=".635" stop-color="#404d4d"/>
    <stop offset="1" stop-color="#384949"/>
  </linearGradient>
  <g>
    <g>
      <path fill="url(#SVGID_1_)" d="m2.757 185.959 147.847 86.884c4.232 2.487 9.745 3.533 13.873 2.632l80.874-17.645c3.317-.724 4.077-3.28 1.694-5.698l-58.109-58.952c-2.966-3.009-8.155-5.144-13.059-5.372l-171.301-7.97c-5.128-.239-6.245 3.521-1.819 6.121z"/>
      <path fill="url(#SVGID_2_)" d="m3.627 183.033 159.06 49.157c4.553 1.407 9.911 2.974 13.484 3.942l69.991 18.975c2.87.778 2.904.666.074-.25l-68.993-22.333c-3.522-1.14-8.865-2.754-13.448-4.062l-160.088-45.698c-4.793-1.368-4.842-1.203-.08.269z"/>
      <path fill="url(#SVGID_3_)" d="m3.707 182.764 160.088 45.698c4.583 1.308 9.926 2.922 13.448 4.062l68.993 22.333c2.83.916 2.796 1.028-.074.25l-69.991-18.975c-3.573-.969-8.93-2.535-13.484-3.942l-159.06-49.157c-4.762-1.472-4.713-1.637.08-.269z"/>
      <g>
        <path fill="url(#SVGID_4_)" d="m247.045 252.133-58.109-58.952c-2.966-3.009-8.155-5.144-13.059-5.372l-36.11-1.68 47.568 48.258c1.192 1.209 1.597 2.452 1.291 3.484l59.71 17.747c.306-1.033-.099-2.277-1.291-3.485z"/>
        <path fill="url(#SVGID_5_)" d="m245.352 257.831-80.874 17.645c-4.128.901-9.641-.145-13.873-2.632l-31.166-18.315 66.203-14.444c1.658-.362 2.678-1.182 2.984-2.214l59.71 17.747c-.307 1.031-1.326 1.851-2.984 2.213z"/>
      </g>
      <g>
        <path fill="url(#SVGID_6_)" d="m150.604 272.843c4.232 2.487 9.745 3.533 13.873 2.632l8.961-1.955 21.936-73.807-6.439-6.532c-2.966-3.009-8.155-5.144-13.059-5.372l-43.467-2.023-19.322 65.011z"/>
      </g>
      <path fill="url(#SVGID_7_)" d="m188.938 193.18 6.439 6.534-21.322 71.741-17.253 3.811c-2.164-.49-4.309-1.313-6.198-2.424l-37.514-22.044 19.322-65.012 43.465 2.023c4.905.227 10.093 2.362 13.061 5.371z"/>
      <path fill="url(#SVGID_8_)" d="m133.697 185.846 66.397 81.859 45.258-9.874c3.317-.724 4.077-3.28 1.694-5.698l-58.109-58.952c-2.966-3.009-8.155-5.144-13.059-5.372z"/>
      <path fill="url(#SVGID_9_)" d="m175.875 187.809-171.299-7.971c-2.563-.119-4.124.761-4.491 1.996l157.063 46.681 25.244-39.351c-2.081-.772-4.327-1.254-6.517-1.355z"/>
      <path fill="url(#SVGID_10_)" d="m182.391 189.164c-2.081-.771-4.326-1.253-6.516-1.355l-42.178-1.963 28.378 34.987z"/>
      <path fill="url(#SVGID_11_)" d="m107.292 184.617-102.716-4.779c-2.563-.119-4.124.761-4.491 1.996l157.063 46.681 15.667-24.423z"/>
      <path fill="url(#SVGID_12_)" d="m150.602 272.843-147.845-86.883c-2.212-1.301-3.039-2.89-2.672-4.125l155.06 42.132c1.396.379 2.441 1.288 2.428 2.112l-.772 49.188c-2.164-.491-4.309-1.313-6.199-2.424z"/>
    </g>
    <g>
      <path fill="url(#SVGID_13_)" d="m52.493 95.297 115.811 68.057c3.315 1.948 7.633 2.768 10.867 2.062l63.35-13.821c2.598-.567 3.193-2.57 1.327-4.463l-45.518-46.178c-2.324-2.357-6.388-4.029-10.229-4.208l-134.183-6.244c-4.017-.187-4.892 2.758-1.425 4.795z"/>
      <path fill="url(#SVGID_14_)" d="m53.174 93.005 124.594 38.505c3.567 1.102 7.763 2.329 10.562 3.088l54.825 14.863c2.248.61 2.275.522.058-.196l-54.043-17.493c-2.759-.893-6.944-2.157-10.534-3.182l-125.4-35.796c-3.753-1.071-3.792-.942-.062.211z"/>
      <path fill="url(#SVGID_15_)" d="m53.237 92.794 125.4 35.796c3.59 1.025 7.775 2.289 10.534 3.182l54.043 17.493c2.216.717 2.19.805-.058.196l-54.825-14.863c-2.799-.759-6.995-1.986-10.562-3.088l-124.595-38.505c-3.73-1.153-3.691-1.282.063-.211z"/>
      <g>
        <path fill="url(#SVGID_16_)" d="m243.848 147.132-45.518-46.178c-2.324-2.357-6.388-4.029-10.229-4.208l-28.286-1.316 37.261 37.801c.933.947 1.251 1.921 1.011 2.729l46.772 13.901c.24-.808-.078-1.782-1.011-2.729z"/>
        <path fill="url(#SVGID_17_)" d="m242.521 151.595-63.35 13.821c-3.234.706-7.552-.114-10.867-2.062l-24.413-14.346 51.858-11.314c1.299-.283 2.097-.926 2.338-1.734l46.772 13.901c-.24.808-1.039 1.451-2.338 1.734z"/>
      </g>
      <g>
        <path fill="url(#SVGID_18_)" d="m168.304 163.355c3.315 1.948 7.633 2.768 10.867 2.062l7.02-1.532 17.183-57.815-5.044-5.117c-2.324-2.357-6.388-4.029-10.229-4.208l-34.048-1.584-15.135 50.924z"/>
      </g>
      <path fill="url(#SVGID_19_)" d="m198.331 100.953 5.044 5.118-16.702 56.196-13.515 2.985c-1.695-.384-3.375-1.028-4.855-1.899l-29.385-17.268 15.136-50.925 34.047 1.585c3.842.179 7.906 1.851 10.23 4.208z"/>
      <path fill="url(#SVGID_20_)" d="m155.061 95.208 52.01 64.121 35.451-7.734c2.598-.567 3.193-2.569 1.327-4.463l-45.518-46.178c-2.324-2.357-6.388-4.029-10.229-4.208z"/>
      <path fill="url(#SVGID_21_)" d="m188.1 96.746-134.182-6.244c-2.008-.093-3.23.596-3.518 1.564l123.03 36.566 19.774-30.825c-1.63-.604-3.389-.982-5.104-1.061z"/>
      <path fill="url(#SVGID_22_)" d="m193.204 97.807c-1.63-.604-3.389-.982-5.104-1.061l-33.039-1.537 22.229 27.406z"/>
      <path fill="url(#SVGID_23_)" d="m134.377 94.246-80.459-3.744c-2.008-.093-3.23.596-3.518 1.564l123.03 36.566 12.273-19.131z"/>
      <path fill="url(#SVGID_24_)" d="m168.303 163.355-115.81-68.057c-1.733-1.019-2.38-2.264-2.093-3.231l121.461 33.003c1.093.297 1.912 1.009 1.902 1.654l-.605 38.53c-1.695-.385-3.375-1.029-4.855-1.899z"/>
    </g>
    <path fill="url(#SVGID_25_)" d="m198.33 100.954c-2.324-2.357-6.388-4.029-10.229-4.208l-73.434-3.417v38.506l53.637 31.521c3.315 1.948 7.633 2.768 10.867 2.062l63.35-13.822c2.598-.567 3.193-2.57 1.326-4.463z"/>
    <g>
      <path fill="url(#SVGID_26_)" d="m494.298 444.521 1.025 59.277c.112 6.485-8.644 8.624-11.535 2.818l-41.295-82.936z"/>
      <path fill="url(#SVGID_27_)" d="m494.298 444.521 1.025 59.277c.112 6.485-8.644 8.624-11.535 2.818l-41.295-82.936z"/>
      <path fill="url(#SVGID_28_)" d="m392.4 367.354 34.314 65.703c2.103 4.027 5.931 6.874 10.393 7.729l66.214 12.695c4.335.831 7.889-3.437 6.287-7.55l-23.137-59.391z"/>
      <path fill="url(#SVGID_29_)" d="m392.4 367.354 34.314 65.703c2.103 4.027 5.931 6.874 10.393 7.729l66.214 12.695c4.335.831 7.889-3.437 6.287-7.55l-23.137-59.391z"/>
      <path fill="url(#SVGID_30_)" d="m320.331 308.503 66.678 81.333c2.512 3.065 6.287 4.814 10.249 4.751l101.694-1.625c3.562-.057 5.667-4.014 3.724-6.999l-40.536-62.293z"/>
      <path fill="url(#SVGID_31_)" d="m462.14 323.668-141.809-15.165 53.149 64.83h120.978z"/>
      <path fill="url(#SVGID_32_)" d="m432.124 261.245 49.76 58.255c2.759 3.23.882 8.234-3.321 8.852l-133.289 19.602c-3.528.519-7.1-.602-9.699-3.043l-84.55-79.41z"/>
      <path fill="url(#SVGID_33_)" d="m432.124 261.245-181.099 4.255 53.059 49.833h174.241z"/>
      <path fill="url(#SVGID_34_)" d="m349.74 161.82-159.108-159.108c-5.501-5.501-14.922-2.132-15.687 5.609l-15.128 152.968c-.741 7.489 1.915 14.916 7.237 20.238l81.49 81.49z"/>
      <path fill="url(#SVGID_35_)" d="m184.21 198.685 64.333 64.332 101.197-101.197-70.222-70.222z"/>
      <path fill="url(#SVGID_36_)" d="m167.861 79.939-8.045 81.349c-.741 7.49 1.915 14.916 7.237 20.238l81.49 81.49 48.292-48.292z"/>
      <path fill="url(#SVGID_37_)" d="m241.81 258.993 100.453-100.453c3.943-3.943 10.337-3.943 14.281 0l100.453 100.453c4.103 4.103 1.197 11.117-4.605 11.117h-205.977c-5.802 0-8.707-7.015-4.605-11.117z"/>
    </g>
    <circle cx="218.641" cy="92" r="22.641" fill="url(#SVGID_38_)"/>
  </g>
</svg>
