<svg xmlns="http://www.w3.org/2000/svg" xmlns:xlink="http://www.w3.org/1999/xlink" id="Capa_1" width="512" height="512" enable-background="new 0 0 510 510" viewBox="0 0 510 510">
  <linearGradient id="SVGID_1_" x1="102.591" x2="479.837" y1="102.591" y2="479.837" gradientUnits="userSpaceOnUse">
    <stop offset="0" stop-color="#fef056"/>
    <stop offset=".521" stop-color="#f4d902"/>
    <stop offset="1" stop-color="#fe9738"/>
  </linearGradient>
  <linearGradient id="lg1">
    <stop offset="0" stop-color="#fe9738" stop-opacity="0"/>
    <stop offset="1" stop-color="#f05a24"/>
  </linearGradient>
  <linearGradient xlink:href="#lg1" id="SVGID_2_" x1="235.5" x2="285.51" y1="235.5" y2="285.51" gradientUnits="userSpaceOnUse"/>
  <linearGradient xlink:href="#lg1" id="SVGID_3_" x1="272" x2="213" y1="238" y2="297" gradientUnits="userSpaceOnUse"/>
  <linearGradient xlink:href="#lg1" id="SVGID_4_" x1="307.52" x2="-3.486" y1="328.48" y2="17.473" gradientUnits="userSpaceOnUse"/>
  <linearGradient xlink:href="#lg1" id="SVGID_5_" x1="355.667" x2="410.026" y1="355.667" y2="410.026" gradientUnits="userSpaceOnUse"/>
  <linearGradient xlink:href="#lg1" id="SVGID_6_" x1="543.726" x2="598.085" y1="355.667" y2="410.026" gradientTransform="matrix(-1 0 0 1 698.059 0)" gradientUnits="userSpaceOnUse"/>
  <linearGradient id="lg2">
    <stop offset="0" stop-color="#60b7ff"/>
    <stop offset="1" stop-color="#0268b4"/>
  </linearGradient>
  <linearGradient xlink:href="#lg2" id="SVGID_7_" x1="153.979" x2="197.726" y1="175.018" y2="218.765" gradientUnits="userSpaceOnUse"/>
  <linearGradient xlink:href="#lg1" id="SVGID_8_" x1="345.375" x2="256.73" y1="221.125" y2="132.48" gradientUnits="userSpaceOnUse"/>
  <linearGradient xlink:href="#lg1" id="SVGID_9_" x1="432.103" x2="298.304" y1="299.778" y2="165.978" gradientUnits="userSpaceOnUse"/>
  <linearGradient xlink:href="#lg2" id="SVGID_10_" x1="278.157" x2="428.407" y1="146.51" y2="296.76" gradientUnits="userSpaceOnUse"/>
  <g>
    <path fill="url(#SVGID_1_)" d="m238.747 503.268-232.015-232.015c-8.976-8.976-8.976-23.529 0-32.505l232.015-232.016c8.976-8.976 23.529-8.976 32.505 0l232.015 232.015c8.976 8.976 8.976 23.529 0 32.505l-232.014 232.016c-8.976 8.976-23.53 8.976-32.506 0z"/>
    <path fill="url(#SVGID_2_)" d="m371.673 130.827c1.919 0 3.839.732 5.303 2.196 2.929 2.93 2.929 7.678 0 10.607l-21.213 21.213c-2.929 2.929-7.678 2.927-10.606 0-2.929-2.93-2.929-7.678 0-10.607l21.213-21.213c1.464-1.463 3.384-2.196 5.303-2.196zm-53.033 53.034c1.919 0 3.839.732 5.303 2.196 2.929 2.93 2.929 7.678 0 10.607l-21.213 21.213c-2.929 2.928-7.678 2.928-10.606 0-2.929-2.93-2.929-7.678 0-10.607l21.213-21.213c1.464-1.464 3.383-2.196 5.303-2.196zm-53.033 53.033c1.919 0 3.839.732 5.303 2.196 2.929 2.93 2.929 7.678 0 10.607l-21.213 21.213c-2.931 2.929-7.679 2.927-10.607 0-2.929-2.93-2.929-7.678 0-10.607l21.214-21.213c1.464-1.464 3.384-2.196 5.303-2.196zm-53.033 53.032c1.919 0 3.839.732 5.304 2.196 2.929 2.93 2.929 7.678 0 10.607l-21.214 21.214c-2.93 2.928-7.678 2.928-10.607 0-2.929-2.93-2.929-7.678 0-10.607l21.214-21.214c1.464-1.464 3.384-2.196 5.303-2.196zm-53.033 53.033c1.919 0 3.839.732 5.304 2.196 2.929 2.93 2.929 7.678 0 10.607l-21.214 21.214c-2.93 2.928-7.678 2.928-10.607 0-2.929-2.93-2.929-7.678 0-10.607l21.214-21.214c1.464-1.463 3.384-2.196 5.303-2.196z"/>
    <path fill="url(#SVGID_3_)" d="m143.63 133.024 21.213 21.213c2.929 2.93 2.929 7.678 0 10.607-2.928 2.927-7.677 2.929-10.606 0l-21.213-21.213c-2.929-2.93-2.929-7.678 0-10.607 1.464-1.464 3.384-2.196 5.303-2.196 1.919-.001 3.839.732 5.303 2.196zm53.034 53.033 21.213 21.213c2.929 2.93 2.929 7.678 0 10.607-2.929 2.928-7.678 2.928-10.606 0l-21.213-21.213c-2.929-2.93-2.929-7.678 0-10.607 1.464-1.464 3.384-2.196 5.303-2.196s3.838.732 5.303 2.196zm53.032 53.033 21.214 21.213c2.929 2.93 2.929 7.678 0 10.607-2.929 2.927-7.677 2.929-10.607 0l-21.213-21.213c-2.929-2.93-2.929-7.678 0-10.607 1.464-1.464 3.384-2.196 5.303-2.196s3.839.732 5.303 2.196zm53.033 53.032 21.214 21.214c2.929 2.93 2.929 7.678 0 10.607-2.93 2.928-7.678 2.928-10.607 0l-21.214-21.214c-2.929-2.93-2.929-7.678 0-10.607 1.465-1.464 3.385-2.196 5.304-2.196s3.839.732 5.303 2.196zm53.034 53.034 21.214 21.214c2.929 2.93 2.929 7.678 0 10.607-2.93 2.928-7.678 2.928-10.607 0l-21.214-21.214c-2.929-2.93-2.929-7.678 0-10.607 1.465-1.464 3.385-2.196 5.304-2.196s3.838.732 5.303 2.196z"/>
    <path fill="url(#SVGID_4_)" d="m434.881 339.639-192.631-192.639h-11c-44.21 7.02-80 39.65-91.68 82.15l-2.07-.55c-.028-.007-.056-.015-.084-.022-3.904-.988-7.604 2.261-7.358 6.28l1.972 32.202.14 2.27 186.506 186.515z"/>
    <path fill="url(#SVGID_5_)" d="m503.268 238.747-50.688-50.688-264.521 264.52 50.688 50.688c8.976 8.976 23.529 8.976 32.505 0l232.015-232.015c8.977-8.975 8.977-23.529.001-32.505z"/>
    <path fill="url(#SVGID_6_)" d="m6.732 238.747 50.688-50.688 264.521 264.521-50.688 50.688c-8.976 8.976-23.529 8.976-32.505 0l-232.016-232.015c-8.976-8.976-8.976-23.53 0-32.506z"/>
    <path fill="url(#SVGID_7_)" d="m244.924 154.605c0 6.295-4.679 11.624-10.927 12.395-35.792 4.419-65.042 30.26-74.494 64.258l2.119.557c8.695 2.286 11.356 13.325 4.659 19.322l-19.839 17.765c-6.033 5.402-15.624 2.88-18.219-4.791l-8.535-25.226c-2.881-8.516 4.866-16.818 13.561-14.532l2.075.546c12.007-43.701 49.507-76.957 95.439-82.692 7.505-.936 14.161 4.834 14.161 12.398z"/>
    <path fill="url(#SVGID_8_)" d="m368.932 225.807-18.87 18.88-81-81h15.981c13.938 0 27.306 5.537 37.162 15.393z"/>
    <path fill="url(#SVGID_9_)" d="m350 180 5.569 11.089c5.255 10.463 7.991 22.009 7.991 33.717v44.094l71.026 71.035 37.675-37.675z"/>
    <path fill="url(#SVGID_10_)" d="m265.076 154.605c0 6.295 4.679 11.624 10.927 12.395 35.792 4.419 65.042 30.26 74.494 64.258l-2.119.557c-8.695 2.286-11.356 13.325-4.659 19.322l19.839 17.765c6.033 5.402 15.624 2.88 18.219-4.791l8.535-25.226c2.881-8.516-4.866-16.818-13.561-14.532l-2.075.546c-12.007-43.701-49.507-76.957-95.439-82.692-7.505-.936-14.161 4.834-14.161 12.398z"/>
  </g>
</svg>
