<svg xmlns="http://www.w3.org/2000/svg" xmlns:xlink="http://www.w3.org/1999/xlink" id="Capa_1" width="512" height="512" enable-background="new 0 0 510 510" viewBox="0 0 510 510">
  <linearGradient id="SVGID_1_" x1="104.817" x2="627.897" y1="104.817" y2="627.897" gradientUnits="userSpaceOnUse">
    <stop offset="0" stop-color="#e6f6df"/>
    <stop offset=".521" stop-color="#c1e9af"/>
    <stop offset="1" stop-color="#80d261"/>
  </linearGradient>
  <linearGradient id="lg1">
    <stop offset="0" stop-color="#037e73" stop-opacity="0"/>
    <stop offset="1" stop-color="#037e73"/>
  </linearGradient>
  <linearGradient xlink:href="#lg1" id="SVGID_2_" x1="309.298" x2="617.159" y1="289.708" y2="-199.63" gradientUnits="userSpaceOnUse"/>
  <linearGradient xlink:href="#lg1" id="SVGID_3_" x1="311.483" x2="624.218" y1="286.236" y2="-210.849" gradientTransform="matrix(-1 0 0 1 510 0)" gradientUnits="userSpaceOnUse"/>
  <linearGradient id="SVGID_4_" x1="216.172" x2="497.962" y1="95.956" y2="377.746" gradientUnits="userSpaceOnUse">
    <stop offset="0" stop-color="#a2e62e"/>
    <stop offset=".528" stop-color="#81b823"/>
    <stop offset="1" stop-color="#037e73"/>
  </linearGradient>
  <linearGradient xlink:href="#lg1" id="SVGID_5_" x1="255" x2="255" y1="383.796" y2="472.928" gradientUnits="userSpaceOnUse"/>
  <linearGradient xlink:href="#lg1" id="SVGID_6_" x1="426.456" x2="7.274" y1="211.195" y2="561.016" gradientUnits="userSpaceOnUse"/>
  <linearGradient xlink:href="#lg1" id="SVGID_7_" x1="219.033" x2="-27.269" y1="226.179" y2="47.935" gradientUnits="userSpaceOnUse"/>
  <linearGradient xlink:href="#lg1" id="SVGID_8_" x1="219.033" x2="-27.269" y1="226.179" y2="47.935" gradientTransform="matrix(-1 0 0 1 510 0)" gradientUnits="userSpaceOnUse"/>
  <linearGradient xlink:href="#lg1" id="SVGID_9_" x1="407.742" x2="335.742" y1="283.665" y2="70.665" gradientUnits="userSpaceOnUse"/>
  <linearGradient id="lg2">
    <stop offset="0" stop-color="#fef056"/>
    <stop offset=".521" stop-color="#f4d902"/>
    <stop offset="1" stop-color="#fe9738"/>
  </linearGradient>
  <linearGradient xlink:href="#lg2" id="SVGID_10_" x1="347.765" x2="347.765" y1="164" y2="258.005" gradientUnits="userSpaceOnUse"/>
  <linearGradient xlink:href="#lg1" id="SVGID_11_" x1="274.346" x2="143.846" y1="290.398" y2="-47.602" gradientUnits="userSpaceOnUse"/>
  <linearGradient xlink:href="#lg2" id="SVGID_12_" x1="161.765" x2="161.765" y1="162" y2="251.09" gradientUnits="userSpaceOnUse"/>
  <g>
    <g>
      <path fill="url(#SVGID_1_)" d="m483.227 413.244h-456.454c-14.786 0-26.773-11.987-26.773-26.773v-262.941c0-14.786 11.987-26.773 26.773-26.773h456.455c14.786 0 26.773 11.987 26.773 26.773v262.941c-.001 14.786-11.988 26.773-26.774 26.773z"/>
      <path fill="url(#SVGID_2_)" d="m.001 386.471v-17.286c0-10.444 4.149-20.46 11.534-27.845l221.482-221.482c12.141-12.141 31.825-12.141 43.966 0l221.482 221.482c7.385 7.385 11.534 17.401 11.534 27.845v17.286c0 14.786-11.987 26.773-26.773 26.773h-456.452c-14.786 0-26.773-11.987-26.773-26.773z"/>
      <path fill="url(#SVGID_3_)" d="m509.999 386.471v-17.286c0-10.444-4.149-20.46-11.534-27.845l-243.465-243.465-243.465 243.464c-7.385 7.385-11.534 17.401-11.534 27.845v17.286c0 14.786 11.987 26.773 26.773 26.773h456.452c14.786.001 26.773-11.986 26.773-26.772z"/>
      <path fill="url(#SVGID_4_)" d="m.001 123.53v17.286c0 10.444 4.149 20.46 11.534 27.845l221.482 221.482c12.141 12.141 31.825 12.141 43.966 0l221.482-221.482c7.385-7.385 11.534-17.401 11.534-27.845v-17.286c0-14.786-11.987-26.773-26.773-26.773h-456.452c-14.786 0-26.773 11.987-26.773 26.773z"/>
      <path fill="url(#SVGID_5_)" d="m0 322.224v64.247c0 14.786 11.986 26.773 26.773 26.773h456.455c14.786 0 26.773-11.987 26.773-26.773v-64.247z"/>
      <path fill="url(#SVGID_6_)" d="m483.227 96.756h-228.227v316.487h228.227c14.786 0 26.773-11.987 26.773-26.773v-262.94c0-14.786-11.987-26.774-26.773-26.774z"/>
      <path fill="url(#SVGID_7_)" d="m255 97.875-157.126 157.126 135.143 135.143c12.141 12.141 31.825 12.141 43.966 0l135.143-135.143z"/>
      <path fill="url(#SVGID_8_)" d="m255 97.875 157.126 157.126-135.143 135.143c-12.141 12.141-31.825 12.141-43.966 0l-135.143-135.143z"/>
    </g>
    <path fill="url(#SVGID_9_)" d="m510 386.471v-120.104l-82.493-83.028c-4.451-4.451-11.528-4.911-16.491-1.038-21.399 16.695-48.755 22.186-74.078 16.486l-22.691-22.087c-1.937-3.666-5.842-6.274-10.608-6.011l-26.59 1.467c-8.086.446-13.084 9.011-9.495 16.27l11.802 23.872c1.139 2.304 2.889 3.958 4.9 4.998l195.948 195.949h3.023c14.786-.001 26.773-11.988 26.773-26.774z"/>
    <path fill="url(#SVGID_10_)" d="m426.507 182.338c-4.451-4.451-11.528-4.911-16.491-1.038-28.434 22.184-67.389 24.594-98.113 7.238l1.104-1.892c4.531-7.765-1.392-17.452-10.369-16.957l-26.59 1.467c-8.086.446-13.084 9.011-9.495 16.27l11.802 23.872c3.984 8.059 15.333 8.451 19.864.687l1.081-1.853c39.391 22.411 89.424 19.41 125.958-9.014 5.971-4.645 6.598-13.431 1.249-18.78z"/>
    <path fill="url(#SVGID_11_)" d="m478.703 413.201-234.717-234.717c-1.703-3.481-5.148-6.088-9.505-6.329l-26.59-1.467c-8.977-.495-14.9 9.192-10.369 16.957l1.104 1.892c-30.724 17.356-69.679 14.946-98.113-7.238-4.963-3.872-12.04-3.413-16.491 1.038-5.348 5.348-4.722 14.135 1.248 18.779l211.126 211.126h180.832c.495.002.987-.014 1.475-.041z"/>
    <path fill="url(#SVGID_12_)" d="m83.022 182.338c4.451-4.451 11.528-4.911 16.491-1.038 28.434 22.184 67.389 24.594 98.113 7.238l-1.104-1.892c-4.531-7.765 1.392-17.452 10.369-16.957l26.59 1.467c8.086.446 13.084 9.011 9.495 16.27l-11.802 23.872c-3.984 8.059-15.333 8.451-19.864.687l-1.081-1.853c-39.391 22.411-89.424 19.41-125.958-9.014-5.971-4.645-6.598-13.431-1.249-18.78z"/>
  </g>
</svg>
