<svg xmlns="http://www.w3.org/2000/svg" xmlns:xlink="http://www.w3.org/1999/xlink" id="Capa_1" width="512" height="512" enable-background="new 0 0 510 510" viewBox="0 0 510 510">
  <linearGradient id="SVGID_1_" x1="131.957" x2="407.798" y1="132.448" y2="408.288" gradientUnits="userSpaceOnUse">
    <stop offset="0" stop-color="#febbbf"/>
    <stop offset="1" stop-color="#d9b1ee"/>
  </linearGradient>
  <linearGradient id="lg1">
    <stop offset="0" stop-color="#af66da" stop-opacity="0"/>
    <stop offset="1" stop-color="#9857bd"/>
  </linearGradient>
  <linearGradient xlink:href="#lg1" id="SVGID_2_" x1="249.069" x2="276.402" y1="255.145" y2="254.478" gradientUnits="userSpaceOnUse"/>
  <linearGradient xlink:href="#lg1" id="SVGID_3_" x1="249.069" x2="276.402" y1="255.145" y2="254.478" gradientTransform="matrix(-1 0 0 1 510 0)" gradientUnits="userSpaceOnUse"/>
  <linearGradient xlink:href="#lg1" id="SVGID_4_" x1="334.966" x2="401.633" y1="405.146" y2="473.813" gradientUnits="userSpaceOnUse"/>
  <linearGradient xlink:href="#lg1" id="SVGID_5_" x1="494.656" x2="561.323" y1="405.146" y2="473.813" gradientTransform="matrix(-1 0 0 1 669.69 0)" gradientUnits="userSpaceOnUse"/>
  <linearGradient id="lg2">
    <stop offset="0" stop-color="#af66da" stop-opacity="0"/>
    <stop offset=".711" stop-color="#9f5cc7" stop-opacity=".711"/>
    <stop offset="1" stop-color="#9857bd"/>
  </linearGradient>
  <linearGradient xlink:href="#lg2" id="SVGID_6_" x1="254.784" x2="260.869" y1="346.634" y2="309.253" gradientUnits="userSpaceOnUse"/>
  <linearGradient xlink:href="#lg2" id="SVGID_7_" x1="254.905" x2="247.289" y1="344.619" y2="306.542" gradientUnits="userSpaceOnUse"/>
  <linearGradient id="lg3">
    <stop offset="0" stop-color="#d9b1ee"/>
    <stop offset=".528" stop-color="#af66da"/>
    <stop offset="1" stop-color="#6f3f8a"/>
  </linearGradient>
  <linearGradient xlink:href="#lg3" id="SVGID_8_" x1="168.462" x2="446.805" y1="72.205" y2="350.548" gradientUnits="userSpaceOnUse"/>
  <linearGradient id="lg4">
    <stop offset="0" stop-color="#6f3f8a" stop-opacity="0"/>
    <stop offset="1" stop-color="#5b3374"/>
  </linearGradient>
  <linearGradient xlink:href="#lg4" id="SVGID_9_" x1="300.594" x2="229.927" y1="170.045" y2="184.045" gradientUnits="userSpaceOnUse"/>
  <linearGradient xlink:href="#lg3" id="SVGID_10_" x1="154.354" x2="335.714" y1="153.235" y2="334.595" gradientUnits="userSpaceOnUse"/>
  <linearGradient xlink:href="#lg4" id="SVGID_11_" x1="377.917" x2="326.417" y1="313.622" y2="237.622" gradientUnits="userSpaceOnUse"/>
  <linearGradient id="SVGID_12_" x1="280.34" x2="435.007" y1="121.371" y2="210.704" gradientUnits="userSpaceOnUse">
    <stop offset="0" stop-color="#fef056"/>
    <stop offset=".521" stop-color="#f4d902"/>
    <stop offset="1" stop-color="#fe9738"/>
  </linearGradient>
  <g>
    <path fill="url(#SVGID_1_)" d="m243.659 7.36-146.192 327.824c-4.185 9.384-2.168 20.376 5.075 27.664l141.901 142.761c5.82 5.855 15.293 5.855 21.112 0l141.901-142.761c7.244-7.288 9.26-18.28 5.075-27.664l-146.19-327.824c-4.376-9.813-18.306-9.813-22.682 0z"/>
    <path fill="url(#SVGID_2_)" d="m254.503 7.36-6.408 327.824c-.183 9.384-.095 20.376.222 27.664l6.22 142.761c.255 5.855.67 5.855.925 0l6.22-142.761c.318-7.288.406-18.28.223-27.664l-6.408-327.824c-.192-9.813-.802-9.813-.994 0z"/>
    <path fill="url(#SVGID_3_)" d="m255.497 7.36 6.408 327.824c.183 9.384.095 20.376-.223 27.664l-6.22 142.761c-.255 5.855-.67 5.855-.925 0l-6.22-142.761c-.318-7.288-.406-18.28-.222-27.664l6.408-327.824c.192-9.813.802-9.813.994 0z"/>
    <g>
      <path fill="url(#SVGID_4_)" d="m265.556 505.609 141.901-142.761c7.244-7.288 9.26-18.28 5.076-27.664l-30.817-69.105-116.16 116.863c-2.91 2.927-6.733 4.391-10.556 4.391v122.667c3.823 0 7.646-1.464 10.556-4.391z"/>
      <path fill="url(#SVGID_5_)" d="m244.444 505.609-141.901-142.761c-7.244-7.288-9.26-18.28-5.076-27.664l30.817-69.105 116.159 116.864c2.91 2.927 6.733 4.391 10.556 4.391v122.666c-3.822 0-7.645-1.464-10.555-4.391z"/>
    </g>
    <path fill="url(#SVGID_6_)" d="m97.467 335.184c-4.185 9.384-2.168 20.376 5.075 27.664l15.724 15.819h273.467l15.724-15.819c7.244-7.288 9.26-18.28 5.076-27.664l-37.096-83.184h-240.874z"/>
    <path fill="url(#SVGID_7_)" d="m407.46 362.85-15.73 15.82h-265.81l-30.43-30.43c-.52-4.36.11-8.87 1.98-13.06l37.09-83.18h240.88l37.09 83.18c4.19 9.39 2.17 20.38-5.07 27.67z"/>
    <path fill="url(#SVGID_8_)" d="m412.53 335.18-146.19-327.82c-2.19-4.905-6.765-7.358-11.34-7.358v322.664l159.51 25.573c.52-4.359-.11-8.869-1.98-13.059z"/>
    <path fill="url(#SVGID_9_)" d="m354 203.931-87.66-196.571c-2.19-4.905-6.765-7.358-11.34-7.358v322.664l99 15.872z"/>
    <path fill="url(#SVGID_10_)" d="m97.465 335.18 146.19-327.82c2.19-4.905 6.765-7.358 11.34-7.358l13.458 316.331c.121 2.847-1.916 5.33-4.732 5.768l-168.235 26.139c-.521-4.36.109-8.87 1.979-13.06z"/>
    <path fill="url(#SVGID_11_)" d="m412.533 335.184-56.575-126.865c-8.371 6.628-17.955 11.79-28.371 15.067-.202-.171-4.388-4.516-5.265-5.158-4.039-5.426-12.469-6.326-17.443-.77l-17.765 19.839c-4.576 5.11-3.45 12.758 1.659 16.56l113.851 113.853 4.833-4.862c7.244-7.288 9.26-18.28 5.076-27.664z"/>
    <path fill="url(#SVGID_12_)" d="m414.685 137.815c0-62.666-50.982-113.648-113.648-113.648-6.903 0-12.5 5.597-12.5 12.5s5.597 12.5 12.5 12.5c48.881 0 88.648 39.768 88.648 88.648 0 40.668-27.529 75.023-64.928 85.421l-.557-2.119c-2.286-8.695-13.325-11.356-19.322-4.659l-17.765 19.839c-5.402 6.033-2.88 15.624 4.791 18.219l25.226 8.535c8.516 2.881 16.818-4.866 14.532-13.561l-.546-2.075c48.114-13.219 83.569-57.344 83.569-109.6z"/>
  </g>
</svg>
